<svg width="37" height="30" viewBox="0 0 37 30" fill="none" xmlns="http://www.w3.org/2000/svg">
<path d="M1 23.5248V22.7589L1.41966 21.9645L2.06315 22.3901L2.45484 22.7589L3.65787 23.5248L4.27338 23.8653H5.2526L5.58833 23.5532L6.00799 22.7589L6.98721 22.3901H7.88249L9.36531 23.1844H9.75699L10.2606 23.5816H11.3517V22.7589C11.3797 22.7872 11.3517 22.8156 11.3517 22.1064C11.6203 20.6766 12.0139 20.7731 11.7434 20.6879V20.0638V19.6099V18.1064L12.1351 17.7376V16.6879V15.6383L12.0512 14.5603L11.7434 13.6809V12.9716L10.6243 11.8653V9.87943L10.988 9.08511L11.4077 8.74468L12.4988 8.34752L13.6739 7.15603L14.8489 6.39007L15.968 5.99291L17.0871 4.0922L18.2902 2.87234L19.4093 2.02128L21.3397 1H24.809L25.6483 1.31206L27.215 1.70922L29.4812 2.44681L32.9225 3.60993L33.9576 4.03546L35.3006 5.68085L36 6.02128V8.31915L35.5524 9.96454L33.7338 11.8653V12.234L34.0416 12.3475V12.9716L33.6219 13.0284L33.7338 14.9291L32.251 16.3759V17.766L30.2646 20.6596L29.8169 21.227L29.3973 22.5036L27.8305 23.6383L27.4948 24.2057L26.8233 25.1135L26.0959 25.5106H25.1447H24.1655L23.9976 26.305L23.3541 26.7021L23.1583 28.2057L22.8505 28.6312H22.1511V28.2057H21.7874V28.6312H20.3605L19.5212 27.922H18.6819V28.2057L15.1567 28.6312L14.793 27.0142H14.4852H11.7434L11.2958 26.305H10.3725L10.2326 26.5603H9.36531L9.02958 26.6454L8.66587 26.7021L8.30216 27.4681L7.91047 27.3546H7.51878L6.79137 27.0142L5.61631 25.8511L2.90248 25.1135L2.51079 25.0284L1.36371 24.6596V24.3475L1.7554 24.3192L1.36371 23.8936L1 23.5248Z" fill="#BDB2BB" stroke="black"/>
<path d="M26.4043 29.0001V28.2908L26.8799 27.3263H27.1877L27.5794 27.9504V28.2908L27.1877 28.6313L26.4043 29.0001Z" fill="#BDB2BB" stroke="black"/>
</svg>
