<svg width="265" height="157" viewBox="0 0 265 157" fill="none" xmlns="http://www.w3.org/2000/svg">
<path d="M1.09495 97.4107L2.2343 95.2195L5.36752 92.6473H8.31084L10.9693 90.3609L12.2036 91.123H13.0581L15.147 90.1703H16.2863L17.3307 90.7419H19.1347L19.7993 91.123L20.274 90.7419L21.9831 90.3609L22.3629 89.9798L23.2174 89.7893L25.1163 90.7419H26.3506L28.2495 89.3129L29.104 89.0271H30.0535L32.0473 90.3609L33.1867 90.7419L36.225 91.123L37.5542 91.4088L42.5863 87.0265H43.3459L47.1438 91.4088L48.0932 92.8378L50.182 94.8384L51.4163 95.1242H52.0809L52.6506 94.6479H53.9799L55.1192 95.8864L55.499 96.9343V100.364L56.0687 100.745V101.888H57.8727L59.012 103.508H59.5817L61.5755 101.888L62.9048 101.412H65.3734L67.0824 104.651H68.2218L69.1712 105.223L70.1207 106.366L70.7853 107.795L71.4499 108.843L72.3044 111.129L73.9185 113.035L76.8619 114.082L79.7102 116.559L80.3749 118.56L79.7102 120.656L78.9507 121.894L77.7164 122.371L76.2922 123.704L74.4882 126.086H72.3044L71.4499 127.134L69.551 126.467H68.2218L65.9431 127.801L65.3734 130.087L61.1008 127.134L57.3979 127.325L55.1192 127.134L53.9799 126.086H52.0809L50.182 124.276L47.1438 121.894V119.989L44.5802 117.131V115.988L43.6308 115.035H42.4914V114.082L39.8329 113.035H37.5542L33.1867 110.558V107.795L29.4838 106.366H26.3506L23.5022 105.794L21.9831 105.223L20.6538 106.652V107.795L17.9004 106.366L15.9065 105.223H9.64009L6.50687 103.794L4.60795 102.365L3.75343 100.173L1.56968 98.3633L1 98.2681L1.09495 97.4107Z" fill="#BDB2BB"/>
<path d="M118.733 141.901L121.581 142.853H124.525L127.848 139.995L129.462 139.424V136.47H127.848L126.709 135.613L124.525 136.47V138.28L119.493 140.757L118.733 141.901Z" fill="#BDB2BB"/>
<path d="M112.846 144.092L113.511 143.711V143.139L112.087 143.234L111.517 143.711V144.092H112.846Z" fill="#BDB2BB"/>
<path d="M21.4134 59.399L20.369 57.4936V55.6836L21.4134 55.0167L22.6477 53.0161L23.1224 52.1587H24.3567L25.686 53.0161H26.3506V54.4451L27.1101 55.0167V56.4457L25.686 55.0167H24.3567L23.882 56.4457H22.6477V58.351L21.4134 59.399Z" fill="#BDB2BB"/>
<path d="M20.7488 61.3996L21.8881 62.3523V60.828H20.9387L20.7488 61.3996Z" fill="#BDB2BB"/>
<path d="M31.0979 61.9712L30.3383 63.3049V63.8765L32.1423 64.0671L32.712 64.4481H33.4715V63.3049L32.9019 62.7333L32.4271 61.9712H31.0979Z" fill="#BDB2BB"/>
<path d="M34.5159 59.8753L36.13 59.0179L36.8896 58.6368V57.8747H35.6553L34.6109 58.2558L34.1362 59.3037V59.8753H34.5159Z" fill="#BDB2BB"/>
<path d="M38.1239 56.2552L37.934 55.493L38.7885 54.5403L40.0228 54.1593L40.7824 53.1113L41.2571 51.5871H42.4914L43.0611 50.8249L44.5802 50.4438H45.0549L45.5297 50.8249L46.0993 50.4438L46.8589 50.0628V48.729L47.3336 47.9669H47.6185L49.0427 48.729L49.5174 49.5864V50.0628H50.7517L51.4163 49.1101V47.1095H52.7456L53.3152 46.1568L54.2647 44.442L56.8282 43.2035H60.4362L60.721 43.5846H62.1452L62.3351 43.2035L63.3795 42.5367L63.6644 41.7745H64.5189V42.9177L65.1835 43.5846H66.9875L67.5571 42.9177H68.3167L69.3611 43.9657H71.0701L71.5449 42.5367H72.3994L73.2539 43.2035L74.3933 44.9183L75.5326 45.2994L76.9568 45.871H80.7546L82.3687 46.4426L82.9384 47.2048H83.4131L83.698 46.8237H85.2171L86.4514 47.2048L89.4897 49.3959H90.9139L92.5279 49.777L96.2308 50.6344L97.9399 51.7776H99.8388L100.598 52.5397L102.592 55.7788L104.681 56.1599L105.441 56.6362L106.105 56.4457L107.055 55.7788H107.624L108.574 56.8268V58.4463H109.428L111.137 56.8268L113.891 55.7788H114.84L114.271 54.7309V52.5397H114.84V53.3971H115.98V54.7309H116.834L117.309 53.8735L118.828 53.0161H119.872L121.297 53.3971L122.246 53.8735L123.575 53.0161H124.81H127.278L128.133 52.1587L129.652 51.3013H130.411V54.064H130.886L133.355 54.6356L136.013 54.9214L136.868 55.3977L138.577 57.3984L140.476 58.6368L142.09 59.0179L143.324 59.2084L144.653 58.2558L146.172 57.7794H150.35L151.11 57.3984L152.439 55.2072V53.6829L151.11 52.635V52.1587L151.584 51.7776H153.578L154.718 50.158L155.952 48.9196L157.091 48.0622H157.661L159.18 48.2527L160.699 47.3953L162.978 47.1095L163.642 45.7757L164.972 44.442L165.636 44.1562H166.871H167.535L168.485 43.2988L168.865 41.9651L169.244 40.8218L169.719 40.3455L170.574 40.0597L171.333 40.8218L171.713 42.4414L172.472 43.2988L172.852 43.7751V44.442L171.903 45.2994L171.333 45.7757H170.953L170.004 44.8231H168.865L167.725 46.3474L167.25 47.3953V48.5385L167.535 49.5864L166.871 50.158L165.921 49.777L164.687 48.9196H163.263V51.7776L165.162 54.1593L165.636 54.4451V55.8741L164.972 56.4457L163.548 56.922H160.984L160.509 57.5889L157.851 57.8747L157.376 58.351L156.237 58.6368L155.097 59.0179L154.053 59.5895L152.629 61.2091L151.869 61.5901L150.54 61.8759L147.597 62.8286L146.172 63.1144L145.413 62.8286L143.894 62.6381H142.659V63.1144H141.71L141.33 62.6381H138.577L137.722 62.257H134.969L134.019 62.6381L133.355 63.1144L132.88 63.9718L131.266 65.115L129.652 65.9724L127.943 66.3535L124.81 66.6393L122.246 68.3541L121.486 68.7352L120.632 68.8304L119.208 68.3541L117.879 67.4967H115.505L114.081 66.6393L113.606 66.3535L112.846 65.4961L111.992 65.115H111.137L110.568 65.4961H109.428L109.143 65.115H108.384L107.814 64.734H104.111L102.877 66.0677V69.4021L101.928 69.8784H100.314L99.8388 69.6879L99.0792 69.4021L95.7561 69.2115H94.0471L91.4835 70.3547L88.5402 71.6885H87.8756L86.3565 70.9263H85.5969L83.8879 69.8784L82.1788 67.592L81.2294 66.0677H79.5203L78.1911 66.4488L78.0012 67.8778H77.6214H75.6276L74.3933 67.3062L73.2539 67.1156L71.9247 66.0677L70.7853 64.734H68.7914H67.5571H63.8543L63.0947 65.2103H62.62L61.7654 64.734L59.8665 66.0677L59.2019 66.4488H57.8727L55.8788 66.0677L54.0748 65.0198L53.4102 63.7813L51.5113 63.1144L50.7517 64.1623L48.0932 65.0198L45.3398 66.0677H43.251L42.5863 66.4488H42.1116L41.0672 65.0198L39.0733 64.734L38.1239 63.7813V56.2552Z" fill="#BDB2BB"/>
<path d="M173.232 46.919L174.087 45.2994L174.846 44.442L176.08 43.6799L176.84 43.2988L178.074 42.4414L178.549 42.0603H183.676L185.29 42.4414L185.385 43.2035L184.91 43.6799V46.3474L184.531 46.919V47.3H182.062V46.919H179.309V47.3H177.315V47.6811H174.371H173.232V46.919Z" fill="#BDB2BB"/>
<path d="M168.865 56.922L170.004 55.3977L170.384 54.6356L170.858 54.1593L171.238 53.0161L171.618 52.5397L171.998 52.1587L172.757 51.3965L172.852 50.9202L172.472 50.5391H171.618L171.238 50.9202L170.763 52.1587L170.004 52.9208L169.244 53.3971L168.39 53.7782L168.01 54.2545L167.82 54.6356V54.9214L167.915 55.0167V55.7788L167.725 55.8741V56.0646L167.915 56.2552L168.01 56.6362L168.39 57.0173H168.865V56.922Z" fill="#BDB2BB"/>
<path d="M173.992 51.206L174.466 51.4918L174.846 51.6823L175.226 51.8729L175.701 51.4918L175.985 51.3965L176.46 50.9202H176.84H177.315L177.505 50.5391H178.264V50.158H177.315H176.84H176.175L175.701 50.2533L175.321 50.158H174.751L174.466 50.2533L173.992 50.5391L173.707 50.6344V51.0155L173.992 51.206Z" fill="#BDB2BB"/>
<path d="M168.865 38.5354L169.244 38.9165H170.953V37.1064L169.244 36.0585L167.535 35.2011L167.25 34.7247H166.871L165.921 35.6774L164.687 36.0585L163.832 36.4395L163.642 36.8206V37.1064H164.402V37.8686L163.927 37.9638L162.978 38.9165L162.693 40.0597V40.3455H163.642L163.927 39.7739L164.687 39.2023L165.636 38.9165L165.921 38.5354H168.865Z" fill="#BDB2BB"/>
<path d="M182.632 53.3971L184.531 51.6823L185.765 50.6344L187.284 48.5385L189.088 47.6811L191.272 47.3953L192.126 46.3474H192.886L193.361 46.919L194.88 47.3953H196.304L197.063 46.919L197.823 45.7757L198.488 44.8231L199.627 43.7751L199.912 42.9177L201.811 42.4414L202.95 41.6792V40.9171L204.944 39.0118H206.083L208.077 40.9171L209.122 41.2029V40.9171H210.071L210.546 41.2029V41.6792L209.501 42.0603L208.077 42.4414H207.697L205.514 42.0603L205.134 42.7272L202.95 44.8231L202.665 46.3474L201.431 48.2527L200.956 48.5385L200.387 48.2527H198.488L195.734 50.5391L195.449 50.9202V51.6823L196.589 53.1113V53.9687L195.734 54.7309L194.69 54.8261L194.215 53.1113H193.645H192.506L191.272 53.9687L190.037 55.493H188.423L187.284 53.9687L186.43 53.3971H185.385L184.531 53.9687H183.296L182.632 53.3971Z" fill="#BDB2BB"/>
<path d="M193.361 45.2994L194.69 43.7751V42.9177L194.88 42.4414V42.0603H193.361L192.506 42.9177L192.126 43.2035L191.272 43.3941V43.6799L191.841 44.1562L192.506 44.8231L192.886 45.2994H193.361Z" fill="#BDB2BB"/>
<path d="M212.825 48.5385V47.3L213.869 46.3474L214.439 45.7757L216.622 44.5373H217.762V46.919L218.236 47.7764H220.04V46.6332L220.99 45.2994L222.414 43.5846L224.123 41.6792L226.022 39.0118L227.731 39.2023V41.2029L226.782 42.0603L227.066 44.8231L224.788 46.3474L223.079 48.729L222.889 51.3965H221.939L221.56 52.4445L220.04 53.8735L217.572 53.9687V53.0161V51.3965L216.622 49.9675L215.768 48.5385H214.059L213.204 49.3006H212.825V48.5385Z" fill="#BDB2BB"/>
<path d="M232.193 42.0603L233.238 41.6792L234.187 41.2029L234.757 40.6313L235.896 40.4408L236.846 40.0597H238.65L239.03 40.4408V40.8218L236.846 42.4414L235.896 42.7272H234.567L233.238 44.0609L232.193 44.5373L231.529 45.2994L229.63 47.7764L229.25 48.2527V49.2054L229.915 49.6817H231.719L232.193 49.4912L232.763 49.9675H233.238L233.808 49.6817L234.757 48.729L235.612 48.5385H236.466L236.846 48.9196L237.985 49.6817H238.27L238.65 49.4912L239.504 49.2054L240.739 48.5385L242.163 47.7764H244.631L245.201 47.9669H248.714L249.569 47.5858L250.423 47.3953L251.468 46.919L253.177 46.5379L254.411 46.0615H256.405H257.449L259.063 45.871H260.203H260.772L262.102 45.2041V44.0609H261.627V43.4893L262.102 43.1083L262.386 42.4414V41.584L262.102 40.8218L261.627 40.4408L261.247 39.8692L260.772 38.8212H259.443L259.063 38.3449H258.399L257.734 38.8212H256.595L255.645 38.3449H254.791L254.126 39.107H248.999L247.955 38.5354L245.961 38.3449L245.201 38.8212H243.397L242.353 39.107L241.118 40.0597L240.359 40.4408H239.884L239.504 39.8692L239.314 38.3449L239.03 37.2017H236.466L235.422 37.5828L235.137 37.2017H234.757L232.193 40.4408L231.719 40.8218L232.193 42.0603Z" fill="#BDB2BB"/>
<path d="M1.09495 97.4107L2.2343 95.2195L5.36752 92.6473H8.31084L10.9693 90.3609L12.2036 91.123H13.0581L15.147 90.1703H16.2863L17.3307 90.7419H19.1347L19.7993 91.123L20.274 90.7419L21.9831 90.3609L22.3629 89.9798L23.2174 89.7893L25.1163 90.7419H26.3506L28.2495 89.3129L29.104 89.0271H30.0535L32.0473 90.3609L33.1867 90.7419L36.225 91.123L37.5542 91.4088L42.5863 87.0265H43.3459L47.1438 91.4088L48.0932 92.8378L50.182 94.8384L51.4163 95.1242H52.0809L52.6506 94.6479H53.9799L55.1192 95.8864L55.499 96.9343V100.364L56.0687 100.745V101.888H57.8727L59.012 103.508H59.5817L61.5755 101.888L62.9048 101.412H65.3734L67.0824 104.651H68.2218L69.1712 105.223L70.1207 106.366L70.7853 107.795L71.4499 108.843L72.3044 111.129L73.9185 113.035L76.8619 114.082L79.7102 116.559L80.3749 118.56L79.7102 120.656L78.9507 121.894L77.7164 122.371L76.2922 123.704L74.4882 126.086H72.3044L71.4499 127.134L69.551 126.467H68.2218L65.9431 127.801L65.3734 130.087L61.1008 127.134L57.3979 127.325L55.1192 127.134L53.9799 126.086H52.0809L50.182 124.276L47.1438 121.894V119.989L44.5802 117.131V115.988L43.6308 115.035H42.4914V114.082L39.8329 113.035H37.5542L33.1867 110.558V107.795L29.4838 106.366H26.3506L23.5022 105.794L21.9831 105.223L20.6538 106.652V107.795L17.9004 106.366L15.9065 105.223H9.64009L6.50687 103.794L4.60795 102.365L3.75343 100.173L1.56968 98.3633L1 98.2681L1.09495 97.4107Z" stroke="black"/>
<path d="M118.733 141.901L121.581 142.853H124.525L127.848 139.995L129.462 139.424V136.47H127.848L126.709 135.613L124.525 136.47V138.28L119.493 140.757L118.733 141.901Z" stroke="black"/>
<path d="M112.846 144.092L113.511 143.711V143.139L112.087 143.234L111.517 143.711V144.092H112.846Z" stroke="black"/>
<path d="M21.4134 59.399L20.369 57.4936V55.6836L21.4134 55.0167L22.6477 53.0161L23.1224 52.1587H24.3567L25.686 53.0161H26.3506V54.4451L27.1101 55.0167V56.4457L25.686 55.0167H24.3567L23.882 56.4457H22.6477V58.351L21.4134 59.399Z" stroke="black"/>
<path d="M20.7488 61.3996L21.8881 62.3523V60.828H20.9387L20.7488 61.3996Z" stroke="black"/>
<path d="M31.0979 61.9712L30.3383 63.3049V63.8765L32.1423 64.0671L32.712 64.4481H33.4715V63.3049L32.9019 62.7333L32.4271 61.9712H31.0979Z" stroke="black"/>
<path d="M34.5159 59.8753L36.13 59.0179L36.8896 58.6368V57.8747H35.6553L34.6109 58.2558L34.1362 59.3037V59.8753H34.5159Z" stroke="black"/>
<path d="M38.1239 56.2552L37.934 55.493L38.7885 54.5403L40.0228 54.1593L40.7824 53.1113L41.2571 51.5871H42.4914L43.0611 50.8249L44.5802 50.4438H45.0549L45.5297 50.8249L46.0993 50.4438L46.8589 50.0628V48.729L47.3336 47.9669H47.6185L49.0427 48.729L49.5174 49.5864V50.0628H50.7517L51.4163 49.1101V47.1095H52.7456L53.3152 46.1568L54.2647 44.442L56.8282 43.2035H60.4362L60.721 43.5846H62.1452L62.3351 43.2035L63.3795 42.5367L63.6644 41.7745H64.5189V42.9177L65.1835 43.5846H66.9875L67.5571 42.9177H68.3167L69.3611 43.9657H71.0701L71.5449 42.5367H72.3994L73.2539 43.2035L74.3933 44.9183L75.5326 45.2994L76.9568 45.871H80.7546L82.3687 46.4426L82.9384 47.2048H83.4131L83.698 46.8237H85.2171L86.4514 47.2048L89.4897 49.3959H90.9139L92.5279 49.777L96.2308 50.6344L97.9399 51.7776H99.8388L100.598 52.5397L102.592 55.7788L104.681 56.1599L105.441 56.6362L106.105 56.4457L107.055 55.7788H107.624L108.574 56.8268V58.4463H109.428L111.137 56.8268L113.891 55.7788H114.84L114.271 54.7309V52.5397H114.84V53.3971H115.98V54.7309H116.834L117.309 53.8735L118.828 53.0161H119.872L121.297 53.3971L122.246 53.8735L123.575 53.0161H124.81H127.278L128.133 52.1587L129.652 51.3013H130.411V54.064H130.886L133.355 54.6356L136.013 54.9214L136.868 55.3977L138.577 57.3984L140.476 58.6368L142.09 59.0179L143.324 59.2084L144.653 58.2558L146.172 57.7794H150.35L151.11 57.3984L152.439 55.2072V53.6829L151.11 52.635V52.1587L151.584 51.7776H153.578L154.718 50.158L155.952 48.9196L157.091 48.0622H157.661L159.18 48.2527L160.699 47.3953L162.978 47.1095L163.642 45.7757L164.972 44.442L165.636 44.1562H166.871H167.535L168.485 43.2988L168.865 41.9651L169.244 40.8218L169.719 40.3455L170.574 40.0597L171.333 40.8218L171.713 42.4414L172.472 43.2988L172.852 43.7751V44.442L171.903 45.2994L171.333 45.7757H170.953L170.004 44.8231H168.865L167.725 46.3474L167.25 47.3953V48.5385L167.535 49.5864L166.871 50.158L165.921 49.777L164.687 48.9196H163.263V51.7776L165.162 54.1593L165.636 54.4451V55.8741L164.972 56.4457L163.548 56.922H160.984L160.509 57.5889L157.851 57.8747L157.376 58.351L156.237 58.6368L155.097 59.0179L154.053 59.5895L152.629 61.2091L151.869 61.5901L150.54 61.8759L147.597 62.8286L146.172 63.1144L145.413 62.8286L143.894 62.6381H142.659V63.1144H141.71L141.33 62.6381H138.577L137.722 62.257H134.969L134.019 62.6381L133.355 63.1144L132.88 63.9718L131.266 65.115L129.652 65.9724L127.943 66.3535L124.81 66.6393L122.246 68.3541L121.486 68.7352L120.632 68.8304L119.208 68.3541L117.879 67.4967H115.505L114.081 66.6393L113.606 66.3535L112.846 65.4961L111.992 65.115H111.137L110.568 65.4961H109.428L109.143 65.115H108.384L107.814 64.734H104.111L102.877 66.0677V69.4021L101.928 69.8784H100.314L99.8388 69.6879L99.0792 69.4021L95.7561 69.2115H94.0471L91.4835 70.3547L88.5402 71.6885H87.8756L86.3565 70.9263H85.5969L83.8879 69.8784L82.1788 67.592L81.2294 66.0677H79.5203L78.1911 66.4488L78.0012 67.8778H77.6214H75.6276L74.3933 67.3062L73.2539 67.1156L71.9247 66.0677L70.7853 64.734H68.7914H67.5571H63.8543L63.0947 65.2103H62.62L61.7654 64.734L59.8665 66.0677L59.2019 66.4488H57.8727L55.8788 66.0677L54.0748 65.0198L53.4102 63.7813L51.5113 63.1144L50.7517 64.1623L48.0932 65.0198L45.3398 66.0677H43.251L42.5863 66.4488H42.1116L41.0672 65.0198L39.0733 64.734L38.1239 63.7813V56.2552Z" stroke="black"/>
<path d="M173.232 46.919L174.087 45.2994L174.846 44.442L176.08 43.6799L176.84 43.2988L178.074 42.4414L178.549 42.0603H183.676L185.29 42.4414L185.385 43.2035L184.91 43.6799V46.3474L184.531 46.919V47.3H182.062V46.919H179.309V47.3H177.315V47.6811H174.371H173.232V46.919Z" stroke="black"/>
<path d="M168.865 56.922L170.004 55.3977L170.384 54.6356L170.858 54.1593L171.238 53.0161L171.618 52.5397L171.998 52.1587L172.757 51.3965L172.852 50.9202L172.472 50.5391H171.618L171.238 50.9202L170.763 52.1587L170.004 52.9208L169.244 53.3971L168.39 53.7782L168.01 54.2545L167.82 54.6356V54.9214L167.915 55.0167V55.7788L167.725 55.8741V56.0646L167.915 56.2552L168.01 56.6362L168.39 57.0173H168.865V56.922Z" stroke="black"/>
<path d="M173.992 51.206L174.466 51.4918L174.846 51.6823L175.226 51.8729L175.701 51.4918L175.985 51.3965L176.46 50.9202H176.84H177.315L177.505 50.5391H178.264V50.158H177.315H176.84H176.175L175.701 50.2533L175.321 50.158H174.751L174.466 50.2533L173.992 50.5391L173.707 50.6344V51.0155L173.992 51.206Z" stroke="black"/>
<path d="M168.865 38.5354L169.244 38.9165H170.953V37.1064L169.244 36.0585L167.535 35.2011L167.25 34.7247H166.871L165.921 35.6774L164.687 36.0585L163.832 36.4395L163.642 36.8206V37.1064H164.402V37.8686L163.927 37.9638L162.978 38.9165L162.693 40.0597V40.3455H163.642L163.927 39.7739L164.687 39.2023L165.636 38.9165L165.921 38.5354H168.865Z" stroke="black"/>
<path d="M182.632 53.3971L184.531 51.6823L185.765 50.6344L187.284 48.5385L189.088 47.6811L191.272 47.3953L192.126 46.3474H192.886L193.361 46.919L194.88 47.3953H196.304L197.063 46.919L197.823 45.7757L198.488 44.8231L199.627 43.7751L199.912 42.9177L201.811 42.4414L202.95 41.6792V40.9171L204.944 39.0118H206.083L208.077 40.9171L209.122 41.2029V40.9171H210.071L210.546 41.2029V41.6792L209.501 42.0603L208.077 42.4414H207.697L205.514 42.0603L205.134 42.7272L202.95 44.8231L202.665 46.3474L201.431 48.2527L200.956 48.5385L200.387 48.2527H198.488L195.734 50.5391L195.449 50.9202V51.6823L196.589 53.1113V53.9687L195.734 54.7309L194.69 54.8261L194.215 53.1113H193.645H192.506L191.272 53.9687L190.037 55.493H188.423L187.284 53.9687L186.43 53.3971H185.385L184.531 53.9687H183.296L182.632 53.3971Z" stroke="black"/>
<path d="M193.361 45.2994L194.69 43.7751V42.9177L194.88 42.4414V42.0603H193.361L192.506 42.9177L192.126 43.2035L191.272 43.3941V43.6799L191.841 44.1562L192.506 44.8231L192.886 45.2994H193.361Z" stroke="black"/>
<path d="M212.825 48.5385V47.3L213.869 46.3474L214.439 45.7757L216.622 44.5373H217.762V46.919L218.236 47.7764H220.04V46.6332L220.99 45.2994L222.414 43.5846L224.123 41.6792L226.022 39.0118L227.731 39.2023V41.2029L226.782 42.0603L227.066 44.8231L224.788 46.3474L223.079 48.729L222.889 51.3965H221.939L221.56 52.4445L220.04 53.8735L217.572 53.9687V53.0161V51.3965L216.622 49.9675L215.768 48.5385H214.059L213.204 49.3006H212.825V48.5385Z" stroke="black"/>
<path d="M232.193 42.0603L233.238 41.6792L234.187 41.2029L234.757 40.6313L235.896 40.4408L236.846 40.0597H238.65L239.03 40.4408V40.8218L236.846 42.4414L235.896 42.7272H234.567L233.238 44.0609L232.193 44.5373L231.529 45.2994L229.63 47.7764L229.25 48.2527V49.2054L229.915 49.6817H231.719L232.193 49.4912L232.763 49.9675H233.238L233.808 49.6817L234.757 48.729L235.612 48.5385H236.466L236.846 48.9196L237.985 49.6817H238.27L238.65 49.4912L239.504 49.2054L240.739 48.5385L242.163 47.7764H244.631L245.201 47.9669H248.714L249.569 47.5858L250.423 47.3953L251.468 46.919L253.177 46.5379L254.411 46.0615H256.405H257.449L259.063 45.871H260.203H260.772L262.102 45.2041V44.0609H261.627V43.4893L262.102 43.1083L262.386 42.4414V41.584L262.102 40.8218L261.627 40.4408L261.247 39.8692L260.772 38.8212H259.443L259.063 38.3449H258.399L257.734 38.8212H256.595L255.645 38.3449H254.791L254.126 39.107H248.999L247.955 38.5354L245.961 38.3449L245.201 38.8212H243.397L242.353 39.107L241.118 40.0597L240.359 40.4408H239.884L239.504 39.8692L239.314 38.3449L239.03 37.2017H236.466L235.422 37.5828L235.137 37.2017H234.757L232.193 40.4408L231.719 40.8218L232.193 42.0603Z" stroke="black"/>
<path d="M85.6914 1.47634L87.0207 1.76214L87.9701 2.14321H89.869V1.47634L88.7297 1.19053L87.0207 1L85.6914 1.47634Z" fill="#BDB2BB"/>
<path d="M91.9578 3.76275L91.768 4.23909L92.3376 4.90596L94.0467 4.04856L94.2365 3.28642L93.2871 2.42901H91.768L91.9578 3.28642V3.76275Z" fill="#BDB2BB"/>
<path d="M197.348 118.274L197.823 113.32H199.816L201.62 110.939V108.652L200.671 107.985L201.62 106.937V103.508V101.793L202.76 100.364L203.804 99.2206L206.463 98.0774V96.3626H207.412L208.267 95.2194H209.501L210.83 93.0283H212.159H212.824V91.5993H213.679L214.343 89.9797L216.907 89.5034L218.426 92.4567H219.755L220.325 93.0283H221.654L222.604 91.5993L223.173 90.7419H224.502L226.022 93.0283V94.2667V95.6958L226.971 96.3626L228.49 95.6958L230.009 95.2194L230.579 94.2667V92.4567L231.339 89.9797L232.573 88.9318H233.712L234.947 87.5028V85.1211V82.3583H236.845L237.795 83.2157L238.649 82.3583V83.2157H239.504V82.3583L241.403 81.2151L242.257 80.0719H243.492L244.631 78.6429V77.0234H245.391V77.4997L248.999 75.6896H251.277L252.512 73.5937H253.936V75.6896L255.17 77.0234H257.639L259.632 75.6896H260.582L261.816 74.2606H262.766L264 75.6896V77.4997V78.6429V80.0719V81.2151L262.481 80.8341L261.816 81.7867L260.582 80.8341L257.639 81.2151L255.835 82.3583V85.1211L256.689 87.5028L258.588 88.9318V89.9797L259.632 90.7419V94.2667L256.689 97.4106L255.835 98.649V101.793L254.695 100.364H253.176L251.277 99.2206L252.512 101.793L253.936 102.364L252.512 103.508L248.049 108.652L245.58 112.177L243.682 113.225H242.542V114.368L238.554 116.845H237.51L236.656 117.893L236.276 118.179V120.084L231.339 123.419H225.072L223.173 122.942H220.325L218.426 124.562L216.907 125.896L215.198 126.943V127.801H212.159L209.501 129.992L207.412 131.326L203.804 131.802H202.19H199.247H197.823L196.209 130.849H195.449L192.885 131.802L193.835 129.992V127.801V126.943H194.689V125.133L196.209 124.562L197.823 123.895H199.816L202.19 122.18L203.804 121.608L204.849 120.656L205.323 118.75L203.804 117.893L202.19 116.845H199.816L197.348 118.274Z" fill="#BDB2BB"/>
<path d="M165.161 156L165.731 154.095L164.686 151.141H166.206L166.68 151.713V150.284L167.155 149.808H168.769L169.244 149.141H171.807L174.656 148.76L177.979 145.521H179.498L181.302 143.425H185.29L186.144 142.853H187.568L188.138 143.425H189.562L190.512 144.568L189.562 146.092L188.423 146.187L186.714 145.521L186.144 146.092L184.34 147.712L182.251 148.76V149.808V150.284L181.302 151.713H180.163L177.979 151.141L176.27 152.856L174.276 153.618H171.807L169.244 155.047V155.619H167.155L165.161 156Z" fill="#BDB2BB"/>
<path d="M182.821 142.186L184.34 141.329L184.72 140.852L185.005 140.186L184.72 139.709H183.676L182.821 140.852L182.062 141.615L182.251 142.186H182.821Z" fill="#BDB2BB"/>
<path d="M186.144 141.615L186.904 141.996L187.568 141.615V140.852L186.524 141.043L186.144 140.852L185.859 141.329L186.144 141.615Z" fill="#BDB2BB"/>
<path d="M186.619 130.468L187.189 129.706L188.993 129.516L189.657 129.039V128.087L188.613 127.325V126.562H188.043L186.144 128.087L185.764 128.849V129.039L186.144 129.23V130.468H186.619Z" fill="#BDB2BB"/>
<path d="M188.993 125.61H190.512L190.797 125.896H191.176V125.61H191.461L191.936 125.133V124.562H191.461V123.037H190.797L189.657 123.419V124.562L188.993 124.848V125.61Z" fill="#BDB2BB"/>
<path d="M85.6914 1.47634L87.0207 1.76214L87.9701 2.14321H89.869V1.47634L88.7297 1.19053L87.0207 1L85.6914 1.47634Z" stroke="black"/>
<path d="M91.9578 3.76275L91.768 4.23909L92.3376 4.90596L94.0467 4.04856L94.2365 3.28642L93.2871 2.42901H91.768L91.9578 3.28642V3.76275Z" stroke="black"/>
<path d="M197.348 118.274L197.823 113.32H199.816L201.62 110.939V108.652L200.671 107.985L201.62 106.937V103.508V101.793L202.76 100.364L203.804 99.2206L206.463 98.0774V96.3626H207.412L208.267 95.2194H209.501L210.83 93.0283H212.159H212.824V91.5993H213.679L214.343 89.9797L216.907 89.5034L218.426 92.4567H219.755L220.325 93.0283H221.654L222.604 91.5993L223.173 90.7419H224.502L226.022 93.0283V94.2667V95.6958L226.971 96.3626L228.49 95.6958L230.009 95.2194L230.579 94.2667V92.4567L231.339 89.9797L232.573 88.9318H233.712L234.947 87.5028V85.1211V82.3583H236.845L237.795 83.2157L238.649 82.3583V83.2157H239.504V82.3583L241.403 81.2151L242.257 80.0719H243.492L244.631 78.6429V77.0234H245.391V77.4997L248.999 75.6896H251.277L252.512 73.5937H253.936V75.6896L255.17 77.0234H257.639L259.632 75.6896H260.582L261.816 74.2606H262.766L264 75.6896V77.4997V78.6429V80.0719V81.2151L262.481 80.8341L261.816 81.7867L260.582 80.8341L257.639 81.2151L255.835 82.3583V85.1211L256.689 87.5028L258.588 88.9318V89.9797L259.632 90.7419V94.2667L256.689 97.4106L255.835 98.649V101.793L254.695 100.364H253.176L251.277 99.2206L252.512 101.793L253.936 102.364L252.512 103.508L248.049 108.652L245.58 112.177L243.682 113.225H242.542V114.368L238.554 116.845H237.51L236.656 117.893L236.276 118.179V120.084L231.339 123.419H225.072L223.173 122.942H220.325L218.426 124.562L216.907 125.896L215.198 126.943V127.801H212.159L209.501 129.992L207.412 131.326L203.804 131.802H202.19H199.247H197.823L196.209 130.849H195.449L192.885 131.802L193.835 129.992V127.801V126.943H194.689V125.133L196.209 124.562L197.823 123.895H199.816L202.19 122.18L203.804 121.608L204.849 120.656L205.323 118.75L203.804 117.893L202.19 116.845H199.816L197.348 118.274Z" stroke="black"/>
<path d="M165.161 156L165.731 154.095L164.686 151.141H166.206L166.68 151.713V150.284L167.155 149.808H168.769L169.244 149.141H171.807L174.656 148.76L177.979 145.521H179.498L181.302 143.425H185.29L186.144 142.853H187.568L188.138 143.425H189.562L190.512 144.568L189.562 146.092L188.423 146.187L186.714 145.521L186.144 146.092L184.34 147.712L182.251 148.76V149.808V150.284L181.302 151.713H180.163L177.979 151.141L176.27 152.856L174.276 153.618H171.807L169.244 155.047V155.619H167.155L165.161 156Z" stroke="black"/>
<path d="M182.821 142.186L184.34 141.329L184.72 140.852L185.005 140.186L184.72 139.709H183.676L182.821 140.852L182.062 141.615L182.251 142.186H182.821Z" stroke="black"/>
<path d="M186.144 141.615L186.904 141.996L187.568 141.615V140.852L186.524 141.043L186.144 140.852L185.859 141.329L186.144 141.615Z" stroke="black"/>
<path d="M186.619 130.468L187.189 129.706L188.993 129.516L189.657 129.039V128.087L188.613 127.325V126.562H188.043L186.144 128.087L185.764 128.849V129.039L186.144 129.23V130.468H186.619Z" stroke="black"/>
<path d="M188.993 125.61H190.512L190.797 125.896H191.176V125.61H191.461L191.936 125.133V124.562H191.461V123.037H190.797L189.657 123.419V124.562L188.993 124.848V125.61Z" stroke="black"/>
</svg>
