<svg width="1162" height="1029" viewBox="0 0 1162 1029" fill="none" xmlns="http://www.w3.org/2000/svg">
<g id="Sumatra">
<g id="jambi">
<path d="M527 656.5V652.5H529.5H531L533 654H535.5L537.5 652.5H542H547L551.5 654L554.5 652.5L558 651.5L560 650L561 647.5L562.5 645L564.5 643L568.5 639.5L571 637L575.5 634L579 629.5V628.5L580.5 627L579 626L577.5 624H579V621.5L580.5 620L579 618.5L577.5 616V614.5L579 613V611H582.5L584.5 610L588 609L589.5 607.5L590.5 605.5L592.5 603.5L594 602L596 601.5L595 599.5L594 598L592.5 597L590.5 597.5L589 597L589.5 596L590 595L589.5 593.5L589 593L588 591.5L590 588H594L596 586L600 583L601 581H604H606.5L609 583C610.5 583.5 613.6 584.5 614 584.5C614.4 584.5 615.167 583.5 615.5 583H618L619.5 586H623L626.5 584L630 584.5L635.5 589.5L638.5 593L644 595L647.5 598L652 599H656.5L658.5 600.5L662.5 601.5L666 599L669.5 596L671 595L674 593V589.5L677.5 586L681 584L685.5 579L689 575.5L692 570.5L694 569H697.5L701 568H706.5L710.5 569L712.5 570.5H717L720.5 571.5L723 572L725 573.5L726.5 572L728 570.5H735V572L736.5 573.5H738L741 574.5L740 577.5L743.5 579L749.5 583L750 586H752H755L757 587.5V590.5L759 592V590.5H761.5L765.5 591H769L772 589.5H775.5L778.5 591H782.5L785 592L789 593L791.5 595H794L798 595.5L800 597H801.5L803 595.5L806.5 595L811.5 595.5L814 594V595.5L816.5 597V600V601.5L818.5 602L816 603L815 606.5L816 610.5L818.5 615L820 618V622L821.5 626.5L820 628.5L819 631.5L820 634V638.5L822.5 645H820H815L811.5 646.5V649.5V653L810.5 656.5H808L807 655H805H801.5C800 655.5 796.8 656.5 796 656.5C795.2 656.5 792 657.5 790.5 658L785 659.5C784 660 781.8 660.7 781 659.5C780 658 779 659.5 778.5 659.5C778.1 659.5 777.333 657.5 777 656.5L774.5 655L769 659.5L745 661L744 663.5C743.333 664.333 741.9 666 741.5 666H740L736.5 665L731.5 668.5L731 671.5L735 675L736.5 677.5H738.5L740 679V681.5L736.5 684V689L739 692L738.5 693.5L735 692.5L731.5 693.5L730 696L731 698.5L732.5 700L733 703.5L731 706.5L728.5 705L721 698.5L720 697.5L719 694L717.5 691.5L714.5 690H711.5L708.5 694L705 698.5L706 700.5L708.5 702V703.5V706.5L705 708H701.5C701.1 708 699.667 707 699 706.5L698 705H696V706.5H693.5H687C686.2 706.5 683.333 705.5 682 705L680 706.5L677 709L677.5 712.5L678.5 716L673.5 723L671.5 726.5H668.5L665 728.5L661.5 732.5L653 737C651.5 737.667 648.3 739 647.5 739C646.5 739 642 738 641 737.5C640 737 637 736 636.5 735.5C636 735 632 734 631 732.5C630 731 628 732.5 627 732.5C626.2 732.5 625.333 733.5 625 734L621.5 739L616.5 742L611 745C609.833 744.667 607.4 743.9 607 743.5C606.6 743.1 604.167 741.667 603 741L599 742.5L592.5 741L582.5 732.5L575.5 724L572.5 725H567.5L566 724L563.5 717L558.5 713L543.5 704L542.5 701L543.5 694L541.5 688.5L540.5 683.5L536.5 679.5L533 675L528.5 670.5C527.7 669.7 528.167 667.5 528.5 666.5C528 665.333 527 662.9 527 662.5V656.5Z" fill="#AA00FF"/>
<path d="M805 544V540V538.5L806.5 536.5L808.5 538.5L809.5 542.5L813 541.5L815 538.5L816 536.5L820 535.5V532.5H821.5L825.5 534L828 535.5L831.5 540L833 542.5L831.5 544L829 546.5L828 549L825.5 552L824 557L821.5 554L819 549L816.5 552L815 557V559.5H813V556L811.5 552L809.5 549C808.5 548.333 806.5 546.9 806.5 546.5C806.5 546.1 805.5 544.667 805 544Z" fill="#AA00FF"/>
<path d="M820 521V518L823 515.5L825.5 513.5L826.5 512V511V510V508.5L829 507.5L828 506.5L826.5 505L825.5 503.5H828L830 502H831.5L835.5 503.5L838 505V507.5H835.5V508.5L838 512L841.5 513.5V512H843.5L845 513.5L846 517L848 518L851.5 521H854.221L855.5 519.5L853.5 515.5H855.5L857 518L859.5 521L862 523V525.5L859.5 528.5H857L853.5 525.5L849.5 522L847 519.5L845 518L839 519.5L833 521L829 522L826.5 523V521H820Z" fill="#AA00FF"/>
<path d="M831.5 487L829 485.5L831.5 483.5L833 487L835.5 488.5V491.5H833L831.5 489.5V487Z" fill="#AA00FF"/>
<path d="M527 656.5V652.5H529.5H531L533 654H535.5L537.5 652.5H542H547L551.5 654L554.5 652.5L558 651.5L560 650L561 647.5L562.5 645L564.5 643L568.5 639.5L571 637L575.5 634L579 629.5V628.5L580.5 627L579 626L577.5 624H579V621.5L580.5 620L579 618.5L577.5 616V614.5L579 613V611H582.5L584.5 610L588 609L589.5 607.5L590.5 605.5L592.5 603.5L594 602L596 601.5L595 599.5L594 598L592.5 597L590.5 597.5L589 597L589.5 596L590 595L589.5 593.5L589 593L588 591.5L590 588H594L596 586L600 583L601 581H604H606.5L609 583C610.5 583.5 613.6 584.5 614 584.5C614.4 584.5 615.167 583.5 615.5 583H618L619.5 586H623L626.5 584L630 584.5L635.5 589.5L638.5 593L644 595L647.5 598L652 599H656.5L658.5 600.5L662.5 601.5L666 599L669.5 596L671 595L674 593V589.5L677.5 586L681 584L685.5 579L689 575.5L692 570.5L694 569H697.5L701 568H706.5L710.5 569L712.5 570.5H717L720.5 571.5L723 572L725 573.5L726.5 572L728 570.5H735V572L736.5 573.5H738L741 574.5L740 577.5L743.5 579L749.5 583L750 586H752H755L757 587.5V590.5L759 592V590.5H761.5L765.5 591H769L772 589.5H775.5L778.5 591H782.5L785 592L789 593L791.5 595H794L798 595.5L800 597H801.5L803 595.5L806.5 595L811.5 595.5L814 594V595.5L816.5 597V600V601.5L818.5 602L816 603L815 606.5L816 610.5L818.5 615L820 618V622L821.5 626.5L820 628.5L819 631.5L820 634V638.5L822.5 645H820H815L811.5 646.5V649.5V653L810.5 656.5H808L807 655H805H801.5C800 655.5 796.8 656.5 796 656.5C795.2 656.5 792 657.5 790.5 658L785 659.5C784 660 781.8 660.7 781 659.5C780 658 779 659.5 778.5 659.5C778.1 659.5 777.333 657.5 777 656.5L774.5 655L769 659.5L745 661L744 663.5C743.333 664.333 741.9 666 741.5 666H740L736.5 665L731.5 668.5L731 671.5L735 675L736.5 677.5H738.5L740 679V681.5L736.5 684V689L739 692L738.5 693.5L735 692.5L731.5 693.5L730 696L731 698.5L732.5 700L733 703.5L731 706.5L728.5 705L721 698.5L720 697.5L719 694L717.5 691.5L714.5 690H711.5L708.5 694L705 698.5L706 700.5L708.5 702V703.5V706.5L705 708H701.5C701.1 708 699.667 707 699 706.5L698 705H696V706.5H693.5H687C686.2 706.5 683.333 705.5 682 705L680 706.5L677 709L677.5 712.5L678.5 716L673.5 723L671.5 726.5H668.5L665 728.5L661.5 732.5L653 737C651.5 737.667 648.3 739 647.5 739C646.5 739 642 738 641 737.5C640 737 637 736 636.5 735.5C636 735 632 734 631 732.5C630 731 628 732.5 627 732.5C626.2 732.5 625.333 733.5 625 734L621.5 739L616.5 742L611 745C609.833 744.667 607.4 743.9 607 743.5C606.6 743.1 604.167 741.667 603 741L599 742.5L592.5 741L582.5 732.5L575.5 724L572.5 725H567.5L566 724L563.5 717L558.5 713L543.5 704L542.5 701L543.5 694L541.5 688.5L540.5 683.5L536.5 679.5L533 675L528.5 670.5C527.7 669.7 528.167 667.5 528.5 666.5C528 665.333 527 662.9 527 662.5V656.5Z" stroke="black"/>
<path d="M805 544V540V538.5L806.5 536.5L808.5 538.5L809.5 542.5L813 541.5L815 538.5L816 536.5L820 535.5V532.5H821.5L825.5 534L828 535.5L831.5 540L833 542.5L831.5 544L829 546.5L828 549L825.5 552L824 557L821.5 554L819 549L816.5 552L815 557V559.5H813V556L811.5 552L809.5 549C808.5 548.333 806.5 546.9 806.5 546.5C806.5 546.1 805.5 544.667 805 544Z" stroke="black"/>
<path d="M820 521V518L823 515.5L825.5 513.5L826.5 512V511V510V508.5L829 507.5L828 506.5L826.5 505L825.5 503.5H828L830 502H831.5L835.5 503.5L838 505V507.5H835.5V508.5L838 512L841.5 513.5V512H843.5L845 513.5L846 517L848 518L851.5 521H854.221L855.5 519.5L853.5 515.5H855.5L857 518L859.5 521L862 523V525.5L859.5 528.5H857L853.5 525.5L849.5 522L847 519.5L845 518L839 519.5L833 521L829 522L826.5 523V521H820Z" stroke="black"/>
<path d="M831.5 487L829 485.5L831.5 483.5L833 487L835.5 488.5V491.5H833L831.5 489.5V487Z" stroke="black"/>
</g>
<g id="riau">
<path d="M458.5 291.5L455.5 282H454V293.5L458.5 301.5V304.5V308.5L457 311.5L456.5 321L456 331.5L454 334L452.5 338.5L454 340L458 341L464 342L465 346.5L464 350L466 351.5L467.5 355C467.5 356.167 467.3 358.6 466.5 359C465.7 359.4 465.167 362.5 465 364V366.5V368.5C464.333 369.667 462.8 372 462 372C461.2 372 459 373 458 373.5L456 375.5C455 376 452.9 376.9 452.5 376.5C452.1 376.1 450.333 376.667 449.5 377L448 378.5H444L440.5 379H432V380.5H433.5L436 384.5L438 388V393C438 393.4 439 394.833 439.5 395.5L441.5 398.5L443 402.5L441.5 403.5C440.5 403.667 438.4 403.9 438 403.5C437.6 403.1 437.833 404 438 404.5L438.5 407.5L441.5 410V412.5L439.5 415.5V418L436 418.5V419.5H439V423.5V429.5L446 432.5L449 435.5L450.5 438.5L449 440.5L446 445.5V450V453L448 455.5L450.5 459.5L452 462.5V466V470H454L456 468.5H460L463 471.5L464.5 475.5L466.5 478.5L469.5 480L474 482L479 483H482.5H486.5H489.5H491.5L495.5 484L497 486V488L498 491L495.5 492L494 494.5V497L495.5 499V502.5V506L494 507.5C494.5 509.167 495.5 512.6 495.5 513V517L497 520.5L499 524L501.5 526.5L502.5 529.5L505 531.5V530L506.5 529L508 527.5H511H513.5L516.5 529L518.5 529.5L519.5 533V535.5V541.5L523 543L527.5 546L531.5 549.5L535.5 552L539 554.5L545.5 556.5L547 560L551.5 562.5L553.5 566.5L558.5 570L567 574.5L573 581.5L576.5 583.5L581.5 585H584.5L587.5 586C588.5 585.833 590.7 585.4 591.5 585C592.3 584.6 593.167 583.833 593.5 583.5H595.5L601.5 577.5H604L606.5 578.5H609L611 579.5V580.5L613.5 581.5L614 579.5H617.5L620 580.5L621.5 583.5L623.5 581.5H627L631.5 580.5L632.5 583.5L635 585L638 588L639.5 591H643L647.5 595L653 596L658.5 597L660 598H662V595H666L669.5 591L672 588L675 585L680 581.5L693 566.5L695 567.5L701 566.5H706H709.5L715 568.5H719.5L723.5 569.5L728.5 568.5C728.5 568.167 728.1 567 726.5 565C726.5 564.6 725.833 563.167 725.5 562.5L728.5 561L726.5 560L724.5 558L726.5 556.5L728.5 555C728.833 554.5 729.5 553.3 729.5 552.5C729.5 551.7 728.833 550.5 728.5 550L725.5 548V547L729.5 545H734L735.5 543L742 541.5L743.5 540C743 539 742.3 536.8 743.5 536C744.7 535.2 743 534.333 742 534H744.5L747.5 533.5L750.5 531H753.5H757L759 529.5L757 527.5C756.2 526.7 754.333 526.5 753.5 526.5L747.5 523L740.5 521.5L735.5 518.5L737 517L735.5 512.5L734 509.5L742 511V509.5L740.5 508.5L742 507L740.5 505.5L742 503H743.5C744 502.5 745 501.3 745 500.5C745 499.7 746.667 500.167 747.5 500.5L749.5 501.5H753.5H756L759 500.5H762V498.5L761 495.5V492.5L759 487.5V482L757 478.5L753.5 473.5L749.5 472H746L745 470L743.5 466.5L738.5 462.5C735.667 460.667 729.8 456.9 729 456.5C728.2 456.1 726.333 454.333 725.5 453.5H721C719.4 453.5 719.333 454.833 719.5 455.5L713.5 458L710.5 461.5H708.5H702.5L701 459.5L682.5 437.5L680 436.5H675.5L665 435.5L659 436.5L650 435.5L643.5 432.5L635.5 426C633.167 423.5 628.3 418.3 627.5 417.5C626.5 416.5 624.5 414.5 624 413.5C623.6 412.7 622.167 410.167 621.5 409L619 404.5V400.5L620 398.5V394C618.667 393.167 616 391.4 616 391V387.5C616 386.7 615.333 384.833 615 384L616 382V379L614 378L610 377C601.667 370.5 584.9 357.4 584.5 357C584.1 356.6 581.667 355.167 580.5 354.5H576.5H572C571.2 354.5 570.333 355.5 570 356H568.5H561.5L556.5 352.5L552 351.5L548.5 349L546 345V342L545 336L543.5 331.5L542.5 326L541 321.5L538.5 317L525.5 309.5L520 304.5V302.5L517.5 298H506.5C505.833 298.5 504.3 299.5 503.5 299.5C502.7 299.5 498.167 300.167 496 300.5L495 304.5V309.5L500 313.5L506.5 320.5V327.5H503.5L501 324.5L498.5 320.5L486 313.5L478 311C474.667 308.833 467.8 304.3 467 303.5C466.2 302.7 463.333 299.5 462 298L458.5 291.5Z" fill="#00FF51"/>
<path d="M552 321.5L555 319H558L559.5 320.5H562.5L564.5 319.5L566.5 317L568.5 315L572 313.5H574.5L576.5 317L579 320.5L582 324.5V329.5L579 336L576.5 342L572 346.5L568.5 350L561.5 349L556.5 346.5L553.5 342L552 336L550.5 331.5V327.5L552 321.5Z" fill="#00FF51"/>
<path d="M605.5 363V359.5H610.5L614 361L619.5 363L636 365L642 365.5L645 370V374L646.5 385L645 386L629.5 371.5H620V370H616L605.5 363Z" fill="#00FF51"/>
<path d="M624 382V377L626.5 375L628.5 377L634 382.5L639.5 386L643.5 389.5L645.5 392L644.5 394L643 398.5L641 402L639.5 404.5L640.5 407L643 409.5V412L644.5 414.5L643 415L640.5 416L639.5 418H637L634.5 416L633 414.5L630.5 412L628.5 409.5L627.5 407L626 405L624.5 404V401.5L625.5 400.5L626.5 397.5V395L624.5 393V390.5L622.5 388.5V386L624 384V382Z" fill="#00FF51"/>
<path d="M645 407.5V403.5V401.5L647.5 401L651 401.5L653 404L655 406.5V409.5L656.5 411.5L660 413.5L663 412L667.5 411L671 412L675 415L680 416.5L685 421.5L689 423.5L693 426.5L695 429L696 432.5L695 436L694.5 439L692.5 439.5L691 438.5L689.5 436L687 433L683.5 431L680 430L675.5 429.5H669.5H665.5H662L658.5 431H655.5L651.5 430.5L648.5 429C647.333 428.667 644.9 428 644.5 428C644.1 428 643 427 642.5 426.5L641 425L640 423L641 421L642.5 419.5H645L647.5 418L648 416.5V413.5L646.5 409.5L645 407.5Z" fill="#00FF51"/>
<path d="M667 407.5L664 409H663L662 407L663 404L665 401.5L667.5 399.5L672 398.5L677 399.5L682.5 402L688 403.5L691.5 407L695 410L699 414.5L703 418.5L705 421.5L706 425C705.5 425.5 704.3 426.5 703.5 426.5C702.5 426.5 700 426 699 426C698 426 696 425 695 424.5C694.2 424.1 692.333 422.667 691.5 422L688 419.5L683.5 415L680 414.5C678.667 413.833 675.8 412.3 675 411.5C674.2 410.7 672.667 409.5 672 409L667 407.5Z" fill="#00FF51"/>
<path d="M699 436.5V433L701 430V432.5V436.5H699Z" fill="#00FF51"/>
<path d="M705.5 443.5L706.5 441L707 440.5L708.5 438.5L711.5 439L714 441L716 443.5L717.5 445.5L718 448.5V451.5L716.5 453C716 453.167 714.9 453.5 714.5 453.5H710.5C710 454 708.9 454.9 708.5 454.5C708.1 454.1 707.333 455.333 707 456L705.5 455V452.5C705.5 452.1 705.167 450.333 705 449.5C705.167 448.667 705.5 446.8 705.5 446V443.5Z" fill="#00FF51"/>
<path d="M725.5 425L726 423L727.5 422.5L730.5 425L735 426.5L738 429.5L736.5 430V434.5L735 436V437.5L736.5 440.5V443.5L735 444L731.5 443.5L729 442L727 439.5C726.5 438.5 725.5 436.4 725.5 436C725.5 435.6 724.833 434.833 724.5 434.5L723 431L724.5 427.5L725.5 425Z" fill="#00FF51"/>
<path d="M723 409.5L721 406.5V403.5L724.5 402V405L727 407.5L729 409.5V411.5L725.5 411L723 409.5Z" fill="#00FF51"/>
<path d="M730.5 423L730 420.5L732 418.5L733.5 419.5L733 424.5V423H730.5Z" fill="#00FF51"/>
<path d="M736.5 424V421L738.5 420L739 423L736.5 424Z" fill="#00FF51"/>
<path d="M755 437.5V436.5L755.75 437L755 437.5Z" fill="#00FF51"/>
<path d="M758 426.5L757 424L758 422.5L760.5 424L763 426.5L765 428.5V431H763L760.5 428L758 426.5Z" fill="#00FF51"/>
<path d="M768 426.5C767.6 425.7 766.5 424.5 766 424L767.5 424.5L769 424L771 425.5L772.5 426.5C772.167 427.167 771.3 428.4 770.5 428C769.5 427.5 768.5 427.5 768 426.5Z" fill="#00FF51"/>
<path d="M770.5 415.5L768 412.5V411.5L770.5 413L774.5 412.5L777 414.5L775 417H773L770.5 415.5Z" fill="#00FF51"/>
<path d="M790.5 423C790.5 422.6 789.833 419.5 789.5 418L791 417.5L793.5 419.5L795 422.5L794.5 424C793.167 423.833 790.5 423.4 790.5 423Z" fill="#00FF51"/>
<path d="M796 429.5C795.2 429.1 795 426.667 795 425.5L797.5 424.5L799 424L801 424.5L802 426.5L800.5 428L799 429.5C798.333 429.667 796.8 429.9 796 429.5Z" fill="#00FF51"/>
<path d="M775 410L774.5 407.5H777V402.5H780L782 402L782.5 400.5L782 399H784.5V401.5H786L786.5 402H788.5L790 401.5L791 400.5V399H790.5L790 396.5L792.5 397L793.5 399L794.5 402L792.5 403V405.5H786V406.5L787.5 407.5V409.5L786.5 411.5H784.5H782L781.5 410.5L781 409.5L779.5 410L777.5 410.5L775 410Z" fill="#00FF51"/>
<path d="M799 434.5V432H803.5L804 435L804.5 437L803.5 437.5L801.5 436.5L799 434.5Z" fill="#00FF51"/>
<path d="M801.5 407V404.5L803 402.5L807.5 402C808.5 401.333 810.6 399.9 811 399.5L813 397.5L815.5 396L818.5 395.5L821.5 397L824.5 397.5L826.5 398.5L828 396.5L831.5 395.5L832 398L833.5 400.5L835.5 403L837 405.5L838.5 407.5V410L836.5 412V414.5L837 416.5L838.5 418.5C837.833 418.833 836.4 419.5 836 419.5C835.6 419.5 835.5 420.833 835.5 421.5H834.5V423V427.5H830.5L829 427L827.5 426L826.5 425L825.5 423.5L824.5 422L823.5 421.5V420.5L826.5 419.5V417.5V416L825 415L823.5 417H823L823.5 414L823 411.5H826.5L825.5 410.5L825 409L823 407L821 406.5H816L815.5 407L816 408V409.5H812L811.5 408L810.5 407L809.5 408H807.5V409.5L808.5 411.5H804.5L803.5 410.5V409L801.5 407Z" fill="#00FF51"/>
<path d="M934 246V240H941L934 246Z" fill="#00FF51"/>
<path d="M978.5 223.5V216.5L982 220.5L978.5 223.5Z" fill="#00FF51"/>
<path d="M982 207.5V205H985L982 207.5Z" fill="#00FF51"/>
<path d="M1116 236L1114.5 233.5H1118.5V235L1116 236Z" fill="#00FF51"/>
<path d="M756.5 436.5L755.75 437M755.75 437L755 437.5V436.5L755.75 437ZM455.5 282L458.5 291.5L462 298C463.333 299.5 466.2 302.7 467 303.5C467.8 304.3 474.667 308.833 478 311L486 313.5L498.5 320.5L501 324.5L503.5 327.5H506.5V320.5L500 313.5L495 309.5V304.5L496 300.5C498.167 300.167 502.7 299.5 503.5 299.5C504.3 299.5 505.833 298.5 506.5 298H517.5L520 302.5V304.5L525.5 309.5L538.5 317L541 321.5L542.5 326L543.5 331.5L545 336L546 342V345L548.5 349L552 351.5L556.5 352.5L561.5 356H568.5H570C570.333 355.5 571.2 354.5 572 354.5C573 354.5 575 354.5 576.5 354.5C577.7 354.5 579.667 354.5 580.5 354.5C581.667 355.167 584.1 356.6 584.5 357C584.9 357.4 601.667 370.5 610 377L614 378L616 379V382L615 384C615.333 384.833 616 386.7 616 387.5C616 388.5 616 390.5 616 391C616 391.4 618.667 393.167 620 394V398.5L619 400.5V404.5L621.5 409C622.167 410.167 623.6 412.7 624 413.5C624.5 414.5 626.5 416.5 627.5 417.5C628.3 418.3 633.167 423.5 635.5 426L643.5 432.5L650 435.5L659 436.5L665 435.5L675.5 436.5H680L682.5 437.5L701 459.5L702.5 461.5C704.333 461.5 708.1 461.5 708.5 461.5C708.9 461.5 710 461.5 710.5 461.5L713.5 458L719.5 455.5C719.333 454.833 719.4 453.5 721 453.5C722.6 453.5 724.667 453.5 725.5 453.5C726.333 454.333 728.2 456.1 729 456.5C729.8 456.9 735.667 460.667 738.5 462.5L743.5 466.5L745 470L746 472H749.5L753.5 473.5L757 478.5L759 482V487.5L761 492.5V495.5L762 498.5V500.5H759L756 501.5H753.5H749.5L747.5 500.5C746.667 500.167 745 499.7 745 500.5C745 501.3 744 502.5 743.5 503H742L740.5 505.5L742 507L740.5 508.5L742 509.5V511L734 509.5L735.5 512.5L737 517L735.5 518.5L740.5 521.5L747.5 523L753.5 526.5C754.333 526.5 756.2 526.7 757 527.5C757.8 528.3 758.667 529.167 759 529.5L757 531H753.5H750.5L747.5 533.5L744.5 534H742C743 534.333 744.7 535.2 743.5 536C742.3 536.8 743 539 743.5 540L742 541.5L735.5 543L734 545H729.5L725.5 547V548L728.5 550C728.833 550.5 729.5 551.7 729.5 552.5C729.5 553.3 728.833 554.5 728.5 555L726.5 556.5L724.5 558L726.5 560L728.5 561L725.5 562.5C725.833 563.167 726.5 564.6 726.5 565C728.1 567 728.5 568.167 728.5 568.5L723.5 569.5L719.5 568.5H715L709.5 566.5H706H701L695 567.5L693 566.5L680 581.5L675 585L672 588L669.5 591L666 595H662V598H660L658.5 597L653 596L647.5 595L643 591H639.5L638 588L635 585L632.5 583.5L631.5 580.5L627 581.5H623.5L621.5 583.5L620 580.5L617.5 579.5H614L613.5 581.5L611 580.5V579.5L609 578.5H606.5L604 577.5H601.5L595.5 583.5H593.5C593.167 583.833 592.3 584.6 591.5 585C590.7 585.4 588.5 585.833 587.5 586L584.5 585H581.5L576.5 583.5L573 581.5L567 574.5L558.5 570L553.5 566.5L551.5 562.5L547 560L545.5 556.5L539 554.5L535.5 552L531.5 549.5L527.5 546L523 543L519.5 541.5V535.5V533L518.5 529.5L516.5 529L513.5 527.5H511H508L506.5 529L505 530V531.5L502.5 529.5L501.5 526.5L499 524L497 520.5L495.5 517C495.5 515.833 495.5 513.4 495.5 513C495.5 512.6 494.5 509.167 494 507.5L495.5 506V502.5V499L494 497V494.5L495.5 492L498 491L497 488V486L495.5 484L491.5 483H489.5H486.5H482.5H479L474 482L469.5 480L466.5 478.5L464.5 475.5L463 471.5L460 468.5H456L454 470H452V466V462.5L450.5 459.5L448 455.5L446 453V450V445.5L449 440.5L450.5 438.5L449 435.5L446 432.5L439 429.5V423.5V419.5H436V418.5L439.5 418V415.5L441.5 412.5V410L438.5 407.5L438 404.5C437.833 404 437.6 403.1 438 403.5C438.4 403.9 440.5 403.667 441.5 403.5L443 402.5L441.5 398.5L439.5 395.5C439 394.833 438 393.4 438 393C438 392.6 438 389.5 438 388L436 384.5L433.5 380.5H432V379H440.5L444 378.5H448L449.5 377C450.333 376.667 452.1 376.1 452.5 376.5C452.9 376.9 455 376 456 375.5L458 373.5C459 373 461.2 372 462 372C462.8 372 464.333 369.667 465 368.5V366.5V364C465.167 362.5 465.7 359.4 466.5 359C467.3 358.6 467.5 356.167 467.5 355L466 351.5L464 350L465 346.5L464 342L458 341L454 340L452.5 338.5L454 334L456 331.5L456.5 321L457 311.5L458.5 308.5V304.5V301.5L454 293.5V282H455.5ZM555 319L552 321.5L550.5 327.5V331.5L552 336L553.5 342L556.5 346.5L561.5 349L568.5 350L572 346.5L576.5 342L579 336L582 329.5V324.5L579 320.5L576.5 317L574.5 313.5H572L568.5 315L566.5 317L564.5 319.5L562.5 320.5H559.5L558 319H555ZM605.5 359.5V363L616 370H620V371.5H629.5L645 386L646.5 385L645 374V370L642 365.5L636 365L619.5 363L614 361L610.5 359.5H605.5ZM624 377V382V384L622.5 386V388.5L624.5 390.5V393L626.5 395V397.5L625.5 400.5L624.5 401.5V404L626 405L627.5 407L628.5 409.5L630.5 412L633 414.5L634.5 416L637 418H639.5L640.5 416L643 415L644.5 414.5L643 412V409.5L640.5 407L639.5 404.5L641 402L643 398.5L644.5 394L645.5 392L643.5 389.5L639.5 386L634 382.5L628.5 377L626.5 375L624 377ZM645 403.5V407.5L646.5 409.5L648 413.5V416.5L647.5 418L645 419.5H642.5L641 421L640 423L641 425L642.5 426.5C643 427 644.1 428 644.5 428C644.9 428 647.333 428.667 648.5 429L651.5 430.5L655.5 431H658.5L662 429.5H665.5H669.5H675.5L680 430L683.5 431L687 433L689.5 436L691 438.5L692.5 439.5L694.5 439L695 436L696 432.5L695 429L693 426.5L689 423.5L685 421.5L680 416.5L675 415L671 412L667.5 411L663 412L660 413.5L656.5 411.5L655 409.5V406.5L653 404L651 401.5L647.5 401L645 401.5V403.5ZM664 409L667 407.5L672 409C672.667 409.5 674.2 410.7 675 411.5C675.8 412.3 678.667 413.833 680 414.5L683.5 415L688 419.5L691.5 422C692.333 422.667 694.2 424.1 695 424.5C696 425 698 426 699 426C700 426 702.5 426.5 703.5 426.5C704.3 426.5 705.5 425.5 706 425L705 421.5L703 418.5L699 414.5L695 410L691.5 407L688 403.5L682.5 402L677 399.5L672 398.5L667.5 399.5L665 401.5L663 404L662 407L663 409H664ZM699 433V436.5H701V432.5V430L699 433ZM706.5 441L705.5 443.5C705.5 444 705.5 445.2 705.5 446C705.5 446.8 705.167 448.667 705 449.5C705.167 450.333 705.5 452.1 705.5 452.5C705.5 452.9 705.5 454.333 705.5 455L707 456C707.333 455.333 708.1 454.1 708.5 454.5C708.9 454.9 710 454 710.5 453.5C711.667 453.5 714.1 453.5 714.5 453.5C714.9 453.5 716 453.167 716.5 453L718 451.5V448.5L717.5 445.5L716 443.5L714 441L711.5 439L708.5 438.5L707 440.5L706.5 441ZM726 423L725.5 425L724.5 427.5L723 431L724.5 434.5C724.833 434.833 725.5 435.6 725.5 436C725.5 436.4 726.5 438.5 727 439.5L729 442L731.5 443.5L735 444L736.5 443.5V440.5L735 437.5V436L736.5 434.5V430L738 429.5L735 426.5L730.5 425L727.5 422.5L726 423ZM721 406.5L723 409.5L725.5 411L729 411.5V409.5L727 407.5L724.5 405V402L721 403.5V406.5ZM730 420.5L730.5 423H733V424.5L733.5 419.5L732 418.5L730 420.5ZM736.5 421V424L739 423L738.5 420L736.5 421ZM757 424L758 426.5L760.5 428L763 431H765V428.5L763 426.5L760.5 424L758 422.5L757 424ZM766 424C766.5 424.5 767.6 425.7 768 426.5C768.5 427.5 769.5 427.5 770.5 428C771.3 428.4 772.167 427.167 772.5 426.5L771 425.5L769 424L767.5 424.5L766 424ZM768 412.5L770.5 415.5L773 417H775L777 414.5L774.5 412.5L770.5 413L768 411.5V412.5ZM789.5 418C789.833 419.5 790.5 422.6 790.5 423C790.5 423.4 793.167 423.833 794.5 424L795 422.5L793.5 419.5L791 417.5L789.5 418ZM795 425.5C795 426.667 795.2 429.1 796 429.5C796.8 429.9 798.333 429.667 799 429.5L800.5 428L802 426.5L801 424.5L799 424L797.5 424.5L795 425.5ZM774.5 407.5L775 410L777.5 410.5L779.5 410L781 409.5L781.5 410.5L782 411.5H784.5H786.5L787.5 409.5V407.5L786 406.5V405.5H792.5V403L794.5 402L793.5 399L792.5 397L790 396.5L790.5 399H791V400.5L790 401.5L788.5 402H786.5L786 401.5H784.5V399H782L782.5 400.5L782 402L780 402.5H777V407.5H774.5ZM799 432V434.5L801.5 436.5L803.5 437.5L804.5 437L804 435L803.5 432H799ZM801.5 404.5V407L803.5 409V410.5L804.5 411.5H808.5L807.5 409.5V408H809.5L810.5 407L811.5 408L812 409.5H816V408L815.5 407L816 406.5H821L823 407L825 409L825.5 410.5L826.5 411.5H823L823.5 414L823 417H823.5L825 415L826.5 416V417.5V419.5L823.5 420.5V421.5L824.5 422L825.5 423.5L826.5 425L827.5 426L829 427L830.5 427.5H834.5V423V421.5H835.5C835.5 420.833 835.6 419.5 836 419.5C836.4 419.5 837.833 418.833 838.5 418.5L837 416.5L836.5 414.5V412L838.5 410V407.5L837 405.5L835.5 403L833.5 400.5L832 398L831.5 395.5L828 396.5L826.5 398.5L824.5 397.5L821.5 397L818.5 395.5L815.5 396L813 397.5C812.5 398 811.4 399.1 811 399.5C810.6 399.9 808.5 401.333 807.5 402L803 402.5L801.5 404.5ZM934 240V246L941 240H934ZM978.5 216.5V223.5L982 220.5L978.5 216.5ZM982 205V207.5L985 205H982ZM1114.5 233.5L1116 236L1118.5 235V233.5H1114.5Z" stroke="black"/>
</g>
<g id="bengkulu">
<path d="M524 717.5C522.167 718.667 518.4 721.1 518 721.5L520.5 723.5L523.5 727L525 730L527.5 733L533 737L537 738.5L544 741.5L547 749.5L550 754L550.5 759.5L553.5 763L558 767L559.5 772L563 777.5L566 783.5L574 791L593.5 803L597.5 806.5L601 810L606 812.5L612 815L615 819L618.5 821L622 824.5L626.5 829.5V832.5L628.5 834.5L627.5 837L628.5 839L630.5 841L632 844L631.5 848L630.5 850L629 850.5L629.5 852L630.5 853L674 886.5L677.5 890L682 894.5L685.5 899L690 900L695 902.5L700.5 906L704 908L707.5 910.5L710.5 912.5L713.5 914.5L716 917L719.5 920.5L720.5 922.5L721.5 927L723 926.5H725.5L727.5 927.5L729 929L730.5 931L733.5 933L736.5 933.5L740 936L741 937.5H742.5H744L744.5 936L745.5 935L747 933.5L749.5 932.5L752 931.5L753 930.5H754.5L755 929V927.5V926.5H758L760 926L759.5 924.5L758 923.5H756.5L755 923L751.5 922.5L751 920.5L752.5 920C752.667 919.333 753 917.9 753 917.5V915C753 914.6 751.667 913.5 751 913L749 911H747C746.6 911 745.167 910.667 744.5 910.5V909L746 907.5L747 906L746.5 904.5L744.5 903.5L742.5 904.5L740 908H735C734.6 908 732.5 907.333 731.5 907C730.333 905.667 728 902.9 728 902.5C728 902.1 727 899.333 726.5 898L728.5 897.5L729 895.5V892.5L730.5 892L731.5 890L732 888L731.5 887L728 886.5L725 885L721.5 883C719.333 881.667 714.9 879.1 714.5 879.5C714.1 879.9 711.333 879.667 710 879.5L707.5 879V875.5L708 871.5L706.5 869L705.5 865.5L703.5 862V859.5L700.5 858.5H697.5C697.333 858.833 696.8 859.5 696 859.5H688.5C687.3 859.5 688 858.167 688.5 857.5C687.5 857.167 685.3 856.5 684.5 856.5C683.7 856.5 681.167 856.167 680 856L674.5 855.5L670.5 850L667 847L664 843.5C663.167 842.833 661.5 841.4 661.5 841C661.5 840.6 660.5 840.5 660 840.5L657.5 840V838C657.5 837.5 659 837.5 659.5 837L661 835.5L664 834.5L667 833.5L668 832.5V830L669 828.5V826L670.5 824.5L674 822V821L673 819L674 817.5L674.5 816V814L679 814.5L682.5 817.5L683 819.5L684 820L685 819L686 818V815.5L687.5 814.5L690 812.5L691 810V802L689.5 801H686C685.5 801.333 684.4 802 684 802C683.6 802 682.5 801.333 682 801V800C681.333 799.667 679.9 799 679.5 799C679.1 799 677.333 798.667 676.5 798.5C675.5 797.667 673.4 795.9 673 795.5C672.6 795.1 672.167 794 672 793.5L669.5 795.5L665.5 796.5L662.5 797.5L660.5 799L658.5 798.5L654.5 796.5L652.5 795L650 793.5L647.5 791.5L646.5 789L646 786.5L646.5 784L646 778.5L645 776.5L643 774L639 773L637 772.5L634.5 774L631.5 774.5L629 772C628.6 771.6 627.5 771.5 627 771.5L625 770.5L623.5 767.5V765.5L622 762L619.5 760.5L617 758L615 757L614 754.5V752.5L611.5 751.5L606 746.5L603 744.5C602.333 744.333 600.9 744 600.5 744C600.1 744 600 744.667 600 745H593L589.5 742.5L586 738.5L582 735.5L575 727C574.5 727 573.3 726.9 572.5 726.5C571.7 726.1 572.167 727.333 572.5 728H570H566C565.2 728 565.333 729 565.5 729.5L563 730L562 725L563 723.5L563.5 720.5C563.167 719.833 562.4 718.5 562 718.5C561.6 718.5 560.167 717.167 559.5 716.5L554.5 713.5L549 710.5L545 707L542 705.5H540L538.5 706.5L535.5 710.5L530 713.5L524 717.5Z" fill="#F2FF00"/>
<path d="M424 730V723.5L428 726L433 730L436.5 734L440.5 736.5L442.5 741.5L444.5 743.5L443.5 745L441.5 746.5L438.5 751H433H428L426.5 748L426 741.5V735.5L424 730Z" fill="#F2FF00"/>
<path d="M444.5 757.5L443.5 749.5L447 751L449.5 754L455.5 758.5L461.5 765.5L466 770V774.5V778H463.5L459 781C458.167 780.333 456.3 778.8 455.5 778C454.7 777.2 452.5 774.333 451.5 773L446 768.5L442.5 764.5L444.5 761V757.5Z" fill="#F2FF00"/>
<path d="M458 786.5C457.667 785.667 456.8 783.9 456 783.5L456.5 782.5L459.5 784L460.5 786.5H458Z" fill="#F2FF00"/>
<path d="M460 792L460.5 788L462 788.5L462.5 791L465.5 792L467.5 794.5C467.167 795.167 466.3 796.5 465.5 796.5C464.5 796.5 463.5 794 463.5 793.5C463.5 793.1 461.167 792.333 460 792Z" fill="#F2FF00"/>
<path d="M621 983C619.8 982.2 616.167 979 614.5 977.5V975.5L617 972L626.5 975.5L632 977.5L637.5 981.5L635 986C633 986.5 628.5 987.2 626.5 986C624 984.5 622.5 984 621 983Z" fill="#F2FF00"/>
<path d="M524 717.5C522.167 718.667 518.4 721.1 518 721.5L520.5 723.5L523.5 727L525 730L527.5 733L533 737L537 738.5L544 741.5L547 749.5L550 754L550.5 759.5L553.5 763L558 767L559.5 772L563 777.5L566 783.5L574 791L593.5 803L597.5 806.5L601 810L606 812.5L612 815L615 819L618.5 821L622 824.5L626.5 829.5V832.5L628.5 834.5L627.5 837L628.5 839L630.5 841L632 844L631.5 848L630.5 850L629 850.5L629.5 852L630.5 853L674 886.5L677.5 890L682 894.5L685.5 899L690 900L695 902.5L700.5 906L704 908L707.5 910.5L710.5 912.5L713.5 914.5L716 917L719.5 920.5L720.5 922.5L721.5 927L723 926.5H725.5L727.5 927.5L729 929L730.5 931L733.5 933L736.5 933.5L740 936L741 937.5H742.5H744L744.5 936L745.5 935L747 933.5L749.5 932.5L752 931.5L753 930.5H754.5L755 929V927.5V926.5H758L760 926L759.5 924.5L758 923.5H756.5L755 923L751.5 922.5L751 920.5L752.5 920C752.667 919.333 753 917.9 753 917.5V915C753 914.6 751.667 913.5 751 913L749 911H747C746.6 911 745.167 910.667 744.5 910.5V909L746 907.5L747 906L746.5 904.5L744.5 903.5L742.5 904.5L740 908H735C734.6 908 732.5 907.333 731.5 907C730.333 905.667 728 902.9 728 902.5C728 902.1 727 899.333 726.5 898L728.5 897.5L729 895.5V892.5L730.5 892L731.5 890L732 888L731.5 887L728 886.5L725 885L721.5 883C719.333 881.667 714.9 879.1 714.5 879.5C714.1 879.9 711.333 879.667 710 879.5L707.5 879V875.5L708 871.5L706.5 869L705.5 865.5L703.5 862V859.5L700.5 858.5H697.5C697.333 858.833 696.8 859.5 696 859.5H688.5C687.3 859.5 688 858.167 688.5 857.5C687.5 857.167 685.3 856.5 684.5 856.5C683.7 856.5 681.167 856.167 680 856L674.5 855.5L670.5 850L667 847L664 843.5C663.167 842.833 661.5 841.4 661.5 841C661.5 840.6 660.5 840.5 660 840.5L657.5 840V838C657.5 837.5 659 837.5 659.5 837L661 835.5L664 834.5L667 833.5L668 832.5V830L669 828.5V826L670.5 824.5L674 822V821L673 819L674 817.5L674.5 816V814L679 814.5L682.5 817.5L683 819.5L684 820L685 819L686 818V815.5L687.5 814.5L690 812.5L691 810V802L689.5 801H686C685.5 801.333 684.4 802 684 802C683.6 802 682.5 801.333 682 801V800C681.333 799.667 679.9 799 679.5 799C679.1 799 677.333 798.667 676.5 798.5C675.5 797.667 673.4 795.9 673 795.5C672.6 795.1 672.167 794 672 793.5L669.5 795.5L665.5 796.5L662.5 797.5L660.5 799L658.5 798.5L654.5 796.5L652.5 795L650 793.5L647.5 791.5L646.5 789L646 786.5L646.5 784L646 778.5L645 776.5L643 774L639 773L637 772.5L634.5 774L631.5 774.5L629 772C628.6 771.6 627.5 771.5 627 771.5L625 770.5L623.5 767.5V765.5L622 762L619.5 760.5L617 758L615 757L614 754.5V752.5L611.5 751.5L606 746.5L603 744.5C602.333 744.333 600.9 744 600.5 744C600.1 744 600 744.667 600 745H593L589.5 742.5L586 738.5L582 735.5L575 727C574.5 727 573.3 726.9 572.5 726.5C571.7 726.1 572.167 727.333 572.5 728H570H566C565.2 728 565.333 729 565.5 729.5L563 730L562 725L563 723.5L563.5 720.5C563.167 719.833 562.4 718.5 562 718.5C561.6 718.5 560.167 717.167 559.5 716.5L554.5 713.5L549 710.5L545 707L542 705.5H540L538.5 706.5L535.5 710.5L530 713.5L524 717.5Z" stroke="black"/>
<path d="M424 730V723.5L428 726L433 730L436.5 734L440.5 736.5L442.5 741.5L444.5 743.5L443.5 745L441.5 746.5L438.5 751H433H428L426.5 748L426 741.5V735.5L424 730Z" stroke="black"/>
<path d="M444.5 757.5L443.5 749.5L447 751L449.5 754L455.5 758.5L461.5 765.5L466 770V774.5V778H463.5L459 781C458.167 780.333 456.3 778.8 455.5 778C454.7 777.2 452.5 774.333 451.5 773L446 768.5L442.5 764.5L444.5 761V757.5Z" stroke="black"/>
<path d="M458 786.5C457.667 785.667 456.8 783.9 456 783.5L456.5 782.5L459.5 784L460.5 786.5H458Z" stroke="black"/>
<path d="M460 792L460.5 788L462 788.5L462.5 791L465.5 792L467.5 794.5C467.167 795.167 466.3 796.5 465.5 796.5C464.5 796.5 463.5 794 463.5 793.5C463.5 793.1 461.167 792.333 460 792Z" stroke="black"/>
<path d="M621 983C619.8 982.2 616.167 979 614.5 977.5V975.5L617 972L626.5 975.5L632 977.5L637.5 981.5L635 986C633 986.5 628.5 987.2 626.5 986C624 984.5 622.5 984 621 983Z" stroke="black"/>
</g>
<g id="b-sumatra">
<path d="M368 480L374.5 487L377.5 488H380L383 489.5L385 490.5L388 491.5L405.5 505L406 509.5H404.5V514L408 518L409.5 525.5L420 536L435 551L438 557.5L457 578L457.5 582.5L458.5 586.5L461 589.5L462.5 591L464.5 595.5C464 595.833 462.8 596.5 462 596.5C461.2 596.5 461 596.833 461 597L460 598L461 601.5V603.5C461 604.3 461.333 605.167 461.5 605.5H462.5L465 606L465.5 610.5L468.5 614L472 615.5L475 616L477 619.5V622L479 624L478.5 626.5L477 628V629.5L479 631.5L482 633V637.5L484 644L503.5 671.5L504.5 676V687.5L501.5 690L500.5 692.5L501 696.5L503.5 699.5L504.5 702.5L505 706.5L507.5 710L511 713L515 716L517.5 719.5L524 715L531 710.5L536.5 707L540.5 701V693L536.5 683.5L525.5 670L525 664C524.667 660 524 651.7 524 650.5V649.5L527 648.5V649.5H529.5V648.5H532V650.5L534 651.5H536V649.5L540.5 650.5L545 649.5L549.5 648.5H552.5C553.167 648.833 554.6 649.5 555 649.5H558L558.5 646.5C563 642.333 572.1 634 572.5 634C572.9 634 574.333 632 575 631L576 627.5L575 624.5L576 621V618L574.5 615L576 611.5L578 609L581 608.5L584 607L585 606.5L587 606L587.5 605L589 603.5L591 602.5C590.833 602 590.6 601 591 601C591.4 601 589.833 600.333 589 600L587.5 599C587 598.333 586 596.9 586 596.5C586 596.1 586.667 594 587 593L586 591L585.5 587.5L583 588.5L581 587.5C580 587.167 577.8 586.4 577 586C576 585.5 574.5 585.5 574 585C573.5 584.5 571 582.5 570.5 582.5C570.1 582.5 569.667 581.167 569.5 580.5L567 578C566.5 577.5 564.5 575.5 564 575.5C563.6 575.5 561.5 574.833 560.5 574.5L558.5 572.5L556 570.5L553.5 569.5L551.5 568L549.5 566.5L547.5 564.5C546.667 563.5 545 561.3 545 560.5C545 559.5 542.5 559.5 542 558.5C541.5 557.5 540.5 558.5 540 558.5C539.6 558.5 537.833 557.5 537 557C536.333 556.5 534.9 555.4 534.5 555C534 554.5 532.5 553.5 532 553C531.5 552.5 530 551 530 550.5C530 550 528 549.5 527.5 549.5C527 549.5 526 548 525.5 547.5C525.1 547.1 524.333 546.667 524 546.5L522 546L520 545.5L518.5 543L517.5 540L516 538V536L517 534L516 532L514.5 529.5C513.167 529.667 510.4 529.9 510 529.5C509.6 529.1 509.5 529.667 509.5 530L508.5 532L508 534L507.5 534.5L504.5 533.5C503.833 533.167 502.5 532.4 502.5 532C502.5 531.6 500.5 531.833 499.5 532C499.5 531.667 499.6 530.8 500 530C500.5 529 499.5 528.5 499.5 527.5C499.5 526.7 498.5 526.167 498 526C497.167 525.333 495.4 523.9 495 523.5C494.6 523.1 494.167 521.667 494 521V518.5C494 517.7 493.333 516.5 493 516L492 513.5V511.5L491.5 509C491.5 508.333 491.3 507 490.5 507C489.7 507 490.833 506 491.5 505.5L493 505V503.5V502V500L492 499V496.5V494.5V492.5C492.5 492.5 493.6 492.3 494 491.5C494.5 490.5 495 491 495 490.5V489V487.5L493 485.5H490.5H488L486.5 486L483 485.5H479.5C479.1 485.5 476.667 484.833 475.5 484.5C474.667 484.333 472.9 483.9 472.5 483.5C472.1 483.1 470.333 483 469.5 483L467 482C466.5 481.833 465.4 481.3 465 480.5C464.6 479.7 463.833 478.833 463.5 478.5L462.5 476L461.5 473L459.5 471.5C459 471.333 457.8 470.9 457 470.5C456.2 470.1 455.667 471 455.5 471.5L454.5 473H452C451.333 472.833 450 472.4 450 472V469.5V466.5V464L449 462.5L448 459.5L446 457L444.5 454.5L444 453.5L443.5 452C443.333 451.333 443 449.9 443 449.5C443 449.1 442.667 448.667 442.5 448.5L443.5 446.5L444 445.5V444L445 442.5L446 441.5L447 440L447.5 438.5C447 438 446 436.8 446 436C446 435 444 435.5 443.5 435C443 434.5 441 434.5 439.5 434C438 433.5 438 433 436.5 433C435 433 434 432 433 431.5C432.2 431.1 431 430.333 430.5 430C430 429.667 428.9 428.8 428.5 428C428.1 427.2 426.667 427 426 427C425.333 426.667 423.8 426 423 426C422.2 426 422.667 425.333 423 425L420.5 424L419 423L417 422.5L416 421.5H413.5L412.5 423V425L413 429V433L411.5 434V436V438.5H412.5H416L419 439.5L420.5 441.5V445.5L421.5 447.5L423 450V453V456L420.5 458L416 459.5L412.5 461C411.333 460.667 408.9 459.9 408.5 459.5C408 459 405.5 460 404.5 460C403.7 460 402.833 460.667 402.5 461C401.333 460.833 398.8 460.4 398 460C397.2 459.6 396 458.5 395.5 458L393.5 455L392.5 456H386H380.5L374.5 460L368 465.5V472H360.5L356.5 475V480H368Z" fill="#6600FF"/>
<path d="M316 487L322 489.5L319.5 491.5H316L315 493H310H305.5L300.5 491.5L296.5 490.5V487H300.5H310H312H316Z" fill="#6600FF"/>
<path d="M284 512.5L278 501.5H282.5L286 506L289 512.5L291 519L295 523L297.5 527L295 529L291 523L284 512.5Z" fill="#6600FF"/>
<path d="M282.5 541V533V530.5L286 529L287 527H289L291 530.5L292 533L291 536V541L289 546.5L287 549H282.5L278 546.5L280 544L282.5 541Z" fill="#6600FF"/>
<path d="M319.5 586.5H315H312.5H309.5L307 587.5V590.5V597.5L305.5 602L302.5 606L302 609L303.5 610L305.5 615.5C306.833 617.167 309.7 620.7 310.5 621.5C311.3 622.3 313.833 625.833 315 627.5L317 633.5L321 638L323 644L327 649L333.5 652L338.5 656.5L342.5 658L343 660H346.5L349 660.5V658H350H352.5L356.5 657.5L358 659V657.5V656C357.833 654.833 357.4 652.4 357 652C356.6 651.6 356.167 650.5 356 650L355.5 649C355 648.5 354 647.4 354 647C354 646.6 354.333 646.167 354.5 646L354 643.5L353.5 641.5V639C353.5 638.6 352.833 637.5 352.5 637L351.5 635L350 633.5L347.5 631.5L346 629V628H347.5L350 629V627L348.5 625L346 624L345 622L344 621V619.5L343.5 617H341L340 615.5C340 614.333 339.9 611.9 339.5 611.5C339.1 611.1 338.667 608.667 338.5 607.5L337 604L334 599.5C333 598.5 331 596.4 331 596C331 595.6 329.667 594.167 329 593.5L328.5 591.5L327 589.5L328.5 588.5L330 587L329 585.5L327 584.5L325.5 584L324 584.5L321.5 585.5L319.5 586.5Z" fill="#6600FF"/>
<path d="M358 645.5L357 644L356.5 643.5C356.1 643.1 357.333 643 358 643L358.5 644L359.5 646L361 650V652L359.5 650L358.5 647L358 645.5Z" fill="#6600FF"/>
<path d="M387.5 688.5C387.1 688.1 387.333 686.667 387.5 686V684C388 683.833 389.1 683.4 389.5 683C390 682.5 390.5 683 391 682.5C391.4 682.1 392.5 682.333 393 682.5L394 683L396 684L397.5 686L398.5 687.5V689L399 692.5L398.5 693.5C399 694.333 400.1 696.1 400.5 696.5C400.9 696.9 401.667 698.333 402 699C402.333 699.333 403.1 700 403.5 700C403.9 700 404.333 701 404.5 701.5C404.5 702 404.6 703.1 405 703.5C405.5 704 405.5 705 406.5 705C407.5 705 407 705.5 408 706C409 706.5 409.5 707 410 707.5C410.4 707.9 410.5 708.667 410.5 709C410.167 709.333 409.4 709.9 409 709.5L408 708.5C407.5 708 407.5 707.5 407 707.5C406.5 707.5 406 708 404.5 708.5C403 709 402.5 708 402 707.5C401.5 707 401.5 706 400.5 705C399.7 704.2 397.833 703.333 397 703C396.167 702.667 394.3 701.8 393.5 701C392.7 700.2 391.5 699.333 391 699L388.5 696.5C387.667 695.833 386 694.4 386 694C386 693.5 385.5 693 386 692.5C386.4 692.1 387.5 692.333 388 692.5L389 691C388.667 690.333 387.9 688.9 387.5 688.5Z" fill="#6600FF"/>
<path d="M368 480L374.5 487L377.5 488H380L383 489.5L385 490.5L388 491.5L405.5 505L406 509.5H404.5V514L408 518L409.5 525.5L420 536L435 551L438 557.5L457 578L457.5 582.5L458.5 586.5L461 589.5L462.5 591L464.5 595.5C464 595.833 462.8 596.5 462 596.5C461.2 596.5 461 596.833 461 597L460 598L461 601.5V603.5C461 604.3 461.333 605.167 461.5 605.5H462.5L465 606L465.5 610.5L468.5 614L472 615.5L475 616L477 619.5V622L479 624L478.5 626.5L477 628V629.5L479 631.5L482 633V637.5L484 644L503.5 671.5L504.5 676V687.5L501.5 690L500.5 692.5L501 696.5L503.5 699.5L504.5 702.5L505 706.5L507.5 710L511 713L515 716L517.5 719.5L524 715L531 710.5L536.5 707L540.5 701V693L536.5 683.5L525.5 670L525 664C524.667 660 524 651.7 524 650.5V649.5L527 648.5V649.5H529.5V648.5H532V650.5L534 651.5H536V649.5L540.5 650.5L545 649.5L549.5 648.5H552.5C553.167 648.833 554.6 649.5 555 649.5H558L558.5 646.5C563 642.333 572.1 634 572.5 634C572.9 634 574.333 632 575 631L576 627.5L575 624.5L576 621V618L574.5 615L576 611.5L578 609L581 608.5L584 607L585 606.5L587 606L587.5 605L589 603.5L591 602.5C590.833 602 590.6 601 591 601C591.4 601 589.833 600.333 589 600L587.5 599C587 598.333 586 596.9 586 596.5C586 596.1 586.667 594 587 593L586 591L585.5 587.5L583 588.5L581 587.5C580 587.167 577.8 586.4 577 586C576 585.5 574.5 585.5 574 585C573.5 584.5 571 582.5 570.5 582.5C570.1 582.5 569.667 581.167 569.5 580.5L567 578C566.5 577.5 564.5 575.5 564 575.5C563.6 575.5 561.5 574.833 560.5 574.5L558.5 572.5L556 570.5L553.5 569.5L551.5 568L549.5 566.5L547.5 564.5C546.667 563.5 545 561.3 545 560.5C545 559.5 542.5 559.5 542 558.5C541.5 557.5 540.5 558.5 540 558.5C539.6 558.5 537.833 557.5 537 557C536.333 556.5 534.9 555.4 534.5 555C534 554.5 532.5 553.5 532 553C531.5 552.5 530 551 530 550.5C530 550 528 549.5 527.5 549.5C527 549.5 526 548 525.5 547.5C525.1 547.1 524.333 546.667 524 546.5L522 546L520 545.5L518.5 543L517.5 540L516 538V536L517 534L516 532L514.5 529.5C513.167 529.667 510.4 529.9 510 529.5C509.6 529.1 509.5 529.667 509.5 530L508.5 532L508 534L507.5 534.5L504.5 533.5C503.833 533.167 502.5 532.4 502.5 532C502.5 531.6 500.5 531.833 499.5 532C499.5 531.667 499.6 530.8 500 530C500.5 529 499.5 528.5 499.5 527.5C499.5 526.7 498.5 526.167 498 526C497.167 525.333 495.4 523.9 495 523.5C494.6 523.1 494.167 521.667 494 521V518.5C494 517.7 493.333 516.5 493 516L492 513.5V511.5L491.5 509C491.5 508.333 491.3 507 490.5 507C489.7 507 490.833 506 491.5 505.5L493 505V503.5V502V500L492 499V496.5V494.5V492.5C492.5 492.5 493.6 492.3 494 491.5C494.5 490.5 495 491 495 490.5V489V487.5L493 485.5H490.5H488L486.5 486L483 485.5H479.5C479.1 485.5 476.667 484.833 475.5 484.5C474.667 484.333 472.9 483.9 472.5 483.5C472.1 483.1 470.333 483 469.5 483L467 482C466.5 481.833 465.4 481.3 465 480.5C464.6 479.7 463.833 478.833 463.5 478.5L462.5 476L461.5 473L459.5 471.5C459 471.333 457.8 470.9 457 470.5C456.2 470.1 455.667 471 455.5 471.5L454.5 473H452C451.333 472.833 450 472.4 450 472V469.5V466.5V464L449 462.5L448 459.5L446 457L444.5 454.5L444 453.5L443.5 452C443.333 451.333 443 449.9 443 449.5C443 449.1 442.667 448.667 442.5 448.5L443.5 446.5L444 445.5V444L445 442.5L446 441.5L447 440L447.5 438.5C447 438 446 436.8 446 436C446 435 444 435.5 443.5 435C443 434.5 441 434.5 439.5 434C438 433.5 438 433 436.5 433C435 433 434 432 433 431.5C432.2 431.1 431 430.333 430.5 430C430 429.667 428.9 428.8 428.5 428C428.1 427.2 426.667 427 426 427C425.333 426.667 423.8 426 423 426C422.2 426 422.667 425.333 423 425L420.5 424L419 423L417 422.5L416 421.5H413.5L412.5 423V425L413 429V433L411.5 434V436V438.5H412.5H416L419 439.5L420.5 441.5V445.5L421.5 447.5L423 450V453V456L420.5 458L416 459.5L412.5 461C411.333 460.667 408.9 459.9 408.5 459.5C408 459 405.5 460 404.5 460C403.7 460 402.833 460.667 402.5 461C401.333 460.833 398.8 460.4 398 460C397.2 459.6 396 458.5 395.5 458L393.5 455L392.5 456H386H380.5L374.5 460L368 465.5V472H360.5L356.5 475V480H368Z" stroke="black"/>
<path d="M316 487L322 489.5L319.5 491.5H316L315 493H310H305.5L300.5 491.5L296.5 490.5V487H300.5H310H312H316Z" stroke="black"/>
<path d="M284 512.5L278 501.5H282.5L286 506L289 512.5L291 519L295 523L297.5 527L295 529L291 523L284 512.5Z" stroke="black"/>
<path d="M282.5 541V533V530.5L286 529L287 527H289L291 530.5L292 533L291 536V541L289 546.5L287 549H282.5L278 546.5L280 544L282.5 541Z" stroke="black"/>
<path d="M319.5 586.5H315H312.5H309.5L307 587.5V590.5V597.5L305.5 602L302.5 606L302 609L303.5 610L305.5 615.5C306.833 617.167 309.7 620.7 310.5 621.5C311.3 622.3 313.833 625.833 315 627.5L317 633.5L321 638L323 644L327 649L333.5 652L338.5 656.5L342.5 658L343 660H346.5L349 660.5V658H350H352.5L356.5 657.5L358 659V657.5V656C357.833 654.833 357.4 652.4 357 652C356.6 651.6 356.167 650.5 356 650L355.5 649C355 648.5 354 647.4 354 647C354 646.6 354.333 646.167 354.5 646L354 643.5L353.5 641.5V639C353.5 638.6 352.833 637.5 352.5 637L351.5 635L350 633.5L347.5 631.5L346 629V628H347.5L350 629V627L348.5 625L346 624L345 622L344 621V619.5L343.5 617H341L340 615.5C340 614.333 339.9 611.9 339.5 611.5C339.1 611.1 338.667 608.667 338.5 607.5L337 604L334 599.5C333 598.5 331 596.4 331 596C331 595.6 329.667 594.167 329 593.5L328.5 591.5L327 589.5L328.5 588.5L330 587L329 585.5L327 584.5L325.5 584L324 584.5L321.5 585.5L319.5 586.5Z" stroke="black"/>
<path d="M358 645.5L357 644L356.5 643.5C356.1 643.1 357.333 643 358 643L358.5 644L359.5 646L361 650V652L359.5 650L358.5 647L358 645.5Z" stroke="black"/>
<path d="M387.5 688.5C387.1 688.1 387.333 686.667 387.5 686V684C388 683.833 389.1 683.4 389.5 683C390 682.5 390.5 683 391 682.5C391.4 682.1 392.5 682.333 393 682.5L394 683L396 684L397.5 686L398.5 687.5V689L399 692.5L398.5 693.5C399 694.333 400.1 696.1 400.5 696.5C400.9 696.9 401.667 698.333 402 699C402.333 699.333 403.1 700 403.5 700C403.9 700 404.333 701 404.5 701.5C404.5 702 404.6 703.1 405 703.5C405.5 704 405.5 705 406.5 705C407.5 705 407 705.5 408 706C409 706.5 409.5 707 410 707.5C410.4 707.9 410.5 708.667 410.5 709C410.167 709.333 409.4 709.9 409 709.5L408 708.5C407.5 708 407.5 707.5 407 707.5C406.5 707.5 406 708 404.5 708.5C403 709 402.5 708 402 707.5C401.5 707 401.5 706 400.5 705C399.7 704.2 397.833 703.333 397 703C396.167 702.667 394.3 701.8 393.5 701C392.7 700.2 391.5 699.333 391 699L388.5 696.5C387.667 695.833 386 694.4 386 694C386 693.5 385.5 693 386 692.5C386.4 692.1 387.5 692.333 388 692.5L389 691C388.667 690.333 387.9 688.9 387.5 688.5Z" stroke="black"/>
</g>
<g id="aceh">
<path d="M182.5 311.5L179.5 307L180.5 304H182.5L184 305.5L186 308.5L188 310.5L188.5 312L188 315.5L186 315L182.5 311.5Z" fill="#FF0600"/>
<path d="M171 316.5L169.5 315L169 315.5L166.5 318L168 318.5H170.5L171 316.5Z" fill="#FF0600"/>
<path d="M171 201.5L172.5 205.5L174.5 209L177.5 211.5H181.5L184.5 216L185.5 221.5L187.5 227L191 232L196 238L200 240.5H205L207 242.5H211.5L214 245.5L216 249.5L217 254.5V258H219V287L220.5 289L223 292L225.5 294.5V297C226 297.667 227.2 299.1 228 299.5C228.8 299.9 232.333 299.667 234 299.5L238 297H241.5L244.5 299.5L249 301L253 302.5L256.5 304.5L260 306.5H261.5L262.5 300L263.5 296L261.5 292L260 289L258 286L256.5 282L254.5 278V272V265L256.5 264L254.5 260.5V254.5V252.5L250.5 249.5L248 246.5L244.5 244.5L241.5 240.5V232V229.5L243 227L244.5 225L243 221.5L241.5 216L238 214L236 211.5C236.5 211.333 237.9 210.8 239.5 210C241.1 209.2 244.833 209 246.5 209L249 205.5L246.5 201.5L243 200.5L241.5 196L239.5 188L236 184.5L234 178.5L230.5 173.5V169L236 162.5L239.5 159L238 154L241.5 152L248 147.5L250.5 137L253 125V121H258.5L261.5 118H267.5H271.5V110.5L269.5 107L264.5 104L260 100.5H257L254 99.5H250.5H246.5L244.5 96L246.5 93V89.5L244.5 86L243 78.5L239.5 70L232 64L217.5 51.5L214.5 46.5L211 44L207 38L205.5 35.5H201L194.5 38L187.5 41L183.5 43L178.5 44H177H175H172L170.5 41L169 38H166.5L159.5 33.5H135L119.5 41L114.5 38L104 41L93.5 38L87 32L72.5 25.5L57 11.5V8H46.5L39.5 1.5L30 5L25 1.5H21L11 8H4L1.5 11.5L8.5 25.5L4 32L7.5 37L10 44L15 53.5L19.5 66.5L27.5 80.5L35 90L50.5 102L59.5 112.5L70.5 123.5L85 135.5L92 142L97 150.5L104.5 157.5L112.5 168L120.5 173H141L148.5 176.5L151.5 183L159 187L165.5 194L171 201.5Z" fill="#FF0600"/>
<path d="M182.5 311.5L179.5 307L180.5 304H182.5L184 305.5L186 308.5L188 310.5L188.5 312L188 315.5L186 315L182.5 311.5Z" stroke="black"/>
<path d="M171 316.5L169.5 315L169 315.5L166.5 318L168 318.5H170.5L171 316.5Z" stroke="black"/>
<path d="M171 201.5L172.5 205.5L174.5 209L177.5 211.5H181.5L184.5 216L185.5 221.5L187.5 227L191 232L196 238L200 240.5H205L207 242.5H211.5L214 245.5L216 249.5L217 254.5V258H219V287L220.5 289L223 292L225.5 294.5V297C226 297.667 227.2 299.1 228 299.5C228.8 299.9 232.333 299.667 234 299.5L238 297H241.5L244.5 299.5L249 301L253 302.5L256.5 304.5L260 306.5H261.5L262.5 300L263.5 296L261.5 292L260 289L258 286L256.5 282L254.5 278V272V265L256.5 264L254.5 260.5V254.5V252.5L250.5 249.5L248 246.5L244.5 244.5L241.5 240.5V232V229.5L243 227L244.5 225L243 221.5L241.5 216L238 214L236 211.5C236.5 211.333 237.9 210.8 239.5 210C241.1 209.2 244.833 209 246.5 209L249 205.5L246.5 201.5L243 200.5L241.5 196L239.5 188L236 184.5L234 178.5L230.5 173.5V169L236 162.5L239.5 159L238 154L241.5 152L248 147.5L250.5 137L253 125V121H258.5L261.5 118H267.5H271.5V110.5L269.5 107L264.5 104L260 100.5H257L254 99.5H250.5H246.5L244.5 96L246.5 93V89.5L244.5 86L243 78.5L239.5 70L232 64L217.5 51.5L214.5 46.5L211 44L207 38L205.5 35.5H201L194.5 38L187.5 41L183.5 43L178.5 44H177H175H172L170.5 41L169 38H166.5L159.5 33.5H135L119.5 41L114.5 38L104 41L93.5 38L87 32L72.5 25.5L57 11.5V8H46.5L39.5 1.5L30 5L25 1.5H21L11 8H4L1.5 11.5L8.5 25.5L4 32L7.5 37L10 44L15 53.5L19.5 66.5L27.5 80.5L35 90L50.5 102L59.5 112.5L70.5 123.5L85 135.5L92 142L97 150.5L104.5 157.5L112.5 168L120.5 173H141L148.5 176.5L151.5 183L159 187L165.5 194L171 201.5Z" stroke="black"/>
</g>
<g id="u-sumatra">
<path d="M268 120C267.6 119.2 264.167 120.333 262.5 121L259 124L257 127.5L255 131L253.5 139L252 147L250.5 149L246.5 153L245 154L243 155.5L241.5 161.5H240L234 168L232 169V171L234 174L236.5 177.5L238 181.5L240 184.5L243 189L246.5 190.5L245 193V196L246.5 198.5L252 204.5L250.5 208L247.5 210.5L243 212V215.5L245 220L247.5 223V227.5L245 229.5V235L246.5 242L250.5 243L252 248H255L259.5 251.5V255.5H257.5V259.5L260.5 261.5V265.5L257.5 266.5V269L256.5 272.5L257.5 278L259.5 282.5L263 284.5L264.5 288L266.5 292.5V298L264.5 305L263 310.5L266.5 312L269.5 315.5L273 317.5H278.5L282 320L287.5 321.5L293 327L303.5 337L306 341H309L312.5 339.5L317.5 345.5L323.5 351L324 354L322.5 358.5L317.5 364V366.5L319.5 373.5L324 379.5V384.5L326.5 392.5L331 403.5L333.5 413L336.5 419.5V426L338.5 427.5L341 431L343 435L343.5 443.5L346.5 447L347.5 452L349 458.5V466L350 470.5L351.5 475L355.5 473L359 469H363H365.5V467.5L368 463L370.5 457L373.5 455L377 453.5L380 452H382L385 453.5H389L392 450L394 452L396.5 454L397.5 457L399 458.5H401.5L404 457H407L409.5 458.5H411L416 457L419 455L420 453.5V450L419 448L417.5 446L416 442.5H413L411 440.5L409.5 436V433.5V431L411 427.5L409.5 424.5V421.5L411 419.5H413H416L435 429L436 427.5C436 426.667 435.8 424.3 435 421.5C435 420.3 433.333 421 432.5 421.5V417.5V416L433.5 415H437V411L435 407L433.5 403.5L436 402.5C437.167 401.667 439.3 399.7 438.5 398.5C437.5 397 437 397 436 396.5C435.2 396.1 435 393 435 391.5L433.5 385.5L431.5 382L429.5 379.5L431.5 377.5L436 376H443L447.5 375L449.5 373.5L451 370L452.5 368L456 370L457 371L461.5 370L462.5 368V364V361H464.5V357V354L462.5 352L461.5 349.5L462.5 347L461.5 344H458L451 342.5V339.5L449.5 336L452.5 333L454 329.5V323.5V317.5L454.5 313L456 310.5V304.5V300.5L454 296.5L452.5 293.5L452 290.5V286L452.5 283.5V281.5L453 279L454 277.5C454.167 277.167 454.5 276.4 454.5 276C454.5 275.5 453 274.5 452.5 274C452 273.5 450 270.5 449.5 270C449.1 269.6 446.667 267.5 445.5 266.5V262L441 261.5L439.5 263L438 264H435L434 262.5L432.5 260C431.667 259.5 429.9 258.5 429.5 258.5C429.1 258.5 428 259.167 427.5 259.5L426.5 260.5L425 261.5L423 257.5L424 255.5V243L423.5 240.5C422.5 239.667 420.4 238 420 238C419.5 238 418 237 417.5 237C417.1 237 417 236 417 235.5V234.5H415V235.5H412.5V232C410 228.833 404.9 222.4 404.5 222C404 221.5 399.5 218 399 217.5C398.6 217.1 395.5 216 394 215.5L385.5 213.5L379 204.5L375.5 202L368.5 198.5L364.5 196L359 190.5L350 185.5L345 182.5L339.5 179L333.5 176L331.5 175L329.5 174.5H326.5L324 174L321 172.5L319 171.5L317 171L316 169L315 168V166.5L309.5 166V161.5L308.5 156.5V155.5L306 154H302L299 153L297 151.5L296 149V147L295 146V145H294H290V143H286L285.5 141.5L283 139.5L274.5 139L273 136.5L271.5 135H268L267 137H264H262V131L263 130L265.5 128L269.5 127.5V124C269.167 123 268.4 120.8 268 120Z" fill="#00FF8C"/>
<path d="M310 345.5L309 344.5H311.5V345.5H310Z" fill="#00FF8C"/>
<path d="M287.5 353.5L289.5 351L292.5 352L290.5 354L287.5 353.5Z" fill="#00FF8C"/>
<path d="M176.5 384.5L170 377H174H181.5L186 373.5L191 369L194.5 368L197.5 371H200.5L204 375.5L209.5 384.5L215 390.5L218.5 397.5L226.5 399.5L231 401.5L234 407L237.5 409L239.5 411L241 416.5L237 419.5V426V435V443.5L234 450H226.5C224.5 450 221.5 447 220.5 447C219.7 447 218.833 441.667 218.5 439C217.167 436.333 214.2 430.3 213 427.5C211.8 424.7 207.167 421 205 419.5L195 416.5V410.5C193.667 408.167 190.7 403.1 189.5 401.5C188.3 399.9 180.333 389.5 176.5 384.5Z" fill="#00FF8C"/>
<path d="M268 120C267.6 119.2 264.167 120.333 262.5 121L259 124L257 127.5L255 131L253.5 139L252 147L250.5 149L246.5 153L245 154L243 155.5L241.5 161.5H240L234 168L232 169V171L234 174L236.5 177.5L238 181.5L240 184.5L243 189L246.5 190.5L245 193V196L246.5 198.5L252 204.5L250.5 208L247.5 210.5L243 212V215.5L245 220L247.5 223V227.5L245 229.5V235L246.5 242L250.5 243L252 248H255L259.5 251.5V255.5H257.5V259.5L260.5 261.5V265.5L257.5 266.5V269L256.5 272.5L257.5 278L259.5 282.5L263 284.5L264.5 288L266.5 292.5V298L264.5 305L263 310.5L266.5 312L269.5 315.5L273 317.5H278.5L282 320L287.5 321.5L293 327L303.5 337L306 341H309L312.5 339.5L317.5 345.5L323.5 351L324 354L322.5 358.5L317.5 364V366.5L319.5 373.5L324 379.5V384.5L326.5 392.5L331 403.5L333.5 413L336.5 419.5V426L338.5 427.5L341 431L343 435L343.5 443.5L346.5 447L347.5 452L349 458.5V466L350 470.5L351.5 475L355.5 473L359 469H363H365.5V467.5L368 463L370.5 457L373.5 455L377 453.5L380 452H382L385 453.5H389L392 450L394 452L396.5 454L397.5 457L399 458.5H401.5L404 457H407L409.5 458.5H411L416 457L419 455L420 453.5V450L419 448L417.5 446L416 442.5H413L411 440.5L409.5 436V433.5V431L411 427.5L409.5 424.5V421.5L411 419.5H413H416L435 429L436 427.5C436 426.667 435.8 424.3 435 421.5C435 420.3 433.333 421 432.5 421.5V417.5V416L433.5 415H437V411L435 407L433.5 403.5L436 402.5C437.167 401.667 439.3 399.7 438.5 398.5C437.5 397 437 397 436 396.5C435.2 396.1 435 393 435 391.5L433.5 385.5L431.5 382L429.5 379.5L431.5 377.5L436 376H443L447.5 375L449.5 373.5L451 370L452.5 368L456 370L457 371L461.5 370L462.5 368V364V361H464.5V357V354L462.5 352L461.5 349.5L462.5 347L461.5 344H458L451 342.5V339.5L449.5 336L452.5 333L454 329.5V323.5V317.5L454.5 313L456 310.5V304.5V300.5L454 296.5L452.5 293.5L452 290.5V286L452.5 283.5V281.5L453 279L454 277.5C454.167 277.167 454.5 276.4 454.5 276C454.5 275.5 453 274.5 452.5 274C452 273.5 450 270.5 449.5 270C449.1 269.6 446.667 267.5 445.5 266.5V262L441 261.5L439.5 263L438 264H435L434 262.5L432.5 260C431.667 259.5 429.9 258.5 429.5 258.5C429.1 258.5 428 259.167 427.5 259.5L426.5 260.5L425 261.5L423 257.5L424 255.5V243L423.5 240.5C422.5 239.667 420.4 238 420 238C419.5 238 418 237 417.5 237C417.1 237 417 236 417 235.5V234.5H415V235.5H412.5V232C410 228.833 404.9 222.4 404.5 222C404 221.5 399.5 218 399 217.5C398.6 217.1 395.5 216 394 215.5L385.5 213.5L379 204.5L375.5 202L368.5 198.5L364.5 196L359 190.5L350 185.5L345 182.5L339.5 179L333.5 176L331.5 175L329.5 174.5H326.5L324 174L321 172.5L319 171.5L317 171L316 169L315 168V166.5L309.5 166V161.5L308.5 156.5V155.5L306 154H302L299 153L297 151.5L296 149V147L295 146V145H294H290V143H286L285.5 141.5L283 139.5L274.5 139L273 136.5L271.5 135H268L267 137H264H262V131L263 130L265.5 128L269.5 127.5V124C269.167 123 268.4 120.8 268 120Z" stroke="black"/>
<path d="M310 345.5L309 344.5H311.5V345.5H310Z" stroke="black"/>
<path d="M287.5 353.5L289.5 351L292.5 352L290.5 354L287.5 353.5Z" stroke="black"/>
<path d="M176.5 384.5L170 377H174H181.5L186 373.5L191 369L194.5 368L197.5 371H200.5L204 375.5L209.5 384.5L215 390.5L218.5 397.5L226.5 399.5L231 401.5L234 407L237.5 409L239.5 411L241 416.5L237 419.5V426V435V443.5L234 450H226.5C224.5 450 221.5 447 220.5 447C219.7 447 218.833 441.667 218.5 439C217.167 436.333 214.2 430.3 213 427.5C211.8 424.7 207.167 421 205 419.5L195 416.5V410.5C193.667 408.167 190.7 403.1 189.5 401.5C188.3 399.9 180.333 389.5 176.5 384.5Z" stroke="black"/>
</g>
<g id="s-sumatra">
<path d="M612.5 749.5V747.5L616 744.5L619 743H622.5L624.5 740L625.5 738L626.5 737L627.5 734.5L629.5 736.5H631L636 738.5L640.5 741C642.167 741.667 645.7 743 646.5 743C647.3 743 649.167 741.667 650 741L657 740L658.5 738L663 734L666.5 731C668.167 730.333 671.7 729 672.5 729C673.3 729 675.167 726.667 676 725.5V723.5L677.5 721L679.5 719V717.5L682 716.5V714.5V712L680.5 711V708.5H683.5H686.5H690C690.4 708.5 693.167 709.833 694.5 710.5L702 711L704 711.5L706 710.5L708 709.5L710.5 708.5C710.833 707.833 711.5 706.3 711.5 705.5C711.5 704.5 711 704.5 711.5 703.5C712 702.5 710.5 701 710 700.5C709.5 700 709 698.5 709.5 698.5C710 698.5 709.5 696 710.5 696C711.3 696 712.5 694.667 713 694H716V698.5C716 699.7 717.667 699.667 718.5 699.5L721 702.5L723.5 704L726.5 707.5L730.5 710.5L733 711C733.167 710.667 733.5 709.9 733.5 709.5V706.5C733.5 706 734.5 705 735 704.5C735.4 704.1 735.167 703 735 702.5L734.5 700.5L734 699.5C734 698.833 733.9 697.4 733.5 697C733.1 696.6 734.667 696.167 735.5 696H737.5L741 693.5L742 692L743.5 691L742 689H739.5V686.5L741 684L742.5 682L743.5 679L742 677L736.5 672.5L734 671.5V669.5L734.5 668H736.5H738L739.5 669L742 669.5L743.5 668L744.5 665.5L746.5 663.5C748.167 663.333 751.8 662.9 753 662.5C754.2 662.1 761.5 662.333 765 662.5H768.5L769.5 661.5C770 661 771.1 660 771.5 660C771.9 660 773.333 659 774 658.5L775.5 659.5L777.5 661L779.5 662.5H782.5H786L789.5 661.5L793.5 660L796.5 659.5C798.333 659 802.2 657.9 803 657.5C803.8 657.1 805.333 658 806 658.5L808 659.5H810.5L812.5 658.5L813 656.5V654.5L814 651L814.5 648L816 647L820 648L823.5 649.5L826.5 652L829 655L827.5 658.5L824.5 661.5L822 665L821 669.5L822 672.5L824.5 673.5H826.5L827.5 672.5L828.5 669.5L829 667.5H831L834 668.5L837 669.5V671.5L835.5 673.5L834 676.5L836 678H839.5C840.667 678.333 843.2 679 844 679C844.8 679 847.333 679.333 848.5 679.5L853 679L856 681L859.5 683.5L861 690L859.5 693.5L858 695.5L855 698.5V702L856 704.5L858.5 705.5H861L862.5 707.5L861 710L860.5 712.5L862 714.5L864 715.5L865 714.5L864.5 712.5L865.5 710H866.5H871L873 712.5H875.5L879 713L881 712.5L884.5 711.5L887 710H890L893.5 711.5L896 712.5H901.5L905.5 714L908 714.5H916L918.5 716.5L923 715.5L924 717.5V720L923 723.5L922 728L923 734L926.5 737L929.5 739L933 740.5C933.833 740.667 935.7 740.9 936.5 740.5C937.3 740.1 937.833 741 938 741.5L939 744V747.5V750.5L938 754.5L939 756.5L941 760L944 762L946 764.5L948 765H950.5H954L957 765.5H959H960.5L962 769.5L963 773.5C963 774.667 962.8 777.1 962 777.5C961.2 777.9 961.667 779.333 962 780L963 783L964.5 784.5L965 786V789L963 789.5L960.5 791L957.5 793L954 796.5L951.5 800L949 804L947 806.5L946 809.5L945 813.5L942.5 816V818.5L942 823.5L941 827.5L942.5 830.5L943.5 833.5L945 835L948 835.5L950.5 837L952.5 839L953.5 841L954 843L952.5 845L951 847.5L949.5 850.5L948 853.5L946 855.5V857.5L945 859.5V863.5V866.5L943.5 867L942.5 866.5L941 865.5H939.5H938V867C937.333 867 935.8 866.9 935 866.5C934.2 866.1 933.333 865 933 864.5L932 862L929 859.5L926.5 858.5L926 856V854.5L924.5 851V849.5L922.5 847.5L919 844C918.167 843.333 916.3 841.8 915.5 841C914.5 840 913.5 840.5 912.5 840L910.5 839L909 837L907.5 835.5L904.5 835C904 835.167 902.9 835.4 902.5 835C902.1 834.6 902.333 833.833 902.5 833.5L900.5 831.5L899 830.5L897 831.5L896 833.5L895 837L893.5 838.5L893 844L891.5 845C890.167 845.5 887.4 846.5 887 846.5C886.6 846.5 885.167 846.833 884.5 847L882 849L880 854L877.5 858.5L875.5 862L873.5 865.5L871 870.5L866.5 871L863 872L860 874C859.333 874.667 857.9 876 857.5 876H854C853.667 876.5 852.9 877.5 852.5 877.5H845H840.5C840 877.167 838.8 876.5 838 876.5C837.2 876.5 836.667 875.5 836.5 875L835.5 874V876L833 876.5L828 879L823 881L818.5 883L816.5 886L812 889.5L809.5 893L808.5 896.5L807.5 900.5V903.5L808.5 905L809.5 907V910L807.5 911.5L806 913V915V919.5C806 919.9 806.333 921.333 806.5 922L807.5 926.5L809.5 929L810.5 930.5V932.5L808.5 932L806 932.5L803 933L800.5 932H797.5V933L796.5 934L795.5 936C795.167 936.333 794.4 937 794 937H790L788.5 935L786 934L785 935.5L782.5 937L779 935.5L776 934L773.5 935V935.5H771V934L769.5 930.5L767 927.5L765 926.5L763 925.5C762.5 924 761.4 921 761 921H758.5L756.5 919.5C756.167 918.167 755.5 915.4 755.5 915C755.5 914.6 754.5 913.5 754 913C753.333 912 751.9 910 751.5 910C751.1 910 750.333 909.333 750 909L749.5 908L750 905.5L748 903.5L745.5 902L743.5 902.5L740.5 904L739 905.5H735L732.5 903.5L730.5 902V899.5L731 897C731.333 896.167 732 894.4 732 894C732 893.6 732.333 892.5 732.5 892L733 890.5L734.5 889.5L735 888L734.5 885.5L732.5 884.5L730.5 884L726.5 882.5L723 881.5L720.5 878.5C719.333 878.333 716.9 877.9 716.5 877.5C716.1 877.1 714 876.667 713 876.5L711 876L710 872L709 869L707.5 866.5L706.5 864C706.667 863 706.9 860.9 706.5 860.5L704.5 858.5L702.5 857C701.833 856.833 700.4 856.4 700 856C699.6 855.6 698.167 856.167 697.5 856.5H693.5L689.5 856C689 855.667 687.8 854.9 687 854.5C686.2 854.1 686.333 854 686.5 854L683 852.5L682.5 853.5H679L676.5 852.5L674.5 850L664.5 840.5L663.5 839.5L662.5 838L663.5 837L665.5 836L668 835.5L670 834V830.5L671 828L672.5 826L674.5 824L675.5 822.5V820.5V818.5L676.5 818L677.5 817L679 818L680.5 819.5L682.5 823H684L685.5 822.5L687 820.5L688 819.5V817L692.5 813.5L693 811.5V807.5V804L692.5 800.5L690.5 799H688H685.5C685.1 799 684.333 798.667 684 798.5L682.5 796H681H676.5V795L674.5 793C674.1 792.6 673 791.833 672.5 791.5L670 792L668 793.5L664 795C662.833 795.333 660.4 796 660 796H656.5C656.5 795.333 656.3 793.9 655.5 793.5L649.5 790.5L648.5 788V784.5V779L646.5 774.5L644.5 772L641 771L637.5 770.5L635.5 771L632.5 772L630 770.5L627 769L625.5 765L624.5 760.5L621.5 758.5L618.5 756.5L617 754L615 750.5L612.5 749.5Z" fill="#05B8FF"/>
<path d="M881 678L882.5 682.5V683.5H884.5H888L890.5 683L893.5 685V688L895.5 689L897 690L899 689L901.5 688.5H904.5H907H909.5L910 687L913.5 686L914.5 685L917.5 684.5L917 682V678.5L918.5 678L920 677H923H925L923.5 678.5L921.5 680L919.5 680.5L920 682.5L921.5 683V684.5L922 687L924 688H928.5H931.5L935.5 689L937.5 691L940 692L941.5 694.679L941 697.5L943.5 699L941 699.5L941.5 702.5L943.5 704.5L944 706.5L942.5 709L942 711.5L945.5 714.5H948L951 715.5L953 720L954 725.5L952.5 727L951.5 729L950 731L949.5 734L950.5 736.5L951.5 741L955 747L957.5 749.5L962.5 750.5L966.5 751L968.5 752L971.5 754L975 754.5L977.5 756L981 757L983 758L986.5 760L987.5 762L989.5 764L992 763.5L996.5 764L997.5 766L1000 768L1002.5 769.5V772.5L1003 776H1005L1006 774.5H1008.5L1010 773.5L1011 772.5L1012.5 774L1013.5 773.5H1015L1017 774.5H1018.5H1020.5L1022.5 774L1023 773.5V771.5L1022.5 769.5L1022 768.5H1020L1019 768L1018.5 766.5L1015.5 766L1013.5 765.5L1011.5 765L1011 764.5L1010 763.5L1010.5 762L1010 759V756.5L1011.5 754.5L1012 752.5L1013.5 748.5L1015.5 744.5L1016 741.5L1018.5 737.5L1022 734L1024 732.5L1025 730.5H1026.5H1027.5V729H1026.5H1024H1022C1021.5 728.667 1020.4 728 1020 728H1016L1011.5 726L1008.5 725.5H1006L1002.5 724.5C1002.33 724.167 1001.9 723.5 1001.5 723.5C1001.1 723.5 999.333 722.5 998.5 722L996.5 721.5H991.5L990 720.5L987 719L985.5 717.5L984 716.5L982 713L980.5 710.5L979 709L978.5 706.5L977 704.5V701.5V700.5L976 699V696.5L974.5 694.679L974 693.5L973 692.5V688H971.5H970L969 687L968.688 684.5L967.5 683L965.5 681.196L964.5 680L965.5 678.5L968.5 679.5H970L970.5 683.5L971.5 683.759C971.667 680.339 972 673.4 972 673V672L973 671.5L973.5 671C973.833 670.5 974.5 669.4 974.5 669C974.5 668.5 973.5 668.5 973 668C972.6 667.6 971.833 667.167 971.5 667C971 666.833 969.9 666.5 969.5 666.5C969.1 666.5 969.333 665.5 969.5 665C969.333 664.167 968.938 662.3 968.688 661.5C968.376 660.5 967 659.5 966.5 659C966 658.5 964.5 656.5 964 656C963.6 655.6 963.167 653.833 963 653L961.5 651.278C961.167 650.852 960.4 649.9 960 649.5C959.5 649 960 647.5 960 647C960 646.6 959.667 644.833 959.5 644L960.5 642L960 640.5H953.5L952 639C951.667 638.5 950.9 637.5 950.5 637.5C950.1 637.5 949.333 636.833 949 636.5H946.5L944.5 637L944 638L940.5 637L935 637.5L935.5 639V642L937 644.5L938.325 645.5L939 647.5V649.5L937.5 651V652.5L938.5 654L940 655.5L942 658.5L944 659.5L947 660C947.667 660.333 949.1 661.1 949.5 661.5C950 662 950 663 949.5 663C949 663 948 662.5 947.5 662C947 661.5 945.5 662.5 945 662C944.5 661.5 944 662 943.5 662C943.1 662 941.333 662.333 940.5 662.5L939 661.5L937.5 660H935.5H932.753C932.556 660 931.836 659.333 931.5 659L929 657C928.333 656.5 927 655.4 927 655C927 654.6 926 654.167 925.5 654L924.5 653L923 652.5L923.5 651.278L924.5 650.5L925.5 651.278L927 651.5H928.5L930 650.5L930.5 649.5L930 648.5C929.5 648.333 928.4 648 928 648H927C926.833 647.5 926.3 646.5 925.5 646.5C924.7 646.5 924.833 644.833 925 644L924 642C923.667 641 922.9 639 922.5 639C922 639 921 638 920.5 638C920.1 638 919.667 639 919.5 639.5C919.167 640 918.4 640.9 918 640.5C917.6 640.1 915.833 640 915 640H912.5C912.1 640 911 640.667 910.5 641L909.5 642.5L908 644L905.5 645L904.5 645.5L903 647.5V648.5L903.5 650L901.5 650.5L901 651L902 652L903 653L905 653.5H906.5L908.5 654L908 655L907 655.5L908.5 657L910.5 657.5L911 659L909.5 659.5H907L905.5 660L904 662.5L901.5 664.5L899 666L897 667.5L895 669.5L892.5 670.5L889.5 671.5L884.5 672.5L882.5 675L881 678Z" fill="#05B8FF"/>
<path d="M1026.5 765.5L1024 764L1025 762L1027.5 761.5L1029 759L1030.5 758L1031 759.5L1033 760L1034 761.5L1037 762.5L1039 763.5H1037.5V765L1035.5 766.5V768.5H1034.5L1030.5 768L1029 766.5L1026.5 765.5Z" fill="#05B8FF"/>
<path d="M1051 757.5V755L1052 754.5L1053 754V755L1054.5 755.5V757L1054 757.5L1053 758.5L1052.5 757.5H1051Z" fill="#05B8FF"/>
<path d="M1082 755.5L1084 754L1085 753.5L1087.5 753L1089.5 755L1090 757L1088.5 758.5L1087 759.5H1085H1082L1081 757.5L1082 755.5Z" fill="#05B8FF"/>
<path d="M1101 752.5V750L1101.5 748.5H1103L1103.5 749L1105 749.5L1105.5 748V745.5V744.5C1105.33 744 1104.9 742.9 1104.5 742.5C1104.1 742.1 1104.33 741 1104.5 740.5V738L1105.5 737L1105 734.5L1105.5 731.5L1106.5 730.5L1107.5 729L1110 728L1112.5 728.5L1118 728L1120 727.5L1122 728.5L1124.5 729H1125.5L1127 731L1128 731.5L1128.5 730.5L1130 730L1132.5 731L1134 730L1135.5 731.5L1136 733L1137 734L1137.5 735.5L1136.5 738L1135 738.5L1135.5 740.5H1136.5C1136.83 740.167 1137.5 739.4 1137.5 739C1137.5 738.6 1138.5 738.167 1139 738L1140 737.5L1140.5 736.5L1140 734C1140.17 733.667 1140.6 733 1141 733C1141.5 733 1142.5 733.5 1143 733.5C1143.4 733.5 1143.83 733.833 1144 734L1145 735H1145.5L1147.5 735.5V738H1146.5L1145.5 738.5L1146 739L1148 739.5H1150.5L1152 740.5L1153.5 742L1155.5 744L1156.5 745L1158 746L1159 747.5L1159.5 749L1160 751.5L1161 753L1160 755.5L1159 757L1158 758.5L1156.5 760L1156 762V762.5L1155.5 764L1154 765.5H1153C1152.5 765.5 1152.5 764.5 1152 764C1151.5 763.5 1152 763.5 1152 763C1152 762.5 1152 761.5 1152.5 761C1152.9 760.6 1152 760.167 1151.5 760L1150 759.5L1149 760V761.5C1149 761.9 1148.33 762 1148 762C1147.83 762.167 1147.3 762.6 1146.5 763C1145.7 763.4 1145.83 764.167 1146 764.5C1146.5 764.667 1147.6 765 1148 765C1148.4 765 1148.83 765.333 1149 765.5L1150 766.5L1151 768L1152.5 770L1154 771.5L1152.5 772.5V774.5L1151.5 776.5L1151 777L1150.5 779.5L1149.5 781H1147.5H1146.5L1145.5 780L1145 781H1143.5H1142.5L1141.5 782L1141 782.5L1140.5 784L1141.5 785.5V787L1140.5 787.5L1139 788L1138.5 787H1137V788.5L1136 789L1135 788.5V787V784.5L1134.5 782L1132.5 779.5C1132 778.833 1130.8 777.4 1130 777C1129.2 776.6 1128 774.833 1127.5 774C1127.17 773.5 1126.5 772.4 1126.5 772C1126.5 771.5 1125 771.5 1124.5 771.5C1124 771.5 1123 771 1122.5 771C1122.1 771 1122.33 772 1122.5 772.5C1122 772.667 1120.8 773 1120 773C1119.2 773 1118.67 773.261 1118.5 773.392V775L1120.5 777L1121 779C1120.33 779.667 1119 781.1 1119 781.5C1119 781.9 1116.67 782.667 1115.5 783H1113.5C1112.83 783 1111.1 783.1 1109.5 783.5C1107.9 783.9 1107.17 784.667 1107 785L1105.5 786.5C1104.83 786.667 1103.4 787 1103 787C1102.6 787 1101.5 786.667 1101 786.5V785L1102.5 782.5L1103.5 780.5L1104.5 778.5L1103 777.5L1100.5 773C1100.17 772.5 1099.4 771.4 1099 771C1098.5 770.5 1099 769 1099 768.5V766.5L1100 765.5C1100.5 765.333 1101.5 764.9 1101.5 764.5C1101.5 764.1 1102.5 764.333 1103 764.5V762.5C1102.83 761.833 1102.5 760.4 1102.5 760C1102.5 759.6 1102.83 759.5 1103 759.5L1106 761V758L1104 757.5L1102 758.5C1101.33 758.333 1100.1 758 1100.5 758C1101 758 1102.5 756.5 1102.5 756C1102.5 755.6 1101.83 754.833 1101.5 754.5L1101 752.5Z" fill="#05B8FF"/>
<path d="M612.5 749.5V747.5L616 744.5L619 743H622.5L624.5 740L625.5 738L626.5 737L627.5 734.5L629.5 736.5H631L636 738.5L640.5 741C642.167 741.667 645.7 743 646.5 743C647.3 743 649.167 741.667 650 741L657 740L658.5 738L663 734L666.5 731C668.167 730.333 671.7 729 672.5 729C673.3 729 675.167 726.667 676 725.5V723.5L677.5 721L679.5 719V717.5L682 716.5V714.5V712L680.5 711V708.5H683.5H686.5H690C690.4 708.5 693.167 709.833 694.5 710.5L702 711L704 711.5L706 710.5L708 709.5L710.5 708.5C710.833 707.833 711.5 706.3 711.5 705.5C711.5 704.5 711 704.5 711.5 703.5C712 702.5 710.5 701 710 700.5C709.5 700 709 698.5 709.5 698.5C710 698.5 709.5 696 710.5 696C711.3 696 712.5 694.667 713 694H716V698.5C716 699.7 717.667 699.667 718.5 699.5L721 702.5L723.5 704L726.5 707.5L730.5 710.5L733 711C733.167 710.667 733.5 709.9 733.5 709.5V706.5C733.5 706 734.5 705 735 704.5C735.4 704.1 735.167 703 735 702.5L734.5 700.5L734 699.5C734 698.833 733.9 697.4 733.5 697C733.1 696.6 734.667 696.167 735.5 696H737.5L741 693.5L742 692L743.5 691L742 689H739.5V686.5L741 684L742.5 682L743.5 679L742 677L736.5 672.5L734 671.5V669.5L734.5 668H736.5H738L739.5 669L742 669.5L743.5 668L744.5 665.5L746.5 663.5C748.167 663.333 751.8 662.9 753 662.5C754.2 662.1 761.5 662.333 765 662.5H768.5L769.5 661.5C770 661 771.1 660 771.5 660C771.9 660 773.333 659 774 658.5L775.5 659.5L777.5 661L779.5 662.5H782.5H786L789.5 661.5L793.5 660L796.5 659.5C798.333 659 802.2 657.9 803 657.5C803.8 657.1 805.333 658 806 658.5L808 659.5H810.5L812.5 658.5L813 656.5V654.5L814 651L814.5 648L816 647L820 648L823.5 649.5L826.5 652L829 655L827.5 658.5L824.5 661.5L822 665L821 669.5L822 672.5L824.5 673.5H826.5L827.5 672.5L828.5 669.5L829 667.5H831L834 668.5L837 669.5V671.5L835.5 673.5L834 676.5L836 678H839.5C840.667 678.333 843.2 679 844 679C844.8 679 847.333 679.333 848.5 679.5L853 679L856 681L859.5 683.5L861 690L859.5 693.5L858 695.5L855 698.5V702L856 704.5L858.5 705.5H861L862.5 707.5L861 710L860.5 712.5L862 714.5L864 715.5L865 714.5L864.5 712.5L865.5 710H866.5H871L873 712.5H875.5L879 713L881 712.5L884.5 711.5L887 710H890L893.5 711.5L896 712.5H901.5L905.5 714L908 714.5H916L918.5 716.5L923 715.5L924 717.5V720L923 723.5L922 728L923 734L926.5 737L929.5 739L933 740.5C933.833 740.667 935.7 740.9 936.5 740.5C937.3 740.1 937.833 741 938 741.5L939 744V747.5V750.5L938 754.5L939 756.5L941 760L944 762L946 764.5L948 765H950.5H954L957 765.5H959H960.5L962 769.5L963 773.5C963 774.667 962.8 777.1 962 777.5C961.2 777.9 961.667 779.333 962 780L963 783L964.5 784.5L965 786V789L963 789.5L960.5 791L957.5 793L954 796.5L951.5 800L949 804L947 806.5L946 809.5L945 813.5L942.5 816V818.5L942 823.5L941 827.5L942.5 830.5L943.5 833.5L945 835L948 835.5L950.5 837L952.5 839L953.5 841L954 843L952.5 845L951 847.5L949.5 850.5L948 853.5L946 855.5V857.5L945 859.5V863.5V866.5L943.5 867L942.5 866.5L941 865.5H939.5H938V867C937.333 867 935.8 866.9 935 866.5C934.2 866.1 933.333 865 933 864.5L932 862L929 859.5L926.5 858.5L926 856V854.5L924.5 851V849.5L922.5 847.5L919 844C918.167 843.333 916.3 841.8 915.5 841C914.5 840 913.5 840.5 912.5 840L910.5 839L909 837L907.5 835.5L904.5 835C904 835.167 902.9 835.4 902.5 835C902.1 834.6 902.333 833.833 902.5 833.5L900.5 831.5L899 830.5L897 831.5L896 833.5L895 837L893.5 838.5L893 844L891.5 845C890.167 845.5 887.4 846.5 887 846.5C886.6 846.5 885.167 846.833 884.5 847L882 849L880 854L877.5 858.5L875.5 862L873.5 865.5L871 870.5L866.5 871L863 872L860 874C859.333 874.667 857.9 876 857.5 876H854C853.667 876.5 852.9 877.5 852.5 877.5H845H840.5C840 877.167 838.8 876.5 838 876.5C837.2 876.5 836.667 875.5 836.5 875L835.5 874V876L833 876.5L828 879L823 881L818.5 883L816.5 886L812 889.5L809.5 893L808.5 896.5L807.5 900.5V903.5L808.5 905L809.5 907V910L807.5 911.5L806 913V915V919.5C806 919.9 806.333 921.333 806.5 922L807.5 926.5L809.5 929L810.5 930.5V932.5L808.5 932L806 932.5L803 933L800.5 932H797.5V933L796.5 934L795.5 936C795.167 936.333 794.4 937 794 937H790L788.5 935L786 934L785 935.5L782.5 937L779 935.5L776 934L773.5 935V935.5H771V934L769.5 930.5L767 927.5L765 926.5L763 925.5C762.5 924 761.4 921 761 921H758.5L756.5 919.5C756.167 918.167 755.5 915.4 755.5 915C755.5 914.6 754.5 913.5 754 913C753.333 912 751.9 910 751.5 910C751.1 910 750.333 909.333 750 909L749.5 908L750 905.5L748 903.5L745.5 902L743.5 902.5L740.5 904L739 905.5H735L732.5 903.5L730.5 902V899.5L731 897C731.333 896.167 732 894.4 732 894C732 893.6 732.333 892.5 732.5 892L733 890.5L734.5 889.5L735 888L734.5 885.5L732.5 884.5L730.5 884L726.5 882.5L723 881.5L720.5 878.5C719.333 878.333 716.9 877.9 716.5 877.5C716.1 877.1 714 876.667 713 876.5L711 876L710 872L709 869L707.5 866.5L706.5 864C706.667 863 706.9 860.9 706.5 860.5L704.5 858.5L702.5 857C701.833 856.833 700.4 856.4 700 856C699.6 855.6 698.167 856.167 697.5 856.5H693.5L689.5 856C689 855.667 687.8 854.9 687 854.5C686.2 854.1 686.333 854 686.5 854L683 852.5L682.5 853.5H679L676.5 852.5L674.5 850L664.5 840.5L663.5 839.5L662.5 838L663.5 837L665.5 836L668 835.5L670 834V830.5L671 828L672.5 826L674.5 824L675.5 822.5V820.5V818.5L676.5 818L677.5 817L679 818L680.5 819.5L682.5 823H684L685.5 822.5L687 820.5L688 819.5V817L692.5 813.5L693 811.5V807.5V804L692.5 800.5L690.5 799H688H685.5C685.1 799 684.333 798.667 684 798.5L682.5 796H681H676.5V795L674.5 793C674.1 792.6 673 791.833 672.5 791.5L670 792L668 793.5L664 795C662.833 795.333 660.4 796 660 796H656.5C656.5 795.333 656.3 793.9 655.5 793.5L649.5 790.5L648.5 788V784.5V779L646.5 774.5L644.5 772L641 771L637.5 770.5L635.5 771L632.5 772L630 770.5L627 769L625.5 765L624.5 760.5L621.5 758.5L618.5 756.5L617 754L615 750.5L612.5 749.5Z" stroke="black"/>
<path d="M881 678L882.5 682.5V683.5H884.5H888L890.5 683L893.5 685V688L895.5 689L897 690L899 689L901.5 688.5H904.5H907H909.5L910 687L913.5 686L914.5 685L917.5 684.5L917 682V678.5L918.5 678L920 677H923H925L923.5 678.5L921.5 680L919.5 680.5L920 682.5L921.5 683V684.5L922 687L924 688H928.5H931.5L935.5 689L937.5 691L940 692L941.5 694.679L941 697.5L943.5 699L941 699.5L941.5 702.5L943.5 704.5L944 706.5L942.5 709L942 711.5L945.5 714.5H948L951 715.5L953 720L954 725.5L952.5 727L951.5 729L950 731L949.5 734L950.5 736.5L951.5 741L955 747L957.5 749.5L962.5 750.5L966.5 751L968.5 752L971.5 754L975 754.5L977.5 756L981 757L983 758L986.5 760L987.5 762L989.5 764L992 763.5L996.5 764L997.5 766L1000 768L1002.5 769.5V772.5L1003 776H1005L1006 774.5H1008.5L1010 773.5L1011 772.5L1012.5 774L1013.5 773.5H1015L1017 774.5H1018.5H1020.5L1022.5 774L1023 773.5V771.5L1022.5 769.5L1022 768.5H1020L1019 768L1018.5 766.5L1015.5 766L1013.5 765.5L1011.5 765L1011 764.5L1010 763.5L1010.5 762L1010 759V756.5L1011.5 754.5L1012 752.5L1013.5 748.5L1015.5 744.5L1016 741.5L1018.5 737.5L1022 734L1024 732.5L1025 730.5H1026.5H1027.5V729H1026.5H1024H1022C1021.5 728.667 1020.4 728 1020 728H1016L1011.5 726L1008.5 725.5H1006L1002.5 724.5C1002.33 724.167 1001.9 723.5 1001.5 723.5C1001.1 723.5 999.333 722.5 998.5 722L996.5 721.5H991.5L990 720.5L987 719L985.5 717.5L984 716.5L982 713L980.5 710.5L979 709L978.5 706.5L977 704.5V701.5V700.5L976 699V696.5L974.5 694.679L974 693.5L973 692.5V688H971.5H970L969 687L968.688 684.5L967.5 683L965.5 681.196L964.5 680L965.5 678.5L968.5 679.5H970L970.5 683.5L971.5 683.759C971.667 680.339 972 673.4 972 673V672L973 671.5L973.5 671C973.833 670.5 974.5 669.4 974.5 669C974.5 668.5 973.5 668.5 973 668C972.6 667.6 971.833 667.167 971.5 667C971 666.833 969.9 666.5 969.5 666.5C969.1 666.5 969.333 665.5 969.5 665C969.333 664.167 968.938 662.3 968.688 661.5C968.376 660.5 967 659.5 966.5 659C966 658.5 964.5 656.5 964 656C963.6 655.6 963.167 653.833 963 653L961.5 651.278C961.167 650.852 960.4 649.9 960 649.5C959.5 649 960 647.5 960 647C960 646.6 959.667 644.833 959.5 644L960.5 642L960 640.5H953.5L952 639C951.667 638.5 950.9 637.5 950.5 637.5C950.1 637.5 949.333 636.833 949 636.5H946.5L944.5 637L944 638L940.5 637L935 637.5L935.5 639V642L937 644.5L938.325 645.5L939 647.5V649.5L937.5 651V652.5L938.5 654L940 655.5L942 658.5L944 659.5L947 660C947.667 660.333 949.1 661.1 949.5 661.5C950 662 950 663 949.5 663C949 663 948 662.5 947.5 662C947 661.5 945.5 662.5 945 662C944.5 661.5 944 662 943.5 662C943.1 662 941.333 662.333 940.5 662.5L939 661.5L937.5 660H935.5H932.753C932.556 660 931.836 659.333 931.5 659L929 657C928.333 656.5 927 655.4 927 655C927 654.6 926 654.167 925.5 654L924.5 653L923 652.5L923.5 651.278L924.5 650.5L925.5 651.278L927 651.5H928.5L930 650.5L930.5 649.5L930 648.5C929.5 648.333 928.4 648 928 648H927C926.833 647.5 926.3 646.5 925.5 646.5C924.7 646.5 924.833 644.833 925 644L924 642C923.667 641 922.9 639 922.5 639C922 639 921 638 920.5 638C920.1 638 919.667 639 919.5 639.5C919.167 640 918.4 640.9 918 640.5C917.6 640.1 915.833 640 915 640H912.5C912.1 640 911 640.667 910.5 641L909.5 642.5L908 644L905.5 645L904.5 645.5L903 647.5V648.5L903.5 650L901.5 650.5L901 651L902 652L903 653L905 653.5H906.5L908.5 654L908 655L907 655.5L908.5 657L910.5 657.5L911 659L909.5 659.5H907L905.5 660L904 662.5L901.5 664.5L899 666L897 667.5L895 669.5L892.5 670.5L889.5 671.5L884.5 672.5L882.5 675L881 678Z" stroke="black"/>
<path d="M1026.5 765.5L1024 764L1025 762L1027.5 761.5L1029 759L1030.5 758L1031 759.5L1033 760L1034 761.5L1037 762.5L1039 763.5H1037.5V765L1035.5 766.5V768.5H1034.5L1030.5 768L1029 766.5L1026.5 765.5Z" stroke="black"/>
<path d="M1051 757.5V755L1052 754.5L1053 754V755L1054.5 755.5V757L1054 757.5L1053 758.5L1052.5 757.5H1051Z" stroke="black"/>
<path d="M1082 755.5L1084 754L1085 753.5L1087.5 753L1089.5 755L1090 757L1088.5 758.5L1087 759.5H1085H1082L1081 757.5L1082 755.5Z" stroke="black"/>
<path d="M1101 752.5V750L1101.5 748.5H1103L1103.5 749L1105 749.5L1105.5 748V745.5V744.5C1105.33 744 1104.9 742.9 1104.5 742.5C1104.1 742.1 1104.33 741 1104.5 740.5V738L1105.5 737L1105 734.5L1105.5 731.5L1106.5 730.5L1107.5 729L1110 728L1112.5 728.5L1118 728L1120 727.5L1122 728.5L1124.5 729H1125.5L1127 731L1128 731.5L1128.5 730.5L1130 730L1132.5 731L1134 730L1135.5 731.5L1136 733L1137 734L1137.5 735.5L1136.5 738L1135 738.5L1135.5 740.5H1136.5C1136.83 740.167 1137.5 739.4 1137.5 739C1137.5 738.6 1138.5 738.167 1139 738L1140 737.5L1140.5 736.5L1140 734C1140.17 733.667 1140.6 733 1141 733C1141.5 733 1142.5 733.5 1143 733.5C1143.4 733.5 1143.83 733.833 1144 734L1145 735H1145.5L1147.5 735.5V738H1146.5L1145.5 738.5L1146 739L1148 739.5H1150.5L1152 740.5L1153.5 742L1155.5 744L1156.5 745L1158 746L1159 747.5L1159.5 749L1160 751.5L1161 753L1160 755.5L1159 757L1158 758.5L1156.5 760L1156 762V762.5L1155.5 764L1154 765.5H1153C1152.5 765.5 1152.5 764.5 1152 764C1151.5 763.5 1152 763.5 1152 763C1152 762.5 1152 761.5 1152.5 761C1152.9 760.6 1152 760.167 1151.5 760L1150 759.5L1149 760V761.5C1149 761.9 1148.33 762 1148 762C1147.83 762.167 1147.3 762.6 1146.5 763C1145.7 763.4 1145.83 764.167 1146 764.5C1146.5 764.667 1147.6 765 1148 765C1148.4 765 1148.83 765.333 1149 765.5L1150 766.5L1151 768L1152.5 770L1154 771.5L1152.5 772.5V774.5L1151.5 776.5L1151 777L1150.5 779.5L1149.5 781H1147.5H1146.5L1145.5 780L1145 781H1143.5H1142.5L1141.5 782L1141 782.5L1140.5 784L1141.5 785.5V787L1140.5 787.5L1139 788L1138.5 787H1137V788.5L1136 789L1135 788.5V787V784.5L1134.5 782L1132.5 779.5C1132 778.833 1130.8 777.4 1130 777C1129.2 776.6 1128 774.833 1127.5 774C1127.17 773.5 1126.5 772.4 1126.5 772C1126.5 771.5 1125 771.5 1124.5 771.5C1124 771.5 1123 771 1122.5 771C1122.1 771 1122.33 772 1122.5 772.5C1122 772.667 1120.8 773 1120 773C1119.2 773 1118.67 773.261 1118.5 773.392V775L1120.5 777L1121 779C1120.33 779.667 1119 781.1 1119 781.5C1119 781.9 1116.67 782.667 1115.5 783H1113.5C1112.83 783 1111.1 783.1 1109.5 783.5C1107.9 783.9 1107.17 784.667 1107 785L1105.5 786.5C1104.83 786.667 1103.4 787 1103 787C1102.6 787 1101.5 786.667 1101 786.5V785L1102.5 782.5L1103.5 780.5L1104.5 778.5L1103 777.5L1100.5 773C1100.17 772.5 1099.4 771.4 1099 771C1098.5 770.5 1099 769 1099 768.5V766.5L1100 765.5C1100.5 765.333 1101.5 764.9 1101.5 764.5C1101.5 764.1 1102.5 764.333 1103 764.5V762.5C1102.83 761.833 1102.5 760.4 1102.5 760C1102.5 759.6 1102.83 759.5 1103 759.5L1106 761V758L1104 757.5L1102 758.5C1101.33 758.333 1100.1 758 1100.5 758C1101 758 1102.5 756.5 1102.5 756C1102.5 755.6 1101.83 754.833 1101.5 754.5L1101 752.5Z" stroke="black"/>
</g>
<path id="lampung" d="M754.5 941.5L748.5 938.5L747.5 937.5L748.5 936.5L751 934L753.5 933L755.5 932L757.5 929L759.5 929.5L762 928L765.5 930L768 933L767 935L765.5 936.5L767 938.5L769 939L772 937.5H774.5L781.5 938.5H786.5L789 939H793C793.833 939.167 795.6 939.4 796 939C796.4 938.6 797.5 936.833 798 936L799.5 935L800.5 935.5H804.5H807H809.5L811 935L813 933C813.4 932.6 814.167 931.5 814.5 931L815.5 927.5L814.5 928H812.5L810.5 926.5L809.5 924L810.5 922V920.5C810.167 920.167 809.3 919.4 808.5 919C807.7 918.6 808.167 918.167 808.5 918L808 915C808.5 914.667 809.7 913.9 810.5 913.5C811.3 913.1 811.5 912.333 811.5 912L812.5 909.5L811 907L810.5 904.5L811 899L811.5 895L814 892.5L815.5 889L817.5 888L820.5 884.5L824 884L829 880.5L831 879.5L835.5 878L837 879.5L845.5 880.5L850.5 879.5H854L858.5 877.5L862 876L867 873.5H869.5L873.5 870.5L876 866L878.5 863.5L880.5 860.5L881.5 857.5L883 854L885 851L887.5 848.5L889 849L892 849.5L894 847.5L895.5 845L896.5 844L897 842L895.5 841.5V839.5C895.5 839 896.5 839 897 838.5C897.4 838.1 897.5 837 897.5 836.5L898 833.5H900V837.5L902 838.5L904.5 837.5L906.5 838.5V841.5L909 842.5H912L914.5 844V846.5L916.5 847.5H917.5H919.5L919 849.5L920.5 851L923.5 854.5V856.5V859V862.5L924.5 861.5L926 862.5L928.5 864.5L931 866.5L932 869L936 870.5H937L938 868H940.5V869.5L942 871.5V887L944.5 889.5H945L945.5 891L944.5 891.5V892.5H945L945.5 894.5L948 896.5L948.5 905.5L948 906.5V911.5L949 913L950 914.5L949 915.5H947V917.5V920.5L945.5 922.5V931V933.5L947 935.5L948 937.5L949 939.5L948 941L945.5 943.5L944.5 969.5L941.5 973V995.5V998.5L941 1000.5L941.5 1004L940.5 1007.5L938.5 1008.5L939.5 1010.5L938.5 1016V1018L937 1020V1021.5L935.5 1022.5H934L933.5 1020H930.5L928 1019L925.5 1018L923.5 1017.5L922 1016V1014L923.5 1012.5V1010.5V1009H921V1007.5L921.5 1005L919 1004H916H913.5L908 1000.5L906 998.5L902 992L900 988.5L898 985.5L897 984.5H893.5L891.5 986.5L891 990V994L890 996.5H887.5L884 997.5L883.5 1000.5L885.5 1003.5L885 1005.5L885.5 1009C885.167 1009.5 884.4 1010.5 884 1010.5C883.5 1010.5 883.5 1011.5 883 1012C882.6 1012.4 883.167 1013.5 883.5 1014L885 1016L883.5 1017L882 1014L878.5 1012.5L875 1010.5L871 1008.5L867.5 1006.5L862.5 1005L857 1001L849 996.5L846 993L844.5 991L842.5 991.5L839 990L835 989L831 990L828 992L827 993.5L829 997.5L832.5 1001L835.5 1005.5L837.5 1008V1010L837 1012.5L839 1014L839.5 1016C840.333 1016.67 842.1 1018.2 842.5 1019C842.9 1019.8 842.667 1020 842.5 1020V1023L843.5 1025L844.5 1027L844 1028H832.5V1024.5C832.5 1024 831.5 1022 831 1021.5C830.6 1021.1 828.833 1019.67 828 1019C825.833 1016.5 821.4 1011.5 821 1011.5C820.6 1011.5 818.167 1007.5 817 1005.5L814 1005L810 1003L811 1000.5L810 997C809.333 997 807.8 996.8 807 996L803 992C802.5 991.5 800 989.5 799 988.5C798 987.5 794 986 793.5 985C793 984 790 982 789 982C788 982 786.5 979 785 977.5C783.5 976 783 974 783 973C783 972 781.5 969.5 781 969C780.5 968.5 779.5 967 779 966.5C778.6 966.1 777.167 966 776.5 966C775.5 966.167 773.3 966.4 772.5 966C771.7 965.6 773.5 964.833 774.5 964.5L776.5 960.5L772.5 955L768 952.5L762 947L757.5 943.5L754.5 941.5Z" fill="#FF00C8" stroke="black"/>
</g>
</svg>
