<svg width="106" height="45" viewBox="0 0 106 45" fill="none" xmlns="http://www.w3.org/2000/svg">
<path d="M1.26589 39.3955L1 38.9128V37.5389L1.79766 37.019V36.7219L1.56976 35.905V34.5682L2.86121 32.8972L4.45654 32.0803L4.26662 31.4862L3.20307 29.7409V27.513L2.86121 27.253V25.8048H2.40541V24.8022L2.86121 23.9482L3.20307 22.4257L6.12783 20.0492L8.48283 19.6779L10.458 19.2323L11.3316 18.7496L12.9649 19.0095L13.3828 17.487L14.5603 16.3359L16.1176 15.6304L17.0292 14.2565L17.4091 13.6995H19.1183L19.992 14.7392L22.4229 14.9991L24.1322 15.8903L26.6392 16.5959L28.3864 17.7098H29.8678L30.4375 16.3359L30.7414 15.2591H35.9832L35.6793 16.5959L35.9832 17.9326L36.439 18.9352L37.3126 19.418H37.9963L38.2243 18.4154V17.7098L37.9963 17.1529L37.6925 16.5959L37.9963 16.3359L38.4522 16.5959L38.9459 16.9301L38.794 17.6356L38.5661 18.4154L38.6041 19.0095V19.418L38.3382 19.8636L38.2243 20.1235L38.794 20.4577L39.4397 21.2375L40.9971 21.7573L43.0102 22.2772L43.9218 22.9827L44.5296 25.582L45.6311 28.4041L47.1505 28.6641L49.4675 27.513L51.4047 28.6641L53.076 29.1839L55.0511 28.4041L57.4821 25.582H62.3441L63.5595 26.4361L66.1804 25.582L67.3579 24.3938L67.4719 22.2772L64.9649 20.4577L63.5595 20.1235L60.027 17.1529L58.5077 15.8903L54.1395 16.3359L47.8342 12.3256L43.0102 7.57254V4.9361L45.6311 2.81952H47.8342L51.4047 1H52.3543L53.6457 2.00259L56.0007 1.51986L57.0263 1.81693L59.3813 2.00259L60.9386 2.81952V5.82729L63.4076 9.24352L64.2053 9.72625V11.4344L67.6238 13.2539H69.3331L72.2958 10.5803L74.6888 8.35233H77.6896L80.8042 8.94646L83.8809 10.5803L84.7166 12.3256V16.3359L83.8809 17.6356V19.0095L83.0073 21.2375H83.8809L85.4763 19.418L86.7677 16.7444V13.6995L87.2235 12.3256L90.3762 9.50345H95.4281L98.0489 10.5803V13.291L99.6443 15.8903V19.0095L98.8086 20.4577V22.7228L99.6443 24.3938L100.86 24.9879H102.417L103.025 24.3938H104.392L105 25.582V27.0674L103.025 27.81H100.86L97.4792 28.4041L95.4281 26.4361L94.2885 25.582H93.111L91.8196 27.0674L88.7809 26.0276H87.6034L84.7166 29.1839L86.122 29.5181L86.3119 30.4093L83.9189 30.9292L80.4244 32.6744L76.0563 34.2712H72.9036L71.6121 32.3774V30.7435L73.5113 28.4041V24.3938L72.2958 22.7228H70.8524V24.3938L71.0424 26.0276H69.9029L68.7633 27.0674L66.1804 29.7038L62.3441 33.1943L60.027 34.2712L58.5077 32.3774L57.5581 32.9344L54.6713 33.1943L53.5318 35.0138L51.7085 35.2366L49.4675 36.5734L47.1505 35.0138L45.0234 36.5734L43.0102 35.9793H40.9971L38.9459 37.6131L36.439 39.0613L33.3243 40.2496L29.8678 41.5864H24.1322L21.4354 40.2496H19.992L18.3587 42.4033L16.8393 43.5544L14.1424 44H12.9649L9.62235 41.5864L8.48283 42.4033H7.49525L5.74799 41.5864L3.73484 41.1408L1.56976 40.0268L1.26589 39.3955Z" fill="#BDB2BB" stroke="black"/>
<path d="M34.8435 13.1797L36.5528 10.9889L37.2365 8.79801L37.8822 8.24101L38.2241 7.01562L41.0349 4.97331V4.04498H37.5784L36.2869 3.56226L35.4893 4.04498L34.1978 4.45345L33.5521 4.97331V7.75828L34.1978 8.24101V9.65207L33.78 10.7661L32.9443 11.4716V12.1028L33.78 12.6227L34.8435 13.1797Z" fill="#BDB2BB" stroke="black"/>
<path d="M88.5527 30.7064L91.3256 32.3031L93.1868 32.7858H95.4278L95.8456 32.3031V31.3748L94.1744 30.2237L91.6674 30.0751L88.5527 30.2237V30.7064Z" fill="#BDB2BB"/>
<path d="M101.239 7.60967L102.569 7.12694L103.29 5.97582V4.6019L102.303 3.30225H100.442L99.1882 4.34197V6.86701L100.176 7.60967H101.239Z" fill="#BDB2BB"/>
<path d="M88.5527 30.7064L91.3256 32.3031L93.1868 32.7858H95.4278L95.8456 32.3031V31.3748L94.1744 30.2237L91.6674 30.0751L88.5527 30.2237V30.7064Z" stroke="black"/>
<path d="M101.239 7.60967L102.569 7.12694L103.29 5.97582V4.6019L102.303 3.30225H100.442L99.1882 4.34197V6.86701L100.176 7.60967H101.239Z" stroke="black"/>
</svg>
