<svg width="1372" height="444" viewBox="0 0 1372 444" fill="none" xmlns="http://www.w3.org/2000/svg">
<g id="Group 8">
<path id="yogyakarta" d="M725.5 287.5V283.5L728.5 282L734 281L738.5 282L740 287.5L742.5 289.5L744.5 287.5L746 283.5L749.5 281L753 277.5L758 274.5L763.5 270L766.5 267.5H768.5V270L772 289.5L773.5 298.5L780.5 302L784.5 303.5H790.5H794L800.5 302H806.5L809.5 303.5L813 306.5L816 309.5L813 315V322V329.5L810.5 332L813 337L816 342.5V349.5V354.5L819 357H810.5L800.5 354.5L790.5 349.5L783 348L773.5 344.5L763.5 339.5L758 337L754.5 332H749.5C748.167 331.333 744.9 329.9 742.5 329.5C740.1 329.1 737.167 327.333 736 326.5L728.5 322L718 316.5L714 313V308L718 303.5L721.5 298.5L724.5 295.5L725.5 291V287.5Z" fill="#FBFF00" stroke="black"/>
<path id="jakarta" d="M223 59V52.5H227.5L230.5 54.5H234L236.5 55.5L238 57H240.5H244.5L247 56L249.5 54.5H252L255.5 52.5H260V65.5L258.5 68L257 71.5L254.5 73L252 75H250.5V78L252 80L253 82V84L252 85V88.5H250.5L248.5 87.5L247 86H245H242.5L241.5 87.5H239.5L240.5 86V84L241.5 82H239L235.5 80L232.5 76.5V72L229.5 68L226 62.5L223 59Z" fill="#6F00FF" stroke="black"/>
<g id="tgh-jawa">
<path d="M537 156C537.8 156.4 543 158.5 545.5 159.5L548.5 162.5H554.5L558 158L564 154.5L567.5 158L571 162.5L580 165.5L590 167L600 168.5L613 165.5C615.667 164.5 621.3 162.5 622.5 162.5C624 162.5 628 160 630 158C631.6 156.4 633.667 155 634.5 154.5L638.5 159.5C639.5 160.5 641.8 162.5 643 162.5C644.5 162.5 649.5 161.5 650.5 162.5C651.3 163.3 656.167 164.833 658.5 165.5L665 168.5C666.833 169.333 671.3 171 674.5 171C677.7 171 678.5 172.667 678.5 173.5C679.667 174.167 682.7 175.3 685.5 174.5C688.3 173.7 695.333 174.167 698.5 174.5H704H709.5L712.5 171H720C721.667 170.667 725.1 169.7 725.5 168.5C725.9 167.3 727 166 727.5 165.5L730.5 166.5L732.5 165.5L734 168.5L735.5 171H743L748.5 176L754.5 179.5H760H766L769.5 177.5L773 176L783 164L784 160.5L788 158L790 156V151.5L791 148.5L795 142.5L799.5 133.5L802 126L804 118.5L807.5 111L809.5 107L813 104.5L820 102.5L825 100.5L830.5 99L837 100.5L842.5 99L847.5 100.5H852.5L854 102.5V109L855 113.5L858.5 121L860 124.5L864.5 132L869.5 136.5L877.5 139.5H892L897 141.5H903H908.5L910 139.5L913.5 137.5L915 141.5L916.5 137.5V136.5L919.5 133.5V130.5H925C925.8 130.5 929 131.5 930.5 132L945 145.5L944.5 147.5V150L942.5 152.5L944.5 154.5L942.5 158L940.5 156L937.5 158V160.5L935.5 164L933.5 168.5L930.5 172.5L929 177.5L932 179.5L935.5 180.5V191L937.5 194L935.5 197.5L933.5 203L932 210L927.5 211.5L925 215L921.5 218L916.5 220.5H911.5L910 229.5H908.5C908 229.833 907.3 230.7 908.5 231.5C909.7 232.3 909 233.5 908.5 234L904.5 232.5L892 229.5L885.5 228V222.5L887 220.5L884.5 218L881.5 216.5L880 218H876L874.5 220.5H872L870.5 219.5L868.5 221L867.5 223.5V226L864.5 228L867.5 229.5V232.5L866.5 238.5L864.5 242V245.5V252L866.5 258L869.5 267L872 270.5L873 274H874.5V277.5L873 280.5L874.5 284.5L873 289.5L876 292C876.833 292.167 878.8 292.7 880 293.5C881.2 294.3 884.167 295.833 885.5 296.5L889 299.5L890.5 305C890 307.167 889 311.7 889 312.5C889 313.3 887.667 317.167 887 319L884.5 321L881.5 319L878 317.5L874 316.5L869.5 319L866.5 323.5L864.5 330.5V333L866.5 337H864.5H861L858.645 335.823C858.716 336.05 858.58 336.42 858 337C856.8 338.2 854.833 339.167 854 339.5H850H846C846 338.333 845.6 336.2 844 337C842.4 337.8 840.333 340 839.5 341L835.5 345L832.5 353.5L831.5 358C830.5 357.5 828.3 356.8 827.5 358C826.7 359.2 826.5 353.167 826.5 350L823.5 348H821.5L819 338L815 333L816.5 330.5L818 325.5V319L819 312.5L820.5 305.5V302.5L815 301L810.5 299.5L804 296.5H797H790H782L778 293.5L774 274L771.5 267V261L768 259.5L765 261L761 265.5L751.5 274L745.5 279L741.5 277.5L739.5 274L735.5 275.5L727.5 277.5L724 275.5H722L720.5 279L719 282V284.5L720.5 286.5V289.5C719.833 290.667 718.4 293.2 718 294C717.6 294.8 714.833 298 713.5 299.5L711 302.5V305.5L709 308L707.5 312.5L695.5 308C693.333 307.167 688.6 305.5 687 305.5C685.4 305.5 680.333 303.5 678 302.5L666.5 301L658.5 298L650.5 296.5L637 295L629.5 293.5L619 294L616.5 291.5L613 286.5L604 284.5H590.5L580 282L576.5 277.5H573.5L572 279V282L570.5 284.5H564C563.5 285.167 562.2 286.8 561 288C559.8 289.2 556.5 289.5 555 289.5L551 286.5H546L543.5 284.5L540.5 275.5V271L536.5 269.5L531.5 267.5V269.5C531.167 270.5 530.3 272.8 529.5 274C528.7 275.2 527.167 276.833 526.5 277.5L523.5 274V269.5V267.5C523.5 265.9 524.5 263.5 525 262.5L523.5 260.5L521 255V250V243.5C520.167 243.333 518.4 242.9 518 242.5C517.6 242.1 516.167 240 515.5 239L514.5 235L512 233L510 231.5L506.5 230.5L504.5 231.5L500 232L497.5 230.5L496.5 227V225L497.5 222.5L500 221L499 216.5V213.5L498 211.5H496.5V209H498L499 208L500.5 207.5C501 207 502.2 206.1 503 206.5C503.8 206.9 505.333 207.333 506 207.5L508 209L510 208L514.5 207.5L516.5 206.5L518 204L519.5 203L526.5 202V200.5L528.5 199V194.5L530 193.5V189C531 188.833 532.9 188.3 532.5 187.5C532.1 186.7 531 184.833 530.5 184L528.5 181L526.5 179.5L525.5 174V169.5L532.5 163.5L534 159.5V156H537Z" fill="#01DDFF"/>
<path d="M531.5 289.5L530.5 286.5L529.5 284.5L534.5 286.5L536.5 288L538 290.5H534.5L531.5 289.5Z" fill="#01DDFF"/>
<path d="M543.5 293L540.5 291.5V289.5L544 290L544.5 291L548 291.5L551 292L553.5 293L553 295H550C549.2 295 549.667 293.667 550 293H546.5H543.5Z" fill="#01DDFF"/>
<path d="M537 156C537.8 156.4 543 158.5 545.5 159.5L548.5 162.5H554.5L558 158L564 154.5L567.5 158L571 162.5L580 165.5L590 167L600 168.5L613 165.5C615.667 164.5 621.3 162.5 622.5 162.5C624 162.5 628 160 630 158C631.6 156.4 633.667 155 634.5 154.5L638.5 159.5C639.5 160.5 641.8 162.5 643 162.5C644.5 162.5 649.5 161.5 650.5 162.5C651.3 163.3 656.167 164.833 658.5 165.5L665 168.5C666.833 169.333 671.3 171 674.5 171C677.7 171 678.5 172.667 678.5 173.5C679.667 174.167 682.7 175.3 685.5 174.5C688.3 173.7 695.333 174.167 698.5 174.5H704H709.5L712.5 171H720C721.667 170.667 725.1 169.7 725.5 168.5C725.9 167.3 727 166 727.5 165.5L730.5 166.5L732.5 165.5L734 168.5L735.5 171H743L748.5 176L754.5 179.5H760H766L769.5 177.5L773 176L783 164L784 160.5L788 158L790 156V151.5L791 148.5L795 142.5L799.5 133.5L802 126L804 118.5L807.5 111L809.5 107L813 104.5L820 102.5L825 100.5L830.5 99L837 100.5L842.5 99L847.5 100.5H852.5L854 102.5V109L855 113.5L858.5 121L860 124.5L864.5 132L869.5 136.5L877.5 139.5H892L897 141.5H903H908.5L910 139.5L913.5 137.5L915 141.5L916.5 137.5V136.5L919.5 133.5V130.5H925C925.8 130.5 929 131.5 930.5 132L945 145.5L944.5 147.5V150L942.5 152.5L944.5 154.5L942.5 158L940.5 156L937.5 158V160.5L935.5 164L933.5 168.5L930.5 172.5L929 177.5L932 179.5L935.5 180.5V191L937.5 194L935.5 197.5L933.5 203L932 210L927.5 211.5L925 215L921.5 218L916.5 220.5H911.5L910 229.5H908.5C908 229.833 907.3 230.7 908.5 231.5C909.7 232.3 909 233.5 908.5 234L904.5 232.5L892 229.5L885.5 228V222.5L887 220.5L884.5 218L881.5 216.5L880 218H876L874.5 220.5H872L870.5 219.5L868.5 221L867.5 223.5V226L864.5 228L867.5 229.5V232.5L866.5 238.5L864.5 242V245.5V252L866.5 258L869.5 267L872 270.5L873 274H874.5V277.5L873 280.5L874.5 284.5L873 289.5L876 292C876.833 292.167 878.8 292.7 880 293.5C881.2 294.3 884.167 295.833 885.5 296.5L889 299.5L890.5 305C890 307.167 889 311.7 889 312.5C889 313.3 887.667 317.167 887 319L884.5 321L881.5 319L878 317.5L874 316.5L869.5 319L866.5 323.5L864.5 330.5V333L866.5 337H864.5H861L858.645 335.823C858.716 336.05 858.58 336.42 858 337C856.8 338.2 854.833 339.167 854 339.5H850H846C846 338.333 845.6 336.2 844 337C842.4 337.8 840.333 340 839.5 341L835.5 345L832.5 353.5L831.5 358C830.5 357.5 828.3 356.8 827.5 358C826.7 359.2 826.5 353.167 826.5 350L823.5 348H821.5L819 338L815 333L816.5 330.5L818 325.5V319L819 312.5L820.5 305.5V302.5L815 301L810.5 299.5L804 296.5H797H790H782L778 293.5L774 274L771.5 267V261L768 259.5L765 261L761 265.5L751.5 274L745.5 279L741.5 277.5L739.5 274L735.5 275.5L727.5 277.5L724 275.5H722L720.5 279L719 282V284.5L720.5 286.5V289.5C719.833 290.667 718.4 293.2 718 294C717.6 294.8 714.833 298 713.5 299.5L711 302.5V305.5L709 308L707.5 312.5L695.5 308C693.333 307.167 688.6 305.5 687 305.5C685.4 305.5 680.333 303.5 678 302.5L666.5 301L658.5 298L650.5 296.5L637 295L629.5 293.5L619 294L616.5 291.5L613 286.5L604 284.5H590.5L580 282L576.5 277.5H573.5L572 279V282L570.5 284.5H564C563.5 285.167 562.2 286.8 561 288C559.8 289.2 556.5 289.5 555 289.5L551 286.5H546L543.5 284.5L540.5 275.5V271L536.5 269.5L531.5 267.5V269.5C531.167 270.5 530.3 272.8 529.5 274C528.7 275.2 527.167 276.833 526.5 277.5L523.5 274V269.5V267.5C523.5 265.9 524.5 263.5 525 262.5L523.5 260.5L521 255V250V243.5C520.167 243.333 518.4 242.9 518 242.5C517.6 242.1 516.167 240 515.5 239L514.5 235L512 233L510 231.5L506.5 230.5L504.5 231.5L500 232L497.5 230.5L496.5 227V225L497.5 222.5L500 221L499 216.5V213.5L498 211.5H496.5V209H498L499 208L500.5 207.5C501 207 502.2 206.1 503 206.5C503.8 206.9 505.333 207.333 506 207.5L508 209L510 208L514.5 207.5L516.5 206.5L518 204L519.5 203L526.5 202V200.5L528.5 199V194.5L530 193.5V189C531 188.833 532.9 188.3 532.5 187.5C532.1 186.7 531 184.833 530.5 184L528.5 181L526.5 179.5L525.5 174V169.5L532.5 163.5L534 159.5V156H537Z" stroke="black"/>
<path d="M531.5 289.5L530.5 286.5L529.5 284.5L534.5 286.5L536.5 288L538 290.5H534.5L531.5 289.5Z" stroke="black"/>
<path d="M543.5 293L540.5 291.5V289.5L544 290L544.5 291L548 291.5L551 292L553.5 293L553 295H550C549.2 295 549.667 293.667 550 293H546.5H543.5Z" stroke="black"/>
</g>
<g id="b-jawa">
<path id="Vector 19" d="M275.5 28L270.5 25.5V29.5L271 34L270 34.5L269.5 36.5H267.5V39C267.5 39.4 268.167 40.1667 268.5 40.5L271.5 41L272.5 43.5L274 47H271.5L270.5 50.5H266L264.5 52.5V67.5L260.5 72L259.5 72.5L261 75.5C260.5 75.6667 259.4 76 259 76H256.5V77L255.5 78L256 80L257 82L256 85L256.5 87L257 89.5L255.5 91.5L254.5 93H251.5H249.5L246.5 91C245.667 91 243.7 90.9 242.5 90.5C241.3 90.1 240.667 91 240.5 91.5H236.5H231.5C231.1 91.5 229.333 91.8333 228.5 92C225 92 217.8 91.9 217 91.5C216.2 91.1 213.667 91.3333 212.5 91.5H209C208.333 91.6667 206.9 91.9 206.5 91.5L205 90L203.5 88.5L200 89.5L198 91C196.333 90.8333 192.9 90.5 192.5 90.5C192.1 90.5 192.333 88.8333 192.5 88L192 86L190 84L188 86L186.5 88L185.5 91L186.5 93.5L188.5 96L190 99L188.5 102L186.5 104L183.5 104.5L182 108L181 111L182 114.5L184 118L185.5 121V137.5L190 141L193 144.5L195 147L197.5 149.5L195 152L193 154.5L190 155.5L188 158.5L186.5 160.5L183.5 167L181 168.5L180 170L180.5 172.5L181 173.5L180 175L179.5 176L181 176.5H183L185 175L186.5 176.5H190H194L196.5 177L198.5 178.5L202 180L201.5 188.5L202 193L194 199L190.5 202.5L189.5 204V206V210L189 213H186H182.5L181 214L179 217.5V220L178 223.5L177.5 226V228C178 229 179.1 231 179.5 231C179.9 231 182 233 183 234C184.5 234.333 187.7 235 188.5 235C189.3 235 192.167 237 193.5 238L202 242L210.5 242.5L215 243.5L219 244.5H234.5L252 245L255.5 246C258 246.167 263.1 246.5 263.5 246.5C263.9 246.5 267.333 246.833 269 247L274.5 247.5L287 249.5L300.5 252.5L307 253.5L313 254.5L318.5 255L326 254.5L332 256.5L336.5 258L341 260.5L346.5 262.5C347.667 263 350.1 264 350.5 264C350.9 264 353.333 265 354.5 265.5L359.5 269L366 275L367.5 278C369 278.667 372.1 280 372.5 280C372.9 280 378.333 280.667 381 281L384 282C385.167 282.667 387.6 284.1 388 284.5C388.4 284.9 388.833 286.667 389 287.5L391 289.5C392.167 289.667 394.6 290 395 290C395.4 290 395.833 289 396 288.5L399 287C399.8 286.6 400.333 288.5 400.5 289.5H407C408 289.5 413 292.5 414.5 292.5C415.7 292.5 421.667 293.833 424.5 294.5L429 296C430.5 296.5 433.7 297.4 434.5 297C435.3 296.6 436.5 296.833 437 297L442 298.5C443 298.833 445.3 299.5 446.5 299.5H449.5L453.5 301.5C455.5 301.5 459.7 301.6 460.5 302C461.3 302.4 464.5 301.833 466 301.5L472 302.5C473.167 302.333 475.6 301.9 476 301.5C476.4 301.1 478.5 300.333 479.5 300L483 299.5C483.333 298.833 484.1 297.4 484.5 297C484.9 296.6 483.667 295.5 483 295V292.5V288L484 285.5C485 285.333 487.1 284.9 487.5 284.5C487.9 284.1 489.333 283.667 490 283.5C491.167 283.5 493.8 283.4 495 283C496.2 282.6 496.5 282.833 496.5 283C496.833 283 497.8 282.9 499 282.5C500.2 282.1 500.5 283 500.5 283.5H506H509.5L511.5 282H514.5L518 283L520 284H523C523.5 283.833 524.5 283.4 524.5 283C524.5 282.5 523 280 522.5 279.5C522 279 518 277 518 276V273.5C518.167 272.833 518.6 271.4 519 271C519.5 270.5 520 267 520 266V263L518 259L516 255.5L515 253.5V251.5V249L512.5 245L510 238.5L507.5 237H504.5L495 236L493 234.5L492.5 232L492 228.5L491.5 225.5L492.5 223L494.5 221L494 216L492.5 212.5L491.5 210V207.5L494.5 206L496.5 204.5L499.5 203.5L502 202.5H505.5L507.5 204.5H510C510.4 204.5 512.5 204.167 513.5 204L515 201C515.833 200.5 517.6 199.5 518 199.5C518.4 199.5 519.833 198.833 520.5 198.5L523 199L524 196.5V192C524 191.5 524.5 190 525 189C525.4 188.2 525.5 186.667 525.5 186L525 184.5L522 183V179.5L521 175.5L520 172.5V170.5L522.5 169V167L523 165L525.5 164.5L528 162C528.5 161.5 529.5 160.4 529.5 160C529.5 159.6 530.5 158.5 531 158C531.167 157.5 531.5 156.3 531.5 155.5C531.5 154.7 530.833 154.167 530.5 154L529 154.5L527 156.5L524 157.5L520 158.5L516 158L512.5 157.5C511.667 157 509.8 155.9 509 155.5C508.2 155.1 509.333 154.667 510 154.5L508.5 152L507.5 151L506 152L503 151.5H499.5L497 148.5C496.167 147.833 494.4 146.4 494 146C493.6 145.6 493.167 143.167 493 142L492 139.5V136.5L490.5 131.5V129.5L489.5 126V122.5L490 120.5L489 117H486.5V115.5L489 114.5V110.5L488 108H484L482 105.5L479 104L474 101L465.5 91L464 85.5L465.5 83.5L464 79H460.5L457.5 76.5L454.5 74.5L453 76.5H444.5L442 79L444.5 81.5L442 85.5L439 87H434.5V89H432H426.5L406 76.5H404L403 74.5H398.5H395.5V72.5L392.5 71.5L389.5 68.5L388.5 66.5H386L384 68.5L379 70L376.5 72.5H372H368V74.5H363H360V72.5L359 70L353 66.5L345.5 65L339.5 62.5L331.5 58L329.5 53L326 47.5L321 39.5L317 36.5L315.5 34L308.5 33L302.5 34L298 36.5H292H286L283.5 33L280 29.5H277L275.5 28Z" fill="#FF0000" stroke="black"/>
<g id="Vector 15">
<path d="M69 124.5V114L70 111H72.5V112.5L73.5 114.5L78.5 116.5L82.5 115.5L88 114.5L93 110L95 107.5L96 102.5L97 101L97.5 96L97 94L97.5 91L98 85L99 82L100 81L99 78.5L97.5 77.5V75V72L98.5 69L99 66.5H100.5V63.5L101.5 60.5L102.5 59L103.5 57V55L105 54L106 53.5V52V49.5L107 48L108 47H109.5L111 46L114.5 42.5L116.5 41.5L118.5 39.5L119.5 37.5L120 35.5L121 33L122.5 32V27L123 25L125.5 22H131.5L133.5 24.5V27L134.5 30L133.5 32.5V34L134.5 35.5L139 40.5L141 41.5L143.5 42.5H149L151 41.5L154 41L156 39.5L157 36.5L158.5 35.5V34.5V32.5L159.5 31L161 30.5L163 31L165 32.5L167.5 33L169 34L171 35.5H173.5L176.5 36.5V39.5L178 41.5L180.5 42.5L182 44H185L187.5 45L189.5 45.5V47H191.5H194.5L195 46L196 45.5V44.5V43L197.5 42.5L198 41.5H200.5L201.5 43H203.5V43.5V44.5H206L207.5 44V43H210L211.5 42.5L212 41.5H213.5L214.5 42.5H216.5L218 43L219 41.5H221L222 42L222.5 49L219 50.5V62L220 65L224 65.5V68.5L224.5 72L227.5 72.5L228 74.5L229.5 79L230.5 81.5L232.5 84.5L230.5 87.5L210 88L207.5 86.5L206 85.5L201.5 84.5L198.5 83L195 82.5L192.5 81.5H188.5L187 82.5L185 84L184 86L182.5 87L182 91L183.5 94.5V97L185 98.5V101H183.5L179 102L178 104.5L177 109.5L178 112.5L178.5 117L179.5 117.5V120L181 120.5V122.5V139L183.5 142L186.5 146.5L192 149L189 152L183.5 156.5L181 162L177 166V170.5L175 179.5C173.833 179.833 171.1 180.3 169.5 179.5C167.9 178.7 163.833 177.167 162 176.5L154.5 170.5H150L143 168.5L136.5 164L131.5 158.5L124.5 156.5L120 154H107.5V156.5H101L91 158.5L85 156.5L75 158.5H69L60.5 160.5H56.5L50.5 162L44.5 160.5L48.5 156.5L51.5 152V146.5L56.5 142L60.5 137L66.5 131L69 124.5Z" fill="#FF0000"/>
<path d="M37 158.5L33.5 156.5H31.5L30 154.5L27 154H25L23 153H20L17.5 154L16 155.5L15 158H13H12V156V153L10 152V150L11 149.5L13 151L15 150L15.5 147.5L18.5 145L22 143L24.5 141.5L25 138V135.5L28.5 134L29.5 135.5L30.5 138V141V144V146.5L33.5 149.5L37 152L38 156L37 158.5Z" fill="#FF0000"/>
<path d="M2 122L1 120L3 118.5L7 120L7.5 118L10 118.5V122H12V126.5H10V129H7V127.5H4V124.5L2 122Z" fill="#FF0000"/>
<path d="M69 124.5V114L70 111H72.5V112.5L73.5 114.5L78.5 116.5L82.5 115.5L88 114.5L93 110L95 107.5L96 102.5L97 101L97.5 96L97 94L97.5 91L98 85L99 82L100 81L99 78.5L97.5 77.5V75V72L98.5 69L99 66.5H100.5V63.5L101.5 60.5L102.5 59L103.5 57V55L105 54L106 53.5V52V49.5L107 48L108 47H109.5L111 46L114.5 42.5L116.5 41.5L118.5 39.5L119.5 37.5L120 35.5L121 33L122.5 32V27L123 25L125.5 22H131.5L133.5 24.5V27L134.5 30L133.5 32.5V34L134.5 35.5L139 40.5L141 41.5L143.5 42.5H149L151 41.5L154 41L156 39.5L157 36.5L158.5 35.5V34.5V32.5L159.5 31L161 30.5L163 31L165 32.5L167.5 33L169 34L171 35.5H173.5L176.5 36.5V39.5L178 41.5L180.5 42.5L182 44H185L187.5 45L189.5 45.5V47H191.5H194.5L195 46L196 45.5V44.5V43L197.5 42.5L198 41.5H200.5L201.5 43H203.5V43.5V44.5H206L207.5 44V43H210L211.5 42.5L212 41.5H213.5L214.5 42.5H216.5L218 43L219 41.5H221L222 42L222.5 49L219 50.5V62L220 65L224 65.5V68.5L224.5 72L227.5 72.5L228 74.5L229.5 79L230.5 81.5L232.5 84.5L230.5 87.5L210 88L207.5 86.5L206 85.5L201.5 84.5L198.5 83L195 82.5L192.5 81.5H188.5L187 82.5L185 84L184 86L182.5 87L182 91L183.5 94.5V97L185 98.5V101H183.5L179 102L178 104.5L177 109.5L178 112.5L178.5 117L179.5 117.5V120L181 120.5V122.5V139L183.5 142L186.5 146.5L192 149L189 152L183.5 156.5L181 162L177 166V170.5L175 179.5C173.833 179.833 171.1 180.3 169.5 179.5C167.9 178.7 163.833 177.167 162 176.5L154.5 170.5H150L143 168.5L136.5 164L131.5 158.5L124.5 156.5L120 154H107.5V156.5H101L91 158.5L85 156.5L75 158.5H69L60.5 160.5H56.5L50.5 162L44.5 160.5L48.5 156.5L51.5 152V146.5L56.5 142L60.5 137L66.5 131L69 124.5Z" stroke="black"/>
<path d="M37 158.5L33.5 156.5H31.5L30 154.5L27 154H25L23 153H20L17.5 154L16 155.5L15 158H13H12V156V153L10 152V150L11 149.5L13 151L15 150L15.5 147.5L18.5 145L22 143L24.5 141.5L25 138V135.5L28.5 134L29.5 135.5L30.5 138V141V144V146.5L33.5 149.5L37 152L38 156L37 158.5Z" stroke="black"/>
<path d="M2 122L1 120L3 118.5L7 120L7.5 118L10 118.5V122H12V126.5H10V129H7V127.5H4V124.5L2 122Z" stroke="black"/>
</g>
</g>
<g id="t-jawa">
<path d="M872.5 231.5L870.5 227.5L872.5 225L874 223.5H876.5H878.5H880.5V225L879.5 226.5V230.5L884 233H887.5L889 232L893 235L897 237.5H901.5L907 239H911L916 240.5L918 239V235V232L916 229.5V226.5L918 225H920H923C922.667 224 922.2 221.9 923 221.5C923.8 221.1 926.333 219.667 927.5 219L932 216H935.5L934.5 212.5L938 207.5C938.333 207 939.1 205.7 939.5 204.5L940.5 201.5V198L942.5 193.5V191.5C942.167 190.833 941.3 189.2 940.5 188C939.7 186.8 940.167 185.167 940.5 184.5V181.5V179.5L938 176.5H935.5L934.5 173.5L938 171.5L940.5 168V164.5V160H942.5H945.5L947 157.5V156L948 153.5L950 152L956 150.5L960 152L966.5 155H972H976.5L981 153.5L984 152L987 149.5L990.5 152L999.5 166L1003 170H1010H1020.5L1024 168H1029.5L1038 166H1044.5H1054.5L1060 168L1062.5 171.5L1069 172.5L1072 170L1075 168V164.5L1077.5 166L1080 172.5V179.5H1081.5L1082.5 184.5L1086.5 186L1089 188L1086.5 190.5L1084.5 193.5V199.5V204.5L1089 207.5V210V215L1091.5 219H1096H1101L1102.5 216.5V215L1107 216.5L1111.5 222L1112.5 226H1108.5L1111.5 228.5L1114 231L1115 234.5L1111.5 236V242H1114V245V252H1110V254L1111.5 257L1115 260L1117.5 263L1115 265V268L1117.5 272.5L1119.5 274L1124 276.5L1128.5 278L1133.5 279C1134.67 279.667 1137.4 281 1139 281H1140.5H1146C1147.2 281 1147.83 283.333 1148 284.5C1149.83 286.333 1153.5 290.2 1153.5 291C1153.5 291.8 1156.5 291.333 1158 291L1165 296H1168.5L1170 294.5H1173.5L1177 297L1180 301H1182V299.5H1188.5L1196 296L1203.5 293L1209 290L1215 289L1224 291H1228.5L1236 293H1239L1242 291H1245L1250 293H1255L1257.5 291L1261 288L1263 286H1268L1272 289H1276L1279.5 286L1288 278L1289.5 275.5H1292.5L1293.5 278L1296.5 284.5L1303 291H1314.5H1321.5L1330.5 296H1335.5L1340 298L1348.5 301L1351.5 305L1348.5 315L1346 318.5V322V338L1344.5 344.5L1342 349.5V354.5L1340 360V367.5L1336.5 376.5L1332.5 389.5L1334 397.5L1336.5 402L1334 406V408.5L1338 410.5H1342L1343 415L1346 421.5L1351 426H1354.5L1355.5 424.5H1356.5L1358 426L1360.5 427.5L1365 428.5L1369 431L1371.5 435V439L1369 441.5L1365 443H1360.5L1358 441.5L1354.5 440L1349 439H1344.5L1342 437.5L1343 433L1342 428.5L1338 423.5L1332.5 420L1327 418.5H1325L1317.66 417L1317 423.5L1312 421.5H1306C1304.83 421 1302.3 419.7 1301.5 418.5C1300.7 417.3 1299.5 417 1299 417V420L1295 421.5H1291.5V418.5L1290.5 417L1286.5 415L1283 417V415V412.5H1280L1277.5 411.5L1273.5 412.5C1272.67 412.167 1270.8 411.5 1270 411.5H1268C1266.5 410.667 1263.3 408.9 1262.5 408.5C1261.7 408.1 1261.17 406 1261 405L1258.5 402L1257.5 400L1254.5 401L1252 402L1250 405C1249.33 405.333 1247.7 406 1246.5 406C1245.3 406 1246 403.333 1246.5 402L1244.5 400H1241.5L1240.5 402C1239.67 402.167 1237.8 402.4 1237 402C1236.2 401.6 1236.67 400.5 1237 400L1235.5 397.5L1230.5 394L1227 392H1223.5H1219H1216.5L1213 389.5L1211 388V385L1205 384H1201.5L1200 386.5H1198L1196 384L1195 382.5C1194 381.167 1191.8 378.1 1191 376.5C1190.2 374.9 1181.33 371.833 1177 370.5H1163.5L1160.5 371.5C1159.5 371.833 1157.3 372.5 1156.5 372.5C1155.5 372.5 1154.5 371.5 1153.5 370.5C1152.7 369.7 1151.83 370.167 1151.5 370.5L1146.5 372.5L1141.5 375L1135.5 376.5L1131.5 379.5V384L1130 386.5L1128.5 384L1125 385V386.5L1120 388V385L1117.5 384L1115.5 382.5C1115 383 1113.7 384 1112.5 384C1111.3 384 1112 385.667 1112.5 386.5H1110H1108.5H1105.5L1104.5 389.5H1101L1097 392H1094.5L1093 394H1090L1086.5 392C1085 391.333 1081.7 389.9 1080.5 389.5C1079.3 389.1 1076.67 388.333 1075.5 388H1070.5L1061 386.5H1057.5L1053.5 384C1051.5 382.5 1047.3 379.5 1046.5 379.5C1045.7 379.5 1042.17 378.833 1040.5 378.5H1037L1034.5 379.5H1030.5L1026.5 376.5H1022.5L1017 375H1008.5H1001.5L996 373.5L992.5 371.5L988.5 370.5H986L983.5 373.5L978.5 372.5L976 369.5C975 368.667 972.8 367 972 367H970H967.5H964.5H962H961L959.5 370.5V373.5H957.5L956 371.5L953.5 372.5L951 373.5V376.5L948 378.5V381.5C947.167 381.667 945.2 381.9 944 381.5C942.5 381 942.5 379.5 942 378.5C941.6 377.7 940.167 376.833 939.5 376.5L934 375L929.5 372.5L927.5 375L922 376.5L919.5 375L918.5 372.5L915.5 369.5L911.5 367H906.5H904H902H897H891.5L890 365H886.5L883.5 366L875.5 369.5H871.5L868 366C867.5 365.667 866.3 364.8 865.5 364C864.7 363.2 864.167 361.667 864 361L861 360L859.5 361L858.5 363L856 365H851.5H848.5L846 363H842.5L840 361L837.5 360L836.5 357.5L837.5 353.5V350L840 347L842.5 343.5H844H846L848.5 345H851.5L858.5 343.5L859.5 341H861L864 343.5C865 343 867.2 341.8 868 341C868.8 340.2 868.333 339 868 338.5L870.5 336.5V330.5V325.5L871.5 324V322L874 320.5L875.5 322L879 324L882 325.5H886.5L888.5 322L891.5 318.5L893.5 315L895.5 312.5L897 309.5V306.5L895.5 303.5L893.5 300.5V297V295V291H887.5L882 289.5L879 286.5L877.5 280.5L879 277.5L880.5 274.5L877.5 270.5L874 268.5L872.5 262V255.5L869 253V247.5V243L870.5 242V238V233.5L872.5 231.5Z" fill="#FF5900"/>
<path d="M1081.5 13L1082.5 7L1086.5 1H1091.5H1098V7.5L1096 13H1089L1084.5 15L1081.5 13Z" fill="#FF5900"/>
<path d="M1184 403.5L1181 402L1183 399H1186H1189L1193 400H1197V402L1193 403.5H1184Z" fill="#FF5900"/>
<path d="M1101 192L1096 193.5V195L1098.5 197L1100 199.5L1098 201.5V204.5L1100 206.5H1104.5L1110.5 206H1116H1124L1129 209.5L1135 211H1139L1144 213H1149L1153 215.5L1160 214.5L1163.5 214L1168.5 214.5H1174H1177L1189 214L1194 214.5H1200H1210L1213.5 215.5L1217.5 217L1219.5 215.5L1220 213L1221.5 210.5V207L1224 204.5L1227.5 201C1228.33 200.833 1230.1 200.4 1230.5 200C1230.9 199.6 1233.67 199.5 1235 199.5L1238 198H1242.5C1244 198.333 1247.1 199.1 1247.5 199.5C1247.9 199.9 1249.67 200 1250.5 200H1255L1258 201.5L1262.5 202H1266.5L1268.5 201.5L1267.5 200L1265 199.5L1266 197L1267 193L1271 188.5L1273 186.5L1273.5 184H1276.5V186L1280 185.5H1282.5L1283.5 183H1287L1291 182H1296.5L1300.5 178L1296.5 176L1288 170C1285.17 169.333 1279.2 167.6 1278 166C1276.8 164.4 1273.5 165.333 1272 166H1266L1261 170H1253H1228.5H1190.5H1150.5H1119.5L1117.5 174.5L1112.5 182L1107 186L1101 192Z" fill="#FF5900"/>
<path d="M1283.5 197V196H1292.5V198.5H1290V197H1283.5Z" fill="#FF5900"/>
<path d="M1327.5 200L1328.5 196L1331.5 194L1335 196L1338.5 198.5L1339.5 203L1341 206L1342 209H1337.5C1335.17 207.833 1330.4 205.3 1330 204.5C1329.6 203.7 1328.17 201.167 1327.5 200Z" fill="#FF5900"/>
<path d="M872.5 231.5L870.5 227.5L872.5 225L874 223.5H876.5H878.5H880.5V225L879.5 226.5V230.5L884 233H887.5L889 232L893 235L897 237.5H901.5L907 239H911L916 240.5L918 239V235V232L916 229.5V226.5L918 225H920H923C922.667 224 922.2 221.9 923 221.5C923.8 221.1 926.333 219.667 927.5 219L932 216H935.5L934.5 212.5L938 207.5C938.333 207 939.1 205.7 939.5 204.5L940.5 201.5V198L942.5 193.5V191.5C942.167 190.833 941.3 189.2 940.5 188C939.7 186.8 940.167 185.167 940.5 184.5V181.5V179.5L938 176.5H935.5L934.5 173.5L938 171.5L940.5 168V164.5V160H942.5H945.5L947 157.5V156L948 153.5L950 152L956 150.5L960 152L966.5 155H972H976.5L981 153.5L984 152L987 149.5L990.5 152L999.5 166L1003 170H1010H1020.5L1024 168H1029.5L1038 166H1044.5H1054.5L1060 168L1062.5 171.5L1069 172.5L1072 170L1075 168V164.5L1077.5 166L1080 172.5V179.5H1081.5L1082.5 184.5L1086.5 186L1089 188L1086.5 190.5L1084.5 193.5V199.5V204.5L1089 207.5V210V215L1091.5 219H1096H1101L1102.5 216.5V215L1107 216.5L1111.5 222L1112.5 226H1108.5L1111.5 228.5L1114 231L1115 234.5L1111.5 236V242H1114V245V252H1110V254L1111.5 257L1115 260L1117.5 263L1115 265V268L1117.5 272.5L1119.5 274L1124 276.5L1128.5 278L1133.5 279C1134.67 279.667 1137.4 281 1139 281H1140.5H1146C1147.2 281 1147.83 283.333 1148 284.5C1149.83 286.333 1153.5 290.2 1153.5 291C1153.5 291.8 1156.5 291.333 1158 291L1165 296H1168.5L1170 294.5H1173.5L1177 297L1180 301H1182V299.5H1188.5L1196 296L1203.5 293L1209 290L1215 289L1224 291H1228.5L1236 293H1239L1242 291H1245L1250 293H1255L1257.5 291L1261 288L1263 286H1268L1272 289H1276L1279.5 286L1288 278L1289.5 275.5H1292.5L1293.5 278L1296.5 284.5L1303 291H1314.5H1321.5L1330.5 296H1335.5L1340 298L1348.5 301L1351.5 305L1348.5 315L1346 318.5V322V338L1344.5 344.5L1342 349.5V354.5L1340 360V367.5L1336.5 376.5L1332.5 389.5L1334 397.5L1336.5 402L1334 406V408.5L1338 410.5H1342L1343 415L1346 421.5L1351 426H1354.5L1355.5 424.5H1356.5L1358 426L1360.5 427.5L1365 428.5L1369 431L1371.5 435V439L1369 441.5L1365 443H1360.5L1358 441.5L1354.5 440L1349 439H1344.5L1342 437.5L1343 433L1342 428.5L1338 423.5L1332.5 420L1327 418.5H1325L1317.66 417L1317 423.5L1312 421.5H1306C1304.83 421 1302.3 419.7 1301.5 418.5C1300.7 417.3 1299.5 417 1299 417V420L1295 421.5H1291.5V418.5L1290.5 417L1286.5 415L1283 417V415V412.5H1280L1277.5 411.5L1273.5 412.5C1272.67 412.167 1270.8 411.5 1270 411.5H1268C1266.5 410.667 1263.3 408.9 1262.5 408.5C1261.7 408.1 1261.17 406 1261 405L1258.5 402L1257.5 400L1254.5 401L1252 402L1250 405C1249.33 405.333 1247.7 406 1246.5 406C1245.3 406 1246 403.333 1246.5 402L1244.5 400H1241.5L1240.5 402C1239.67 402.167 1237.8 402.4 1237 402C1236.2 401.6 1236.67 400.5 1237 400L1235.5 397.5L1230.5 394L1227 392H1223.5H1219H1216.5L1213 389.5L1211 388V385L1205 384H1201.5L1200 386.5H1198L1196 384L1195 382.5C1194 381.167 1191.8 378.1 1191 376.5C1190.2 374.9 1181.33 371.833 1177 370.5H1163.5L1160.5 371.5C1159.5 371.833 1157.3 372.5 1156.5 372.5C1155.5 372.5 1154.5 371.5 1153.5 370.5C1152.7 369.7 1151.83 370.167 1151.5 370.5L1146.5 372.5L1141.5 375L1135.5 376.5L1131.5 379.5V384L1130 386.5L1128.5 384L1125 385V386.5L1120 388V385L1117.5 384L1115.5 382.5C1115 383 1113.7 384 1112.5 384C1111.3 384 1112 385.667 1112.5 386.5H1110H1108.5H1105.5L1104.5 389.5H1101L1097 392H1094.5L1093 394H1090L1086.5 392C1085 391.333 1081.7 389.9 1080.5 389.5C1079.3 389.1 1076.67 388.333 1075.5 388H1070.5L1061 386.5H1057.5L1053.5 384C1051.5 382.5 1047.3 379.5 1046.5 379.5C1045.7 379.5 1042.17 378.833 1040.5 378.5H1037L1034.5 379.5H1030.5L1026.5 376.5H1022.5L1017 375H1008.5H1001.5L996 373.5L992.5 371.5L988.5 370.5H986L983.5 373.5L978.5 372.5L976 369.5C975 368.667 972.8 367 972 367H970H967.5H964.5H962H961L959.5 370.5V373.5H957.5L956 371.5L953.5 372.5L951 373.5V376.5L948 378.5V381.5C947.167 381.667 945.2 381.9 944 381.5C942.5 381 942.5 379.5 942 378.5C941.6 377.7 940.167 376.833 939.5 376.5L934 375L929.5 372.5L927.5 375L922 376.5L919.5 375L918.5 372.5L915.5 369.5L911.5 367H906.5H904H902H897H891.5L890 365H886.5L883.5 366L875.5 369.5H871.5L868 366C867.5 365.667 866.3 364.8 865.5 364C864.7 363.2 864.167 361.667 864 361L861 360L859.5 361L858.5 363L856 365H851.5H848.5L846 363H842.5L840 361L837.5 360L836.5 357.5L837.5 353.5V350L840 347L842.5 343.5H844H846L848.5 345H851.5L858.5 343.5L859.5 341H861L864 343.5C865 343 867.2 341.8 868 341C868.8 340.2 868.333 339 868 338.5L870.5 336.5V330.5V325.5L871.5 324V322L874 320.5L875.5 322L879 324L882 325.5H886.5L888.5 322L891.5 318.5L893.5 315L895.5 312.5L897 309.5V306.5L895.5 303.5L893.5 300.5V297V295V291H887.5L882 289.5L879 286.5L877.5 280.5L879 277.5L880.5 274.5L877.5 270.5L874 268.5L872.5 262V255.5L869 253V247.5V243L870.5 242V238V233.5L872.5 231.5Z" stroke="black"/>
<path d="M1081.5 13L1082.5 7L1086.5 1H1091.5H1098V7.5L1096 13H1089L1084.5 15L1081.5 13Z" stroke="black"/>
<path d="M1184 403.5L1181 402L1183 399H1186H1189L1193 400H1197V402L1193 403.5H1184Z" stroke="black"/>
<path d="M1101 192L1096 193.5V195L1098.5 197L1100 199.5L1098 201.5V204.5L1100 206.5H1104.5L1110.5 206H1116H1124L1129 209.5L1135 211H1139L1144 213H1149L1153 215.5L1160 214.5L1163.5 214L1168.5 214.5H1174H1177L1189 214L1194 214.5H1200H1210L1213.5 215.5L1217.5 217L1219.5 215.5L1220 213L1221.5 210.5V207L1224 204.5L1227.5 201C1228.33 200.833 1230.1 200.4 1230.5 200C1230.9 199.6 1233.67 199.5 1235 199.5L1238 198H1242.5C1244 198.333 1247.1 199.1 1247.5 199.5C1247.9 199.9 1249.67 200 1250.5 200H1255L1258 201.5L1262.5 202H1266.5L1268.5 201.5L1267.5 200L1265 199.5L1266 197L1267 193L1271 188.5L1273 186.5L1273.5 184H1276.5V186L1280 185.5H1282.5L1283.5 183H1287L1291 182H1296.5L1300.5 178L1296.5 176L1288 170C1285.17 169.333 1279.2 167.6 1278 166C1276.8 164.4 1273.5 165.333 1272 166H1266L1261 170H1253H1228.5H1190.5H1150.5H1119.5L1117.5 174.5L1112.5 182L1107 186L1101 192Z" stroke="black"/>
<path d="M1283.5 197V196H1292.5V198.5H1290V197H1283.5Z" stroke="black"/>
<path d="M1327.5 200L1328.5 196L1331.5 194L1335 196L1338.5 198.5L1339.5 203L1341 206L1342 209H1337.5C1335.17 207.833 1330.4 205.3 1330 204.5C1329.6 203.7 1328.17 201.167 1327.5 200Z" stroke="black"/>
</g>
</g>
</svg>
