<svg width="958" height="744" viewBox="0 0 958 744" fill="none" xmlns="http://www.w3.org/2000/svg">
<g id="Kalimantan">
<g id="k-barat">
<g id="Vector 56">
<path d="M14.5 54.5L11.5 59.5L13 61.5L19 65L28 63L25.5 58L19 54.5H14.5Z" fill="#26C8DA"/>
<path d="M10 49.5L32 54.5L36.5 49.5L32 42L36.5 36L22.5 19L19 16L3.5 31.5L1 38L8 43.5L10 49.5Z" fill="#26C8DA"/>
<path d="M14.5 54.5L11.5 59.5L13 61.5L19 65L28 63L25.5 58L19 54.5H14.5Z" stroke="black"/>
<path d="M10 49.5L32 54.5L36.5 49.5L32 42L36.5 36L22.5 19L19 16L3.5 31.5L1 38L8 43.5L10 49.5Z" stroke="black"/>
</g>
<path id="Vector 48" d="M200.5 640L195 632L199.5 628V621L196 617L195 612L192 609.5V607.5L193.5 606V594.5L190 590.5L188.5 582L185.5 577V572L187 567.5V558L184.5 552L174 545.5L170 540.5V537L178 529L178.5 526.5L181 520.5V511.5L182.5 507.5V500L181 496.5L174 491.5L170 487.5V483.5L172 480.5V478.5H168L161 476.5L157 469.5L153 466.5H150.5H146L142.5 463.5L137.5 458L133 457H128L123 455.5V457L126 459.5V461.5H121L115 459.5L111.5 455.5L110.5 453.5V441H115L120 443.5H126L129.5 446H136L143.5 450L146 448L147 439L142 439.5L133 435H126L123 432H111.5L107.5 429.5H101.5L99.5 427.5V415.5V409L97 404.5L98.5 400.5L101.5 402H109L107.5 398L106.5 387L104 384.5V379.5L111.5 380.5V378L104 373.5L101.5 369.5V365L95.5 358L89.5 355L85.5 354L84 351V342L82 339.5V335V321.5L80 319V314.5L77 310.5V308.5L85.5 301.5L88 298.5V289L84 286V282.5V280.5L88 279.5L89.5 272L94.5 263V250.5L97.5 245L108.5 239.5L113 234.5L115 228L119 220V213L127 212L132.5 209H139V214H136.5V220L142 224L148 226.5V228L146.5 229.5V238.5L149 242.5L162 254.5L164.5 258H172.5V263L175 267.5L181.5 272L186 277.5H191.5L194 280.5L201 291V294H211L218 305H231L239 302.5L270.5 292H297H311L318.5 293H325H330.5L332.5 294.5H338.5L340 290.5L346.5 282.5H362L366 268L371 260.5L367.5 258V255H372L378.5 251L385.5 249L392.5 244.5H407.5L411.5 246H416L418.5 247L422.5 249L425 247L427.5 244.5H441L442.5 247V251L436 255V258H442.5L445 256L446.5 255L448 258L450.5 261.5H454.5L457 260.5H463L472.5 268L474.5 269.5H476.5L480 267H487L491.5 275H495L499 271.5L507.5 268L510 261.5L520.5 255L529 253.5H538L539.5 258L537 260.5L536 274L533.5 280.5H522L518 287L514.5 290V292.5L515.5 295.5L514.5 297.5L513 300.5V305L515.5 308.5V311L513 312.5L514.5 314.5V317.5L508.5 323L503 332.5L494.5 339L493 343L488 344.5L479 355L475.5 356.5H469L466.5 355L461.5 359L460.5 360.5V362.5L471.5 370L473 378.5V381L471.5 386.5L467.5 393L462.5 401.5L456.5 408V413.5L457.5 417.5V421.5H455.5L451.5 420H449L446.5 421.5L436 423L424.5 429H417.5L414 430.5L409.5 437.5H402L401 439.5H391.5H386L383.5 441H377L373.5 437.5L371 434L368.5 433H366L364 437.5L360 439.5H354L352.5 442H349.5L348.5 451H346.5L343 447L341.5 449H339.5V455.5L337.5 458.5L328 460L324.5 463L320 465.5H316.5L315.5 472.5H312.5L310.5 476V485.5L306 486.5L303 488.5H298.5L292 492L284.5 501L279 505.5L273.5 509.5L272 515H267H260L255.5 518L249 522.5V526.5L253.5 530.5L257.5 532.5L260 530.5L262.5 532.5L263.5 534.5L261.5 537.5L260 540.5V553L263.5 554.5H269V558.5L267 560.5V563.5L268.5 564V573L265.5 576V578L267.5 581.5L270.5 588L272 599.5L273 605.5V615L275.5 616.5V620.5L269 623.5H262.5L260.5 628.5L258 629.5H254L252.5 631.5L246.5 634H242.5L239.5 639L237.5 643.5L234.5 644.5H233V634L231 633L226 628.5H221.5L213 633L206.5 638L204.5 639.5L200.5 640Z" fill="#26C8DA" stroke="black"/>
<path id="Vector 49" d="M131 468.5L129 471V477.5L127.5 483.5V487L125.5 489.5V492.5L128.5 493.5H135.5L142 489.5L148 487L155 481L154.5 470H149.5H147.5H145.5L143.5 468H139.5L137.5 469H135.5L134 468H131.5L131 468.5Z" fill="#26C8DA" stroke="black"/>
</g>
<path id="k-tengah" d="M244 640H250.5L254 644L257 646L259 648H264.5L270 646L282 640.5L292.5 635L298 634L299 632H302.5V635L309 641L312.5 643H314.5L318 639L321.5 638V635V632L323.5 629.5H326.5L329.5 634L332 639L335 643V652.5L334 657.5V661.5V665L336 667V674.5V679L334 683.5L332 686.5V689.5L334 690.5H343L353 680.5L361 675.5L368 671L371.5 669.5H380L385.5 673.5L390.5 675.5L393.5 680L397.5 681.5H399.5L403.5 679L411 673.5L420.5 669.5L427 666L434 661.5L436 657.5V655.5L432.5 652.5L434 650L440.5 641.5H443L449 648.5H451.5L456 653.5L462 660L465 664.5L466.5 666H470.5L474 662.5L480 657L483.5 655.5H488L491.5 660.5V672V675.5L489 678V681.5L491.5 683H499.5L500 682.5H509L513.5 678L519.5 674.5L523 673H531L534.5 675L538 677H543L544 675.5H545.5L549.5 680L553.5 682.5V679.5L555 675.5L554 672L556 670L558 664.5L562 661.5V657L566.5 652L569.5 648V646.5L567.5 644V641.5L569.5 640V636L571.5 633.5L574 631L576 628.5V626L580.5 624L582.5 622.5V619L588.5 618L591 615L592 614L593 607.5L595 604L601 598.5L605.5 594L610.5 589.5L616.5 583L621.5 581L628 576.5L631.5 573V571H636.5L637.5 566.5L638.5 562L643 561V558V554L645.5 552.5V550L643 546.5L640 543.5L638.5 542V529.5L640 528.5L641 523V519L643 517.5V512.5L645.5 511.5V507L648.5 504.5L654.5 502.5L662 500L666.5 498L673.5 496L676 493L678 488L680.5 484.5L683 482.5V480.5H676.5L674.5 476.5L669 473.5L667 468L661 463L657 458.5L652 455.5L645 453L643.5 448.5L641.5 442L640.5 433L637.5 426.5L633.5 422L632.5 416L630.5 407.5L631 405L632.5 400L633.5 394L636.5 391.5L637.5 387H634L628.5 389.5L624.5 391.5L619.5 396L616 398H605.5L603.5 394V389.5L601.5 382.5L599.5 378.5L593 374.5V369.5L594.5 362L599 359L602.5 353.5L606.5 352H618.5L620 349.5L622.5 347V345L617.5 339.5L612 330.5L610 321.5V319L605.5 315H603.5L601 317V319V320H598L590 319L582 321.5L577 326L573 328.5L570 331.5L564.5 333L562 337.5L557 338L555.5 336.5H541L540 334.5L537.5 331.5V326L535 322H531.5L527.5 324.5L516.5 326H511.5L508 328L504.5 333L499.5 336.5L497 340L495 344L490.5 346L485 350.5L479.5 357L475 359.5H473L470.5 358.5H466L464.5 359.5V362.5L466 364.5L470.5 367.5L473 369L475 370.5V378.5V383L473 387L469.5 393.5L466 399.5L459.5 407L458.5 409.5V411.5L460.5 414.5L462 416V419L458.5 423L455.5 425.5L453 424.5H449L442 425.5H436.5L429 428.5L425.5 431L421 433H416L412 437L411 439.5H405L402.5 442.5L395 443.5L392 446H390L388 443.5H384.5L378 445H376.5L372.5 441V439.5L370 437H368L366 437.5V440.5L365 445H360V443.5H352.5L351 447.5L350 451L348 454.5H344.5L343.5 458.5L340 459L336 462.5L327.5 463L324 466L318 468V473L313.5 475.5V483L314.5 483.5V486L311 487L307.5 489.5L307 493.5H303.5L300.5 491.5H297.5L293.5 494.5L289.5 499.5L289 506L281.5 507L281 507.5V511.5L276.5 513.5L273.5 517.5H267.5L261.5 518L256.5 520.5L252.5 522.5L253 526.5L255 528.5H257L259.5 526.5L265 527L266 531L265.5 537.5L263 540V544H265V546.5L263.5 548.5V550.5L270 552.5L272 553.5V560L270 561.5V565.5L271.5 566.5V569.5L270 573L268 576V579L270 580.5L272.5 586L273.5 587.5L274.5 597.5V602.5L276 606.5L277 611.5L279.5 615L278.5 618.5L276.5 620.5L274.5 623L268 625L260 631L253.5 633.5L246 635.5L242.5 638V639.5L244 640Z" fill="#59D86F" stroke="black"/>
<path id="k-timur" d="M579.5 231.5L600.5 235L619.5 243.5L634 249.5L645.5 260L672 265.5L681 260L683 245.5L700.5 229L731 220.5V191L743.5 166.5H749.5L760 177H767L802.5 159.5L828 157L841 162L852 170.5L862 174.5L872 171.5V177L876 177.5V181L878.5 182V183.5L877.5 184.5L876 188.5H874L872 191H865.5L864.5 188.5H849.5L848 191L844.5 192L846 195.5L845 204H846L849.5 201.5H854.5V204H852V208H855.5L861 210.5L860 217L862 222L864.5 224.5L867 226L874 228L878.5 231.5L881.5 238.5L891 243.5L895.5 247L901.5 249.5L905 254V259L911 262.5L924.5 264.5L931 271.5L937.5 275V278L935 279V282H938.5L944 287V290.5L948 289H952.5L955 290.5L957.5 291.5V297.5L950.5 304.5L946 306L944 310.5H937.5L933 306H928.5L926 308.5H924.5L923.5 310.5H917V308.5H908.5L907.5 310.5H903.5L902.5 307L899.5 306H895.5L888.5 304.5H882.5L879 302L877 299L874.5 297.5V290.5L869.5 284.5L865.5 282L863 277L859 271.5H854V273.5H856.5L858 278L861.5 280V284.5L859 285.5V287L861.5 289L863.5 293L867 295.5L869.5 300.5L870 302.5L871.5 304.5L874.5 306L874 310.5L872.5 313.5H870L865.5 308.5H863.5L854.5 313.5L848.5 319.5L845.5 326.5L842.5 330.5L840.5 336.5L837.5 338.5V343L832.5 345.5V351.5L828 354.5V363H825.5V372L824 375L828 381L831 384L825.5 387.5V392.5L823.5 393.5V397.5L820.5 399.5L823.5 406.5L822.5 418.5V422.5V428L818 431.5H808.5L803.5 428V431.5L810.5 435V441L808.5 443V450L806 451L807 459.5H803.5L784.5 486L779 488L776.5 491H771.5L770 486L763 477.5V474.5L770 466L771.5 461L770 459.5L762 467L756.5 469.5V472H759.5V474.5L756.5 477.5V479.5L764.5 484L763 499L758 501.5L749.5 505.5L744 508.5V516L746 519L744 522.5H740.5L735 526.5H728L719 535L717.5 538.5H724L735 533L738 538.5L735 543L738 546V552.5L735 559.5L729.5 564V568H744L749.5 574V585L744 588L731 585L721.5 581.5H695.5L694 583.5H690L688.5 587.5H685.5L682 572.5L683.5 559L675.5 558.5V539.5L671.5 531.5L668.5 520V513L677.5 498.5L679.5 490.5L685.5 485.5V482.5L683 479L675.5 474.5L670 467.5L660.5 459L653 453.5L645.5 450L643.5 433.5L641 428.5L636 422L633.5 412.5V402.5L636 395.5L641 391.5V387.5L638.5 384.5H633.5L622 391.5L617 395.5H606.5V389.5L604.5 384.5V377.5L595.5 373.5V370.5L598 363L604.5 354.5H617L624.5 349V345L617 334.5L613.5 321.5L607 313H601.5L595.5 316.5H582.5L578.5 321.5L576.5 325L566.5 330.5L561 333.5L557 334.5L555.5 332.5L543 331L536 319.5H532L528 321.5H514L517 317.5V313L519 310.5V306L517 304V300.5L519 297.5V289L522.5 283.5L536 281.5L540.5 272V260.5L546 256L557.5 251H562.5L572.5 256L578 253.5L579 245L580.5 239L579.5 231.5Z" fill="#E21C1C" stroke="black"/>
<g id="k-utara">
<path d="M586.5 230.5V222L601 218L602 213.5L597.5 211.5L602 207V204L596 201L592.5 194L596 185.5H605.5L608.5 177L614.5 175L622.5 169L630.5 165H635V161L626 155L622.5 153.5V145H626V136H622.5V133L624 128L634 118.5H639L640 121H648L655 116.5H659V108H662V104L660 101V87L663 83.5H665.5L671 82V80L668 78.5L665.5 69.5L663 64.5V61.5L664.5 58.5V49L666.5 50.5V44L664.5 41.5H662V38H666.5L670 33L672.5 19L675 16.5L678.5 14L683 12.5L687.5 10L688.5 1H692.5L696.5 3L700 5.5L703 10H706L709 5.5L712 3H727V1H729.5L736.5 7.5H741L744.5 5.5H747V1H750V5.5H763L762.5 2.5H766.5V5.5L776.5 2.5L780.5 3L783 5.5H789.5L797 4.5L804.5 4L809 3L813.5 5.5L820.5 11L821.5 15.5L826.5 18H831L832 22L828 23L824.5 19.5H820.5L821.5 22L828 28.5L832 32L836 40L842.5 42.5L847 48.5L850 50L851 52.5H845L843 51.5H829V54.5L821.5 60.5V65H817.5L812 66.5H807L803.5 65H790.5L788.5 66.5H786.5V68.5H792L801.5 69.5L802 73.5L804.5 77L809 81V89.5L810.5 93H812L815 88V84.5L813.5 83V82L816.5 83L819 84L820 87.5L819 89L817.5 93H815V96.5L813.5 102V106H817.5L824.5 108L823.5 112V116H828.5L837.5 117V121.5L834.5 122.5L826.5 124V127L833 127.5L835.5 129L843 131V134L837.5 135.5V137.5L840 139L846.5 140.5L852.5 142.5L855 153L871.5 170.5L862 172.5L853 169.5L841.5 161L828 155.5L802 158.5L791.5 163.5L766.5 175.5H761L750 165.5L743 165L741 167.5L733.5 183.5L729.5 190.5V205.5V219L718.5 222.5L699 228L681.5 244.5L681 251.5L679.5 259L672 264L646 259L635 248L601 234L587 231.5L586.5 230.5Z" fill="#1E205B"/>
<path d="M805.5 71V75.5L809 78H818V73.5L809 71H805.5Z" fill="#1E205B"/>
<path d="M842.5 67.5L852 63L855 60.5V57L848 56L831 54.5L829 57.5L831.5 59.5L835 65L838 67L842.5 67.5Z" fill="#1E205B"/>
<path d="M852 75.5L858 80.5H860.5L859.5 74.5L856.5 71H853L852 75.5Z" fill="#1E205B"/>
<path d="M831.5 88L835 94.5L840 96.5H842L842.5 88.5L840 83L832.5 84L831.5 88Z" fill="#1E205B"/>
<path d="M840 34L843.5 35.5H845.5L850.5 28.5L849 25.5L843.5 20.5H841L838 25.5V30.5L840 34Z" fill="#1E205B"/>
<path d="M849 20.5L854 25L859.5 30H865L866 28L865 20.5L862.5 18L859.5 16.5H858L854.5 18H847.5L849 20.5Z" fill="#1E205B"/>
<path d="M586.5 230.5V222L601 218L602 213.5L597.5 211.5L602 207V204L596 201L592.5 194L596 185.5H605.5L608.5 177L614.5 175L622.5 169L630.5 165H635V161L626 155L622.5 153.5V145H626V136H622.5V133L624 128L634 118.5H639L640 121H648L655 116.5H659V108H662V104L660 101V87L663 83.5H665.5L671 82V80L668 78.5L665.5 69.5L663 64.5V61.5L664.5 58.5V49L666.5 50.5V44L664.5 41.5H662V38H666.5L670 33L672.5 19L675 16.5L678.5 14L683 12.5L687.5 10L688.5 1H692.5L696.5 3L700 5.5L703 10H706L709 5.5L712 3H727V1H729.5L736.5 7.5H741L744.5 5.5H747V1H750V5.5H763L762.5 2.5H766.5V5.5L776.5 2.5L780.5 3L783 5.5H789.5L797 4.5L804.5 4L809 3L813.5 5.5L820.5 11L821.5 15.5L826.5 18H831L832 22L828 23L824.5 19.5H820.5L821.5 22L828 28.5L832 32L836 40L842.5 42.5L847 48.5L850 50L851 52.5H845L843 51.5H829V54.5L821.5 60.5V65H817.5L812 66.5H807L803.5 65H790.5L788.5 66.5H786.5V68.5H792L801.5 69.5L802 73.5L804.5 77L809 81V89.5L810.5 93H812L815 88V84.5L813.5 83V82L816.5 83L819 84L820 87.5L819 89L817.5 93H815V96.5L813.5 102V106H817.5L824.5 108L823.5 112V116H828.5L837.5 117V121.5L834.5 122.5L826.5 124V127L833 127.5L835.5 129L843 131V134L837.5 135.5V137.5L840 139L846.5 140.5L852.5 142.5L855 153L871.5 170.5L862 172.5L853 169.5L841.5 161L828 155.5L802 158.5L791.5 163.5L766.5 175.5H761L750 165.5L743 165L741 167.5L733.5 183.5L729.5 190.5V205.5V219L718.5 222.5L699 228L681.5 244.5L681 251.5L679.5 259L672 264L646 259L635 248L601 234L587 231.5L586.5 230.5Z" stroke="black"/>
<path d="M805.5 71V75.5L809 78H818V73.5L809 71H805.5Z" stroke="black"/>
<path d="M842.5 67.5L852 63L855 60.5V57L848 56L831 54.5L829 57.5L831.5 59.5L835 65L838 67L842.5 67.5Z" stroke="black"/>
<path d="M852 75.5L858 80.5H860.5L859.5 74.5L856.5 71H853L852 75.5Z" stroke="black"/>
<path d="M831.5 88L835 94.5L840 96.5H842L842.5 88.5L840 83L832.5 84L831.5 88Z" stroke="black"/>
<path d="M840 34L843.5 35.5H845.5L850.5 28.5L849 25.5L843.5 20.5H841L838 25.5V30.5L840 34Z" stroke="black"/>
<path d="M849 20.5L854 25L859.5 30H865L866 28L865 20.5L862.5 18L859.5 16.5H858L854.5 18H847.5L849 20.5Z" stroke="black"/>
</g>
<g id="k-selatan">
<g id="Vector 54">
<path d="M727 691.5L731 696.5H732V689L734.5 687V679.5H731L728.5 683V688L727 691.5Z" fill="#BFC934"/>
<path d="M700.5 704.5L706 712.5V719.5L703 730L706 732H711.5L724 719.5L721.5 716.5V710H724V704.5V700L721.5 691.5L717.5 687H724V681L721.5 678.5L720 677V670.5L721.5 665.5V662.5L713 668.5L706.5 676.5L703 683V692.5L700.5 694.5V704.5Z" fill="#BFC934"/>
<path d="M727 691.5L731 696.5H732V689L734.5 687V679.5H731L728.5 683V688L727 691.5Z" stroke="black"/>
<path d="M700.5 704.5L706 712.5V719.5L703 730L706 732H711.5L724 719.5L721.5 716.5V710H724V704.5V700L721.5 691.5L717.5 687H724V681L721.5 678.5L720 677V670.5L721.5 665.5V662.5L713 668.5L706.5 676.5L703 683V692.5L700.5 694.5V704.5Z" stroke="black"/>
</g>
<path id="Vector 55" d="M581 743.5H586.5L605.5 734.5L625.5 726L651 714L674 705.5L686.5 698L698 694V684L700.5 676L706 667L710 665L714 660V655L716.5 652.5L714 649L710 644H706V646.5H700.5L706 639V631.5L702.5 629.5L710 623L714 635L719.5 641.5H722.5L728.5 631.5L731 626V613L734 607.5L731 604.5L721.5 615L719.5 601.5L724.5 599.5H738L743 604.5V596.5L747 593.5L738 588L724.5 585H693.5L686.5 591H683L679.5 574V562.5L672 558V548.5L674 543.5L672 538.5L669 531.5L666 522V514L672 502L674 500H667L654 505L647.5 510L645 516.5L643 526.5L642 533.5L643 542.5L647.5 549.5V553.5V558L648.5 559L647.5 561.5L641 564L639 570.5L637 576.5H630.5L619.5 584L614.5 587.5L606 596.5L600 602L595.5 607.5L592.5 617L584.5 624L580 627L579 634.5H573.5L572 640.5L571 642.5V645L573.5 647V649L568 654L565 657.5V659.5L566 662L561 665L558 671.5L556.5 674V679L558 682.5L562.5 685.5L568 687.5L573.5 691.5L576.5 695.5L579 700.5V705.5V708V722.5L581 726V734.5V738.5V743.5Z" fill="#BFC934" stroke="black"/>
</g>
</g>
</svg>
