<svg width="282" height="276" viewBox="0 0 282 276" fill="none" xmlns="http://www.w3.org/2000/svg">
<path d="M162.911 59.4458H165.589H166.293L166.998 60.8374L167.562 61.6724V63.0639L166.575 64.3163L165.589 65.2904H160.939L159.388 65.9862L157.697 66.8212L156.57 69.7435L155.725 71.5525V73.2224L156.147 74.3356L155.725 75.1706L152.061 78.5103H148.538L147.27 78.232L145.297 76.2838H143.606L143.324 78.232L141.774 80.3194L141.351 81.0152L139.942 81.2935L139.378 84.4941L138.674 86.4423V87.2772H139.378V88.2513L138.674 88.808V89.3646L140.224 90.4778L140.647 93.9568L141.351 94.7917L142.76 95.4875V96.6007L143.888 97.2965H145.438L146.142 96.8791L147.411 98.5489V99.8013L146.424 101.471L145.72 103.976V106.063L146.424 108.568L147.129 108.986V110.238L146.142 111.491V113.439V116.361L145.438 117.892L144.733 119.701V121.232L145.438 122.206L146.142 123.597L147.129 124.85L148.82 125.685L150.088 126.241L152.202 127.076L153.752 128.189L154.315 129.998L155.584 132.782L156.852 134.869L157.557 136.817L158.543 138.209L159.107 140.018L161.22 142.105L163.898 142.94L166.434 144.053H168.125L168.407 143.218L168.125 142.523L166.434 140.018L165.871 138.765L163.898 135.843L161.925 133.199L160.516 129.998L158.543 126.519L158.12 124.432L156.852 121.649V119.701L155.302 115.944L153.188 112.465V109.264V108.29L154.738 107.038V102.863L154.456 100.775L152.624 99.8013L152.202 98.5489L153.47 96.8791L154.034 95.4875V93.5393L155.302 92.0086H156.57L157.838 91.5911H160.516H161.784L162.77 92.426H166.011L167.702 94.3742L170.521 95.07H175.876H178.553L180.244 97.2965L182.64 98.5489H184.753L186.867 99.3839L189.122 99.8013L191.517 100.219L194.195 100.915V100.219L192.645 99.3839L189.967 98.9664L186.867 98.1315L186.303 97.2965V96.6007L187.29 95.07V92.8435L186.585 91.5911V91.1736L187.29 90.3387V89.3646L185.599 88.9471L181.794 88.6688L181.23 87.8339L178.13 87.1381L177.144 86.164L173.057 85.4682L171.648 84.9116L170.38 82.2676L168.689 81.5718L166.575 79.3453V78.5103L168.407 77.3971L169.675 76.1447L172.212 73.6399L175.312 73.2224L177.708 72.1091L181.23 70.8567L184.19 67.3778H185.599L187.29 66.8212V65.2904L187.572 60.8374L188.135 59.4458V57.2193L189.685 56.3844V53.4621L187.29 50.5398V48.4525L187.572 47.2L188.558 46.9217V46.2259L187.29 45.8085H185.881L184.612 46.2259L182.358 46.9217L180.808 48.4525H179.68L178.553 47.6175H177.708L174.326 49.7049L172.494 51.2356L168.689 52.7663L166.998 54.0187L164.884 56.1061L164.461 57.4977L163.616 58.4717L162.911 58.7501V59.4458Z" fill="#BDB2BB" stroke="black"/>
<path d="M168.408 15.4723L171.227 12.1326C171.273 11.3904 171.424 9.82255 171.649 9.48857C171.875 9.15459 174.28 6.84459 175.454 5.73133H176.44L178.272 3.22651H179.4V3.64398H180.95L181.795 2.66988L182.359 1H183.204L184.191 4.20061L185.177 5.31386L187.714 7.40122V10.1844L185.741 12.6892V15.4723L184.191 19.2296L183.204 22.1518L180.95 24.5175L175.454 25.0741L172.918 26.0482H171.649V23.5434L170.099 22.8476V17.003L168.408 15.8898V15.4723Z" fill="#BDB2BB" stroke="black"/>
<path d="M164.884 14.9157H165.73L166.012 12.8283L165.73 11.5759L165.307 11.1584H164.884V12.55L164.603 13.385V14.2199L164.884 14.9157Z" fill="#BDB2BB" stroke="black"/>
<path d="M144.171 184.27L146.144 182.461L149.385 183.295H152.344L153.753 182.461H155.163L157.699 183.295L159.39 184.27H162.772L165.027 182.461V180.791L163.899 178.982L162.772 179.538H161.363L158.685 176.616L154.317 172.998H151.499L149.385 172.441V171.606L146.849 169.519H143.044L140.366 170.632L138.112 172.998L137.407 173.972H136.843L135.716 172.998H134.871L134.025 175.642L133.18 176.616V179.538V181.486L136.843 184.27L138.816 184.826H142.057L144.171 184.27Z" fill="#BDB2BB" stroke="black"/>
<path d="M137.406 165.205C137.406 165.066 137.547 164.76 138.111 164.648C138.675 164.537 139.473 164.602 139.802 164.648L142.479 165.205L145.157 166.179C145.345 165.669 145.608 164.648 145.157 164.648C144.706 164.648 143.56 164.277 143.043 164.092H140.929L139.802 162.7L138.111 162.144L137.406 163.535L136.42 164.092V165.205H137.406Z" fill="#BDB2BB" stroke="black"/>
<path d="M129.937 172.72L131.628 171.885L131.91 171.189H129.937L128.95 171.885L128.81 172.441L129.937 172.72Z" fill="#BDB2BB" stroke="black"/>
<path d="M139.943 144.332L136.42 145.862L134.729 143.636V142.383L136.42 140.157V138.07L134.306 137.791L131.206 136.121L128.528 132.225V130.973L129.515 130.277L130.36 127.215V126.38H131.206L132.474 127.215L133.742 130.277H134.729L136.42 129.024L135.997 127.633L138.392 125.406H139.943V127.215L141.493 127.633V129.024L143.465 130.277L144.734 131.668L144.17 133.06L141.493 136.121L140.929 136.817V138.07L141.493 138.904L143.043 139.322V141.409L144.17 142.383H145.579L146.847 141.409H150.088L151.639 142.383L152.766 143.636V145.862L150.793 147.671H147.834H145.579L144.734 145.862L144.17 143.636L143.043 142.383L141.493 142.94V143.914H140.224L139.943 144.332Z" fill="#BDB2BB" stroke="black"/>
<path d="M125.147 144.471L125.711 143.914L126.556 144.471L128.247 145.167L128.67 144.471L127.543 142.94V141.131L126.556 140.435L125.711 139.183H125.147V140.435L123.456 142.105V143.914L124.161 144.471H125.147Z" fill="#BDB2BB"/>
<path d="M121.483 125.128L122.047 125.685V127.494L121.483 128.885V130.833L122.611 131.529V132.782H122.047V133.895H123.456L124.724 133.199V131.529L125.711 132.225L126.556 131.529V129.999L125.993 129.72V128.885L127.543 128.329L126.838 127.633L125.711 126.52V125.685L125.993 125.128V124.015V123.597H123.456L122.047 124.015H121.483V125.128Z" fill="#BDB2BB"/>
<path d="M125.147 144.471L125.711 143.914L126.556 144.471L128.247 145.167L128.67 144.471L127.543 142.94V141.131L126.556 140.435L125.711 139.183H125.147V140.435L123.456 142.105V143.914L124.161 144.471H125.147Z" stroke="black"/>
<path d="M121.483 125.128L122.047 125.685V127.494L121.483 128.885V130.833L122.611 131.529V132.782H122.047V133.895H123.456L124.724 133.199V131.529L125.711 132.225L126.556 131.529V129.999L125.993 129.72V128.885L127.543 128.329L126.838 127.633L125.711 126.52V125.685L125.993 125.128V124.015V123.597H123.456L122.047 124.015H121.483V125.128Z" stroke="black"/>
<path d="M130.925 99.2448L132.052 99.9406H133.461L133.884 99.2448V97.5749L133.038 97.1575H132.052L130.925 98.549V99.2448Z" fill="#BDB2BB"/>
<path d="M130.925 79.4845L132.052 78.6496L131.629 77.1189L130.22 76.1448H129.516L128.529 77.1189V78.6496L129.516 79.902H130.925V79.4845Z" fill="#BDB2BB"/>
<path d="M132.052 84.9117L133.038 85.6074L134.307 84.4942L134.87 82.8243V81.5719L133.461 81.0153L132.616 81.5719L132.052 82.8243L131.629 83.7984L132.052 84.9117Z" fill="#BDB2BB"/>
<path d="M103.023 274.443L106.405 273.33L111.056 271.66L114.297 270.408L118.383 267.068H120.779H124.161L125.993 264.563V256.77V255.518L122.893 254.266L120.779 255.518H118.383L116.833 251.482V249.813H120.779L115.565 245.22H114.297L111.056 243.829L106.405 241.741H100.346L91.4683 243.829H86.8181H84.8452L83.1543 245.22V246.612L81.4633 247.725L76.954 245.22L73.7129 246.612V252.596L74.6993 255.518L76.954 259.414L79.6314 261.919V264.563L83.1543 265.676L92.5956 270.408L103.023 274.443Z" fill="#BDB2BB"/>
<path d="M173.199 252.596L175.313 254.961V256.353L176.581 257.466H180.809L183.627 256.353L184.895 256.77H187.009V256.353L186.164 255.518V254.266C187.62 253.06 190.617 250.564 190.955 250.23C191.293 249.896 192.411 248.978 192.928 248.56H193.914L194.9 246.89H197.719L199.692 247.725L200.255 250.23L199.692 251.482L198.282 252.596V253.152H201.383L205.046 252.596L210.401 254.961L213.22 255.518H217.588L221.252 256.77L223.365 258.162H224.916V256.353L224.07 254.961L222.097 252.596V251.482L223.365 250.23L224.634 251.065L228.72 251.482H232.384L234.075 252.039H235.907L238.866 252.596H240.98L242.671 254.266V256.77L244.926 259.275H247.18L249.294 260.806L253.944 262.476L259.017 264.702H261.131L263.386 266.651L264.09 268.042L265.499 268.599L268.177 269.295L271.418 272.356H273.532L274.659 273.469H276.491L278.041 275L278.604 273.469V269.295V266.651L280.436 265.398L281 263.728L279.732 262.476L278.041 259.832V259.275L278.604 258.162L277.477 256.77L271.981 256.353L270.431 253.431V249.256L269.445 247.029V245.638L266.486 243.69H264.654L263.386 241.881L262.117 241.185L261.131 239.376L257.89 237.706H254.508L253.099 239.376H251.126L250.28 238.819H249.294L244.362 239.376L237.316 235.201H235.202L234.075 233.392L229.284 231.305L222.097 229.913H217.588L216.32 232.696L210.401 235.897V236.871H206.596L206.315 237.288L204.06 235.897L203.074 233.949L203.637 230.887L202.792 230.331L200.819 231.305L194.9 233.392H190.955H187.714L186.727 232.279L185.459 232.696H181.513L179.963 232.279L178.977 232.696H177.286H176.581L175.313 233.949L173.199 233.392H169.395L166.435 232.696L164.604 234.644V235.897L163.476 237.288L164.04 238.263V239.098L162.631 240.072L164.04 241.741L165.449 241.046H166.435L167.281 242.437V243.968L165.449 245.916L167.704 247.169L169.395 246.89L170.945 248.56L172.354 251.482L173.199 252.596Z" fill="#BDB2BB"/>
<path d="M138.111 252.457H139.661L141.212 253.152L142.057 253.57V252.874L141.634 252.457L140.225 250.787L139.661 250.091H138.393L137.266 251.482V252.178L137.548 252.457H138.111Z" fill="#BDB2BB"/>
<path d="M146.848 248.838L148.821 248.56V247.169L148.539 246.195L147.694 245.638H146.144L144.453 247.169L143.466 247.725V248.282L144.453 249.117H146.566L146.848 248.838Z" fill="#BDB2BB"/>
<path d="M161.503 243.968L160.658 247.725L160.094 251.482V253.152L158.544 254.266H157.135L156.571 256.353L155.444 258.301L154.88 259.414L155.444 260.667C155.256 261.223 154.88 262.17 154.88 261.502C154.88 260.834 154.223 259.832 153.894 259.414L155.444 256.353L156.008 254.266L155.444 251.482L152.908 248.56V245.916L156.571 243.968L157.981 243.411V242.576L160.094 242.159H162.772V242.994L162.631 243.411L161.503 243.968Z" fill="#BDB2BB"/>
<path d="M153.894 239.793L155.162 239.515L156.571 238.263V237.288L157.699 236.314V235.897H156.29L154.88 236.314L153.894 237.567L153.189 237.845V238.541L152.908 239.098V239.515L153.894 239.793Z" fill="#BDB2BB"/>
<path d="M130.925 99.2448L132.052 99.9406H133.461L133.884 99.2448V97.5749L133.038 97.1575H132.052L130.925 98.549V99.2448Z" stroke="black"/>
<path d="M130.925 79.4845L132.052 78.6496L131.629 77.1189L130.22 76.1448H129.516L128.529 77.1189V78.6496L129.516 79.902H130.925V79.4845Z" stroke="black"/>
<path d="M132.052 84.9117L133.038 85.6074L134.307 84.4942L134.87 82.8243V81.5719L133.461 81.0153L132.616 81.5719L132.052 82.8243L131.629 83.7984L132.052 84.9117Z" stroke="black"/>
<path d="M103.023 274.443L106.405 273.33L111.056 271.66L114.297 270.408L118.383 267.068H120.779H124.161L125.993 264.563V256.77V255.518L122.893 254.266L120.779 255.518H118.383L116.833 251.482V249.813H120.779L115.565 245.22H114.297L111.056 243.829L106.405 241.741H100.346L91.4683 243.829H86.8181H84.8452L83.1543 245.22V246.612L81.4633 247.725L76.954 245.22L73.7129 246.612V252.596L74.6993 255.518L76.954 259.414L79.6314 261.919V264.563L83.1543 265.676L92.5956 270.408L103.023 274.443Z" stroke="black"/>
<path d="M173.199 252.596L175.313 254.961V256.353L176.581 257.466H180.809L183.627 256.353L184.895 256.77H187.009V256.353L186.164 255.518V254.266C187.62 253.06 190.617 250.564 190.955 250.23C191.293 249.896 192.411 248.978 192.928 248.56H193.914L194.9 246.89H197.719L199.692 247.725L200.255 250.23L199.692 251.482L198.282 252.596V253.152H201.383L205.046 252.596L210.401 254.961L213.22 255.518H217.588L221.252 256.77L223.365 258.162H224.916V256.353L224.07 254.961L222.097 252.596V251.482L223.365 250.23L224.634 251.065L228.72 251.482H232.384L234.075 252.039H235.907L238.866 252.596H240.98L242.671 254.266V256.77L244.926 259.275H247.18L249.294 260.806L253.944 262.476L259.017 264.702H261.131L263.386 266.651L264.09 268.042L265.499 268.599L268.177 269.295L271.418 272.356H273.532L274.659 273.469H276.491L278.041 275L278.604 273.469V269.295V266.651L280.436 265.398L281 263.728L279.732 262.476L278.041 259.832V259.275L278.604 258.162L277.477 256.77L271.981 256.353L270.431 253.431V249.256L269.445 247.029V245.638L266.486 243.69H264.654L263.386 241.881L262.117 241.185L261.131 239.376L257.89 237.706H254.508L253.099 239.376H251.126L250.28 238.819H249.294L244.362 239.376L237.316 235.201H235.202L234.075 233.392L229.284 231.305L222.097 229.913H217.588L216.32 232.696L210.401 235.897V236.871H206.596L206.315 237.288L204.06 235.897L203.074 233.949L203.637 230.887L202.792 230.331L200.819 231.305L194.9 233.392H190.955H187.714L186.727 232.279L185.459 232.696H181.513L179.963 232.279L178.977 232.696H177.286H176.581L175.313 233.949L173.199 233.392H169.395L166.435 232.696L164.604 234.644V235.897L163.476 237.288L164.04 238.263V239.098L162.631 240.072L164.04 241.741L165.449 241.046H166.435L167.281 242.437V243.968L165.449 245.916L167.704 247.169L169.395 246.89L170.945 248.56L172.354 251.482L173.199 252.596Z" stroke="black"/>
<path d="M138.111 252.457H139.661L141.212 253.152L142.057 253.57V252.874L141.634 252.457L140.225 250.787L139.661 250.091H138.393L137.266 251.482V252.178L137.548 252.457H138.111Z" stroke="black"/>
<path d="M146.848 248.838L148.821 248.56V247.169L148.539 246.195L147.694 245.638H146.144L144.453 247.169L143.466 247.725V248.282L144.453 249.117H146.566L146.848 248.838Z" stroke="black"/>
<path d="M161.503 243.968L160.658 247.725L160.094 251.482V253.152L158.544 254.266H157.135L156.571 256.353L155.444 258.301L154.88 259.414L155.444 260.667C155.256 261.223 154.88 262.17 154.88 261.502C154.88 260.834 154.223 259.832 153.894 259.414L155.444 256.353L156.008 254.266L155.444 251.482L152.908 248.56V245.916L156.571 243.968L157.981 243.411V242.576L160.094 242.159H162.772V242.994L162.631 243.411L161.503 243.968Z" stroke="black"/>
<path d="M153.894 239.793L155.162 239.515L156.571 238.263V237.288L157.699 236.314V235.897H156.29L154.88 236.314L153.894 237.567L153.189 237.845V238.541L152.908 239.098V239.515L153.894 239.793Z" stroke="black"/>
<path d="M157.698 271.104L160.093 269.155L161.784 268.599L162.489 267.625L164.462 266.651C165.073 266.233 166.378 265.343 166.717 265.12C167.055 264.897 168.173 264.842 168.689 264.842L169.253 264.424L172.353 265.12L172.776 264.424L171.226 263.589V262.615L172.353 261.084V260.389H171.226L169.817 259.832L166.717 262.198L165.871 263.589L159.389 264.424L157.275 265.676L155.021 268.042V269.712L155.866 271.104H157.698Z" fill="#BDB2BB"/>
<path d="M165.166 269.712H168.267L169.817 268.042L170.239 267.207L169.112 265.955L167.844 266.651L165.871 267.625L165.166 268.599L164.744 269.295L165.166 269.712Z" fill="#BDB2BB"/>
<path d="M177.003 264.424H179.54L180.526 263.589H181.795V262.615L179.54 261.084H176.44V261.78V263.589V264.424H177.003Z" fill="#BDB2BB"/>
<path d="M183.626 261.78L184.19 262.615H185.74L186.445 262.198L187.572 262.615L188.277 263.589H188.981V261.78V260.389L187.854 260.249V261.78L187.149 262.058L186.445 261.78L185.036 261.502L183.767 260.249L182.64 259.693L182.217 260.249V261.084H183.204L183.626 261.78Z" fill="#BDB2BB"/>
<path d="M157.698 271.104L160.093 269.155L161.784 268.599L162.489 267.625L164.462 266.651C165.073 266.233 166.378 265.343 166.717 265.12C167.055 264.897 168.173 264.842 168.689 264.842L169.253 264.424L172.353 265.12L172.776 264.424L171.226 263.589V262.615L172.353 261.084V260.389H171.226L169.817 259.832L166.717 262.198L165.871 263.589L159.389 264.424L157.275 265.676L155.021 268.042V269.712L155.866 271.104H157.698Z" stroke="black"/>
<path d="M165.166 269.712H168.267L169.817 268.042L170.239 267.207L169.112 265.955L167.844 266.651L165.871 267.625L165.166 268.599L164.744 269.295L165.166 269.712Z" stroke="black"/>
<path d="M177.003 264.424H179.54L180.526 263.589H181.795V262.615L179.54 261.084H176.44V261.78V263.589V264.424H177.003Z" stroke="black"/>
<path d="M183.626 261.78L184.19 262.615H185.74L186.445 262.198L187.572 262.615L188.277 263.589H188.981V261.78V260.389L187.854 260.249V261.78L187.149 262.058L186.445 261.78L185.036 261.502L183.767 260.249L182.64 259.693L182.217 260.249V261.084H183.204L183.626 261.78Z" stroke="black"/>
<path d="M139.943 47.4784L138.957 49.0091V50.9573L137.97 52.9055L136.984 53.8796L136.42 56.3844L134.588 58.8892L133.602 60.5591V62.229L134.588 63.4814V64.873V65.7079L132.897 66.8212V67.6561H134.588L135.716 66.8212H136.42L137.548 67.9344L137.266 70.0218L137.83 70.7176V72.5266L137.266 73.3615L136.984 73.6399V74.0573L137.266 74.614L137.83 75.4489H138.675L139.38 74.8923H140.366V75.1706L141.634 75.4489H143.184V74.3356L142.198 74.0573V73.3615L141.916 72.1091L142.198 70.3001L143.466 69.0477L144.453 68.2127L146.003 67.6561V66.4037H146.566V66.8212H147.835L149.103 65.7079L150.089 64.873L150.794 63.4814L152.203 63.0639L154.035 62.7856L154.317 61.5332L154.88 60.2808L156.712 58.4718L156.994 57.2193L157.699 56.3844V55.2711L157.276 54.8537L157.699 53.4621L158.262 52.488L158.967 50.9573V49.0091V46.6434V45.391L157.699 44.4169L157.276 43.8603V41.4946L158.262 40.938L158.685 40.6597V40.103L158.262 39.1289L157.699 38.0157L156.008 37.8765L155.162 36.9024L154.176 37.1807L153.471 37.4591H152.908V37.1807L151.921 36.9024L151.076 35.7892V33.841V31.6145L151.639 30.7795L152.908 29.5271L154.458 29.2488L154.88 28.4139L155.726 27.7181V26.4657L156.571 25.2133L157.699 24.1L159.108 23.1259L160.094 21.7343L160.517 20.7602L160.799 20.2036V19.7861H159.812L159.108 20.2036H158.262L158.121 20.8994H157.699L157.276 20.4819L156.853 20.2036H156.571L156.008 20.7602L155.162 21.7343L153.189 23.4042L151.921 24.1L150.371 26.0482L149.807 27.1614L149.385 27.7181L148.257 28.8313L146.989 30.0837L145.439 31.0578L144.734 32.4494L143.748 34.1193V35.7892L142.48 36.485L140.507 38.5723L140.084 39.9639V40.6597L140.93 41.4946V42.4687L140.507 42.8862L139.521 43.4428V44.1386V45.6693L138.534 46.3651V46.6434L139.098 46.7826H139.521L139.943 47.4784Z" fill="#BDB2BB" stroke="black"/>
<path d="M10.0186 195.681L13.1188 196.794L20.1646 193.454L24.2511 192.063L25.9421 193.454H30.7332V192.063H33.8334L36.229 190.949H39.47L42.0065 192.063H43.9793L43.5566 187.609C43.2278 187.888 42.5138 188.444 42.2883 188.444H41.5838V188.166L41.4428 187.47L42.2883 186.775V185.8L40.5973 185.661V187.053L39.47 188.166H38.0609L37.6381 187.609V187.053L38.0609 186.496V185.383L37.6381 184.966H36.7926L36.088 185.105L35.6653 184.131H35.2425V185.383V185.8V186.496L34.397 187.053L33.2697 187.47H31.5787L30.7332 186.775L30.3105 186.496V185.8L29.6059 185.383L28.3377 184.966L25.9421 184.687L24.9557 184.409L24.6739 184.131L21.9965 183.852H21.151L19.0372 183.296L17.0644 182.461C16.5947 182.322 15.5425 182.043 15.0916 182.043H11.8505L10.5823 182.322L10.0186 183.017L8.18671 182.739H4.66381L3.6774 183.852V184.687L4.10015 185.105V185.94L3.6774 186.357V186.635L4.10015 186.914L3.39557 187.192L2.97282 187.47L2.55007 189.001L2.69099 190.532L2.55007 192.063L2.69099 192.619L4.10015 194.289L4.66381 195.263L5.08656 195.959V197.49H8.46854L9.31403 196.794V195.681H10.0186Z" fill="#BDB2BB"/>
<path d="M2.12733 197.49L2.97282 196.794V195.681H1.42275V196.376L1 196.794V197.072L1.56366 197.35L2.12733 197.49Z" fill="#BDB2BB"/>
<path d="M45.5294 190.949V189.975H46.5158L48.0659 190.949L49.0523 191.645L49.475 193.732H50.8842H54.4071L55.3935 193.176H62.4393L65.2576 192.48L65.9622 192.063H67.0895L68.9214 193.176L69.4851 193.732H70.0487L71.1761 192.897H73.2898L75.9672 191.367H80.7583L82.0266 190.81H82.8721H83.4358L84.4222 191.088L84.8449 190.393H85.8313V189.558H84.8449L82.0266 189.14H77.94L76.249 188.862L74.9808 188.444H68.2168L67.3713 189.14H65.2576H62.4393L61.4529 189.558L59.4801 189.836H57.2254L55.3935 189.14L54.6889 188.862H53.4207L52.1524 189.558H51.166L50.1796 188.444H49.0523L48.6295 188.862H48.3477L47.6431 188.444L47.0795 188.166H46.5158V188.862H45.5294L44.9657 189.14V189.975L44.8248 190.81L45.5294 190.949Z" fill="#BDB2BB"/>
<path d="M42.2883 188.444C42.5138 188.444 43.2278 187.888 43.5566 187.609L43.9793 192.063H42.0065L39.47 190.949H36.229L33.8334 192.063H30.7332V193.454H25.9421L24.2511 192.063L20.1646 193.454L13.1188 196.794L10.0186 195.681H9.31403V196.794L8.46854 197.49H5.08656V195.959L4.66381 195.263L4.10015 194.289L2.69099 192.619L2.55007 192.063L2.69099 190.532L2.55007 189.001L2.97282 187.47L3.39557 187.192L4.10015 186.914L3.6774 186.635V186.357L4.10015 185.94V185.105L3.6774 184.687V183.852L4.66381 182.739H8.18671L10.0186 183.017L10.5823 182.322L11.8505 182.043M42.2883 188.444C42.0629 188.444 41.7247 188.444 41.5838 188.444M42.2883 188.444H41.5838M41.5838 188.444V188.166L41.4428 187.47L42.2883 186.775V185.8L40.5973 185.661V187.053L39.47 188.166H38.0609L37.6381 187.609V187.053L38.0609 186.496V185.383L37.6381 184.966H36.7926L36.088 185.105L35.6653 184.131H35.2425V185.383V185.8V186.496L34.397 187.053L33.2697 187.47H31.5787L30.7332 186.775L30.3105 186.496V185.8L29.6059 185.383L28.3377 184.966L25.9421 184.687L24.9557 184.409L24.6739 184.131L21.9965 183.852H21.151L19.0372 183.296L17.0644 182.461C16.5947 182.322 15.5425 182.043 15.0916 182.043M15.0916 182.043C14.6407 182.043 12.743 182.043 11.8505 182.043M15.0916 182.043H11.8505M2.12733 197.49L2.97282 196.794V195.681H1.42275V196.376L1 196.794V197.072L1.56366 197.35L2.12733 197.49ZM45.5294 190.949V189.975H46.5158L48.0659 190.949L49.0523 191.645L49.475 193.732H50.8842H54.4071L55.3935 193.176H62.4393L65.2576 192.48L65.9622 192.063H67.0895L68.9214 193.176L69.4851 193.732H70.0487L71.1761 192.897H73.2898L75.9672 191.367H80.7583L82.0266 190.81H82.8721H83.4357L84.4222 191.088L84.8449 190.393H85.8313V189.558H84.8449L82.0266 189.14H77.94L76.249 188.862L74.9808 188.444H68.2168L67.3713 189.14H65.2576H62.4393L61.4529 189.558L59.4801 189.836H57.2254L55.3935 189.14L54.6889 188.862H53.4207L52.1524 189.558H51.166L50.1796 188.444H49.0523L48.6295 188.862H48.3477L47.6431 188.444L47.0795 188.166H46.5158V188.862H45.5294L44.9657 189.14V189.975L44.8248 190.81L45.5294 190.949Z" stroke="black"/>
<path d="M68.498 201.803V204.169V204.726V205.7L69.9072 208.065L71.3163 210.153V212.658L73.2892 215.719L74.5574 216.415H75.4029L75.8256 215.719L75.4029 213.771L73.7119 210.57L72.8664 208.065L71.3163 204.726L70.7527 203.612V201.803L71.88 199.438L72.4437 197.629L70.3299 195.959H69.0617L67.6525 198.324L67.0889 199.02V201.108L68.498 201.803Z" fill="#BDB2BB" stroke="black"/>
<path d="M239.852 195.82L247.884 197.211L249.011 198.603H254.648L254.789 197.768L252.957 196.376H254.789L257.748 195.82L258.875 193.871L258.03 193.315V192.619L260.707 191.645L261.694 189.836H262.539V188.444L260.707 186.218H258.875L258.03 185.105L259.721 183.435L258.875 182.6L255.916 183.435L255.352 184.548L252.957 185.105H246.193L241.824 186.914H239.852L236.47 189.836H232.242V191.645L234.497 193.315L237.174 194.567L239.852 195.82Z" fill="#BDB2BB" stroke="black"/>
<path d="M169.112 145.306L170.944 146.976L170.381 147.95V148.785H171.226L171.79 147.95L173.058 148.785H174.044V147.95L171.226 145.306L169.817 143.636H169.112V145.306Z" fill="#BDB2BB" stroke="black"/>
</svg>
