<svg width="1163" height="1000" viewBox="0 0 1163 1000" fill="none" xmlns="http://www.w3.org/2000/svg">
<g id="Group 7">
<g id="b-papua">
<path d="M64 155.5L69.5 148.5V140L73 136.5H85.5L92.5 119.5L99 107.5L103 98.4999L99 94.4999L92.5 89.9999L103 83.4999H115H142L151.5 79.9999L164.5 73.9999L178 61L196.5 45.5L208.5 39.5H221.5H247L262.5 42.5L271 48.5L290 54.5L305.5 61L319 73.9999L323.5 79.9999H340.5L337.5 86.4999H345L351 79.9999H375H391L400.5 86.4999H405.5L400.5 94.4999L391 103.5L400.5 107.5L403 121L405.5 126.5L409.5 130H415L419.5 136.5V140V144.5L415 151.5V160V167L409.5 173.5L403 176.5L400.5 180L403 188L405.5 195V201L409 205L410.5 211L408 218.5L405.5 222V227L408 231.5L409.5 237.5L410.5 243L413.5 251L418.5 260L424 269L428.5 282L437.5 293.5L442.5 307V314.5H452V301.5V291L447 284.5V277L452 272.5H463L466.5 277V293.5V297L465.5 303.5V308.5L452 320L441 326V336L422.5 353.5L418 361V370.5L446.5 382.5L464 388.5L487 395.5L492.5 397.5V406H500.5C500.1 406 500.333 402.667 500.5 401L512 402.5L577 428H580.5L581.5 441L585 445V452H589.5V458.5H630V462L613.5 485H570L560 482.5L549.5 481.5L546.5 478H542V482.5H523.5L521.5 478L512 473L509.5 466.5L498.5 465L488.5 456.5L489.5 450.5L498.5 445L505 439.5C506.667 438.333 510.2 436 511 436C511.8 436 513.333 434.333 514 433.5L530 434.5L534 436H537.5V431.5H530L528 428L523.5 429.5H515.5L514 419.5H503V424L487 425.5L483 422H475.5V425.5H466.5L456.5 437.5H451L448 429.5V425.5C443.833 425 435.4 424 435 424C434.6 424 434.167 422 434 421C432.333 420.667 428.9 420.2 428.5 421C428.1 421.8 428.333 424.333 428.5 425.5L432 426.5V429.5L427.5 430L426 426.5L422.5 428L424 431.5L416 428V417.5L422.5 416L426 410.5L420 409L422.5 406L428.5 404.5L429.5 401.5L435 401V397.5L429.5 393.5L423.5 392.5L420 397.5V402.5L416 406L406.5 409L400 413.5H394L387 409L385 402.5L379 395.5V386H368.5V388.5L371 393.5L371.5 398.5L364 397.5L362 387L360 382.5L355 381V377H364L364.5 369.5L362 361V351.5L366 345.5C367.5 346.333 370.6 348 371 348C371.4 348 371.5 343.667 371.5 341.5L374.5 340L375.5 334H382.5L385 341.5L387 340V334L382.5 331V322.5L377.5 316.5H373V327.5L367 329L359.5 337L356.5 343V361V369.5L350 372.5H344L345.5 363H338L340.5 370.5V373.5L336 372.5L331.5 366L326 361L328 366L329 372.5L334 374.5L340 377L347.5 380L349.5 387L347.5 390.5L344.5 391L344 393.5L341 394.5L338 395.5L337 398.5L336 400L334 401.5L331.5 398.5L332 394.5L337 389.5V384.5L332 383.5V389.5H328L323.5 386L320.5 387V389.5L324 393L328 396.5V405.5L329 411.5C330.333 411.667 333 412.3 333 413.5C333 414.7 334 418 334.5 419.5L332 421.5L328 423L322 419.5L318 415L315.5 409L310.5 406L306.5 406.5L304.5 408L309.5 411.5C309.833 411.167 310.9 410.8 312.5 412C314.1 413.2 314.5 416.167 314.5 417.5C313.667 417.833 312.1 418.7 312.5 419.5C313 420.5 316 421.5 317 421.5C317.8 421.5 320.667 423.167 322 424L321.5 425L325 427V429.5L320 430L317 431C317 431.667 317.2 433.1 318 433.5C318.8 433.9 321 434.333 322 434.5V436.5L320.5 438.5L315.5 439.5V442.5L314 444L311.5 445.5H308L301.5 446.5C301 446.833 299.8 447.3 299 446.5C298.2 445.7 298 443.5 298 442.5L293 443.5L290 445.5L289 446.5L283.5 447.5L278.5 446.5C277.667 445.833 275.9 444.3 275.5 443.5C275.1 442.7 274.667 440.5 274.5 439.5L270 438.5V433L267.5 431L266.5 425L263 421.5L261 416V411.5L258.5 409L257 402V397.5L263 396.5H271H273.5V390.5L275.5 388.5H278.5L278 386L274.5 384.5L273.5 380L267.5 378.5L266.5 372.5L263 369L264 366L266.5 363L265 357.5L260.5 356.5L256 361L252.5 363L246 361V355L243.5 353.5L245 348C245.272 347.047 245.767 345.382 245.939 345.022C245.342 344.878 240.5 341.031 238 339L226 330L215.5 323L213.5 320C212.167 319.333 209.2 318.1 208 318.5C206.5 319 197.5 318.5 197 318.5H184.5L180.5 315.5L181.5 313.5H178V308L180.5 303L181.5 301C181.167 299.333 180.7 296.1 181.5 296.5C182.5 297 187 294.5 188 295C189 295.5 192 296.5 194 296.5C195.6 296.5 197.333 295.5 198 295L197 290.5L203.5 288.5C205.5 287.833 209.8 286.6 211 287C212.2 287.4 215.833 289.5 217.5 290.5L220.5 295V297.5L227 296.5L230 293L236 291.5L245 295L248.5 299L252.5 303L259.5 304L263 302L266 298.5L279 285.5L285.5 278L289.5 271.5C291.5 269.333 295.6 265.1 296 265.5C296.4 265.9 299.5 264 301 263H316L320.5 264.5L319 269C319 270.167 318.8 272.6 318 273C317 273.5 312 274 311.5 274.5C311 275 306.5 273.5 307.5 274.5C308.3 275.3 309.167 276.5 309.5 277L315 275.5L323 277C324.333 277.167 326.9 277.6 326.5 278C326.1 278.4 325 283.167 324.5 285.5L321.5 289.5L315.5 291L310 290.5L311.5 293C311.667 294.167 312.1 296.5 312.5 296.5C312.9 296.5 317 294.5 319 293.5L325.5 291.5L329 293.5L329.5 297.5L329 300C330.167 299.5 332.6 298.5 333 298.5C333.4 298.5 337.833 295.167 340 293.5L345.5 290.5L349.5 287H353.5L356 290.5L358 296.5L356 299L355 302L352.5 303L353.5 306.5L356 309L360 305.5L362 298.5L366 296.5H367.5C368.333 296.667 369.9 297.3 369.5 298.5C369.1 299.7 369 301 369 301.5L373 297.5C373.4 297.1 374.833 294.667 375.5 293.5L379 292L381.5 295L384 296.5H387L388.5 295L384 291L379 288.5L375.5 287L374.5 280.5C374.167 279 373.7 275.7 374.5 274.5C375.3 273.3 375.5 271.333 375.5 270.5L381.5 269L386 269.5L384 265.5C385.833 266.667 389.6 269 390 269C390.5 269 393 270.5 393.5 271.5C393.9 272.3 393.667 274.5 393.5 275.5C393.667 276.5 394.2 278.7 395 279.5C395.8 280.3 396.667 283.167 397 284.5H399.5L398.5 280.5L397 275.5L395 273C395.5 272.167 396.8 270.6 398 271C399.2 271.4 400.833 271.5 401.5 271.5V269L397 266.5L394 264L393.5 260.5H398H406L403 256.5L399.5 253C399.667 252.667 400.3 252 401.5 252C402.7 252 403 251.333 403 251L400.5 249.5L397 247.5C397.5 246.833 398.7 245.5 399.5 245.5C400.3 245.5 401.167 244.167 401.5 243.5C400 243 394 241 394 241.5C394 241.9 391.333 241 390 240.5L388.5 236.5L390 234.5L393.5 233L394 230.5V227C393.167 226.333 391.5 224.9 391.5 224.5C391.5 224.1 387.833 222.667 386 222H380L375.5 224.5V227H373H369V229.5C366.833 229.333 362.4 229.1 362 229.5C361.6 229.9 359.167 229.667 358 229.5L357.5 233.5L353.5 234.5H349.5L351 239.5L349.5 241.5H343.5H331.5L319.5 237.5L316 239.5L301 237.5V240.5L295 242H288.5L287 247L282 248H275.5L271 244.5L269 242H264L261.5 244.5L254 248L246 246.5L242 240.5C241.5 239.5 240.3 237.5 239.5 237.5H230L225 241.5L219 243.5C218 244.167 215.6 245.6 214 246C212.4 246.4 208 246.167 206 246L202.5 240.5L198 234.5L192.5 229L189 225.5H184.5L183 219.5H185.5C185.167 218 184.5 215.1 184.5 215.5C184.5 215.9 181.167 215.667 179.5 215.5L174 212L172.5 207.5L168.5 203L169.5 193.5V191H177.5L181 193.5H184.5L185.5 187.5L183 185.5L181 178.5H177.5C176.5 179.333 174.6 181.2 175 182C175.5 183 173.5 185.5 173 186C172.6 186.4 166.833 185.833 164 185.5L162.5 177V172H168.5L171.5 170L169.5 168L165.5 169L161.5 170C161 171.167 159.7 173.5 158.5 173.5C157.3 173.5 153.667 172.5 152 172L145.5 169V165.5H142L136.5 166L133 164V160.5L126 161H122H118.5H113.5L110 158.5L113.5 154C113.167 153 112.7 151 113.5 151H116.5V143L112 143.5L110 148.5H105.5V138L102.5 137V140L99 141.5L97 138L94.5 142L92 144L91 146.5L97 151L102.5 153L104 157.5L102.5 160.5L98 161L89 161.5C88 161.333 85.9 160.9 85.5 160.5C85.1 160.1 85.3333 157.667 85.5 156.5L64 155.5Z" fill="#FF0000"/>
<path d="M34.5 110.5L27 107.5L26 107L36.5 98.4999L48 96.4999L53.5 98.4999L61 103V98.4999L69.5 101L73 113.5L69.5 119.5V131L64 140L61 146.5L51.5 142L41.5 133L34.5 125V116V110.5Z" fill="#FF0000"/>
<path d="M7 96.4999V87.9999L27 85.9999L45 87.9999C44.5 89.4999 43.1 92.4999 41.5 92.4999H33C32.5 93.8333 31.2 96.4999 30 96.4999H7Z" fill="#FF0000"/>
<path d="M17 46L21.5 43H28L30 47C30 49.1666 29.6 53.5999 28 54C26.4 54.4 22.3333 51.1666 20.5 49.5L17 46Z" fill="#FF0000"/>
<path d="M34.5 44L32 31.9999L41.5 29.9999L52.5 31.9999L57 38L53.5 44H34.5Z" fill="#FF0000"/>
<path d="M35 28.9999C31.8333 29.9999 25.4 32.0999 25 32.4999L14.5 31.9999L13.5 24.4999L12 20.4999L7 24.4999L2 22.9999V19.4999L4.5 18.4999V15.9999L1 14.9999L3 10.4999L4.5 6.49995H13.5L21.5 7.99995L22.5 13.4999L27 19.4999L32.5 22.9999L35 28.9999Z" fill="#FF0000"/>
<path d="M40.5 15.9999L33.5 9.99995C33.5 8.3333 33.4 4.8 33 4C32.5 3 40.5 1.99995 41.5 0.999949C42.3 0.199949 47.8333 0.666616 50.5 0.999949L62.5 2.99995L74.5 7.99995L83.5 9.99995C86 11.1666 91.1 13.4999 91.5 13.4999C91.9 13.4999 95.6667 18.1666 97.5 20.4999V28.9999C95.8333 30.9999 92.5 35.2 92.5 36C92.5 37 86 36 84.5 35C83.3 34.2 82.6667 31.3333 82.5 29.9999L77 28.9999L72 30.9999C70.5 31.8333 67.1 33.2999 65.5 32.4999C63.9 31.6999 59.1667 29.8333 57 28.9999L52.5 21.9999C49.5 21.4999 43.4 20.2999 43 19.4999C42.6 18.6999 41.1667 16.8333 40.5 15.9999Z" fill="#FF0000"/>
<path d="M412.5 197.5L413.5 195L417 199V205H412.5L411.5 201L412.5 197.5Z" fill="#FF0000"/>
<path d="M431.5 227V217L434 214C436.333 215.5 441.1 218.5 441.5 218.5C441.9 218.5 439.667 219.833 438.5 220.5L440 228.5C438.5 230.167 435.2 233.4 434 233C432.8 232.6 431.833 228.833 431.5 227Z" fill="#FF0000"/>
<path d="M484.5 116.5C482.5 115.3 483.667 104.667 484.5 99.5L488.5 98H495L502 103.5V107.5H497L500 112L504.5 114L500 121C495.667 120 486.5 117.7 484.5 116.5Z" fill="#FF0000"/>
<path d="M405 436.5L403.5 429.5V426.5L408.5 428L410 434.5L405 436.5Z" fill="#FF0000"/>
<path d="M326.5 453H323H321.5L325 449.5H329.5L326.5 453Z" fill="#FF0000"/>
<path d="M327.5 459C327.1 459 326.333 457.333 326 456.5V455L327.5 453.5L329.5 452.5L331.5 453L333.5 456C332.833 456.833 331.5 458.6 331.5 459C331.5 459.5 328 459 327.5 459Z" fill="#FF0000"/>
<path d="M335.5 463L334 460L334.5 457H339L342.5 458L341 462L335.5 463Z" fill="#FF0000"/>
<path d="M291 604C292 597 294.4 582.6 296 581L299 578H306.5V584L302 592C301.667 596 301.2 604 302 604C302.8 604 298.333 611.333 296 615H288L285 608.5L291 604Z" fill="#FF0000"/>
<path d="M278.5 625.5L280 620L285 617.5C286.667 618.333 290.2 620.3 291 621.5C291.8 622.7 288.667 623.333 287 623.5L283 627.5L278.5 625.5Z" fill="#FF0000"/>
<path d="M259 617.5V606.5H262.5L264.5 611.5L262.5 618.5L259 617.5Z" fill="#FF0000"/>
<path d="M275 642.5V634H281V643.5L278.5 646L275 642.5Z" fill="#FF0000"/>
<path d="M250.5 623.5L247.5 618.5V614L250.5 615L252.5 617.5L256.5 620V623.5H259L261 630.5L263.5 629.5L264.5 636.5V645L262.5 648.5L257.5 646V643.5H252.5L250.5 639.5V633L252.5 629.5L250.5 623.5Z" fill="#FF0000"/>
<path d="M452 606.5V595.5L461 592L467.5 600L470.5 606.5H452Z" fill="#FF0000"/>
<path d="M455 592L452 587.5L454 585L457 587.5L455 592Z" fill="#FF0000"/>
<path d="M431 615L427.5 608.5L428 605.5H432.5L435 608.5L431 615Z" fill="#FF0000"/>
<path d="M424 627.5H419.5C420.016 626.339 420.931 624.22 421.319 623.136L423 620.5L427.5 622L429 625.5L424 627.5Z" fill="#FF0000"/>
<path d="M417.5 636C416.3 636.4 415 634.167 414.5 633H414L415.5 632.5L416.5 629.5L420.5 632.5C420 633.5 418.7 635.6 417.5 636Z" fill="#FF0000"/>
<path d="M458 617L455.5 613L457 610.5L464.5 611L467 614.5L472.5 616L473.5 623.136L471 625.5L465.5 623.136H461L460 619.5C460 618.667 459.9 617 459.5 617H458Z" fill="#FF0000"/>
<path d="M472.5 634.5L473.5 631H479L476 635.5L472.5 634.5Z" fill="#FF0000"/>
<path d="M448.5 610.5C449.667 610.667 452.2 611 453 611V613V618L455.5 619L458 622.5L461 626.5L463.5 625.5L465.5 630L470 631V639H476.5V643L472.5 643.5L473.5 646L470 647L465.5 645.5L464.5 640L461.5 639L461 647.5H457L450.5 646C449.833 647.167 448.5 649.8 448.5 651C448.5 652.2 446.5 651.5 445.5 651L443.5 656L440.5 655.5L435.5 657.5L432 657L431 652.5L432 644.5L432.5 640L436.5 638V634.5H443L444 632L432 632.5V629L436.5 626.5L435 619H442V614.5H448.5V610.5Z" fill="#FF0000"/>
<path d="M470 678.5L471.5 672.5L473.5 673H477L476.5 670V662.5H468.5V654.5H465.5L464.5 651L460 650L461.5 654.5L457 657.5L458 653.5C456.5 652.667 453.3 650.8 452.5 650C451.7 649.2 451.5 652 451.5 653.5H448.5L448 657.5L444 657L443 659H439H435.5C434.7 659 434.5 661.333 434.5 662.5L432.5 659L428.5 660V662.5V672.5L432 675.5L434.5 679.5H443.5L444 684H446.5L448.5 687.5H451.5L453.5 692H456L457 696.5L462.5 697.5H468.5L470 693.5V690H471.5L475 686L478 684V679.5V675.5H475L472.5 678.5H470Z" fill="#FF0000"/>
<path d="M410 670L408 660L410.5 658.5L416.5 657.5L421.319 660C421.319 662.333 421.355 667.1 421.5 667.5C421.645 667.9 418.894 668.667 417.5 669L410 670Z" fill="#FF0000"/>
<path d="M418.5 678L417.5 674.5L418.5 671.5L422 670.5L422.5 674L425 671.5V675L428 678C428.5 679.333 429.5 682.1 429.5 682.5C429.5 682.9 430.167 680.667 430.5 679.5L435 684.5C434.833 685.667 434.5 688.3 434.5 689.5C434.5 690.7 431.167 688 429.5 686.5C428.167 685.833 425.4 684.5 425 684.5C424.5 684.5 422.5 682 421.5 681L418.5 678Z" fill="#FF0000"/>
<path d="M438 698L437.5 693L437 693.5L437.5 690C438.667 689.5 441.2 688.4 442 688C442.8 687.6 444 689.833 444.5 691H448.5C449.5 692.833 451.6 696.5 452 696.5C452.4 696.5 449.833 697.833 448.5 698.5V704C448.5 704.5 445 702.5 444 702C443.2 701.6 443.333 699.5 443.5 698.5L438 698Z" fill="#FF0000"/>
<path d="M453.5 705C453.5 704.5 451.5 700.5 451 700L455 697.5L460 700.5C459.833 702.333 459.5 706.1 459.5 706.5C459.5 707 453.5 705.5 453.5 705Z" fill="#FF0000"/>
<path d="M469 715.5C468.2 715.5 468 710.167 468 707.5L471.5 708L476 709.5L477.5 715.5H469Z" fill="#FF0000"/>
<path d="M484.5 707L483.5 697.5V695L486.5 693L487.5 690.5L488 687.5H491.5L493.5 690.5V699.5C493.5 700.3 490.5 699.833 489 699.5L488.5 705.5L484.5 707Z" fill="#FF0000"/>
<path d="M469 731.5V723.5L470.5 720H473.5L477 722L478.5 724.5L476 729.5L475.5 730.5L474 733.5L473 735.5C473.167 736.667 473.4 739 473 739C472.6 739 470.833 740 470 740.5C468.5 740.333 465.4 740 465 740C464.6 740 463.833 739 463.5 738.5C464.167 737.333 465.4 734.9 465 734.5C464.6 734.1 467.167 734 468.5 734L469 731.5Z" fill="#FF0000"/>
<path d="M480.5 714L481.5 711.5L483.5 710.5L486 712L485.5 715L482 716L480.5 714Z" fill="#FF0000"/>
<path d="M410 685L406.5 679.5L409.5 676.5L411 679L415 681.5L418.5 683L419.5 685.5H421.5L424 687.5V690L424.5 694L425.5 697.5C426.667 697.833 429.1 698.5 429.5 698.5C429.9 698.5 432.333 699.833 433.5 700.5L437.5 702L440.5 706L444 707.5L448 713.5L445 718C445.667 718.667 446.9 720 446.5 720C446.1 720 448.333 723.333 449.5 725L448 729L442.5 728.5C441.333 728.667 438.8 729 438 729H433.5C432.167 728.667 429.2 727.9 428 727.5C426.5 727 425.5 724.5 425 723.5C424.5 722.5 426 721 425.5 720C425 719 423.5 716.5 422.5 715.5C421.5 714.5 421.5 712 421 711C420.5 710 421 708.5 421 708C421 707.5 420 704.5 420 704C420 703.6 418.333 701.5 417.5 700.5L415.5 704.5C413.833 704.667 410.4 704.9 410 704.5C409.5 704 408.5 702.5 408 702C407.5 701.5 407 697.5 407.5 697C408 696.5 411.5 695 412 693.5C412.4 692.3 412.833 690.667 413 690L410 685Z" fill="#FF0000"/>
<path d="M433.5 742L437 738.5L439 737.5L441.5 736.5L442 734C441.5 733.5 440.3 732.4 439.5 732C438.7 731.6 436.833 731.5 436 731.5C434.167 730.833 430.1 729.4 428.5 729C426.5 728.5 427.5 730 427 730.5C426.6 730.9 425.833 730.667 425.5 730.5L421 726.5L422.5 724.5L417.5 720.5L418 717L416.5 714L415.5 711H411.5L408.5 713.5V733.5L405 734.5L404.5 738.5L400 740V743.5C401 743.667 403 743.9 403 743.5C403 743.1 404 746 404.5 747.5L410.5 749.5L412 746.5L415 745.5C415.667 747.167 416.9 750.7 416.5 751.5C416.1 752.3 415.333 754.167 415 755L419 756L421 753.5H424L427 751.5L430.5 748.5L432.5 746.5L433.5 742Z" fill="#FF0000"/>
<path d="M124.5 745.5L122 739L124.5 736C125.5 734.833 127.7 732.3 128.5 731.5C129.5 730.5 134.5 730.5 135.5 730C136.3 729.6 135.833 733.833 135.5 736L127.5 737V744.5L124.5 745.5Z" fill="#FF0000"/>
<path d="M162.5 785C158 784.667 148.8 784 148 784L147 777L161 774.5L167 779L171.5 784C172 786.167 173.2 790.6 174 791C174.8 791.4 171.667 792.5 170 793H165V788.5L162.5 785Z" fill="#FF0000"/>
<path d="M143.5 789.5L137.5 793H134.5L131 795.5H133C133.833 797 135.4 800.2 135 801C134.6 801.8 136.167 804.333 137 805.5V816L136 824L138.5 824.5L137.5 829.5H136V832.5L135 836.5L132.5 837.5L131 840.5L126.5 846C125 846.167 121.9 846.4 121.5 846C121.1 845.6 119.667 846.833 119 847.5C118.167 849.5 116.6 853.9 117 855.5C117.4 857.1 114.833 857.167 113.5 857L108 859.5L105.5 864L103.5 869C102.833 869.333 101.2 870 100 870H94.5L96.5 875C95 875.833 91.9 877.5 91.5 877.5C91 877.5 84 877 81.5 877.5C79 878 76.5 874.5 76.5 874V870L79 868V866L75.5 865L76.5 860.5L81 857L79.5 853.5L82.5 850.5L85 848H93.5L93 844.5L90.5 841.5L85.5 840.5V834L87.5 828.5L90.5 824L93 819.5L95.5 815.5H103L105.5 814.5L103.5 812L108.5 810.5V805.5L113.5 804.5V800C115.167 798.5 118.5 795.4 118.5 795C118.5 794.6 117.167 792.833 116.5 792H123C124.167 791.667 126.4 791 126 791C125.6 791 123.833 789.333 123 788.5L120.5 785L125 786L127 781.5L131 779L134.5 782.5L135.5 787.5L137.5 788.5V785L140.5 784L143.5 789.5Z" fill="#FF0000"/>
<path d="M62 819.5V812L65 814.5L75.5 810.5L81.5 814.5L74 815.5V818L62 819.5Z" fill="#FF0000"/>
<path d="M49.5 828.5C45.1 827.7 47.6667 825.167 49.5 824H55L62 828.5C59.6667 828.833 53.9 829.3 49.5 828.5Z" fill="#FF0000"/>
<path d="M62 844.5C59.6 844.5 61 841.833 62 840.5V839L69.5 844.5H62Z" fill="#FF0000"/>
<path d="M76.5 846C74.5 846 74 840.333 74 837.5H76.5L79 844.5L79.5 848C79.3333 847.333 78.5 846 76.5 846Z" fill="#FF0000"/>
<path d="M78 896L79 887.5L79.5 887L82.5 890V896H78Z" fill="#FF0000"/>
<path d="M97.5 877.5L98.5 873L101 872.5L103.5 874.5L101 878.5L97.5 877.5Z" fill="#FF0000"/>
<path d="M65.5 890.5V885.5V883.5L70 884L73.5 890L73 897L69 898.5L68 902L62.5 903C60.5 901.667 56.5 898.9 56.5 898.5V891.5C59.5 891.5 65.5 891.3 65.5 890.5Z" fill="#FF0000"/>
<path d="M43.5 908.5L46 903H50V899L53.5 900L54.5 909L52 911C52.5 911.5 53.3 912.5 52.5 912.5C51.5 912.5 44.5 915 43 915.5C41.8 915.9 40.8333 912 40.5 910L43.5 908.5Z" fill="#FF0000"/>
<path d="M421.5 622.5C421.5 622.59 421.432 622.819 421.319 623.136M421.319 623.136C420.931 624.22 420.016 626.339 419.5 627.5H424L429 625.5L427.5 622L423 620.5L421.319 623.136ZM64 155.5L69.5 148.5V140L73 136.5H85.5L92.5 119.5L99 107.5L103 98.4999L99 94.4999L92.5 89.9999L103 83.4999H115H142L151.5 79.9999L164.5 73.9999L178 61L196.5 45.5L208.5 39.5H221.5H247L262.5 42.5L271 48.5L290 54.5L305.5 61L319 73.9999L323.5 79.9999H340.5L337.5 86.4999H345L351 79.9999H375H391L400.5 86.4999H405.5L400.5 94.4999L391 103.5L400.5 107.5L403 121L405.5 126.5L409.5 130H415L419.5 136.5V140V144.5L415 151.5V160V167L409.5 173.5L403 176.5L400.5 180L403 188L405.5 195V201L409 205L410.5 211L408 218.5L405.5 222V227L408 231.5L409.5 237.5L410.5 243L413.5 251L418.5 260L424 269L428.5 282L437.5 293.5L442.5 307V314.5H452V301.5V291L447 284.5V277L452 272.5H463L466.5 277V293.5V297L465.5 303.5V308.5L452 320L441 326V336L422.5 353.5L418 361V370.5L446.5 382.5L464 388.5L487 395.5L492.5 397.5V406C495.333 406 500.9 406 500.5 406C500.1 406 500.333 402.667 500.5 401L512 402.5L577 428H580.5L581.5 441L585 445V452H589.5V458.5H630V462L613.5 485H570L560 482.5L549.5 481.5L546.5 478H542V482.5H523.5L521.5 478L512 473L509.5 466.5L498.5 465L488.5 456.5L489.5 450.5L498.5 445L505 439.5C506.667 438.333 510.2 436 511 436C511.8 436 513.333 434.333 514 433.5L530 434.5L534 436H537.5V431.5H530L528 428L523.5 429.5H515.5L514 419.5H503V424L487 425.5L483 422H475.5V425.5H466.5L456.5 437.5H451L448 429.5V425.5C443.833 425 435.4 424 435 424C434.6 424 434.167 422 434 421C432.333 420.667 428.9 420.2 428.5 421C428.1 421.8 428.333 424.333 428.5 425.5L432 426.5V429.5L427.5 430L426 426.5L422.5 428L424 431.5L416 428V417.5L422.5 416L426 410.5L420 409L422.5 406L428.5 404.5L429.5 401.5L435 401V397.5L429.5 393.5L423.5 392.5L420 397.5V402.5L416 406L406.5 409L400 413.5H394L387 409L385 402.5L379 395.5V386H368.5V388.5L371 393.5L371.5 398.5L364 397.5L362 387L360 382.5L355 381V377H364L364.5 369.5L362 361V351.5L366 345.5C367.5 346.333 370.6 348 371 348C371.4 348 371.5 343.667 371.5 341.5L374.5 340L375.5 334H382.5L385 341.5L387 340V334L382.5 331V322.5L377.5 316.5H373V327.5L367 329L359.5 337L356.5 343V361V369.5L350 372.5H344L345.5 363H338L340.5 370.5V373.5L336 372.5L331.5 366L326 361L328 366L329 372.5L334 374.5L340 377L347.5 380L349.5 387L347.5 390.5L344.5 391L344 393.5L341 394.5L338 395.5L337 398.5L336 400L334 401.5L331.5 398.5L332 394.5L337 389.5V384.5L332 383.5V389.5H328L323.5 386L320.5 387V389.5L324 393L328 396.5V405.5L329 411.5C330.333 411.667 333 412.3 333 413.5C333 414.7 334 418 334.5 419.5L332 421.5L328 423L322 419.5L318 415L315.5 409L310.5 406L306.5 406.5L304.5 408L309.5 411.5C309.833 411.167 310.9 410.8 312.5 412C314.1 413.2 314.5 416.167 314.5 417.5C313.667 417.833 312.1 418.7 312.5 419.5C313 420.5 316 421.5 317 421.5C317.8 421.5 320.667 423.167 322 424L321.5 425L325 427V429.5L320 430L317 431C317 431.667 317.2 433.1 318 433.5C318.8 433.9 321 434.333 322 434.5V436.5L320.5 438.5L315.5 439.5V442.5L314 444L311.5 445.5H308L301.5 446.5C301 446.833 299.8 447.3 299 446.5C298.2 445.7 298 443.5 298 442.5L293 443.5L290 445.5L289 446.5L283.5 447.5L278.5 446.5C277.667 445.833 275.9 444.3 275.5 443.5C275.1 442.7 274.667 440.5 274.5 439.5L270 438.5V433L267.5 431L266.5 425L263 421.5L261 416V411.5L258.5 409L257 402V397.5L263 396.5H271H273.5V390.5L275.5 388.5H278.5L278 386L274.5 384.5L273.5 380L267.5 378.5L266.5 372.5L263 369L264 366L266.5 363L265 357.5L260.5 356.5L256 361L252.5 363L246 361V355L243.5 353.5L245 348C245.333 346.833 246 344.6 246 345C246 345.4 240.667 341.167 238 339L226 330L215.5 323L213.5 320C212.167 319.333 209.2 318.1 208 318.5C206.5 319 197.5 318.5 197 318.5C196.6 318.5 188.5 318.5 184.5 318.5L180.5 315.5L181.5 313.5H178V308L180.5 303L181.5 301C181.167 299.333 180.7 296.1 181.5 296.5C182.5 297 187 294.5 188 295C189 295.5 192 296.5 194 296.5C195.6 296.5 197.333 295.5 198 295L197 290.5L203.5 288.5C205.5 287.833 209.8 286.6 211 287C212.2 287.4 215.833 289.5 217.5 290.5L220.5 295V297.5L227 296.5L230 293L236 291.5L245 295L248.5 299L252.5 303L259.5 304L263 302L266 298.5L279 285.5L285.5 278L289.5 271.5C291.5 269.333 295.6 265.1 296 265.5C296.4 265.9 299.5 264 301 263H316L320.5 264.5L319 269C319 270.167 318.8 272.6 318 273C317 273.5 312 274 311.5 274.5C311 275 306.5 273.5 307.5 274.5C308.3 275.3 309.167 276.5 309.5 277L315 275.5L323 277C324.333 277.167 326.9 277.6 326.5 278C326.1 278.4 325 283.167 324.5 285.5L321.5 289.5L315.5 291L310 290.5L311.5 293C311.667 294.167 312.1 296.5 312.5 296.5C312.9 296.5 317 294.5 319 293.5L325.5 291.5L329 293.5L329.5 297.5L329 300C330.167 299.5 332.6 298.5 333 298.5C333.4 298.5 337.833 295.167 340 293.5L345.5 290.5L349.5 287H353.5L356 290.5L358 296.5L356 299L355 302L352.5 303L353.5 306.5L356 309L360 305.5L362 298.5L366 296.5H367.5C368.333 296.667 369.9 297.3 369.5 298.5C369.1 299.7 369 301 369 301.5C370.167 300.333 372.6 297.9 373 297.5C373.4 297.1 374.833 294.667 375.5 293.5L379 292L381.5 295L384 296.5H387L388.5 295L384 291L379 288.5L375.5 287L374.5 280.5C374.167 279 373.7 275.7 374.5 274.5C375.3 273.3 375.5 271.333 375.5 270.5L381.5 269L386 269.5L384 265.5C385.833 266.667 389.6 269 390 269C390.5 269 393 270.5 393.5 271.5C393.9 272.3 393.667 274.5 393.5 275.5C393.667 276.5 394.2 278.7 395 279.5C395.8 280.3 396.667 283.167 397 284.5H399.5L398.5 280.5L397 275.5L395 273C395.5 272.167 396.8 270.6 398 271C399.2 271.4 400.833 271.5 401.5 271.5V269L397 266.5L394 264L393.5 260.5C394.5 260.5 396.8 260.5 398 260.5C399.2 260.5 403.833 260.5 406 260.5L403 256.5L399.5 253C399.667 252.667 400.3 252 401.5 252C402.7 252 403 251.333 403 251L400.5 249.5L397 247.5C397.5 246.833 398.7 245.5 399.5 245.5C400.3 245.5 401.167 244.167 401.5 243.5C400 243 394 241 394 241.5C394 241.9 391.333 241 390 240.5L388.5 236.5L390 234.5L393.5 233L394 230.5V227C393.167 226.333 391.5 224.9 391.5 224.5C391.5 224.1 387.833 222.667 386 222H380L375.5 224.5V227H373H369V229.5C366.833 229.333 362.4 229.1 362 229.5C361.6 229.9 359.167 229.667 358 229.5L357.5 233.5L353.5 234.5H349.5L351 239.5L349.5 241.5H343.5H331.5L319.5 237.5L316 239.5L301 237.5V240.5L295 242H288.5L287 247L282 248H275.5L271 244.5L269 242H264L261.5 244.5L254 248L246 246.5L242 240.5C241.5 239.5 240.3 237.5 239.5 237.5C238.7 237.5 232.833 237.5 230 237.5L225 241.5L219 243.5C218 244.167 215.6 245.6 214 246C212.4 246.4 208 246.167 206 246L202.5 240.5L198 234.5L192.5 229L189 225.5H184.5L183 219.5H185.5C185.167 218 184.5 215.1 184.5 215.5C184.5 215.9 181.167 215.667 179.5 215.5L174 212L172.5 207.5L168.5 203L169.5 193.5V191H177.5L181 193.5H184.5L185.5 187.5L183 185.5L181 178.5H177.5C176.5 179.333 174.6 181.2 175 182C175.5 183 173.5 185.5 173 186C172.6 186.4 166.833 185.833 164 185.5L162.5 177V172H168.5L171.5 170L169.5 168L165.5 169L161.5 170C161 171.167 159.7 173.5 158.5 173.5C157.3 173.5 153.667 172.5 152 172L145.5 169V165.5H142L136.5 166L133 164V160.5L126 161H122H118.5H113.5L110 158.5L113.5 154C113.167 153 112.7 151 113.5 151C114.3 151 115.833 151 116.5 151V143L112 143.5L110 148.5H105.5V138L102.5 137V140L99 141.5L97 138L94.5 142L92 144L91 146.5L97 151L102.5 153L104 157.5L102.5 160.5L98 161L89 161.5C88 161.333 85.9 160.9 85.5 160.5C85.1 160.1 85.3333 157.667 85.5 156.5L64 155.5ZM27 107.5L34.5 110.5V116V125L41.5 133L51.5 142L61 146.5L64 140L69.5 131V119.5L73 113.5L69.5 101L61 98.4999V103L53.5 98.4999L48 96.4999L36.5 98.4999L26 107L27 107.5ZM7 87.9999V96.4999C14.1667 96.4999 28.8 96.4999 30 96.4999C31.2 96.4999 32.5 93.8333 33 92.4999C35.1667 92.4999 39.9 92.4999 41.5 92.4999C43.1 92.4999 44.5 89.4999 45 87.9999L27 85.9999L7 87.9999ZM21.5 43L17 46L20.5 49.5C22.3333 51.1666 26.4 54.4 28 54C29.6 53.6 30 49.1666 30 47L28 43H21.5ZM32 31.9999L34.5 44H53.5L57 38L52.5 31.9999L41.5 29.9999L32 31.9999ZM25 32.4999C25.4 32.0999 31.8333 29.9999 35 28.9999L32.5 22.9999L27 19.4999L22.5 13.4999L21.5 7.99995L13.5 6.49995H4.5L3 10.4999L1 14.9999L4.5 15.9999V18.4999L2 19.4999V22.9999L7 24.4999L12 20.4999L13.5 24.4999L14.5 31.9999L25 32.4999ZM33.5 9.99995L40.5 15.9999C41.1667 16.8333 42.6 18.6999 43 19.4999C43.4 20.2999 49.5 21.4999 52.5 21.9999L57 28.9999C59.1667 29.8333 63.9 31.6999 65.5 32.4999C67.1 33.2999 70.5 31.8333 72 30.9999L77 28.9999L82.5 29.9999C82.6667 31.3333 83.3 34.2 84.5 35C86 36 92.5 37 92.5 36C92.5 35.2 95.8333 30.9999 97.5 28.9999V20.4999C95.6667 18.1666 91.9 13.4999 91.5 13.4999C91.1 13.4999 86 11.1666 83.5 9.99995L74.5 7.99995L62.5 2.99995L50.5 0.999949C47.8333 0.666616 42.3 0.199949 41.5 0.999949C40.5 1.99995 32.5 3 33 4C33.4 4.8 33.5 8.3333 33.5 9.99995ZM413.5 195L412.5 197.5L411.5 201L412.5 205H417V199L413.5 195ZM431.5 217V227C431.833 228.833 432.8 232.6 434 233C435.2 233.4 438.5 230.167 440 228.5L438.5 220.5C439.667 219.833 441.9 218.5 441.5 218.5C441.1 218.5 436.333 215.5 434 214L431.5 217ZM484.5 99.5C483.667 104.667 482.5 115.3 484.5 116.5C486.5 117.7 495.667 120 500 121L504.5 114L500 112L497 107.5H502V103.5L495 98H488.5L484.5 99.5ZM403.5 429.5L405 436.5L410 434.5L408.5 428L403.5 426.5V429.5ZM323 453H326.5L329.5 449.5H325L321.5 453H323ZM326 456.5C326.333 457.333 327.1 459 327.5 459C328 459 331.5 459.5 331.5 459C331.5 458.6 332.833 456.833 333.5 456L331.5 453L329.5 452.5L327.5 453.5L326 455V456.5ZM334 460L335.5 463L341 462L342.5 458L339 457H334.5L334 460ZM296 581C294.4 582.6 292 597 291 604L285 608.5L288 615H296C298.333 611.333 302.8 604 302 604C301.2 604 301.667 596 302 592L306.5 584V578H299L296 581ZM280 620L278.5 625.5L283 627.5L287 623.5C288.667 623.333 291.8 622.7 291 621.5C290.2 620.3 286.667 618.333 285 617.5L280 620ZM259 606.5V617.5L262.5 618.5L264.5 611.5L262.5 606.5H259ZM275 634V642.5L278.5 646L281 643.5V634H275ZM247.5 618.5L250.5 623.5L252.5 629.5L250.5 633V639.5L252.5 643.5H257.5V646L262.5 648.5L264.5 645V636.5L263.5 629.5L261 630.5L259 623.5H256.5V620L252.5 617.5L250.5 615L247.5 614V618.5ZM452 595.5V606.5H470.5L467.5 600L461 592L452 595.5ZM452 587.5L455 592L457 587.5L454 585L452 587.5ZM427.5 608.5L431 615L435 608.5L432.5 605.5H428L427.5 608.5ZM414.5 633C415 634.167 416.3 636.4 417.5 636C418.7 635.6 420 633.5 420.5 632.5L416.5 629.5L415.5 632.5L414 633H414.5ZM455.5 613L458 617C458.333 617 459.1 617 459.5 617C459.9 617 460 618.667 460 619.5L461 623.136H465.5L471 625.5L473.5 623.136L472.5 616L467 614.5L464.5 611L457 610.5L455.5 613ZM473.5 631L472.5 634.5L476 635.5L479 631H473.5ZM453 611C452.2 611 449.667 610.667 448.5 610.5V614.5H442V619H435L436.5 626.5L432 629V632.5L444 632L443 634.5H436.5V638L432.5 640L432 644.5L431 652.5L432 657L435.5 657.5L440.5 655.5L443.5 656L445.5 651C446.5 651.5 448.5 652.2 448.5 651C448.5 649.8 449.833 647.167 450.5 646L457 647.5H461L461.5 639L464.5 640L465.5 645.5L470 647L473.5 646L472.5 643.5L476.5 643V639H470V631L465.5 630L463.5 625.5L461 626.5L458 622.5L455.5 619L453 618V613V611ZM471.5 672.5L470 678.5H472.5L475 675.5H478V679.5V684L475 686L471.5 690H470V693.5L468.5 697.5H462.5L457 696.5L456 692H453.5L451.5 687.5H448.5L446.5 684H444L443.5 679.5H434.5L432 675.5L428.5 672.5V662.5V660L432.5 659L434.5 662.5C434.5 661.333 434.7 659 435.5 659C436.3 659 438.167 659 439 659H443L444 657L448 657.5L448.5 653.5H451.5C451.5 652 451.7 649.2 452.5 650C453.3 650.8 456.5 652.667 458 653.5L457 657.5L461.5 654.5L460 650L464.5 651L465.5 654.5H468.5V662.5H476.5V670L477 673H473.5L471.5 672.5ZM408 660L410 670L417.5 669C418.894 668.667 421.645 667.9 421.5 667.5C421.355 667.1 421.319 662.333 421.319 660L416.5 657.5L410.5 658.5L408 660ZM417.5 674.5L418.5 678C419.167 678.667 420.7 680.2 421.5 681C422.5 682 424.5 684.5 425 684.5C425.4 684.5 428.167 685.833 429.5 686.5C431.167 688 434.5 690.7 434.5 689.5C434.5 688.3 434.833 685.667 435 684.5L430.5 679.5C430.167 680.667 429.5 682.9 429.5 682.5C429.5 682.1 428.5 679.333 428 678L425 675V671.5L422.5 674L422 670.5L418.5 671.5L417.5 674.5ZM437.5 693L438 698L443.5 698.5C443.333 699.5 443.2 701.6 444 702C445 702.5 448.5 704.5 448.5 704C448.5 703.6 448.5 700.167 448.5 698.5C449.833 697.833 452.4 696.5 452 696.5C451.6 696.5 449.5 692.833 448.5 691H444.5C444 689.833 442.8 687.6 442 688C441.2 688.4 438.667 689.5 437.5 690L437 693.5L437.5 693ZM451 700C451.5 700.5 453.5 704.5 453.5 705C453.5 705.5 459.5 707 459.5 706.5C459.5 706.1 459.833 702.333 460 700.5L455 697.5L451 700ZM468 707.5C468 710.167 468.2 715.5 469 715.5C469.8 715.5 475 715.5 477.5 715.5L476 709.5L471.5 708L468 707.5ZM483.5 697.5L484.5 707L488.5 705.5L489 699.5C490.5 699.833 493.5 700.3 493.5 699.5C493.5 698.7 493.5 693.167 493.5 690.5L491.5 687.5H488L487.5 690.5L486.5 693L483.5 695V697.5ZM469 723.5V731.5L468.5 734C467.167 734 464.6 734.1 465 734.5C465.4 734.9 464.167 737.333 463.5 738.5C463.833 739 464.6 740 465 740C465.4 740 468.5 740.333 470 740.5C470.833 740 472.6 739 473 739C473.4 739 473.167 736.667 473 735.5L474 733.5L475.5 730.5L476 729.5L478.5 724.5L477 722L473.5 720H470.5L469 723.5ZM481.5 711.5L480.5 714L482 716L485.5 715L486 712L483.5 710.5L481.5 711.5ZM406.5 679.5L410 685L413 690C412.833 690.667 412.4 692.3 412 693.5C411.5 695 408 696.5 407.5 697C407 697.5 407.5 701.5 408 702C408.5 702.5 409.5 704 410 704.5C410.4 704.9 413.833 704.667 415.5 704.5L417.5 700.5C418.333 701.5 420 703.6 420 704C420 704.5 421 707.5 421 708C421 708.5 420.5 710 421 711C421.5 712 421.5 714.5 422.5 715.5C423.5 716.5 425 719 425.5 720C426 721 424.5 722.5 425 723.5C425.5 724.5 426.5 727 428 727.5C429.2 727.9 432.167 728.667 433.5 729C434.667 729 437.2 729 438 729C438.8 729 441.333 728.667 442.5 728.5L448 729L449.5 725C448.333 723.333 446.1 720 446.5 720C446.9 720 445.667 718.667 445 718L448 713.5L444 707.5L440.5 706L437.5 702L433.5 700.5C432.333 699.833 429.9 698.5 429.5 698.5C429.1 698.5 426.667 697.833 425.5 697.5L424.5 694L424 690V687.5L421.5 685.5H419.5L418.5 683L415 681.5L411 679L409.5 676.5L406.5 679.5ZM437 738.5L433.5 742L432.5 746.5L430.5 748.5L427 751.5L424 753.5H421L419 756L415 755C415.333 754.167 416.1 752.3 416.5 751.5C416.9 750.7 415.667 747.167 415 745.5L412 746.5L410.5 749.5L404.5 747.5C404 746 403 743.1 403 743.5C403 743.9 401 743.667 400 743.5V740L404.5 738.5L405 734.5L408.5 733.5V713.5L411.5 711H415.5L416.5 714L418 717L417.5 720.5L422.5 724.5L421 726.5L425.5 730.5C425.833 730.667 426.6 730.9 427 730.5C427.5 730 426.5 728.5 428.5 729C430.1 729.4 434.167 730.833 436 731.5C436.833 731.5 438.7 731.6 439.5 732C440.3 732.4 441.5 733.5 442 734L441.5 736.5L439 737.5L437 738.5ZM122 739L124.5 745.5L127.5 744.5V737L135.5 736C135.833 733.833 136.3 729.6 135.5 730C134.5 730.5 129.5 730.5 128.5 731.5C127.7 732.3 125.5 734.833 124.5 736L122 739ZM148 784C148.8 784 158 784.667 162.5 785L165 788.5V793H170C171.667 792.5 174.8 791.4 174 791C173.2 790.6 172 786.167 171.5 784L167 779L161 774.5L147 777L148 784ZM137.5 793L143.5 789.5L140.5 784L137.5 785V788.5L135.5 787.5L134.5 782.5L131 779L127 781.5L125 786L120.5 785L123 788.5C123.833 789.333 125.6 791 126 791C126.4 791 124.167 791.667 123 792H116.5C117.167 792.833 118.5 794.6 118.5 795C118.5 795.4 115.167 798.5 113.5 800V804.5L108.5 805.5V810.5L103.5 812L105.5 814.5L103 815.5H95.5L93 819.5L90.5 824L87.5 828.5L85.5 834V840.5L90.5 841.5L93 844.5L93.5 848H85L82.5 850.5L79.5 853.5L81 857L76.5 860.5L75.5 865L79 866V868L76.5 870C76.5 871.167 76.5 873.6 76.5 874C76.5 874.5 79 878 81.5 877.5C84 877 91 877.5 91.5 877.5C91.9 877.5 95 875.833 96.5 875L94.5 870C95.8333 870 98.8 870 100 870C101.2 870 102.833 869.333 103.5 869L105.5 864L108 859.5L113.5 857C114.833 857.167 117.4 857.1 117 855.5C116.6 853.9 118.167 849.5 119 847.5C119.667 846.833 121.1 845.6 121.5 846C121.9 846.4 125 846.167 126.5 846L131 840.5L132.5 837.5L135 836.5L136 832.5V829.5H137.5L138.5 824.5L136 824L137 816V805.5C136.167 804.333 134.6 801.8 135 801C135.4 800.2 133.833 797 133 795.5H131L134.5 793H137.5ZM62 812V819.5L74 818V815.5L81.5 814.5L75.5 810.5L65 814.5L62 812ZM49.5 824C47.6667 825.167 45.1 827.7 49.5 828.5C53.9 829.3 59.6667 828.833 62 828.5L55 824H49.5ZM62 840.5C61 841.833 59.6 844.5 62 844.5C64.4 844.5 68 844.5 69.5 844.5L62 839V840.5ZM74 837.5C74 840.333 74.5 846 76.5 846C78.5 846 79.3333 847.333 79.5 848L79 844.5L76.5 837.5H74ZM79 887.5L78 896H82.5V890L79.5 887L79 887.5ZM98.5 873L97.5 877.5L101 878.5L103.5 874.5L101 872.5L98.5 873ZM65.5 885.5C65.5 886.833 65.5 889.7 65.5 890.5C65.5 891.3 59.5 891.5 56.5 891.5C56.5 893.667 56.5 898.1 56.5 898.5C56.5 898.9 60.5 901.667 62.5 903L68 902L69 898.5L73 897L73.5 890L70 884L65.5 883.5V885.5ZM46 903L43.5 908.5L40.5 910C40.8333 912 41.8 915.9 43 915.5C44.5 915 51.5 912.5 52.5 912.5C53.3 912.5 52.5 911.5 52 911L54.5 909L53.5 900L50 899V903H46Z" stroke="black"/>
</g>
<g id="t-papua">
<path d="M456 323L464 316.5V312L468 315L471.5 324.5H478.5C479.5 324.5 479.5 320.5 480.5 319.5C481.5 318.5 486 321 487 320.5C487.8 320.1 488 323 488 324.5C486.167 326.167 482.5 329.7 482.5 330.5V337.5C484.333 339.167 488.2 342.5 489 342.5H484.5L488 351.5L492.5 358.5H499L507 365.5L512 364L517 368H531.5H545.5L556.5 367L562.5 362L566.5 357C567.5 355.167 569.5 351.2 569.5 350C569.5 348.8 570.833 345.833 571.5 344.5L576.5 346L581 342.5L588 340L589.5 335.5C589.833 333.833 590.7 330.3 591.5 329.5C592.3 328.7 595.167 328.5 596.5 328.5L603.5 327L608.5 324L614.5 322L613.5 317.5V312.5L608.5 311.5V306.5V300H616.5H621.5L619 299L616.5 295.5C617.333 294.333 619.3 291.9 620.5 291.5C621.7 291.1 622.667 290.333 623 290L632 289L639 286.5L642.5 281.5L646 276.5L647 270L649 266.5L650.5 263L652 258V252C652.333 250.167 653.1 246.2 653.5 245C653.9 243.8 658.333 242.833 660.5 242.5L665.5 239L670 241L674 245H680H689.5H696.5L702 242.5H706.5L708.5 238L713 236.5L714 234L720.5 231H725L727 238H731.5L729.5 231L734.5 230L738 231L745.5 229L752 224.5L754.5 218L757.5 214L754.5 214.5C753.333 213 750.7 210 749.5 210H744.5L738 205.5L741.5 203V200.5H738L737 197C737.833 196.167 739.7 194.4 740.5 194C741.3 193.6 746.833 193.167 749.5 193L758 188L763 183L770 180.5L774.5 179L779 175.5L785.5 173.5L786.5 170.5L795 167.5L798 165H804L813 164L814 159.5H822V167.5L819 172V197V207L814 212L815 230.5L820.5 235L824.5 237.5L827.5 245L831.5 247.5L833 254.5H841.5L844.5 262L850.5 264V269.5L855.5 271L857 275L875.5 290.5L874.5 294.5L879 300.5V306H884V310.5L879 313V317.5H868L855.5 325H844.5V328.5H795V325H785.5L783 329.5H767.5L753 340L747 343L738.5 346V357C738.167 360.667 737.5 368.1 737.5 368.5C737.5 368.9 734.833 371.667 733.5 373V383.5L730 384.5V397.5L725 399.5L726 417.5L725 429H721.5L720.5 442.5H719C719.833 444.5 721.3 448.6 720.5 449C719.7 449.4 720.833 455.833 721.5 459H799.5H806.5V463.5L803 469L801.5 485L803 492L809.5 501V511L805.5 519L801.5 527.5L795 530.5L789 532V538C787.5 539.167 783.8 541.3 781 540.5C778.2 539.7 782.167 538.5 784.5 538L781 532H773H765H758.5C757.5 532 749 527.5 748.5 527.5C748.1 527.5 744.667 525.833 743 525H738.5C738.667 524.167 738.9 522 738.5 520C738 517.5 736.5 519 735 519C733.8 519 734.5 521.333 735 522.5L727 523.5H722.5L721.5 526L719 527.5V525L716.5 522.5L710 523.5C710.167 521.333 710.4 517 710 517C709.6 517 707.833 515.667 707 515L705 521H700.5H686L680 519C678.333 517.667 674.8 515 674 515C673.2 515 669 516.333 667 517C663.333 515.167 656 511.4 656 511V505.5L654 503L650 505.5H635L636.5 499L631.5 493L629 499H625.5V493L621.5 491.5L617.5 497L611.5 493L623.5 479L631.5 469L635 462.5L633 453.5H594L591.5 446L589.5 434L584 425.5L576 422L538 406C511.333 397.167 457.6 379.5 456 379.5C454.4 379.5 435.667 372.167 426.5 368.5V359.5L436.5 346L445.5 339.5V328.5L456 323Z" fill="#0066FF"/>
<path d="M695 530.5L693.5 526.5V526H695L699 527.5C698.667 528.5 697.8 530.5 697 530.5H695Z" fill="#0066FF"/>
<path d="M705.5 534L707 530.5L709 528.5L714.5 531.5C712.833 532.667 709.5 535.1 709.5 535.5C709.5 535.9 706.833 534.667 705.5 534Z" fill="#0066FF"/>
<path d="M720 539C719.5 539 719.5 534.5 720 534.5L719 532.5L722.5 530.5C723.333 530.833 725 531.3 725 530.5C725 529.7 725.333 527.833 725.5 527L729 526.5C729.167 528.333 729.4 532.2 729 533C728.5 534 720.5 539 720 539Z" fill="#0066FF"/>
<path d="M733.5 541.5C732 541 734 534.5 733.5 534L736 532.5L738.5 535.5L739 540C737.667 540.667 734.7 541.9 733.5 541.5Z" fill="#0066FF"/>
<path d="M741.5 542.5C741.1 542.1 742.333 539.667 743 538.5L744.5 538L747.5 539.5L746 543.5C744.667 543.333 741.9 542.9 741.5 542.5Z" fill="#0066FF"/>
<path d="M749 535.5L747.5 531.5L747 530.5H752C752.833 532 754.5 535.1 754.5 535.5C754.5 535.9 750.833 535.667 749 535.5Z" fill="#0066FF"/>
<path d="M753 541.5C752 540.5 757.5 538.5 758 537.5L761 535.5V541.5C758.667 541.833 753.8 542.3 753 541.5Z" fill="#0066FF"/>
<path d="M767 541.5C766.5 541.5 766.5 539.5 766.5 538.5L769 538C769.333 538.833 769.9 540.7 769.5 541.5C769 542.5 767.5 541.5 767 541.5Z" fill="#0066FF"/>
<path d="M766.5 550.5C766.5 549 766.6 545.8 767 545H770L771.5 547.5L772 555C771 555.833 768.9 557.6 768.5 558C768 558.5 767.5 556.5 767 556C766.6 555.6 764.5 555.5 763.5 555.5L761.5 551L766.5 550.5Z" fill="#0066FF"/>
<path d="M775 547.5V540L775.5 538.5L779 541.5L780.5 546.5C778.667 547 775 547.9 775 547.5Z" fill="#0066FF"/>
<path d="M773.5 555.5C772.5 554.5 778.5 552 779 551L783.5 546.5L784.5 549.5V552C784.5 553 782 556 781.5 556C781 556 777.5 559.5 775.5 558.5C773.5 557.5 774.5 556.5 773.5 555.5Z" fill="#0066FF"/>
<path d="M557.5 181.5V171.5H567.5V173.5H589.5L594 176.5L599 181.5L600.5 175H607.5L612.5 178.5H635.5L647 181.5L655.5 186L659 183.5H670L674 189L682 187.5H702C704.4 187.5 706 189.5 706.5 190.5C707.167 191.667 709.1 194.6 711.5 197C713.9 199.4 706.167 198 702 197H685.5C682.3 197 684.167 201 685.5 203H670H659H646C645 203 632.5 200.5 630 200.5C627.5 200.5 612.5 197 611 194C609.5 191 607.5 191 604 189C601.2 187.4 596.167 187.333 594 187.5C589.5 185.5 580.3 181.5 579.5 181.5H557.5Z" fill="#0066FF"/>
<path d="M595 115V109H596.5L593 102.5C592.333 101 590.7 97.7 589.5 96.5C588.3 95.3 589 92.3333 589.5 91L586.5 87C587 86.1667 587.7 84.5 586.5 84.5C585.3 84.5 584.667 83.5 584.5 83L580.5 84.5L579.5 88.5H578V92.5H573L571.5 90L569 88.5C566.333 86.3333 560.9 81.8 560.5 81C560.1 80.2 556.333 80.6667 554.5 81L549 77L547.5 70.5H567.5L569 74L571.5 75V70.5L575 68L579.5 73L584.5 78L588 77C588.5 75.8333 589.8 73.4 591 73C592.5 72.5 596.5 72 597.5 71.5C598.3 71.1 597.833 74.3333 597.5 76C598.5 77.3333 600.5 80.2 600.5 81C600.5 81.8 601.833 81.3333 602.5 81L606.5 87H609L612.5 91L618 92.5V98H623L626 104L628.5 106.5L631.5 112L634.5 113L636.5 111H645L647 115H653L651.5 120.5H646L643.5 123H633.5L634.5 128C633.333 128.333 630.5 129 628.5 129C626.5 129 624 127 623 126L616.5 119.5C614.9 117.9 614.167 118.833 614 119.5H606.5L604 123L599 124.5L596.5 121.5C596 120.667 594.6 118.9 593 118.5C591.4 118.1 593.667 116 595 115Z" fill="#0066FF"/>
<path d="M456 323L464 316.5V312L468 315L471.5 324.5H478.5C479.5 324.5 479.5 320.5 480.5 319.5C481.5 318.5 486 321 487 320.5C487.8 320.1 488 323 488 324.5C486.167 326.167 482.5 329.7 482.5 330.5V337.5C484.333 339.167 488.2 342.5 489 342.5H484.5L488 351.5L492.5 358.5H499L507 365.5L512 364L517 368H531.5H545.5L556.5 367L562.5 362L566.5 357C567.5 355.167 569.5 351.2 569.5 350C569.5 348.8 570.833 345.833 571.5 344.5L576.5 346L581 342.5L588 340L589.5 335.5C589.833 333.833 590.7 330.3 591.5 329.5C592.3 328.7 595.167 328.5 596.5 328.5L603.5 327L608.5 324L614.5 322L613.5 317.5V312.5L608.5 311.5V306.5V300H616.5H621.5L619 299L616.5 295.5C617.333 294.333 619.3 291.9 620.5 291.5C621.7 291.1 622.667 290.333 623 290L632 289L639 286.5L642.5 281.5L646 276.5L647 270L649 266.5L650.5 263L652 258V252C652.333 250.167 653.1 246.2 653.5 245C653.9 243.8 658.333 242.833 660.5 242.5L665.5 239L670 241L674 245H680H689.5H696.5L702 242.5H706.5L708.5 238L713 236.5L714 234L720.5 231H725L727 238H731.5L729.5 231L734.5 230L738 231L745.5 229L752 224.5L754.5 218L757.5 214L754.5 214.5C753.333 213 750.7 210 749.5 210H744.5L738 205.5L741.5 203V200.5H738L737 197C737.833 196.167 739.7 194.4 740.5 194C741.3 193.6 746.833 193.167 749.5 193L758 188L763 183L770 180.5L774.5 179L779 175.5L785.5 173.5L786.5 170.5L795 167.5L798 165H804L813 164L814 159.5H822V167.5L819 172V197V207L814 212L815 230.5L820.5 235L824.5 237.5L827.5 245L831.5 247.5L833 254.5H841.5L844.5 262L850.5 264V269.5L855.5 271L857 275L875.5 290.5L874.5 294.5L879 300.5V306H884V310.5L879 313V317.5H868L855.5 325H844.5V328.5H795V325H785.5L783 329.5H767.5L753 340L747 343L738.5 346V357C738.167 360.667 737.5 368.1 737.5 368.5C737.5 368.9 734.833 371.667 733.5 373V383.5L730 384.5V397.5L725 399.5L726 417.5L725 429H721.5L720.5 442.5H719C719.833 444.5 721.3 448.6 720.5 449C719.7 449.4 720.833 455.833 721.5 459H799.5H806.5V463.5L803 469L801.5 485L803 492L809.5 501V511L805.5 519L801.5 527.5L795 530.5L789 532V538C787.5 539.167 783.8 541.3 781 540.5C778.2 539.7 782.167 538.5 784.5 538L781 532H773H765H758.5C757.5 532 749 527.5 748.5 527.5C748.1 527.5 744.667 525.833 743 525H738.5C738.667 524.167 738.9 522 738.5 520C738 517.5 736.5 519 735 519C733.8 519 734.5 521.333 735 522.5L727 523.5H722.5L721.5 526L719 527.5V525L716.5 522.5L710 523.5C710.167 521.333 710.4 517 710 517C709.6 517 707.833 515.667 707 515L705 521H700.5H686L680 519C678.333 517.667 674.8 515 674 515C673.2 515 669 516.333 667 517C663.333 515.167 656 511.4 656 511V505.5L654 503L650 505.5H635L636.5 499L631.5 493L629 499H625.5V493L621.5 491.5L617.5 497L611.5 493L623.5 479L631.5 469L635 462.5L633 453.5H594L591.5 446L589.5 434L584 425.5L576 422L538 406C511.333 397.167 457.6 379.5 456 379.5C454.4 379.5 435.667 372.167 426.5 368.5V359.5L436.5 346L445.5 339.5V328.5L456 323Z" stroke="black"/>
<path d="M695 530.5L693.5 526.5V526H695L699 527.5C698.667 528.5 697.8 530.5 697 530.5H695Z" stroke="black"/>
<path d="M705.5 534L707 530.5L709 528.5L714.5 531.5C712.833 532.667 709.5 535.1 709.5 535.5C709.5 535.9 706.833 534.667 705.5 534Z" stroke="black"/>
<path d="M720 539C719.5 539 719.5 534.5 720 534.5L719 532.5L722.5 530.5C723.333 530.833 725 531.3 725 530.5C725 529.7 725.333 527.833 725.5 527L729 526.5C729.167 528.333 729.4 532.2 729 533C728.5 534 720.5 539 720 539Z" stroke="black"/>
<path d="M733.5 541.5C732 541 734 534.5 733.5 534L736 532.5L738.5 535.5L739 540C737.667 540.667 734.7 541.9 733.5 541.5Z" stroke="black"/>
<path d="M741.5 542.5C741.1 542.1 742.333 539.667 743 538.5L744.5 538L747.5 539.5L746 543.5C744.667 543.333 741.9 542.9 741.5 542.5Z" stroke="black"/>
<path d="M749 535.5L747.5 531.5L747 530.5H752C752.833 532 754.5 535.1 754.5 535.5C754.5 535.9 750.833 535.667 749 535.5Z" stroke="black"/>
<path d="M753 541.5C752 540.5 757.5 538.5 758 537.5L761 535.5V541.5C758.667 541.833 753.8 542.3 753 541.5Z" stroke="black"/>
<path d="M767 541.5C766.5 541.5 766.5 539.5 766.5 538.5L769 538C769.333 538.833 769.9 540.7 769.5 541.5C769 542.5 767.5 541.5 767 541.5Z" stroke="black"/>
<path d="M766.5 550.5C766.5 549 766.6 545.8 767 545H770L771.5 547.5L772 555C771 555.833 768.9 557.6 768.5 558C768 558.5 767.5 556.5 767 556C766.6 555.6 764.5 555.5 763.5 555.5L761.5 551L766.5 550.5Z" stroke="black"/>
<path d="M775 547.5V540L775.5 538.5L779 541.5L780.5 546.5C778.667 547 775 547.9 775 547.5Z" stroke="black"/>
<path d="M773.5 555.5C772.5 554.5 778.5 552 779 551L783.5 546.5L784.5 549.5V552C784.5 553 782 556 781.5 556C781 556 777.5 559.5 775.5 558.5C773.5 557.5 774.5 556.5 773.5 555.5Z" stroke="black"/>
<path d="M557.5 181.5V171.5H567.5V173.5H589.5L594 176.5L599 181.5L600.5 175H607.5L612.5 178.5H635.5L647 181.5L655.5 186L659 183.5H670L674 189L682 187.5H702C704.4 187.5 706 189.5 706.5 190.5C707.167 191.667 709.1 194.6 711.5 197C713.9 199.4 706.167 198 702 197H685.5C682.3 197 684.167 201 685.5 203H670H659H646C645 203 632.5 200.5 630 200.5C627.5 200.5 612.5 197 611 194C609.5 191 607.5 191 604 189C601.2 187.4 596.167 187.333 594 187.5C589.5 185.5 580.3 181.5 579.5 181.5H557.5Z" stroke="black"/>
<path d="M595 115V109H596.5L593 102.5C592.333 101 590.7 97.7 589.5 96.5C588.3 95.3 589 92.3333 589.5 91L586.5 87C587 86.1667 587.7 84.5 586.5 84.5C585.3 84.5 584.667 83.5 584.5 83L580.5 84.5L579.5 88.5H578V92.5H573L571.5 90L569 88.5C566.333 86.3333 560.9 81.8 560.5 81C560.1 80.2 556.333 80.6667 554.5 81L549 77L547.5 70.5H567.5L569 74L571.5 75V70.5L575 68L579.5 73L584.5 78L588 77C588.5 75.8333 589.8 73.4 591 73C592.5 72.5 596.5 72 597.5 71.5C598.3 71.1 597.833 74.3333 597.5 76C598.5 77.3333 600.5 80.2 600.5 81C600.5 81.8 601.833 81.3333 602.5 81L606.5 87H609L612.5 91L618 92.5V98H623L626 104L628.5 106.5L631.5 112L634.5 113L636.5 111H645L647 115H653L651.5 120.5H646L643.5 123H633.5L634.5 128C633.333 128.333 630.5 129 628.5 129C626.5 129 624 127 623 126L616.5 119.5C614.9 117.9 614.167 118.833 614 119.5H606.5L604 123L599 124.5L596.5 121.5C596 120.667 594.6 118.9 593 118.5C591.4 118.1 593.667 116 595 115Z" stroke="black"/>
</g>
<g id="papua">
<path d="M823.5 181.5L825 172L826.5 168.5L831.5 167.5L836.5 170L839.5 175.5L850.5 176.5L859.5 181.5L873 187.5L884.5 191L900 193.5L912 201.5L922 212.5C923.167 213.833 925.9 216.7 927.5 217.5C929.1 218.3 928.833 215.5 928.5 214L932 211L940.5 216.5L1004 245.5L1010 253C1015 254.333 1025.6 257 1028 257C1030.4 257 1031.33 260 1031.5 261.5H1053L1056 259L1060 255L1067.5 253L1068.5 258.5C1069.83 260 1072.8 263.1 1074 263.5C1075.2 263.9 1079.5 263.667 1081.5 263.5L1086 268C1086.4 268.4 1088.5 269.833 1089.5 270.5L1094.5 268.5L1096.5 265H1099.5L1107 264.5L1108.5 268.5L1113 269L1119.5 269.5C1120.33 270.167 1122.1 271.6 1122.5 272C1123 272.5 1125 269.5 1125.5 269C1125.9 268.6 1128 269.5 1129 270L1131 273.5L1130 280L1127.5 283.5L1129 287L1132 288.5C1133.33 288.833 1136.1 289.5 1136.5 289.5C1136.9 289.5 1137.67 287.167 1138 286H1141C1142.33 285.667 1145.5 285 1147.5 285C1150 285 1147.5 287.5 1148 288.5C1148.4 289.3 1151.83 288.833 1153.5 288.5C1154.17 287.667 1155.5 285.9 1155.5 285.5C1155.5 285 1159.5 283.5 1160.5 283.5C1161.3 283.5 1161.5 284.5 1161.5 285L1162 553.5V601V640.5V666.5L1161.5 690L1158 694L1155 698L1153.5 702.5L1154.5 707.5L1156 712L1153.5 715.5L1150.5 716.5L1149 719L1146.5 729.5L1149 742.5L1153 752L1162 754.5V759.5V769L1157.5 768.5L1155.5 765L1153 759.5L1146.5 757.5H1138L1135 761L1133.5 767C1133.67 768.833 1134.2 772.5 1135 772.5H1138L1144 771L1145 774.5L1140.5 777V786H1145H1151L1153 780C1154.17 778.167 1156.7 774.1 1157.5 772.5C1158.3 770.9 1160.17 773.167 1161 774.5L1159 991L1159.5 998C1157.17 998.333 1152.3 999 1151.5 999C1150.5 999 1150.5 998 1147.5 994.5C1144.5 991 1145.5 992 1142.5 987.5C1139.5 983 1136 983 1135.5 982.5C1135.1 982.1 1132 977.667 1130.5 975.5C1128.5 974.667 1124.3 972.8 1123.5 972C1122.7 971.2 1121.83 969.333 1121.5 968.5C1120.83 967 1119.4 963.9 1119 963.5C1118.5 963 1115 958 1115 957.5C1115 957 1113 953.5 1112 952C1111 950.5 1109.5 946.5 1108 945C1106.8 943.8 1104.17 943.167 1103 943L1097.5 938.5C1095.83 938 1092.4 936.8 1092 936C1091.6 935.2 1092.5 933.667 1093 933L1097.5 934L1101 932.5L1104.5 929L1110.5 928C1111 926.667 1112 923.9 1112 923.5C1112 923 1114.5 920.5 1115 919.5C1115.4 918.7 1119.5 918.833 1121.5 919L1127 916.5L1132 915C1131 914.5 1128.9 913.5 1128.5 913.5C1128.1 913.5 1125 914.167 1123.5 914.5L1118 914L1113.5 917.5H1110.5L1108 921L1103 923L1101 928C1099.83 928.333 1097.3 929 1096.5 929C1095.7 929 1096.17 927 1096.5 926H1092.5L1091.5 929C1090.17 929.333 1087.1 929.8 1085.5 929C1083.9 928.2 1084.17 927.333 1084.5 927V923L1084 918.5L1087.5 915L1091.5 916.5C1092 915.5 1092.9 913.3 1092.5 912.5C1092.1 911.7 1095 908.833 1096.5 907.5L1092 906.5C1091.33 908.167 1089.9 911.7 1089.5 912.5C1089.1 913.3 1087 910.5 1086 909L1084 913.5L1081 912.5L1080 916C1078.17 916.5 1074.4 917.5 1074 917.5C1073.6 917.5 1062.5 907.833 1057 903L1051 898.5C1050.83 897.167 1050.4 894.4 1050 894C1049.6 893.6 1051.17 890.5 1052 889H1058L1061 885C1061 881.833 1060.8 875.2 1060 874C1059.2 872.8 1060.33 869.833 1061 868.5H1067C1067.83 867.667 1069.7 865.9 1070.5 865.5C1071.3 865.1 1074.5 864.667 1076 864.5L1077 857.5C1077.17 855.5 1077.4 851.1 1077 849.5C1076.6 847.9 1079.17 848.167 1080.5 848.5C1081.5 848 1083.6 846.9 1084 846.5C1084.4 846.1 1084.5 843.333 1084.5 842C1086.67 841.5 1091.2 840.4 1092 840C1092.8 839.6 1092.33 837.167 1092 836L1090.5 832L1089.5 828.5H1080.5V832L1083.5 832.5L1084.5 836L1080.5 836.5V842H1072C1072.33 845.833 1073.1 853.7 1073.5 854.5C1073.9 855.3 1070.33 856.833 1068.5 857.5C1068.17 858.833 1067.5 861.9 1067.5 863.5C1067.5 865.1 1064.83 864.167 1063.5 863.5L1055.5 866V876.5L1054.5 885H1048.5L1047.5 887.5H1042L1036.5 889.5L1033.5 886.5H1025.5C1024.7 886.5 1020.5 887.167 1018.5 887.5L993.5 894C991.833 895 988.3 897 987.5 897C986.5 897 980 897.5 980 897C980 896.5 980.5 895 980 894C979.6 893.2 977.167 894.333 976 895C974.667 894.333 971.9 892.9 971.5 892.5C971.1 892.1 971.333 888.333 971.5 886.5V877.5C973.333 877.333 977 876.9 977 876.5C977 876 984 875.5 987 876.5C990 877.5 990.5 874.5 990.5 874C990.5 873.6 991.167 871.5 991.5 870.5C993.167 869.833 996.6 868.6 997 869C997.4 869.4 1003.83 869.167 1007 869L1007.5 866L999 865L998.5 861.5L996.5 860.5V865.5L992 865L988.5 866L986.5 869H983L982 872.5C979.167 873.167 973 874.5 971 874.5C969 874.5 969.167 871.167 969.5 869.5H964L965 879.5L969.5 882.5L964 886.5L958 885L956.5 889.5L951.5 887.5L948.5 886.5L947.5 893H943.5L942.5 897L939 898V893L935.5 896L934.5 901.5L931 898V893L928 892V889.5L934.5 887.5H940C939.167 885.833 937.1 882.1 935.5 880.5C933.5 878.5 935.5 876.5 935.5 874.5C935.5 872.5 937.5 870.5 937.5 869.5C937.5 868.7 941.5 866.5 943.5 865.5H947.5L946 861.5C946.5 858.833 947.5 853.3 947.5 852.5C947.5 851.7 948.833 849.833 949.5 849V843L951.5 837.5C953 837.167 956.1 836.4 956.5 836C956.9 835.6 958.333 831.833 959 830L960.5 825.5L963 822.5C962.667 822 962 820.7 962 819.5C962 818.3 960 821 959 822.5C958.667 823.167 957.9 824.3 957.5 823.5C957 822.5 941.5 825 939 823.5C936.5 822 940 821 940 819.5C940 818 937.5 814 935.5 811.5C933.5 809 934.5 807 933 803.5C931.5 800 930 801 927 798.5C924 796 924 798.5 922 797.5C920 796.5 917 796.5 915.5 795.5C914.3 794.7 916 792.833 917 792L915.5 788H923.5H932L937.5 790L945 793.5L953.5 795L957.5 794C959 793.833 962 793.4 962 793C962 792.6 964.667 791.5 966 791L970 789C970.333 789.333 971 790.2 971 791C971 791.8 974.333 792 976 792L983.5 795C983.167 794.5 982.4 793.4 982 793C981.6 792.6 984.833 792.167 986.5 792L991.5 793.5L993 796.5C994.833 797.667 998.7 800 999.5 800H1006L1007.5 795.5L1006.5 788.5H1012.5V795C1013.17 796.833 1014.6 800.6 1015 801C1015.5 801.5 1016 798.5 1019.5 799C1022.3 799.4 1021.33 798.167 1020.5 797.5L1024 793.5L1027 792L1028 788.5V784.5V781H1031.5L1039 780L1040.5 783.5V788L1042.5 789.5L1046.5 790H1052.5L1055 788L1056 784.5H1060.5C1061 784.5 1063.5 783.5 1064.5 783C1065.3 782.6 1064.83 781.5 1064.5 781L1069 779L1067.5 770L1066 765L1061.5 765.5L1058.5 770V780H1052.5V784.5H1044V782L1043.5 779L1039 777L1032 773.5L1026 775V778C1025.5 779.833 1024.4 783.9 1024 785.5C1023.5 787.5 1022 788 1021.5 788.5C1021 789 1017.5 793.5 1016 793.5C1014.5 793.5 1017 789.5 1016 788C1015 786.5 1015 783.5 1013.5 782.5C1012 781.5 1008 783 1006 782.5C1004.4 782.1 1003 786 1002.5 788C1002.83 790.5 1003.3 795.5 1002.5 795.5C1001.5 795.5 997.5 793 996.5 792C995.7 791.2 996.833 787.333 997.5 785.5C998 784.167 998.9 781.4 998.5 781C998 780.5 995.5 781 993 780C991 779.2 988.5 779 987.5 779L988.5 775C986.833 773.667 983.1 770.9 981.5 770.5C979.5 770 978.5 769.5 977.5 769.5C976.5 769.5 971.5 765.5 971 765C970.6 764.6 969.833 761.833 969.5 760.5L971 756.5C973.167 756.167 977.7 755.3 978.5 754.5C979.3 753.7 980.167 756.167 980.5 757.5L981.5 759.5L986.5 758.5L991.5 754.5L994 750.5C994.833 749.167 996.7 746.2 997.5 745C998.3 743.8 997.833 741.833 997.5 741L993 742.5C991.333 743.333 987.7 745 986.5 745H983.5C984 746.5 984.9 749.5 984.5 749.5C984.1 749.5 982.333 752.167 981.5 753.5L979.5 750.5L977.5 747.5C975.667 749.5 971.8 753.5 971 753.5C970.2 753.5 966 754.833 964 755.5L962 759.5C961 759.667 958.8 759.9 958 759.5C957 759 955 757.5 953.5 756.5C952 755.5 947 750 945 749.5C943 749 941.5 747.5 939 746.5C936.5 745.5 939 742.5 938 741.5C937 740.5 941 739.5 941.5 739C942 738.5 946 737.5 947 734.5C948 731.5 947 730.5 947 729.5C947 728.7 945.667 730.833 945 732L941.5 731L939 734.5L936.5 736L933 737.5V742.5C933 743.5 930.5 743 930 743C929.6 743 928.5 740.333 928 739L929 734.5V732L922.5 729.5C920.833 728 917.3 724.9 916.5 724.5C915.5 724 911.5 723.5 910.5 722C909.7 720.8 910.833 718.167 911.5 717L917.5 712.5C916.833 712.667 915.2 712.9 914 712.5C912.5 712 909 711.5 906.5 710C904.5 708.8 906 711.5 907 713C907.667 715 908.6 719 907 719C905 719 904 721 902.5 719C901 717 904 716 902.5 714.5C901.3 713.3 901.333 711 901.5 710C900.167 710.5 897.3 711.2 896.5 710C895.5 708.5 890 702.5 890 701.5C890 700.7 885 699.167 882.5 698.5L884.5 693L890 692L891.5 696H901.5H910.5V692C908.333 691.5 903.7 690.5 902.5 690.5H895.5L894 687.5H886H879.5V684L877 682.5L879.5 679.5H884.5C886.333 679.667 890.3 679.9 891.5 679.5C893 679 894 676.5 892.5 675C891.3 673.8 887.667 674.5 886 675H879.5C878.333 674.333 875.7 672.9 874.5 672.5C873.3 672.1 875 670 876 669C876.667 668.833 878.3 668.6 879.5 669C880.7 669.4 884.333 668.167 886 667.5L887.5 665H881.5V661.5L874.5 660.5L869 657.5L870.5 652.5L867 650.5V647H863L861 644.5L864 643.5L867 642.5L868 641H875.5H879.5L882.5 644.5H888C888.667 645.333 890.3 647.3 891.5 648.5C893 650 895.5 647 896.5 647C897.3 647 898.833 650.667 899.5 652.5L906 654.5L909 650.5V642.5L904 644.5L902.5 641H896.5C893 640.5 885.3 639.5 882.5 639.5C879.7 639.5 881.333 637.5 882.5 636.5L879.5 635L878 632H881.5L886 630.5L888 628H890L892.5 632H895.5L894.5 635H897.5L899.5 633L904 630.5L907 624L906.5 621.5L911.5 619.5L915.5 621.5L916.5 627L921 628H926V626L932 625L935.5 621.5L939.5 626L943 630.5L941 635H936.5L935.5 638L941 642.5H946.5L950 648.5H955.5L954.5 644.5L953 641L948 638V632L945.5 626V624L941 619.5L937.5 616H933.5C931.833 616.667 928.2 618.1 927 618.5C925.8 618.9 926.5 622.333 927 624H921L920 621.5V615L927 613L932 610.5V607L933.5 603H937.5H946.5L954.5 605.5L960 609.5L966.5 614L968.5 621.5L975.5 624C975.5 626.167 975.2 630.5 974 630.5C972.8 630.5 977.833 631.5 980.5 632V636.5H987.5V642.5V650.5L990.5 652.5V659L994 660.5L996.5 659V652.5L994 650.5L992.5 646L994 644.5L996.5 641L992.5 638C992.5 635.667 992.1 630.9 990.5 630.5C988.5 630 984 626.5 982.5 626C981.3 625.6 978.333 619.167 977 616C975.5 615.333 972.3 614 971.5 614C970.7 614 971.833 609.333 972.5 607L971.5 603L975.5 602L974 599L972.5 596L975.5 592.5L981.5 591.5H992.5H998L999.5 588L1000.5 582.5H977C976.167 583.5 974.4 585.7 974 586.5C973.6 587.3 969.5 591.833 967.5 594V603H960C958.4 603 959.333 601 960 600L950 599H941L937.5 597L928.5 596L927 607H920V610.5H916.5L917.5 614L913.5 616L911.5 610.5H895.5C895.333 608.333 894.8 603.6 894 602C893 600 896.5 596 896.5 594V590C898 590 901.5 589.6 903.5 588C906 586 906 586.5 907 585.5C907.8 584.7 908.667 583.167 909 582.5L906 580.5L899.5 582.5L894 586.5L890 591.5L886 590L887.5 585.5L891 579.5L894 575.5L890 574.5L883.5 574V571C882.5 571.333 879.8 572 877 572C873.5 572 876 569.5 875.5 569.5C875 569.5 874.5 567.5 876 566.5C877.2 565.7 877.833 566.833 878 567.5H881.5C882.3 567.5 883.833 566.833 884.5 566.5L887.5 563.5C888 563 890 563 890 562C890 561 891.5 560 892.5 559C893.5 558 893.5 556.5 894.5 555.5C895.5 554.5 896 555.5 897.5 556.5C899 557.5 901 558 904 555.5C907 553 905.5 553.5 906.5 553.5C907.5 553.5 909 553.5 910 552C911 550.5 909 548.5 909 546.5C909 544.9 907.333 545.833 906.5 546.5C906 546.833 904.8 547.5 904 547.5C903.2 547.5 903.667 549.833 904 551H901C899.5 551 897.5 552 896 552C894.5 552 896 550 896 548.5C896 547.3 893.667 546.667 892.5 546.5C892.167 546.833 891.4 547.7 891 548.5C890.6 549.3 891.167 552.167 891.5 553.5C891 554 889.6 555.1 888 555.5C886.4 555.9 886 557.333 886 558V562C883.667 562.333 878.8 563 878 563H864L860 562L863 556.5L867 555.5L869.5 558.5L878 558C878.333 556.167 878.8 552.4 878 552C877.2 551.6 879.333 551.167 880.5 551L881.5 549L878 545L874.5 547.5V555C873 554.5 869.8 553.5 869 553.5C868 553.5 867.5 549 867 549C866.6 549 864.167 547.333 863 546.5L860 551C859.333 553 858 557.2 858 558C858 558.8 852 559.667 849 560L845.5 555.5L841.5 559L836 569.5C835.5 571 834.3 574.1 833.5 574.5C832.7 574.9 830.167 574.667 829 574.5L822.5 578L817.5 576.5C818.333 576.5 819 576 815 574C810 571.5 815.5 578 815 578.5C814.5 579 810.5 579 810 579.5C809.5 580 810 575 810 574C810 573.2 811.333 570.667 812 569.5C810.667 568.833 807.7 567.1 806.5 565.5C805.3 563.9 806 570.5 806.5 574C804.667 574 800.7 573.8 799.5 573C798 572 801 566.5 801 565.5V563L799.5 566.5L788.5 567.5L787 562L795.5 563C795.5 562 795.7 559.8 796.5 559C797.3 558.2 797.833 556 798 555L802 553.5C801.833 552.333 801.4 549.8 801 549C800.5 548 798.5 543.5 798 543C797.6 542.6 795.167 539.833 794 538.5L796.5 535L802 539.5V535C802 533.8 804 531.5 805 530.5L809 525.5L812 516.5L814.5 512C815.167 508.833 816.4 502.1 816 500.5C815.5 498.5 814.5 496.5 814.5 496C814.5 495.5 811 491.5 810 490.5C809.2 489.7 806.667 488.167 805.5 487.5V481V474.5C805.5 474.1 807.167 471.667 808 470.5L809.5 468.5L810 464C810.167 462.5 810.4 459.3 810 458.5C809.6 457.7 812.833 458.167 814.5 458.5V454.5L726.499 453L727 442.5C727 441.333 726.899 438.6 726.499 437C726.099 435.4 728.333 434.333 729.499 434L730.499 423.5V417C730.499 416.2 732.5 417.333 733.5 418L734.999 407.5C735.166 404.667 735.399 398.7 734.999 397.5C734.499 396 734.5 393.5 733.5 392C732.7 390.8 735.5 390.833 737 391C737.833 387.833 739.4 381.2 739 380C738.6 378.8 740.5 372.167 741.5 369L743.5 361C744.333 358.667 745.9 353.8 745.5 353C745.1 352.2 750 350.667 752.5 350L762 339.5L765.5 336.5L769 334.5L773.5 333.5L780 335.5H785L787 331.5L793.5 330.5L795.5 333.5H807.5L810.5 337L812.5 338L815.5 333.5H853.5C856.666 333.5 862.9 333.3 862.5 332.5C862.1 331.7 863.333 329.5 864 328.5C865.5 328 868.6 327 869 327C869.4 327 872.833 323.667 874.5 322L882.5 320L886 315C886.666 313.5 888 310.1 888 308.5V304C886.833 302.167 884.5 298.3 884.5 297.5C884.5 296.7 879.166 288.833 876.5 285C866.166 273.833 845.3 251.3 844.5 250.5C843.7 249.7 841.833 248.167 841 247.5L836.5 248.5V245.5L831 242V236.5L819 226V214H821.5C822.166 213.333 823.5 211.8 823.5 211V206.5L825 205.5C826 204.667 828 202.7 828 201.5V198.5L823.5 195.5V191L826.5 190V186C826.5 185.2 824.5 185.667 823.5 186V181.5Z" fill="#D5FF00"/>
<path d="M819 585.5L810.5 586.5L810.062 583H814.5L815 581.5L818.5 580L819 585.5Z" fill="#D5FF00"/>
<path d="M824.5 590L822.5 584.5V583L826 582.5L827.5 578L835 578.5V575.5L841.5 574.5L842.5 578L838.5 579.5V584.5L834 583.5L830 586.5L833 592L835 596L829 594L824.5 590Z" fill="#D5FF00"/>
<path d="M846.5 583C845.167 582.5 842.3 581.2 841.5 580L848 578.5L846.5 583Z" fill="#D5FF00"/>
<path d="M844 574L842.5 567.5V566.5L845.5 563L849.5 562.5L851 564.5L848 567.5V574C848 574.8 845.333 574.333 844 574Z" fill="#D5FF00"/>
<path d="M850.5 567.5H853.5V566.5L855 563.5L859 564.5L861 567.5L863 573L861 576.5L860 579.5L856 580V582.5H850.5C850.167 581.5 849.5 579.3 849.5 578.5C849.5 577.7 852.167 578.167 853.5 578.5V576.5L854 570L849.5 571L850.5 567.5Z" fill="#D5FF00"/>
<path d="M862 581.5L867 576.5V574V567.5L869.5 565.5L872 569.5V575.5H876H882.5L887.5 578L884.5 578.5L883.5 585.5L879.5 587.5L878 591H871L869.5 587.5H863V590.5L860 592L861 593.5L855 595L853.5 590.5L854 585.5L856 584.5L862 581.5Z" fill="#D5FF00"/>
<path d="M843 596V592.5C843.667 592 845.1 591 845.5 591C845.9 591 848.333 591.333 849.5 591.5L850.5 596.5L847.5 597.5V601.5H843.5L843 596Z" fill="#D5FF00"/>
<path d="M849.5 606L851.5 600V598.5H855L860 600V618.5L854 619.5L855 623L849 624L842 623L841.5 618.5L840 611.5L842 608.5L846.5 608L849.5 606Z" fill="#D5FF00"/>
<path d="M862.5 627C862.5 625.833 862.6 623.4 863 623H875.5V629.5L873.5 635H867C864.667 635.5 859.7 636.5 858.5 636.5C857 636.5 855.5 635 855.5 633.5C855.5 632.3 854.167 631.667 853.5 631.5L855.5 627H862.5Z" fill="#D5FF00"/>
<path d="M868 600.5C868.4 600.5 863.833 598.5 861.5 597.5L860.5 596L863 594L867 591.5L869.5 595C870.833 596 873.5 597.9 873.5 597.5C873.5 597.1 874.5 596 875 595.5L877 595L884.5 594H891.5L893.5 597.5L891.5 598.5L886.5 599.5L886 602.5L883 604.5L884 615C883.5 615.667 882.3 617 881.5 617C880.5 617 878.5 617.5 877.5 617C876.7 616.6 874.833 618.167 874 619L873 616C872.5 616.333 871.4 617 871 617C870.5 617 868.5 619 867 619.5C865.8 619.9 864.167 619.333 863.5 619L864 617L866 616L870.5 615L869 612.5L864 610.5L862.5 607H864.5L869.5 607.5C870.167 606.667 871.4 604.9 871 604.5C870.5 604 871 602.5 870.5 602C870 601.5 867.5 600.5 868 600.5Z" fill="#D5FF00"/>
<path d="M892.5 626L890.5 622L892.5 619L901.5 617.5C902.167 619 903.6 622.2 904 623C904.4 623.8 901.167 623.333 899.5 623L900.5 628L892.5 626Z" fill="#D5FF00"/>
<path d="M907.5 906L913.5 898L922 897L924 906L931 907.5L935.5 917H915.5C911.5 917 900 916.5 897 915C894.6 913.8 903 908.5 907.5 906Z" fill="#D5FF00"/>
<path d="M867 918.5L801.5 921L796.5 923.5V919.5V916L798 911.5L801 907L802.5 899.5L805.5 895.5L806.5 890L812.5 883.5H815L819.5 884L818 886.5L820.5 889L823.5 889.5H826L827.5 892H831V894.5L830 898L831.5 900.5H834.5L835 899.5L834.5 897.5L835.5 896.5L838.5 897V894.5L837.5 894L835 891C834.5 890.5 833.1 889.5 831.5 889.5C829.9 889.5 828.167 888.167 827.5 887.5L826 884L829 883L832.5 884H836H840L843 885.5L844 888.5L846.5 889.5H852.5L854 887.5L852.5 884L850 881.5L843 880.5H835L833.5 877L827.5 876.5L821 880.5L814.5 881.5C814.167 880.333 813.7 877.8 814.5 877C815.5 876 813 872 813.5 870.5C814 869 819.5 861.5 819.5 860C819.5 858.8 822.833 855.5 824.5 854L827.5 850C828.667 850.833 831.1 852.6 831.5 853C831.9 853.4 834 851.167 835 850L832.5 844.5L836 840.5V836L840 832.5H843V836L846.5 840.5L852.5 837.5L851 832.5H846.5V828L852.5 823.5L867 815L882.5 811.5H892L897 809.5L903.5 807.5H917.5L925.5 815L933 828H940H948.5L946 832.5V843L940 851L942.5 860.5H935.5L931 865C930.5 865.333 929.2 866 928 866C926.8 866 929.5 869 931 870.5L928 876.5L919.5 886.5L911 892H903.5V898L887.5 907.5L879.5 912L877.5 918.5L871 917V912L868.5 910.5L867 918.5Z" fill="#D5FF00"/>
<path d="M911.5 775L898.5 759.5L897 754.5L905.5 757.5L911.5 759.5L916.5 758.5L917.5 755.5C918 754.5 919.4 752.4 921 752C922.6 751.6 924.667 750.167 925.5 749.5L932 745C932.333 745.5 933.5 747.1 935.5 749.5C937.5 751.9 939.333 751.167 940 750.5L949.5 757.5L951.5 763L962 765L964 772.5L970 770.5C972.833 771.333 978.7 772.9 979.5 772.5C980.3 772.1 981.5 775 982 776.5C982.5 777.667 983.2 780 982 780C980.8 780 979.833 783 979.5 784.5L976 788L972.5 785.5L971 781H963C960.6 781 962 785.667 963 788H956.5L948.5 789L946 784.5H941.5L939 781C937.833 781 935.2 781.3 934 782.5C932.8 783.7 927.833 782 925.5 781L911.5 775Z" fill="#D5FF00"/>
<path d="M909 744H903.5L900 739H905.5L911.5 741.5L909 744Z" fill="#D5FF00"/>
<path d="M915.5 752L909 748.5L914 745L919 743L922.5 747.5L917 749.5L915.5 752Z" fill="#D5FF00"/>
<path d="M915.5 737.5L909 734.5L905.5 732V727.5H909L914 729.5L917 731L923.5 734.5V739H919L915.5 737.5Z" fill="#D5FF00"/>
<path d="M810 582.5L810.062 583M810.062 583L810.5 586.5L819 585.5L818.5 580L815 581.5L814.5 583H810.062ZM825 172L823.5 181.5V186C824.5 185.667 826.5 185.2 826.5 186C826.5 186.8 826.5 189 826.5 190L823.5 191V195.5L828 198.5C828 199 828 200.3 828 201.5C828 202.7 826 204.667 825 205.5L823.5 206.5C823.5 207.667 823.5 210.2 823.5 211C823.5 211.8 822.166 213.333 821.5 214H819V226L831 236.5V242L836.5 245.5V248.5L841 247.5C841.833 248.167 843.7 249.7 844.5 250.5C845.3 251.3 866.166 273.833 876.5 285C879.166 288.833 884.5 296.7 884.5 297.5C884.5 298.3 886.833 302.167 888 304C888 304.833 888 306.9 888 308.5C888 310.1 886.666 313.5 886 315L882.5 320L874.5 322C872.833 323.667 869.4 327 869 327C868.6 327 865.5 328 864 328.5C863.333 329.5 862.1 331.7 862.5 332.5C862.9 333.3 856.666 333.5 853.5 333.5H815.5L812.5 338L810.5 337L807.5 333.5H795.5L793.5 330.5L787 331.5L785 335.5H780L773.5 333.5L769 334.5L765.5 336.5L762 339.5L752.5 350C750 350.667 745.1 352.2 745.5 353C745.9 353.8 744.333 358.667 743.5 361L741.5 369C740.5 372.167 738.6 378.8 739 380C739.4 381.2 737.833 387.833 737 391C735.5 390.833 732.7 390.8 733.5 392C734.5 393.5 734.499 396 734.999 397.5C735.399 398.7 735.166 404.667 734.999 407.5L733.5 418C732.5 417.333 730.499 416.2 730.499 417C730.499 417.8 730.499 421.667 730.499 423.5L729.499 434C728.333 434.333 726.099 435.4 726.499 437C726.899 438.6 727 441.333 727 442.5L726.499 453L814.5 454.5V458.5C812.833 458.167 809.6 457.7 810 458.5C810.4 459.3 810.167 462.5 810 464L809.5 468.5L808 470.5C807.167 471.667 805.5 474.1 805.5 474.5C805.5 475 805.5 479.5 805.5 481C805.5 482.2 805.5 485.833 805.5 487.5C806.667 488.167 809.2 489.7 810 490.5C811 491.5 814.5 495.5 814.5 496C814.5 496.5 815.5 498.5 816 500.5C816.4 502.1 815.167 508.833 814.5 512L812 516.5L809 525.5L805 530.5C804 531.5 802 533.8 802 535C802 536.2 802 538.5 802 539.5L796.5 535L794 538.5C795.167 539.833 797.6 542.6 798 543C798.5 543.5 800.5 548 801 549C801.4 549.8 801.833 552.333 802 553.5L798 555C797.833 556 797.3 558.2 796.5 559C795.7 559.8 795.5 562 795.5 563L787 562L788.5 567.5L799.5 566.5L801 563C801 563.5 801 564.7 801 565.5C801 566.5 798 572 799.5 573C800.7 573.8 804.667 574 806.5 574C806 570.5 805.3 563.9 806.5 565.5C807.7 567.1 810.667 568.833 812 569.5C811.333 570.667 810 573.2 810 574C810 575 809.5 580 810 579.5C810.5 579 814.5 579 815 578.5C815.5 578 810 571.5 815 574C819 576 818.333 576.5 817.5 576.5L822.5 578L829 574.5C830.167 574.667 832.7 574.9 833.5 574.5C834.3 574.1 835.5 571 836 569.5L841.5 559L845.5 555.5L849 560C852 559.667 858 558.8 858 558C858 557.2 859.333 553 860 551L863 546.5C864.167 547.333 866.6 549 867 549C867.5 549 868 553.5 869 553.5C869.8 553.5 873 554.5 874.5 555V547.5L878 545L881.5 549L880.5 551C879.333 551.167 877.2 551.6 878 552C878.8 552.4 878.333 556.167 878 558L869.5 558.5L867 555.5L863 556.5L860 562L864 563C868.333 563 877.2 563 878 563C878.8 563 883.667 562.333 886 562V558C886 557.333 886.4 555.9 888 555.5C889.6 555.1 891 554 891.5 553.5C891.167 552.167 890.6 549.3 891 548.5C891.4 547.7 892.167 546.833 892.5 546.5C893.667 546.667 896 547.3 896 548.5C896 550 894.5 552 896 552C897.5 552 899.5 551 901 551C902.2 551 903.5 551 904 551C903.667 549.833 903.2 547.5 904 547.5C904.8 547.5 906 546.833 906.5 546.5C907.333 545.833 909 544.9 909 546.5C909 548.5 911 550.5 910 552C909 553.5 907.5 553.5 906.5 553.5C905.5 553.5 907 553 904 555.5C901 558 899 557.5 897.5 556.5C896 555.5 895.5 554.5 894.5 555.5C893.5 556.5 893.5 558 892.5 559C891.5 560 890 561 890 562C890 563 888 563 887.5 563.5C887.1 563.9 885.333 565.667 884.5 566.5C883.833 566.833 882.3 567.5 881.5 567.5C880.7 567.5 878.833 567.5 878 567.5C877.833 566.833 877.2 565.7 876 566.5C874.5 567.5 875 569.5 875.5 569.5C876 569.5 873.5 572 877 572C879.8 572 882.5 571.333 883.5 571V574L890 574.5L894 575.5L891 579.5L887.5 585.5L886 590L890 591.5L894 586.5L899.5 582.5L906 580.5L909 582.5C908.667 583.167 907.8 584.7 907 585.5C906 586.5 906 586 903.5 588C901.5 589.6 898 590 896.5 590C896.5 590.667 896.5 592.4 896.5 594C896.5 596 893 600 894 602C894.8 603.6 895.333 608.333 895.5 610.5H911.5L913.5 616L917.5 614L916.5 610.5H920V607H927L928.5 596L937.5 597L941 599H950L960 600C959.333 601 958.4 603 960 603C961.6 603 965.667 603 967.5 603V594C969.5 591.833 973.6 587.3 974 586.5C974.4 585.7 976.167 583.5 977 582.5H1000.5L999.5 588L998 591.5H992.5H981.5L975.5 592.5L972.5 596L974 599L975.5 602L971.5 603L972.5 607C971.833 609.333 970.7 614 971.5 614C972.3 614 975.5 615.333 977 616C978.333 619.167 981.3 625.6 982.5 626C984 626.5 988.5 630 990.5 630.5C992.1 630.9 992.5 635.667 992.5 638L996.5 641L994 644.5L992.5 646L994 650.5L996.5 652.5V659L994 660.5L990.5 659V652.5L987.5 650.5V642.5V636.5H980.5V632C977.833 631.5 972.8 630.5 974 630.5C975.2 630.5 975.5 626.167 975.5 624L968.5 621.5L966.5 614L960 609.5L954.5 605.5L946.5 603H937.5H933.5L932 607V610.5L927 613L920 615V621.5L921 624H927C926.5 622.333 925.8 618.9 927 618.5C928.2 618.1 931.833 616.667 933.5 616H937.5L941 619.5L945.5 624V626L948 632V638L953 641L954.5 644.5L955.5 648.5H950L946.5 642.5H941L935.5 638L936.5 635H941L943 630.5L939.5 626L935.5 621.5L932 625L926 626V628H921L916.5 627L915.5 621.5L911.5 619.5L906.5 621.5L907 624L904 630.5L899.5 633L897.5 635H894.5L895.5 632H892.5L890 628H888L886 630.5L881.5 632H878L879.5 635L882.5 636.5C881.333 637.5 879.7 639.5 882.5 639.5C885.3 639.5 893 640.5 896.5 641H902.5L904 644.5L909 642.5V650.5L906 654.5L899.5 652.5C898.833 650.667 897.3 647 896.5 647C895.5 647 893 650 891.5 648.5C890.3 647.3 888.667 645.333 888 644.5H882.5L879.5 641H875.5H868L867 642.5L864 643.5L861 644.5L863 647H867V650.5L870.5 652.5L869 657.5L874.5 660.5L881.5 661.5V665H887.5L886 667.5C884.333 668.167 880.7 669.4 879.5 669C878.3 668.6 876.667 668.833 876 669C875 670 873.3 672.1 874.5 672.5C875.7 672.9 878.333 674.333 879.5 675H886C887.667 674.5 891.3 673.8 892.5 675C894 676.5 893 679 891.5 679.5C890.3 679.9 886.333 679.667 884.5 679.5H879.5L877 682.5L879.5 684V687.5C881 687.5 884.4 687.5 886 687.5C887.6 687.5 892 687.5 894 687.5L895.5 690.5C897.333 690.5 901.3 690.5 902.5 690.5C903.7 690.5 908.333 691.5 910.5 692V696C907.833 696 902.3 696 901.5 696C900.7 696 894.5 696 891.5 696L890 692L884.5 693L882.5 698.5C885 699.167 890 700.7 890 701.5C890 702.5 895.5 708.5 896.5 710C897.3 711.2 900.167 710.5 901.5 710C901.333 711 901.3 713.3 902.5 714.5C904 716 901 717 902.5 719C904 721 905 719 907 719C908.6 719 907.667 715 907 713C906 711.5 904.5 708.8 906.5 710C909 711.5 912.5 712 914 712.5C915.2 712.9 916.833 712.667 917.5 712.5L911.5 717C910.833 718.167 909.7 720.8 910.5 722C911.5 723.5 915.5 724 916.5 724.5C917.3 724.9 920.833 728 922.5 729.5L929 732V734.5L928 739C928.5 740.333 929.6 743 930 743C930.5 743 933 743.5 933 742.5C933 741.7 933 738.833 933 737.5L936.5 736L939 734.5L941.5 731L945 732C945.667 730.833 947 728.7 947 729.5C947 730.5 948 731.5 947 734.5C946 737.5 942 738.5 941.5 739C941 739.5 937 740.5 938 741.5C939 742.5 936.5 745.5 939 746.5C941.5 747.5 943 749 945 749.5C947 750 952 755.5 953.5 756.5C955 757.5 957 759 958 759.5C958.8 759.9 961 759.667 962 759.5L964 755.5C966 754.833 970.2 753.5 971 753.5C971.8 753.5 975.667 749.5 977.5 747.5L979.5 750.5L981.5 753.5C982.333 752.167 984.1 749.5 984.5 749.5C984.9 749.5 984 746.5 983.5 745C984 745 985.3 745 986.5 745C987.7 745 991.333 743.333 993 742.5L997.5 741C997.833 741.833 998.3 743.8 997.5 745C996.7 746.2 994.833 749.167 994 750.5L991.5 754.5L986.5 758.5L981.5 759.5L980.5 757.5C980.167 756.167 979.3 753.7 978.5 754.5C977.7 755.3 973.167 756.167 971 756.5L969.5 760.5C969.833 761.833 970.6 764.6 971 765C971.5 765.5 976.5 769.5 977.5 769.5C978.5 769.5 979.5 770 981.5 770.5C983.1 770.9 986.833 773.667 988.5 775L987.5 779C988.5 779 991 779.2 993 780C995.5 781 998 780.5 998.5 781C998.9 781.4 998 784.167 997.5 785.5C996.833 787.333 995.7 791.2 996.5 792C997.5 793 1001.5 795.5 1002.5 795.5C1003.3 795.5 1002.83 790.5 1002.5 788C1003 786 1004.4 782.1 1006 782.5C1008 783 1012 781.5 1013.5 782.5C1015 783.5 1015 786.5 1016 788C1017 789.5 1014.5 793.5 1016 793.5C1017.5 793.5 1021 789 1021.5 788.5C1022 788 1023.5 787.5 1024 785.5C1024.4 783.9 1025.5 779.833 1026 778V775L1032 773.5L1039 777L1043.5 779L1044 782V784.5H1052.5V780H1058.5V770L1061.5 765.5L1066 765L1067.5 770L1069 779L1064.5 781C1064.83 781.5 1065.3 782.6 1064.5 783C1063.5 783.5 1061 784.5 1060.5 784.5C1060.1 784.5 1057.33 784.5 1056 784.5L1055 788L1052.5 790H1046.5L1042.5 789.5L1040.5 788V783.5L1039 780L1031.5 781H1028V784.5V788.5L1027 792L1024 793.5L1020.5 797.5C1021.33 798.167 1022.3 799.4 1019.5 799C1016 798.5 1015.5 801.5 1015 801C1014.6 800.6 1013.17 796.833 1012.5 795V788.5H1006.5L1007.5 795.5L1006 800C1004.17 800 1000.3 800 999.5 800C998.7 800 994.833 797.667 993 796.5L991.5 793.5L986.5 792C984.833 792.167 981.6 792.6 982 793C982.4 793.4 983.167 794.5 983.5 795L976 792C974.333 792 971 791.8 971 791C971 790.2 970.333 789.333 970 789L966 791C964.667 791.5 962 792.6 962 793C962 793.4 959 793.833 957.5 794L953.5 795L945 793.5L937.5 790L932 788H923.5H915.5L917 792C916 792.833 914.3 794.7 915.5 795.5C917 796.5 920 796.5 922 797.5C924 798.5 924 796 927 798.5C930 801 931.5 800 933 803.5C934.5 807 933.5 809 935.5 811.5C937.5 814 940 818 940 819.5C940 821 936.5 822 939 823.5C941.5 825 957 822.5 957.5 823.5C957.9 824.3 958.667 823.167 959 822.5C960 821 962 818.3 962 819.5C962 820.7 962.667 822 963 822.5L960.5 825.5L959 830C958.333 831.833 956.9 835.6 956.5 836C956.1 836.4 953 837.167 951.5 837.5L949.5 843V849C948.833 849.833 947.5 851.7 947.5 852.5C947.5 853.3 946.5 858.833 946 861.5L947.5 865.5H943.5C941.5 866.5 937.5 868.7 937.5 869.5C937.5 870.5 935.5 872.5 935.5 874.5C935.5 876.5 933.5 878.5 935.5 880.5C937.1 882.1 939.167 885.833 940 887.5H934.5L928 889.5V892L931 893V898L934.5 901.5L935.5 896L939 893V898L942.5 897L943.5 893H947.5L948.5 886.5L951.5 887.5L956.5 889.5L958 885L964 886.5L969.5 882.5L965 879.5L964 869.5H969.5C969.167 871.167 969 874.5 971 874.5C973 874.5 979.167 873.167 982 872.5L983 869H986.5L988.5 866L992 865L996.5 865.5V860.5L998.5 861.5L999 865L1007.5 866L1007 869C1003.83 869.167 997.4 869.4 997 869C996.6 868.6 993.167 869.833 991.5 870.5C991.167 871.5 990.5 873.6 990.5 874C990.5 874.5 990 877.5 987 876.5C984 875.5 977 876 977 876.5C977 876.9 973.333 877.333 971.5 877.5V886.5C971.333 888.333 971.1 892.1 971.5 892.5C971.9 892.9 974.667 894.333 976 895C977.167 894.333 979.6 893.2 980 894C980.5 895 980 896.5 980 897C980 897.5 986.5 897 987.5 897C988.3 897 991.833 895 993.5 894L1018.5 887.5C1020.5 887.167 1024.7 886.5 1025.5 886.5C1026.3 886.5 1031.17 886.5 1033.5 886.5L1036.5 889.5L1042 887.5H1047.5L1048.5 885H1054.5L1055.5 876.5V866L1063.5 863.5C1064.83 864.167 1067.5 865.1 1067.5 863.5C1067.5 861.9 1068.17 858.833 1068.5 857.5C1070.33 856.833 1073.9 855.3 1073.5 854.5C1073.1 853.7 1072.33 845.833 1072 842H1080.5V836.5L1084.5 836L1083.5 832.5L1080.5 832V828.5H1089.5L1090.5 832L1092 836C1092.33 837.167 1092.8 839.6 1092 840C1091.2 840.4 1086.67 841.5 1084.5 842C1084.5 843.333 1084.4 846.1 1084 846.5C1083.6 846.9 1081.5 848 1080.5 848.5C1079.17 848.167 1076.6 847.9 1077 849.5C1077.4 851.1 1077.17 855.5 1077 857.5L1076 864.5C1074.5 864.667 1071.3 865.1 1070.5 865.5C1069.7 865.9 1067.83 867.667 1067 868.5H1061C1060.33 869.833 1059.2 872.8 1060 874C1060.8 875.2 1061 881.833 1061 885L1058 889H1052C1051.17 890.5 1049.6 893.6 1050 894C1050.4 894.4 1050.83 897.167 1051 898.5L1057 903C1062.5 907.833 1073.6 917.5 1074 917.5C1074.4 917.5 1078.17 916.5 1080 916L1081 912.5L1084 913.5L1086 909C1087 910.5 1089.1 913.3 1089.5 912.5C1089.9 911.7 1091.33 908.167 1092 906.5L1096.5 907.5C1095 908.833 1092.1 911.7 1092.5 912.5C1092.9 913.3 1092 915.5 1091.5 916.5L1087.5 915L1084 918.5L1084.5 923V927C1084.17 927.333 1083.9 928.2 1085.5 929C1087.1 929.8 1090.17 929.333 1091.5 929L1092.5 926H1096.5C1096.17 927 1095.7 929 1096.5 929C1097.3 929 1099.83 928.333 1101 928L1103 923L1108 921L1110.5 917.5H1113.5L1118 914L1123.5 914.5C1125 914.167 1128.1 913.5 1128.5 913.5C1128.9 913.5 1131 914.5 1132 915L1127 916.5L1121.5 919C1119.5 918.833 1115.4 918.7 1115 919.5C1114.5 920.5 1112 923 1112 923.5C1112 923.9 1111 926.667 1110.5 928L1104.5 929L1101 932.5L1097.5 934L1093 933C1092.5 933.667 1091.6 935.2 1092 936C1092.4 936.8 1095.83 938 1097.5 938.5L1103 943C1104.17 943.167 1106.8 943.8 1108 945C1109.5 946.5 1111 950.5 1112 952C1113 953.5 1115 957 1115 957.5C1115 958 1118.5 963 1119 963.5C1119.4 963.9 1120.83 967 1121.5 968.5C1121.83 969.333 1122.7 971.2 1123.5 972C1124.3 972.8 1128.5 974.667 1130.5 975.5C1132 977.667 1135.1 982.1 1135.5 982.5C1136 983 1139.5 983 1142.5 987.5C1145.5 992 1144.5 991 1147.5 994.5C1150.5 998 1150.5 999 1151.5 999C1152.3 999 1157.17 998.333 1159.5 998L1159 991L1161 774.5C1160.17 773.167 1158.3 770.9 1157.5 772.5C1156.7 774.1 1154.17 778.167 1153 780L1151 786H1145H1140.5V777L1145 774.5L1144 771L1138 772.5C1137.33 772.5 1135.8 772.5 1135 772.5C1134.2 772.5 1133.67 768.833 1133.5 767L1135 761L1138 757.5H1146.5L1153 759.5L1155.5 765L1157.5 768.5L1162 769V759.5V754.5L1153 752L1149 742.5L1146.5 729.5L1149 719L1150.5 716.5L1153.5 715.5L1156 712L1154.5 707.5L1153.5 702.5L1155 698L1158 694L1161.5 690L1162 666.5V640.5V601V553.5L1161.5 285C1161.5 284.5 1161.3 283.5 1160.5 283.5C1159.5 283.5 1155.5 285 1155.5 285.5C1155.5 285.9 1154.17 287.667 1153.5 288.5C1151.83 288.833 1148.4 289.3 1148 288.5C1147.5 287.5 1150 285 1147.5 285C1145.5 285 1142.33 285.667 1141 286H1138C1137.67 287.167 1136.9 289.5 1136.5 289.5C1136.1 289.5 1133.33 288.833 1132 288.5L1129 287L1127.5 283.5L1130 280L1131 273.5L1129 270C1128 269.5 1125.9 268.6 1125.5 269C1125 269.5 1123 272.5 1122.5 272C1122.1 271.6 1120.33 270.167 1119.5 269.5L1113 269L1108.5 268.5L1107 264.5L1099.5 265H1096.5L1094.5 268.5L1089.5 270.5C1088.5 269.833 1086.4 268.4 1086 268C1085.6 267.6 1082.83 264.833 1081.5 263.5C1079.5 263.667 1075.2 263.9 1074 263.5C1072.8 263.1 1069.83 260 1068.5 258.5L1067.5 253L1060 255L1056 259L1053 261.5H1031.5C1031.33 260 1030.4 257 1028 257C1025.6 257 1015 254.333 1010 253L1004 245.5L940.5 216.5L932 211L928.5 214C928.833 215.5 929.1 218.3 927.5 217.5C925.9 216.7 923.167 213.833 922 212.5L912 201.5L900 193.5L884.5 191L873 187.5L859.5 181.5L850.5 176.5L839.5 175.5L836.5 170L831.5 167.5L826.5 168.5L825 172ZM822.5 584.5L824.5 590L829 594L835 596L833 592L830 586.5L834 583.5L838.5 584.5V579.5L842.5 578L841.5 574.5L835 575.5V578.5L827.5 578L826 582.5L822.5 583V584.5ZM841.5 580C842.3 581.2 845.167 582.5 846.5 583L848 578.5L841.5 580ZM842.5 567.5L844 574C845.333 574.333 848 574.8 848 574C848 573.2 848 569.333 848 567.5L851 564.5L849.5 562.5L845.5 563L842.5 566.5V567.5ZM853.5 567.5H850.5L849.5 571L854 570L853.5 576.5V578.5C852.167 578.167 849.5 577.7 849.5 578.5C849.5 579.3 850.167 581.5 850.5 582.5H856V580L860 579.5L861 576.5L863 573L861 567.5L859 564.5L855 563.5L853.5 566.5V567.5ZM867 576.5L862 581.5L856 584.5L854 585.5L853.5 590.5L855 595L861 593.5L860 592L863 590.5V587.5H869.5L871 591H878L879.5 587.5L883.5 585.5L884.5 578.5L887.5 578L882.5 575.5H876H872V569.5L869.5 565.5L867 567.5V574V576.5ZM843 592.5V596L843.5 601.5H847.5V597.5L850.5 596.5L849.5 591.5C848.333 591.333 845.9 591 845.5 591C845.1 591 843.667 592 843 592.5ZM851.5 600L849.5 606L846.5 608L842 608.5L840 611.5L841.5 618.5L842 623L849 624L855 623L854 619.5L860 618.5V600L855 598.5H851.5V600ZM863 623C862.6 623.4 862.5 625.833 862.5 627H855.5L853.5 631.5C854.167 631.667 855.5 632.3 855.5 633.5C855.5 635 857 636.5 858.5 636.5C859.7 636.5 864.667 635.5 867 635H873.5L875.5 629.5V623H863ZM861.5 597.5C863.833 598.5 868.4 600.5 868 600.5C867.5 600.5 870 601.5 870.5 602C871 602.5 870.5 604 871 604.5C871.4 604.9 870.167 606.667 869.5 607.5L864.5 607H862.5L864 610.5L869 612.5L870.5 615L866 616L864 617L863.5 619C864.167 619.333 865.8 619.9 867 619.5C868.5 619 870.5 617 871 617C871.4 617 872.5 616.333 873 616L874 619C874.833 618.167 876.7 616.6 877.5 617C878.5 617.5 880.5 617 881.5 617C882.3 617 883.5 615.667 884 615L883 604.5L886 602.5L886.5 599.5L891.5 598.5L893.5 597.5L891.5 594H884.5L877 595L875 595.5C874.5 596 873.5 597.1 873.5 597.5C873.5 597.9 870.833 596 869.5 595L867 591.5L863 594L860.5 596L861.5 597.5ZM890.5 622L892.5 626L900.5 628L899.5 623C901.167 623.333 904.4 623.8 904 623C903.6 622.2 902.167 619 901.5 617.5L892.5 619L890.5 622ZM913.5 898L907.5 906C903 908.5 894.6 913.8 897 915C900 916.5 911.5 917 915.5 917C918.7 917 930.167 917 935.5 917L931 907.5L924 906L922 897L913.5 898ZM801.5 921L867 918.5L868.5 910.5L871 912V917L877.5 918.5L879.5 912L887.5 907.5L903.5 898V892H911L919.5 886.5L928 876.5L931 870.5C929.5 869 926.8 866 928 866C929.2 866 930.5 865.333 931 865L935.5 860.5H942.5L940 851L946 843V832.5L948.5 828H940H933L925.5 815L917.5 807.5H903.5L897 809.5L892 811.5H882.5L867 815L852.5 823.5L846.5 828V832.5H851L852.5 837.5L846.5 840.5L843 836V832.5H840L836 836V840.5L832.5 844.5L835 850C834 851.167 831.9 853.4 831.5 853C831.1 852.6 828.667 850.833 827.5 850L824.5 854C822.833 855.5 819.5 858.8 819.5 860C819.5 861.5 814 869 813.5 870.5C813 872 815.5 876 814.5 877C813.7 877.8 814.167 880.333 814.5 881.5L821 880.5L827.5 876.5L833.5 877L835 880.5H843L850 881.5L852.5 884L854 887.5L852.5 889.5H846.5L844 888.5L843 885.5L840 884H836H832.5L829 883L826 884L827.5 887.5C828.167 888.167 829.9 889.5 831.5 889.5C833.1 889.5 834.5 890.5 835 891L837.5 894L838.5 894.5V897L835.5 896.5L834.5 897.5L835 899.5L834.5 900.5H831.5L830 898L831 894.5V892H827.5L826 889.5H823.5L820.5 889L818 886.5L819.5 884L815 883.5H812.5L806.5 890L805.5 895.5L802.5 899.5L801 907L798 911.5L796.5 916V919.5V923.5L801.5 921ZM898.5 759.5L911.5 775L925.5 781C927.833 782 932.8 783.7 934 782.5C935.2 781.3 937.833 781 939 781L941.5 784.5H946L948.5 789L956.5 788H963C962 785.667 960.6 781 963 781C965.4 781 969.333 781 971 781L972.5 785.5L976 788L979.5 784.5C979.833 783 980.8 780 982 780C983.2 780 982.5 777.667 982 776.5C981.5 775 980.3 772.1 979.5 772.5C978.7 772.9 972.833 771.333 970 770.5L964 772.5L962 765L951.5 763L949.5 757.5L940 750.5C939.333 751.167 937.5 751.9 935.5 749.5C933.5 747.1 932.333 745.5 932 745L925.5 749.5C924.667 750.167 922.6 751.6 921 752C919.4 752.4 918 754.5 917.5 755.5L916.5 758.5L911.5 759.5L905.5 757.5L897 754.5L898.5 759.5ZM903.5 744H909L911.5 741.5L905.5 739H900L903.5 744ZM909 748.5L915.5 752L917 749.5L922.5 747.5L919 743L914 745L909 748.5ZM909 734.5L915.5 737.5L919 739H923.5V734.5L917 731L914 729.5L909 727.5H905.5V732L909 734.5Z" stroke="black"/>
</g>
</g>
</svg>
