<svg width="1005" height="994" viewBox="0 0 1005 994" fill="none" xmlns="http://www.w3.org/2000/svg">
<g id="Group 2">
<g id="jambi">
<path d="M361.5 622V618H364H365.5L367.5 619.5H370L372 618H376.5H381.5L386 619.5L389 618L392.5 617L394.5 615.5L395.5 613L397 610.5L399 608.5L403 605L405.5 602.5L410 599.5L413.5 595V594L415 592.5L413.5 591.5L412 589.5H413.5V587L415 585.5L413.5 584L412 581.5V580L413.5 578.5V576.5H417L419 575.5L422.5 574.5L424 573L425 571L427 569L428.5 567.5L430.5 567L429.5 565L428.5 563.5L427 562.5L425 563L423.5 562.5L424 561.5L424.5 560.5L424 559L423.5 558.5L422.5 557L424.5 553.5H428.5L430.5 551.5L434.5 548.5L435.5 546.5H438.5H441L443.5 548.5C445 549 448.1 550 448.5 550C448.9 550 449.667 549 450 548.5H452.5L454 551.5H457.5L461 549.5L464.5 550L470 555L473 558.5L478.5 560.5L482 563.5L486.5 564.5H491L493 566L497 567L500.5 564.5L504 561.5L505.5 560.5L508.5 558.5V555L512 551.5L515.5 549.5L520 544.5L523.5 541L526.5 536L528.5 534.5H532L535.5 533.5H541L545 534.5L547 536H551.5L555 537L557.5 537.5L559.5 539L561 537.5L562.5 536H569.5V537.5L571 539H572.5L575.5 540L574.5 543L578 544.5L584 548.5L584.5 551.5H586.5H589.5L591.5 553V556L593.5 557.5V556H596L600 556.5H603.5L606.5 555H610L613 556.5H617L619.5 557.5L623.5 558.5L626 560.5H628.5L632.5 561L634.5 562.5H636L637.5 561L641 560.5L646 561L648.5 559.5V561L651 562.5V565.5V567L653 567.5L650.5 568.5L649.5 572L650.5 576L653 580.5L654.5 583.5V587.5L656 592L654.5 594L653.5 597L654.5 599.5V604L657 610.5H654.5H649.5L646 612V615V618.5L645 622H642.5L641.5 620.5H639.5H636C634.5 621 631.3 622 630.5 622C629.7 622 626.5 623 625 623.5L619.5 625C618.5 625.5 616.3 626.2 615.5 625C614.5 623.5 613.5 625 613 625C612.6 625 611.833 623 611.5 622L609 620.5L603.5 625L579.5 626.5L578.5 629C577.833 629.833 576.4 631.5 576 631.5H574.5L571 630.5L566 634L565.5 637L569.5 640.5L571 643H573L574.5 644.5V647L571 649.5V654.5L573.5 657.5L573 659L569.5 658L566 659L564.5 661.5L565.5 664L567 665.5L567.5 669L565.5 672L563 670.5L555.5 664L554.5 663L553.5 659.5L552 657L549 655.5H546L543 659.5L539.5 664L540.5 666L543 667.5V669V672L539.5 673.5H536C535.6 673.5 534.167 672.5 533.5 672L532.5 670.5H530.5V672H528H521.5C520.7 672 517.833 671 516.5 670.5L514.5 672L511.5 674.5L512 678L513 681.5L508 688.5L506 692H503L499.5 694L496 698L487.5 702.5C486 703.167 482.8 704.5 482 704.5C481 704.5 476.5 703.5 475.5 703C474.5 702.5 471.5 701.5 471 701C470.5 700.5 466.5 699.5 465.5 698C464.5 696.5 462.5 698 461.5 698C460.7 698 459.833 699 459.5 699.5L456 704.5L451 707.5L445.5 710.5C444.333 710.167 441.9 709.4 441.5 709C441.1 708.6 438.667 707.167 437.5 706.5L433.5 708L427 706.5L417 698L410 689.5L407 690.5H402L400.5 689.5L398 682.5L393 678.5L378 669.5L377 666.5L378 659.5L376 654L375 649L371 645L367.5 640.5L363 636C362.2 635.2 362.667 633 363 632C362.5 630.833 361.5 628.4 361.5 628V622Z" fill="#AA00FF"/>
<path d="M639.5 509.5V505.5V504L641 502L643 504L644 508L647.5 507L649.5 504L650.5 502L654.5 501V498H656L660 499.5L662.5 501L666 505.5L667.5 508L666 509.5L663.5 512L662.5 514.5L660 517.5L658.5 522.5L656 519.5L653.5 514.5L651 517.5L649.5 522.5V525H647.5V521.5L646 517.5L644 514.5C643 513.833 641 512.4 641 512C641 511.6 640 510.167 639.5 509.5Z" fill="#AA00FF"/>
<path d="M654.5 486.5V483.5L657.5 481L660 479L661 477.5V476.5V475.5V474L663.5 473L662.5 472L661 470.5L660 469H662.5L664.5 467.5H666L670 469L672.5 470.5V473H670V474L672.5 477.5L676 479V477.5H678L679.5 479L680.5 482.5L682.5 483.5L686 486.5H688.721L690 485L688 481H690L691.5 483.5L694 486.5L696.5 488.5V491L694 494H691.5L688 491L684 487.5L681.5 485L679.5 483.5L673.5 485L667.5 486.5L663.5 487.5L661 488.5V486.5H654.5Z" fill="#AA00FF"/>
<path d="M666 452.5L663.5 451L666 449L667.5 452.5L670 454V457H667.5L666 455V452.5Z" fill="#AA00FF"/>
<path d="M361.5 622V618H364H365.5L367.5 619.5H370L372 618H376.5H381.5L386 619.5L389 618L392.5 617L394.5 615.5L395.5 613L397 610.5L399 608.5L403 605L405.5 602.5L410 599.5L413.5 595V594L415 592.5L413.5 591.5L412 589.5H413.5V587L415 585.5L413.5 584L412 581.5V580L413.5 578.5V576.5H417L419 575.5L422.5 574.5L424 573L425 571L427 569L428.5 567.5L430.5 567L429.5 565L428.5 563.5L427 562.5L425 563L423.5 562.5L424 561.5L424.5 560.5L424 559L423.5 558.5L422.5 557L424.5 553.5H428.5L430.5 551.5L434.5 548.5L435.5 546.5H438.5H441L443.5 548.5C445 549 448.1 550 448.5 550C448.9 550 449.667 549 450 548.5H452.5L454 551.5H457.5L461 549.5L464.5 550L470 555L473 558.5L478.5 560.5L482 563.5L486.5 564.5H491L493 566L497 567L500.5 564.5L504 561.5L505.5 560.5L508.5 558.5V555L512 551.5L515.5 549.5L520 544.5L523.5 541L526.5 536L528.5 534.5H532L535.5 533.5H541L545 534.5L547 536H551.5L555 537L557.5 537.5L559.5 539L561 537.5L562.5 536H569.5V537.5L571 539H572.5L575.5 540L574.5 543L578 544.5L584 548.5L584.5 551.5H586.5H589.5L591.5 553V556L593.5 557.5V556H596L600 556.5H603.5L606.5 555H610L613 556.5H617L619.5 557.5L623.5 558.5L626 560.5H628.5L632.5 561L634.5 562.5H636L637.5 561L641 560.5L646 561L648.5 559.5V561L651 562.5V565.5V567L653 567.5L650.5 568.5L649.5 572L650.5 576L653 580.5L654.5 583.5V587.5L656 592L654.5 594L653.5 597L654.5 599.5V604L657 610.5H654.5H649.5L646 612V615V618.5L645 622H642.5L641.5 620.5H639.5H636C634.5 621 631.3 622 630.5 622C629.7 622 626.5 623 625 623.5L619.5 625C618.5 625.5 616.3 626.2 615.5 625C614.5 623.5 613.5 625 613 625C612.6 625 611.833 623 611.5 622L609 620.5L603.5 625L579.5 626.5L578.5 629C577.833 629.833 576.4 631.5 576 631.5H574.5L571 630.5L566 634L565.5 637L569.5 640.5L571 643H573L574.5 644.5V647L571 649.5V654.5L573.5 657.5L573 659L569.5 658L566 659L564.5 661.5L565.5 664L567 665.5L567.5 669L565.5 672L563 670.5L555.5 664L554.5 663L553.5 659.5L552 657L549 655.5H546L543 659.5L539.5 664L540.5 666L543 667.5V669V672L539.5 673.5H536C535.6 673.5 534.167 672.5 533.5 672L532.5 670.5H530.5V672H528H521.5C520.7 672 517.833 671 516.5 670.5L514.5 672L511.5 674.5L512 678L513 681.5L508 688.5L506 692H503L499.5 694L496 698L487.5 702.5C486 703.167 482.8 704.5 482 704.5C481 704.5 476.5 703.5 475.5 703C474.5 702.5 471.5 701.5 471 701C470.5 700.5 466.5 699.5 465.5 698C464.5 696.5 462.5 698 461.5 698C460.7 698 459.833 699 459.5 699.5L456 704.5L451 707.5L445.5 710.5C444.333 710.167 441.9 709.4 441.5 709C441.1 708.6 438.667 707.167 437.5 706.5L433.5 708L427 706.5L417 698L410 689.5L407 690.5H402L400.5 689.5L398 682.5L393 678.5L378 669.5L377 666.5L378 659.5L376 654L375 649L371 645L367.5 640.5L363 636C362.2 635.2 362.667 633 363 632C362.5 630.833 361.5 628.4 361.5 628V622Z" stroke="black"/>
<path d="M639.5 509.5V505.5V504L641 502L643 504L644 508L647.5 507L649.5 504L650.5 502L654.5 501V498H656L660 499.5L662.5 501L666 505.5L667.5 508L666 509.5L663.5 512L662.5 514.5L660 517.5L658.5 522.5L656 519.5L653.5 514.5L651 517.5L649.5 522.5V525H647.5V521.5L646 517.5L644 514.5C643 513.833 641 512.4 641 512C641 511.6 640 510.167 639.5 509.5Z" stroke="black"/>
<path d="M654.5 486.5V483.5L657.5 481L660 479L661 477.5V476.5V475.5V474L663.5 473L662.5 472L661 470.5L660 469H662.5L664.5 467.5H666L670 469L672.5 470.5V473H670V474L672.5 477.5L676 479V477.5H678L679.5 479L680.5 482.5L682.5 483.5L686 486.5H688.721L690 485L688 481H690L691.5 483.5L694 486.5L696.5 488.5V491L694 494H691.5L688 491L684 487.5L681.5 485L679.5 483.5L673.5 485L667.5 486.5L663.5 487.5L661 488.5V486.5H654.5Z" stroke="black"/>
<path d="M666 452.5L663.5 451L666 449L667.5 452.5L670 454V457H667.5L666 455V452.5Z" stroke="black"/>
</g>
<g id="riau">
<path d="M293 257L290 247.5H288.5V259L293 267V270V274L291.5 277L291 286.5L290.5 297L288.5 299.5L287 304L288.5 305.5L292.5 306.5L298.5 307.5L299.5 312L298.5 315.5L300.5 317L302 320.5C302 321.667 301.8 324.1 301 324.5C300.2 324.9 299.667 328 299.5 329.5V332V334C298.833 335.167 297.3 337.5 296.5 337.5C295.7 337.5 293.5 338.5 292.5 339L290.5 341C289.5 341.5 287.4 342.4 287 342C286.6 341.6 284.833 342.167 284 342.5L282.5 344H278.5L275 344.5H266.5V346H268L270.5 350L272.5 353.5V358.5C272.5 358.9 273.5 360.333 274 361L276 364L277.5 368L276 369C275 369.167 272.9 369.4 272.5 369C272.1 368.6 272.333 369.5 272.5 370L273 373L276 375.5V378L274 381V383.5L270.5 384V385H273.5V389V395L280.5 398L283.5 401L285 404L283.5 406L280.5 411V415.5V418.5L282.5 421L285 425L286.5 428V431.5V435.5H288.5L290.5 434H294.5L297.5 437L299 441L301 444L304 445.5L308.5 447.5L313.5 448.5H317H321H324H326L330 449.5L331.5 451.5V453.5L332.5 456.5L330 457.5L328.5 460V462.5L330 464.5V468V471.5L328.5 473C329 474.667 330 478.1 330 478.5V482.5L331.5 486L333.5 489.5L336 492L337 495L339.5 497V495.5L341 494.5L342.5 493H345.5H348L351 494.5L353 495L354 498.5V501V507L357.5 508.5L362 511.5L366 515L370 517.5L373.5 520L380 522L381.5 525.5L386 528L388 532L393 535.5L401.5 540L407.5 547L411 549L416 550.5H419L422 551.5C423 551.333 425.2 550.9 426 550.5C426.8 550.1 427.667 549.333 428 549H430L436 543H438.5L441 544H443.5L445.5 545V546L448 547L448.5 545H452L454.5 546L456 549L458 547H461.5L466 546L467 549L469.5 550.5L472.5 553.5L474 556.5H477.5L482 560.5L487.5 561.5L493 562.5L494.5 563.5H496.5V560.5H500.5L504 556.5L506.5 553.5L509.5 550.5L514.5 547L527.5 532L529.5 533L535.5 532H540.5H544L549.5 534H554L558 535L563 534C563 533.667 562.6 532.5 561 530.5C561 530.1 560.333 528.667 560 528L563 526.5L561 525.5L559 523.5L561 522L563 520.5C563.333 520 564 518.8 564 518C564 517.2 563.333 516 563 515.5L560 513.5V512.5L564 510.5H568.5L570 508.5L576.5 507L578 505.5C577.5 504.5 576.8 502.3 578 501.5C579.2 500.7 577.5 499.833 576.5 499.5H579L582 499L585 496.5H588H591.5L593.5 495L591.5 493C590.7 492.2 588.833 492 588 492L582 488.5L575 487L570 484L571.5 482.5L570 478L568.5 475L576.5 476.5V475L575 474L576.5 472.5L575 471L576.5 468.5H578C578.5 468 579.5 466.8 579.5 466C579.5 465.2 581.167 465.667 582 466L584 467H588H590.5L593.5 466H596.5V464L595.5 461V458L593.5 453V447.5L591.5 444L588 439L584 437.5H580.5L579.5 435.5L578 432L573 428C570.167 426.167 564.3 422.4 563.5 422C562.7 421.6 560.833 419.833 560 419H555.5C553.9 419 553.833 420.333 554 421L548 423.5L545 427H543H537L535.5 425L517 403L514.5 402H510L499.5 401L493.5 402L484.5 401L478 398L470 391.5C467.667 389 462.8 383.8 462 383C461 382 459 380 458.5 379C458.1 378.2 456.667 375.667 456 374.5L453.5 370V366L454.5 364V359.5C453.167 358.667 450.5 356.9 450.5 356.5V353C450.5 352.2 449.833 350.333 449.5 349.5L450.5 347.5V344.5L448.5 343.5L444.5 342.5C436.167 336 419.4 322.9 419 322.5C418.6 322.1 416.167 320.667 415 320H411H406.5C405.7 320 404.833 321 404.5 321.5H403H396L391 318L386.5 317L383 314.5L380.5 310.5V307.5L379.5 301.5L378 297L377 291.5L375.5 287L373 282.5L360 275L354.5 270V268L352 263.5H341C340.333 264 338.8 265 338 265C337.2 265 332.667 265.667 330.5 266L329.5 270V275L334.5 279L341 286V293H338L335.5 290L333 286L320.5 279L312.5 276.5C309.167 274.333 302.3 269.8 301.5 269C300.7 268.2 297.833 265 296.5 263.5L293 257Z" fill="#00FF51"/>
<path d="M386.5 287L389.5 284.5H392.5L394 286H397L399 285L401 282.5L403 280.5L406.5 279H409L411 282.5L413.5 286L416.5 290V295L413.5 301.5L411 307.5L406.5 312L403 315.5L396 314.5L391 312L388 307.5L386.5 301.5L385 297V293L386.5 287Z" fill="#00FF51"/>
<path d="M440 328.5V325H445L448.5 326.5L454 328.5L470.5 330.5L476.5 331L479.5 335.5V339.5L481 350.5L479.5 351.5L464 337H454.5V335.5H450.5L440 328.5Z" fill="#00FF51"/>
<path d="M458.5 347.5V342.5L461 340.5L463 342.5L468.5 348L474 351.5L478 355L480 357.5L479 359.5L477.5 364L475.5 367.5L474 370L475 372.5L477.5 375V377.5L479 380L477.5 380.5L475 381.5L474 383.5H471.5L469 381.5L467.5 380L465 377.5L463 375L462 372.5L460.5 370.5L459 369.5V367L460 366L461 363V360.5L459 358.5V356L457 354V351.5L458.5 349.5V347.5Z" fill="#00FF51"/>
<path d="M479.5 373V369V367L482 366.5L485.5 367L487.5 369.5L489.5 372V375L491 377L494.5 379L497.5 377.5L502 376.5L505.5 377.5L509.5 380.5L514.5 382L519.5 387L523.5 389L527.5 392L529.5 394.5L530.5 398L529.5 401.5L529 404.5L527 405L525.5 404L524 401.5L521.5 398.5L518 396.5L514.5 395.5L510 395H504H500H496.5L493 396.5H490L486 396L483 394.5C481.833 394.167 479.4 393.5 479 393.5C478.6 393.5 477.5 392.5 477 392L475.5 390.5L474.5 388.5L475.5 386.5L477 385H479.5L482 383.5L482.5 382V379L481 375L479.5 373Z" fill="#00FF51"/>
<path d="M501.5 373L498.5 374.5H497.5L496.5 372.5L497.5 369.5L499.5 367L502 365L506.5 364L511.5 365L517 367.5L522.5 369L526 372.5L529.5 375.5L533.5 380L537.5 384L539.5 387L540.5 390.5C540 391 538.8 392 538 392C537 392 534.5 391.5 533.5 391.5C532.5 391.5 530.5 390.5 529.5 390C528.7 389.6 526.833 388.167 526 387.5L522.5 385L518 380.5L514.5 380C513.167 379.333 510.3 377.8 509.5 377C508.7 376.2 507.167 375 506.5 374.5L501.5 373Z" fill="#00FF51"/>
<path d="M533.5 402V398.5L535.5 395.5V398V402H533.5Z" fill="#00FF51"/>
<path d="M540 409L541 406.5L541.5 406L543 404L546 404.5L548.5 406.5L550.5 409L552 411L552.5 414V417L551 418.5C550.5 418.667 549.4 419 549 419H545C544.5 419.5 543.4 420.4 543 420C542.6 419.6 541.833 420.833 541.5 421.5L540 420.5V418C540 417.6 539.667 415.833 539.5 415C539.667 414.167 540 412.3 540 411.5V409Z" fill="#00FF51"/>
<path d="M560 390.5L560.5 388.5L562 388L565 390.5L569.5 392L572.5 395L571 395.5V400L569.5 401.5V403L571 406V409L569.5 409.5L566 409L563.5 407.5L561.5 405C561 404 560 401.9 560 401.5C560 401.1 559.333 400.333 559 400L557.5 396.5L559 393L560 390.5Z" fill="#00FF51"/>
<path d="M557.5 375L555.5 372V369L559 367.5V370.5L561.5 373L563.5 375V377L560 376.5L557.5 375Z" fill="#00FF51"/>
<path d="M565 388.5L564.5 386L566.5 384L568 385L567.5 390V388.5H565Z" fill="#00FF51"/>
<path d="M571 389.5V386.5L573 385.5L573.5 388.5L571 389.5Z" fill="#00FF51"/>
<path d="M589.5 403V402L590.25 402.5L589.5 403Z" fill="#00FF51"/>
<path d="M592.5 392L591.5 389.5L592.5 388L595 389.5L597.5 392L599.5 394V396.5H597.5L595 393.5L592.5 392Z" fill="#00FF51"/>
<path d="M602.5 392C602.1 391.2 601 390 600.5 389.5L602 390L603.5 389.5L605.5 391L607 392C606.667 392.667 605.8 393.9 605 393.5C604 393 603 393 602.5 392Z" fill="#00FF51"/>
<path d="M605 381L602.5 378V377L605 378.5L609 378L611.5 380L609.5 382.5H607.5L605 381Z" fill="#00FF51"/>
<path d="M625 388.5C625 388.1 624.333 385 624 383.5L625.5 383L628 385L629.5 388L629 389.5C627.667 389.333 625 388.9 625 388.5Z" fill="#00FF51"/>
<path d="M630.5 395C629.7 394.6 629.5 392.167 629.5 391L632 390L633.5 389.5L635.5 390L636.5 392L635 393.5L633.5 395C632.833 395.167 631.3 395.4 630.5 395Z" fill="#00FF51"/>
<path d="M609.5 375.5L609 373H611.5V368H614.5L616.5 367.5L617 366L616.5 364.5H619V367H620.5L621 367.5H623L624.5 367L625.5 366V364.5H625L624.5 362L627 362.5L628 364.5L629 367.5L627 368.5V371H620.5V372L622 373V375L621 377H619H616.5L616 376L615.5 375L614 375.5L612 376L609.5 375.5Z" fill="#00FF51"/>
<path d="M633.5 400V397.5H638L638.5 400.5L639 402.5L638 403L636 402L633.5 400Z" fill="#00FF51"/>
<path d="M636 372.5V370L637.5 368L642 367.5C643 366.833 645.1 365.4 645.5 365L647.5 363L650 361.5L653 361L656 362.5L659 363L661 364L662.5 362L666 361L666.5 363.5L668 366L670 368.5L671.5 371L673 373V375.5L671 377.5V380L671.5 382L673 384C672.333 384.333 670.9 385 670.5 385C670.1 385 670 386.333 670 387H669V388.5V393H665L663.5 392.5L662 391.5L661 390.5L660 389L659 387.5L658 387V386L661 385V383V381.5L659.5 380.5L658 382.5H657.5L658 379.5L657.5 377H661L660 376L659.5 374.5L657.5 372.5L655.5 372H650.5L650 372.5L650.5 373.5V375H646.5L646 373.5L645 372.5L644 373.5H642V375L643 377H639L638 376V374.5L636 372.5Z" fill="#00FF51"/>
<path d="M768.5 211.5V205.5H775.5L768.5 211.5Z" fill="#00FF51"/>
<path d="M813 189V182L816.5 186L813 189Z" fill="#00FF51"/>
<path d="M816.5 173V170.5H819.5L816.5 173Z" fill="#00FF51"/>
<path d="M985.5 134.5L985 131.5H989.5L993.5 136L996 138V140.5H989.5L988 141H985.5L983 140.5L981 139L980.5 137L982 135L984 134.5H985.5Z" fill="#00FF51"/>
<path d="M950.5 201.5L949 199H953V200.5L950.5 201.5Z" fill="#00FF51"/>
<path d="M995 133.5C994.6 133.1 993.167 130.667 992.5 129.5L991 128.5L989 127.5L984 127L983 125.5L977.5 125L975.5 123C975.333 122.333 974.8 120.9 974 120.5C973.2 120.1 972.667 118 972.5 117L971 115.5L970.5 113V110L973 107.5L974 106H976.5V105L978 103L983 99L988 95L988.5 93.5H989.5L991 97L992.5 101L995 105L1001.5 111L1004.5 113V116L1003.5 118.5H1001.5V122.5H1002.5L1004.5 125.5V128.5L1000.5 130.5L998.5 133.5L996 135C995.833 134.667 995.4 133.9 995 133.5Z" fill="#00FF51"/>
<path d="M591 402L590.25 402.5M590.25 402.5L589.5 403V402L590.25 402.5ZM290 247.5L293 257L296.5 263.5C297.833 265 300.7 268.2 301.5 269C302.3 269.8 309.167 274.333 312.5 276.5L320.5 279L333 286L335.5 290L338 293H341V286L334.5 279L329.5 275V270L330.5 266C332.667 265.667 337.2 265 338 265C338.8 265 340.333 264 341 263.5H352L354.5 268V270L360 275L373 282.5L375.5 287L377 291.5L378 297L379.5 301.5L380.5 307.5V310.5L383 314.5L386.5 317L391 318L396 321.5H403H404.5C404.833 321 405.7 320 406.5 320C407.5 320 409.5 320 411 320C412.2 320 414.167 320 415 320C416.167 320.667 418.6 322.1 419 322.5C419.4 322.9 436.167 336 444.5 342.5L448.5 343.5L450.5 344.5V347.5L449.5 349.5C449.833 350.333 450.5 352.2 450.5 353C450.5 354 450.5 356 450.5 356.5C450.5 356.9 453.167 358.667 454.5 359.5V364L453.5 366V370L456 374.5C456.667 375.667 458.1 378.2 458.5 379C459 380 461 382 462 383C462.8 383.8 467.667 389 470 391.5L478 398L484.5 401L493.5 402L499.5 401L510 402H514.5L517 403L535.5 425L537 427C538.833 427 542.6 427 543 427C543.4 427 544.5 427 545 427L548 423.5L554 421C553.833 420.333 553.9 419 555.5 419C557.1 419 559.167 419 560 419C560.833 419.833 562.7 421.6 563.5 422C564.3 422.4 570.167 426.167 573 428L578 432L579.5 435.5L580.5 437.5H584L588 439L591.5 444L593.5 447.5V453L595.5 458V461L596.5 464V466H593.5L590.5 467H588H584L582 466C581.167 465.667 579.5 465.2 579.5 466C579.5 466.8 578.5 468 578 468.5H576.5L575 471L576.5 472.5L575 474L576.5 475V476.5L568.5 475L570 478L571.5 482.5L570 484L575 487L582 488.5L588 492C588.833 492 590.7 492.2 591.5 493C592.3 493.8 593.167 494.667 593.5 495L591.5 496.5H588H585L582 499L579 499.5H576.5C577.5 499.833 579.2 500.7 578 501.5C576.8 502.3 577.5 504.5 578 505.5L576.5 507L570 508.5L568.5 510.5H564L560 512.5V513.5L563 515.5C563.333 516 564 517.2 564 518C564 518.8 563.333 520 563 520.5L561 522L559 523.5L561 525.5L563 526.5L560 528C560.333 528.667 561 530.1 561 530.5C562.6 532.5 563 533.667 563 534L558 535L554 534H549.5L544 532H540.5H535.5L529.5 533L527.5 532L514.5 547L509.5 550.5L506.5 553.5L504 556.5L500.5 560.5H496.5V563.5H494.5L493 562.5L487.5 561.5L482 560.5L477.5 556.5H474L472.5 553.5L469.5 550.5L467 549L466 546L461.5 547H458L456 549L454.5 546L452 545H448.5L448 547L445.5 546V545L443.5 544H441L438.5 543H436L430 549H428C427.667 549.333 426.8 550.1 426 550.5C425.2 550.9 423 551.333 422 551.5L419 550.5H416L411 549L407.5 547L401.5 540L393 535.5L388 532L386 528L381.5 525.5L380 522L373.5 520L370 517.5L366 515L362 511.5L357.5 508.5L354 507V501V498.5L353 495L351 494.5L348 493H345.5H342.5L341 494.5L339.5 495.5V497L337 495L336 492L333.5 489.5L331.5 486L330 482.5C330 481.333 330 478.9 330 478.5C330 478.1 329 474.667 328.5 473L330 471.5V468V464.5L328.5 462.5V460L330 457.5L332.5 456.5L331.5 453.5V451.5L330 449.5L326 448.5H324H321H317H313.5L308.5 447.5L304 445.5L301 444L299 441L297.5 437L294.5 434H290.5L288.5 435.5H286.5V431.5V428L285 425L282.5 421L280.5 418.5V415.5V411L283.5 406L285 404L283.5 401L280.5 398L273.5 395V389V385H270.5V384L274 383.5V381L276 378V375.5L273 373L272.5 370C272.333 369.5 272.1 368.6 272.5 369C272.9 369.4 275 369.167 276 369L277.5 368L276 364L274 361C273.5 360.333 272.5 358.9 272.5 358.5C272.5 358.1 272.5 355 272.5 353.5L270.5 350L268 346H266.5V344.5H275L278.5 344H282.5L284 342.5C284.833 342.167 286.6 341.6 287 342C287.4 342.4 289.5 341.5 290.5 341L292.5 339C293.5 338.5 295.7 337.5 296.5 337.5C297.3 337.5 298.833 335.167 299.5 334V332V329.5C299.667 328 300.2 324.9 301 324.5C301.8 324.1 302 321.667 302 320.5L300.5 317L298.5 315.5L299.5 312L298.5 307.5L292.5 306.5L288.5 305.5L287 304L288.5 299.5L290.5 297L291 286.5L291.5 277L293 274V270V267L288.5 259V247.5H290ZM389.5 284.5L386.5 287L385 293V297L386.5 301.5L388 307.5L391 312L396 314.5L403 315.5L406.5 312L411 307.5L413.5 301.5L416.5 295V290L413.5 286L411 282.5L409 279H406.5L403 280.5L401 282.5L399 285L397 286H394L392.5 284.5H389.5ZM440 325V328.5L450.5 335.5H454.5V337H464L479.5 351.5L481 350.5L479.5 339.5V335.5L476.5 331L470.5 330.5L454 328.5L448.5 326.5L445 325H440ZM458.5 342.5V347.5V349.5L457 351.5V354L459 356V358.5L461 360.5V363L460 366L459 367V369.5L460.5 370.5L462 372.5L463 375L465 377.5L467.5 380L469 381.5L471.5 383.5H474L475 381.5L477.5 380.5L479 380L477.5 377.5V375L475 372.5L474 370L475.5 367.5L477.5 364L479 359.5L480 357.5L478 355L474 351.5L468.5 348L463 342.5L461 340.5L458.5 342.5ZM479.5 369V373L481 375L482.5 379V382L482 383.5L479.5 385H477L475.5 386.5L474.5 388.5L475.5 390.5L477 392C477.5 392.5 478.6 393.5 479 393.5C479.4 393.5 481.833 394.167 483 394.5L486 396L490 396.5H493L496.5 395H500H504H510L514.5 395.5L518 396.5L521.5 398.5L524 401.5L525.5 404L527 405L529 404.5L529.5 401.5L530.5 398L529.5 394.5L527.5 392L523.5 389L519.5 387L514.5 382L509.5 380.5L505.5 377.5L502 376.5L497.5 377.5L494.5 379L491 377L489.5 375V372L487.5 369.5L485.5 367L482 366.5L479.5 367V369ZM498.5 374.5L501.5 373L506.5 374.5C507.167 375 508.7 376.2 509.5 377C510.3 377.8 513.167 379.333 514.5 380L518 380.5L522.5 385L526 387.5C526.833 388.167 528.7 389.6 529.5 390C530.5 390.5 532.5 391.5 533.5 391.5C534.5 391.5 537 392 538 392C538.8 392 540 391 540.5 390.5L539.5 387L537.5 384L533.5 380L529.5 375.5L526 372.5L522.5 369L517 367.5L511.5 365L506.5 364L502 365L499.5 367L497.5 369.5L496.5 372.5L497.5 374.5H498.5ZM533.5 398.5V402H535.5V398V395.5L533.5 398.5ZM541 406.5L540 409C540 409.5 540 410.7 540 411.5C540 412.3 539.667 414.167 539.5 415C539.667 415.833 540 417.6 540 418C540 418.4 540 419.833 540 420.5L541.5 421.5C541.833 420.833 542.6 419.6 543 420C543.4 420.4 544.5 419.5 545 419C546.167 419 548.6 419 549 419C549.4 419 550.5 418.667 551 418.5L552.5 417V414L552 411L550.5 409L548.5 406.5L546 404.5L543 404L541.5 406L541 406.5ZM560.5 388.5L560 390.5L559 393L557.5 396.5L559 400C559.333 400.333 560 401.1 560 401.5C560 401.9 561 404 561.5 405L563.5 407.5L566 409L569.5 409.5L571 409V406L569.5 403V401.5L571 400V395.5L572.5 395L569.5 392L565 390.5L562 388L560.5 388.5ZM555.5 372L557.5 375L560 376.5L563.5 377V375L561.5 373L559 370.5V367.5L555.5 369V372ZM564.5 386L565 388.5H567.5V390L568 385L566.5 384L564.5 386ZM571 386.5V389.5L573.5 388.5L573 385.5L571 386.5ZM591.5 389.5L592.5 392L595 393.5L597.5 396.5H599.5V394L597.5 392L595 389.5L592.5 388L591.5 389.5ZM600.5 389.5C601 390 602.1 391.2 602.5 392C603 393 604 393 605 393.5C605.8 393.9 606.667 392.667 607 392L605.5 391L603.5 389.5L602 390L600.5 389.5ZM602.5 378L605 381L607.5 382.5H609.5L611.5 380L609 378L605 378.5L602.5 377V378ZM624 383.5C624.333 385 625 388.1 625 388.5C625 388.9 627.667 389.333 629 389.5L629.5 388L628 385L625.5 383L624 383.5ZM629.5 391C629.5 392.167 629.7 394.6 630.5 395C631.3 395.4 632.833 395.167 633.5 395L635 393.5L636.5 392L635.5 390L633.5 389.5L632 390L629.5 391ZM609 373L609.5 375.5L612 376L614 375.5L615.5 375L616 376L616.5 377H619H621L622 375V373L620.5 372V371H627V368.5L629 367.5L628 364.5L627 362.5L624.5 362L625 364.5H625.5V366L624.5 367L623 367.5H621L620.5 367H619V364.5H616.5L617 366L616.5 367.5L614.5 368H611.5V373H609ZM633.5 397.5V400L636 402L638 403L639 402.5L638.5 400.5L638 397.5H633.5ZM636 370V372.5L638 374.5V376L639 377H643L642 375V373.5H644L645 372.5L646 373.5L646.5 375H650.5V373.5L650 372.5L650.5 372H655.5L657.5 372.5L659.5 374.5L660 376L661 377H657.5L658 379.5L657.5 382.5H658L659.5 380.5L661 381.5V383V385L658 386V387L659 387.5L660 389L661 390.5L662 391.5L663.5 392.5L665 393H669V388.5V387H670C670 386.333 670.1 385 670.5 385C670.9 385 672.333 384.333 673 384L671.5 382L671 380V377.5L673 375.5V373L671.5 371L670 368.5L668 366L666.5 363.5L666 361L662.5 362L661 364L659 363L656 362.5L653 361L650 361.5L647.5 363C647 363.5 645.9 364.6 645.5 365C645.1 365.4 643 366.833 642 367.5L637.5 368L636 370ZM768.5 205.5V211.5L775.5 205.5H768.5ZM813 182V189L816.5 186L813 182ZM816.5 170.5V173L819.5 170.5H816.5ZM985 131.5L985.5 134.5H984L982 135L980.5 137L981 139L983 140.5L985.5 141H988L989.5 140.5H996V138L993.5 136L989.5 131.5H985ZM949 199L950.5 201.5L953 200.5V199H949ZM992.5 129.5C993.167 130.667 994.6 133.1 995 133.5C995.4 133.9 995.833 134.667 996 135L998.5 133.5L1000.5 130.5L1004.5 128.5V125.5L1002.5 122.5H1001.5V118.5H1003.5L1004.5 116V113L1001.5 111L995 105L992.5 101L991 97L989.5 93.5H988.5L988 95L983 99L978 103L976.5 105V106H974L973 107.5L970.5 110V113L971 115.5L972.5 117C972.667 118 973.2 120.1 974 120.5C974.8 120.9 975.333 122.333 975.5 123L977.5 125L983 125.5L984 127L989 127.5L991 128.5L992.5 129.5Z" stroke="black"/>
</g>
<g id="bengkulu">
<path d="M358.5 683C356.667 684.167 352.9 686.6 352.5 687L355 689L358 692.5L359.5 695.5L362 698.5L367.5 702.5L371.5 704L378.5 707L381.5 715L384.5 719.5L385 725L388 728.5L392.5 732.5L394 737.5L397.5 743L400.5 749L408.5 756.5L428 768.5L432 772L435.5 775.5L440.5 778L446.5 780.5L449.5 784.5L453 786.5L456.5 790L461 795V798L463 800L462 802.5L463 804.5L465 806.5L466.5 809.5L466 813.5L465 815.5L463.5 816L464 817.5L465 818.5L508.5 852L512 855.5L516.5 860L520 864.5L524.5 865.5L529.5 868L535 871.5L538.5 873.5L542 876L545 878L548 880L550.5 882.5L554 886L555 888L556 892.5L557.5 892H560L562 893L563.5 894.5L565 896.5L568 898.5L571 899L574.5 901.5L575.5 903H577H578.5L579 901.5L580 900.5L581.5 899L584 898L586.5 897L587.5 896H589L589.5 894.5V893V892H592.5L594.5 891.5L594 890L592.5 889H591L589.5 888.5L586 888L585.5 886L587 885.5C587.167 884.833 587.5 883.4 587.5 883V880.5C587.5 880.1 586.167 879 585.5 878.5L583.5 876.5H581.5C581.1 876.5 579.667 876.167 579 876V874.5L580.5 873L581.5 871.5L581 870L579 869L577 870L574.5 873.5H569.5C569.1 873.5 567 872.833 566 872.5C564.833 871.167 562.5 868.4 562.5 868C562.5 867.6 561.5 864.833 561 863.5L563 863L563.5 861V858L565 857.5L566 855.5L566.5 853.5L566 852.5L562.5 852L559.5 850.5L556 848.5C553.833 847.167 549.4 844.6 549 845C548.6 845.4 545.833 845.167 544.5 845L542 844.5V841L542.5 837L541 834.5L540 831L538 827.5V825L535 824H532C531.833 824.333 531.3 825 530.5 825H523C521.8 825 522.5 823.667 523 823C522 822.667 519.8 822 519 822C518.2 822 515.667 821.667 514.5 821.5L509 821L505 815.5L501.5 812.5L498.5 809C497.667 808.333 496 806.9 496 806.5C496 806.1 495 806 494.5 806L492 805.5V803.5C492 803 493.5 803 494 802.5L495.5 801L498.5 800L501.5 799L502.5 798V795.5L503.5 794V791.5L505 790L508.5 787.5V786.5L507.5 784.5L508.5 783L509 781.5V779.5L513.5 780L517 783L517.5 785L518.5 785.5L519.5 784.5L520.5 783.5V781L522 780L524.5 778L525.5 775.5V767.5L524 766.5H520.5C520 766.833 518.9 767.5 518.5 767.5C518.1 767.5 517 766.833 516.5 766.5V765.5C515.833 765.167 514.4 764.5 514 764.5C513.6 764.5 511.833 764.167 511 764C510 763.167 507.9 761.4 507.5 761C507.1 760.6 506.667 759.5 506.5 759L504 761L500 762L497 763L495 764.5L493 764L489 762L487 760.5L484.5 759L482 757L481 754.5L480.5 752L481 749.5L480.5 744L479.5 742L477.5 739.5L473.5 738.5L471.5 738L469 739.5L466 740L463.5 737.5C463.1 737.1 462 737 461.5 737L459.5 736L458 733V731L456.5 727.5L454 726L451.5 723.5L449.5 722.5L448.5 720V718L446 717L440.5 712L437.5 710C436.833 709.833 435.4 709.5 435 709.5C434.6 709.5 434.5 710.167 434.5 710.5H427.5L424 708L420.5 704L416.5 701L409.5 692.5C409 692.5 407.8 692.4 407 692C406.2 691.6 406.667 692.833 407 693.5H404.5H400.5C399.7 693.5 399.833 694.5 400 695L397.5 695.5L396.5 690.5L397.5 689L398 686C397.667 685.333 396.9 684 396.5 684C396.1 684 394.667 682.667 394 682L389 679L383.5 676L379.5 672.5L376.5 671H374.5L373 672L370 676L364.5 679L358.5 683Z" fill="#F2FF00"/>
<path d="M258.5 695.5V689L262.5 691.5L267.5 695.5L271 699.5L275 702L277 707L279 709L278 710.5L276 712L273 716.5H267.5H262.5L261 713.5L260.5 707V701L258.5 695.5Z" fill="#F2FF00"/>
<path d="M279 723L278 715L281.5 716.5L284 719.5L290 724L296 731L300.5 735.5V740V743.5H298L293.5 746.5C292.667 745.833 290.8 744.3 290 743.5C289.2 742.7 287 739.833 286 738.5L280.5 734L277 730L279 726.5V723Z" fill="#F2FF00"/>
<path d="M292.5 752C292.167 751.167 291.3 749.4 290.5 749L291 748L294 749.5L295 752H292.5Z" fill="#F2FF00"/>
<path d="M294.5 757.5L295 753.5L296.5 754L297 756.5L300 757.5L302 760C301.667 760.667 300.8 762 300 762C299 762 298 759.5 298 759C298 758.6 295.667 757.833 294.5 757.5Z" fill="#F2FF00"/>
<path d="M455.5 948.5C454.3 947.7 450.667 944.5 449 943V941L451.5 937.5L461 941L466.5 943L472 947L469.5 951.5C467.5 952 463 952.7 461 951.5C458.5 950 457 949.5 455.5 948.5Z" fill="#F2FF00"/>
<path d="M358.5 683C356.667 684.167 352.9 686.6 352.5 687L355 689L358 692.5L359.5 695.5L362 698.5L367.5 702.5L371.5 704L378.5 707L381.5 715L384.5 719.5L385 725L388 728.5L392.5 732.5L394 737.5L397.5 743L400.5 749L408.5 756.5L428 768.5L432 772L435.5 775.5L440.5 778L446.5 780.5L449.5 784.5L453 786.5L456.5 790L461 795V798L463 800L462 802.5L463 804.5L465 806.5L466.5 809.5L466 813.5L465 815.5L463.5 816L464 817.5L465 818.5L508.5 852L512 855.5L516.5 860L520 864.5L524.5 865.5L529.5 868L535 871.5L538.5 873.5L542 876L545 878L548 880L550.5 882.5L554 886L555 888L556 892.5L557.5 892H560L562 893L563.5 894.5L565 896.5L568 898.5L571 899L574.5 901.5L575.5 903H577H578.5L579 901.5L580 900.5L581.5 899L584 898L586.5 897L587.5 896H589L589.5 894.5V893V892H592.5L594.5 891.5L594 890L592.5 889H591L589.5 888.5L586 888L585.5 886L587 885.5C587.167 884.833 587.5 883.4 587.5 883V880.5C587.5 880.1 586.167 879 585.5 878.5L583.5 876.5H581.5C581.1 876.5 579.667 876.167 579 876V874.5L580.5 873L581.5 871.5L581 870L579 869L577 870L574.5 873.5H569.5C569.1 873.5 567 872.833 566 872.5C564.833 871.167 562.5 868.4 562.5 868C562.5 867.6 561.5 864.833 561 863.5L563 863L563.5 861V858L565 857.5L566 855.5L566.5 853.5L566 852.5L562.5 852L559.5 850.5L556 848.5C553.833 847.167 549.4 844.6 549 845C548.6 845.4 545.833 845.167 544.5 845L542 844.5V841L542.5 837L541 834.5L540 831L538 827.5V825L535 824H532C531.833 824.333 531.3 825 530.5 825H523C521.8 825 522.5 823.667 523 823C522 822.667 519.8 822 519 822C518.2 822 515.667 821.667 514.5 821.5L509 821L505 815.5L501.5 812.5L498.5 809C497.667 808.333 496 806.9 496 806.5C496 806.1 495 806 494.5 806L492 805.5V803.5C492 803 493.5 803 494 802.5L495.5 801L498.5 800L501.5 799L502.5 798V795.5L503.5 794V791.5L505 790L508.5 787.5V786.5L507.5 784.5L508.5 783L509 781.5V779.5L513.5 780L517 783L517.5 785L518.5 785.5L519.5 784.5L520.5 783.5V781L522 780L524.5 778L525.5 775.5V767.5L524 766.5H520.5C520 766.833 518.9 767.5 518.5 767.5C518.1 767.5 517 766.833 516.5 766.5V765.5C515.833 765.167 514.4 764.5 514 764.5C513.6 764.5 511.833 764.167 511 764C510 763.167 507.9 761.4 507.5 761C507.1 760.6 506.667 759.5 506.5 759L504 761L500 762L497 763L495 764.5L493 764L489 762L487 760.5L484.5 759L482 757L481 754.5L480.5 752L481 749.5L480.5 744L479.5 742L477.5 739.5L473.5 738.5L471.5 738L469 739.5L466 740L463.5 737.5C463.1 737.1 462 737 461.5 737L459.5 736L458 733V731L456.5 727.5L454 726L451.5 723.5L449.5 722.5L448.5 720V718L446 717L440.5 712L437.5 710C436.833 709.833 435.4 709.5 435 709.5C434.6 709.5 434.5 710.167 434.5 710.5H427.5L424 708L420.5 704L416.5 701L409.5 692.5C409 692.5 407.8 692.4 407 692C406.2 691.6 406.667 692.833 407 693.5H404.5H400.5C399.7 693.5 399.833 694.5 400 695L397.5 695.5L396.5 690.5L397.5 689L398 686C397.667 685.333 396.9 684 396.5 684C396.1 684 394.667 682.667 394 682L389 679L383.5 676L379.5 672.5L376.5 671H374.5L373 672L370 676L364.5 679L358.5 683Z" stroke="black"/>
<path d="M258.5 695.5V689L262.5 691.5L267.5 695.5L271 699.5L275 702L277 707L279 709L278 710.5L276 712L273 716.5H267.5H262.5L261 713.5L260.5 707V701L258.5 695.5Z" stroke="black"/>
<path d="M279 723L278 715L281.5 716.5L284 719.5L290 724L296 731L300.5 735.5V740V743.5H298L293.5 746.5C292.667 745.833 290.8 744.3 290 743.5C289.2 742.7 287 739.833 286 738.5L280.5 734L277 730L279 726.5V723Z" stroke="black"/>
<path d="M292.5 752C292.167 751.167 291.3 749.4 290.5 749L291 748L294 749.5L295 752H292.5Z" stroke="black"/>
<path d="M294.5 757.5L295 753.5L296.5 754L297 756.5L300 757.5L302 760C301.667 760.667 300.8 762 300 762C299 762 298 759.5 298 759C298 758.6 295.667 757.833 294.5 757.5Z" stroke="black"/>
<path d="M455.5 948.5C454.3 947.7 450.667 944.5 449 943V941L451.5 937.5L461 941L466.5 943L472 947L469.5 951.5C467.5 952 463 952.7 461 951.5C458.5 950 457 949.5 455.5 948.5Z" stroke="black"/>
</g>
<g id="b-sumatra">
<path d="M202.5 445.5L209 452.5L212 453.5H214.5L217.5 455L219.5 456L222.5 457L240 470.5L240.5 475H239V479.5L242.5 483.5L244 491L254.5 501.5L269.5 516.5L272.5 523L291.5 543.5L292 548L293 552L295.5 555L297 556.5L299 561C298.5 561.333 297.3 562 296.5 562C295.7 562 295.5 562.333 295.5 562.5L294.5 563.5L295.5 567V569C295.5 569.8 295.833 570.667 296 571H297L299.5 571.5L300 576L303 579.5L306.5 581L309.5 581.5L311.5 585V587.5L313.5 589.5L313 592L311.5 593.5V595L313.5 597L316.5 598.5V603L318.5 609.5L338 637L339 641.5V653L336 655.5L335 658L335.5 662L338 665L339 668L339.5 672L342 675.5L345.5 678.5L349.5 681.5L352 685L358.5 680.5L365.5 676L371 672.5L375 666.5V658.5L371 649L360 635.5L359.5 629.5C359.167 625.5 358.5 617.2 358.5 616V615L361.5 614V615H364V614H366.5V616L368.5 617H370.5V615L375 616L379.5 615L384 614H387C387.667 614.333 389.1 615 389.5 615H392.5L393 612C397.5 607.833 406.6 599.5 407 599.5C407.4 599.5 408.833 597.5 409.5 596.5L410.5 593L409.5 590L410.5 586.5V583.5L409 580.5L410.5 577L412.5 574.5L415.5 574L418.5 572.5L419.5 572L421.5 571.5L422 570.5L423.5 569L425.5 568C425.333 567.5 425.1 566.5 425.5 566.5C425.9 566.5 424.333 565.833 423.5 565.5L422 564.5C421.5 563.833 420.5 562.4 420.5 562C420.5 561.6 421.167 559.5 421.5 558.5L420.5 556.5L420 553L417.5 554L415.5 553C414.5 552.667 412.3 551.9 411.5 551.5C410.5 551 409 551 408.5 550.5C408 550 405.5 548 405 548C404.6 548 404.167 546.667 404 546L401.5 543.5C401 543 399 541 398.5 541C398.1 541 396 540.333 395 540L393 538L390.5 536L388 535L386 533.5L384 532L382 530C381.167 529 379.5 526.8 379.5 526C379.5 525 377 525 376.5 524C376 523 375 524 374.5 524C374.1 524 372.333 523 371.5 522.5C370.833 522 369.4 520.9 369 520.5C368.5 520 367 519 366.5 518.5C366 518 364.5 516.5 364.5 516C364.5 515.5 362.5 515 362 515C361.5 515 360.5 513.5 360 513C359.6 512.6 358.833 512.167 358.5 512L356.5 511.5L354.5 511L353 508.5L352 505.5L350.5 503.5V501.5L351.5 499.5L350.5 497.5L349 495C347.667 495.167 344.9 495.4 344.5 495C344.1 494.6 344 495.167 344 495.5L343 497.5L342.5 499.5L342 500L339 499C338.333 498.667 337 497.9 337 497.5C337 497.1 335 497.333 334 497.5C334 497.167 334.1 496.3 334.5 495.5C335 494.5 334 494 334 493C334 492.2 333 491.667 332.5 491.5C331.667 490.833 329.9 489.4 329.5 489C329.1 488.6 328.667 487.167 328.5 486.5V484C328.5 483.2 327.833 482 327.5 481.5L326.5 479V477L326 474.5C326 473.833 325.8 472.5 325 472.5C324.2 472.5 325.333 471.5 326 471L327.5 470.5V469V467.5V465.5L326.5 464.5V462V460V458C327 458 328.1 457.8 328.5 457C329 456 329.5 456.5 329.5 456V454.5V453L327.5 451H325H322.5L321 451.5L317.5 451H314C313.6 451 311.167 450.333 310 450C309.167 449.833 307.4 449.4 307 449C306.6 448.6 304.833 448.5 304 448.5L301.5 447.5C301 447.333 299.9 446.8 299.5 446C299.1 445.2 298.333 444.333 298 444L297 441.5L296 438.5L294 437C293.5 436.833 292.3 436.4 291.5 436C290.7 435.6 290.167 436.5 290 437L289 438.5H286.5C285.833 438.333 284.5 437.9 284.5 437.5V435V432V429.5L283.5 428L282.5 425L280.5 422.5L279 420L278.5 419L278 417.5C277.833 416.833 277.5 415.4 277.5 415C277.5 414.6 277.167 414.167 277 414L278 412L278.5 411V409.5L279.5 408L280.5 407L281.5 405.5L282 404C281.5 403.5 280.5 402.3 280.5 401.5C280.5 400.5 278.5 401 278 400.5C277.5 400 275.5 400 274 399.5C272.5 399 272.5 398.5 271 398.5C269.5 398.5 268.5 397.5 267.5 397C266.7 396.6 265.5 395.833 265 395.5C264.5 395.167 263.4 394.3 263 393.5C262.6 392.7 261.167 392.5 260.5 392.5C259.833 392.167 258.3 391.5 257.5 391.5C256.7 391.5 257.167 390.833 257.5 390.5L255 389.5L253.5 388.5L251.5 388L250.5 387H248L247 388.5V390.5L247.5 394.5V398.5L246 399.5V401.5V404H247H250.5L253.5 405L255 407V411L256 413L257.5 415.5V418.5V421.5L255 423.5L250.5 425L247 426.5C245.833 426.167 243.4 425.4 243 425C242.5 424.5 240 425.5 239 425.5C238.2 425.5 237.333 426.167 237 426.5C235.833 426.333 233.3 425.9 232.5 425.5C231.7 425.1 230.5 424 230 423.5L228 420.5L227 421.5H220.5H215L209 425.5L202.5 431V437.5H195L191 440.5V445.5H202.5Z" fill="#6600FF"/>
<path d="M150.5 452.5L156.5 455L154 457H150.5L149.5 458.5H144.5H140L135 457L131 456V452.5H135H144.5H146.5H150.5Z" fill="#6600FF"/>
<path d="M118.5 478L112.5 467H117L120.5 471.5L123.5 478L125.5 484.5L129.5 488.5L132 492.5L129.5 494.5L125.5 488.5L118.5 478Z" fill="#6600FF"/>
<path d="M117 506.5V498.5V496L120.5 494.5L121.5 492.5H123.5L125.5 496L126.5 498.5L125.5 501.5V506.5L123.5 512L121.5 514.5H117L112.5 512L114.5 509.5L117 506.5Z" fill="#6600FF"/>
<path d="M154 552H149.5H147H144L141.5 553V556V563L140 567.5L137 571.5L136.5 574.5L138 575.5L140 581C141.333 582.667 144.2 586.2 145 587C145.8 587.8 148.333 591.333 149.5 593L151.5 599L155.5 603.5L157.5 609.5L161.5 614.5L168 617.5L173 622L177 623.5L177.5 625.5H181L183.5 626V623.5H184.5H187L191 623L192.5 624.5V623V621.5C192.333 620.333 191.9 617.9 191.5 617.5C191.1 617.1 190.667 616 190.5 615.5L190 614.5C189.5 614 188.5 612.9 188.5 612.5C188.5 612.1 188.833 611.667 189 611.5L188.5 609L188 607V604.5C188 604.1 187.333 603 187 602.5L186 600.5L184.5 599L182 597L180.5 594.5V593.5H182L184.5 594.5V592.5L183 590.5L180.5 589.5L179.5 587.5L178.5 586.5V585L178 582.5H175.5L174.5 581C174.5 579.833 174.4 577.4 174 577C173.6 576.6 173.167 574.167 173 573L171.5 569.5L168.5 565C167.5 564 165.5 561.9 165.5 561.5C165.5 561.1 164.167 559.667 163.5 559L163 557L161.5 555L163 554L164.5 552.5L163.5 551L161.5 550L160 549.5L158.5 550L156 551L154 552Z" fill="#6600FF"/>
<path d="M192.5 611L191.5 609.5L191 609C190.6 608.6 191.833 608.5 192.5 608.5L193 609.5L194 611.5L195.5 615.5V617.5L194 615.5L193 612.5L192.5 611Z" fill="#6600FF"/>
<path d="M222 654C221.6 653.6 221.833 652.167 222 651.5V649.5C222.5 649.333 223.6 648.9 224 648.5C224.5 648 225 648.5 225.5 648C225.9 647.6 227 647.833 227.5 648L228.5 648.5L230.5 649.5L232 651.5L233 653V654.5L233.5 658L233 659C233.5 659.833 234.6 661.6 235 662C235.4 662.4 236.167 663.833 236.5 664.5C236.833 664.833 237.6 665.5 238 665.5C238.4 665.5 238.833 666.5 239 667C239 667.5 239.1 668.6 239.5 669C240 669.5 240 670.5 241 670.5C242 670.5 241.5 671 242.5 671.5C243.5 672 244 672.5 244.5 673C244.9 673.4 245 674.167 245 674.5C244.667 674.833 243.9 675.4 243.5 675L242.5 674C242 673.5 242 673 241.5 673C241 673 240.5 673.5 239 674C237.5 674.5 237 673.5 236.5 673C236 672.5 236 671.5 235 670.5C234.2 669.7 232.333 668.833 231.5 668.5C230.667 668.167 228.8 667.3 228 666.5C227.2 665.7 226 664.833 225.5 664.5L223 662C222.167 661.333 220.5 659.9 220.5 659.5C220.5 659 220 658.5 220.5 658C220.9 657.6 222 657.833 222.5 658L223.5 656.5C223.167 655.833 222.4 654.4 222 654Z" fill="#6600FF"/>
<path d="M202.5 445.5L209 452.5L212 453.5H214.5L217.5 455L219.5 456L222.5 457L240 470.5L240.5 475H239V479.5L242.5 483.5L244 491L254.5 501.5L269.5 516.5L272.5 523L291.5 543.5L292 548L293 552L295.5 555L297 556.5L299 561C298.5 561.333 297.3 562 296.5 562C295.7 562 295.5 562.333 295.5 562.5L294.5 563.5L295.5 567V569C295.5 569.8 295.833 570.667 296 571H297L299.5 571.5L300 576L303 579.5L306.5 581L309.5 581.5L311.5 585V587.5L313.5 589.5L313 592L311.5 593.5V595L313.5 597L316.5 598.5V603L318.5 609.5L338 637L339 641.5V653L336 655.5L335 658L335.5 662L338 665L339 668L339.5 672L342 675.5L345.5 678.5L349.5 681.5L352 685L358.5 680.5L365.5 676L371 672.5L375 666.5V658.5L371 649L360 635.5L359.5 629.5C359.167 625.5 358.5 617.2 358.5 616V615L361.5 614V615H364V614H366.5V616L368.5 617H370.5V615L375 616L379.5 615L384 614H387C387.667 614.333 389.1 615 389.5 615H392.5L393 612C397.5 607.833 406.6 599.5 407 599.5C407.4 599.5 408.833 597.5 409.5 596.5L410.5 593L409.5 590L410.5 586.5V583.5L409 580.5L410.5 577L412.5 574.5L415.5 574L418.5 572.5L419.5 572L421.5 571.5L422 570.5L423.5 569L425.5 568C425.333 567.5 425.1 566.5 425.5 566.5C425.9 566.5 424.333 565.833 423.5 565.5L422 564.5C421.5 563.833 420.5 562.4 420.5 562C420.5 561.6 421.167 559.5 421.5 558.5L420.5 556.5L420 553L417.5 554L415.5 553C414.5 552.667 412.3 551.9 411.5 551.5C410.5 551 409 551 408.5 550.5C408 550 405.5 548 405 548C404.6 548 404.167 546.667 404 546L401.5 543.5C401 543 399 541 398.5 541C398.1 541 396 540.333 395 540L393 538L390.5 536L388 535L386 533.5L384 532L382 530C381.167 529 379.5 526.8 379.5 526C379.5 525 377 525 376.5 524C376 523 375 524 374.5 524C374.1 524 372.333 523 371.5 522.5C370.833 522 369.4 520.9 369 520.5C368.5 520 367 519 366.5 518.5C366 518 364.5 516.5 364.5 516C364.5 515.5 362.5 515 362 515C361.5 515 360.5 513.5 360 513C359.6 512.6 358.833 512.167 358.5 512L356.5 511.5L354.5 511L353 508.5L352 505.5L350.5 503.5V501.5L351.5 499.5L350.5 497.5L349 495C347.667 495.167 344.9 495.4 344.5 495C344.1 494.6 344 495.167 344 495.5L343 497.5L342.5 499.5L342 500L339 499C338.333 498.667 337 497.9 337 497.5C337 497.1 335 497.333 334 497.5C334 497.167 334.1 496.3 334.5 495.5C335 494.5 334 494 334 493C334 492.2 333 491.667 332.5 491.5C331.667 490.833 329.9 489.4 329.5 489C329.1 488.6 328.667 487.167 328.5 486.5V484C328.5 483.2 327.833 482 327.5 481.5L326.5 479V477L326 474.5C326 473.833 325.8 472.5 325 472.5C324.2 472.5 325.333 471.5 326 471L327.5 470.5V469V467.5V465.5L326.5 464.5V462V460V458C327 458 328.1 457.8 328.5 457C329 456 329.5 456.5 329.5 456V454.5V453L327.5 451H325H322.5L321 451.5L317.5 451H314C313.6 451 311.167 450.333 310 450C309.167 449.833 307.4 449.4 307 449C306.6 448.6 304.833 448.5 304 448.5L301.5 447.5C301 447.333 299.9 446.8 299.5 446C299.1 445.2 298.333 444.333 298 444L297 441.5L296 438.5L294 437C293.5 436.833 292.3 436.4 291.5 436C290.7 435.6 290.167 436.5 290 437L289 438.5H286.5C285.833 438.333 284.5 437.9 284.5 437.5V435V432V429.5L283.5 428L282.5 425L280.5 422.5L279 420L278.5 419L278 417.5C277.833 416.833 277.5 415.4 277.5 415C277.5 414.6 277.167 414.167 277 414L278 412L278.5 411V409.5L279.5 408L280.5 407L281.5 405.5L282 404C281.5 403.5 280.5 402.3 280.5 401.5C280.5 400.5 278.5 401 278 400.5C277.5 400 275.5 400 274 399.5C272.5 399 272.5 398.5 271 398.5C269.5 398.5 268.5 397.5 267.5 397C266.7 396.6 265.5 395.833 265 395.5C264.5 395.167 263.4 394.3 263 393.5C262.6 392.7 261.167 392.5 260.5 392.5C259.833 392.167 258.3 391.5 257.5 391.5C256.7 391.5 257.167 390.833 257.5 390.5L255 389.5L253.5 388.5L251.5 388L250.5 387H248L247 388.5V390.5L247.5 394.5V398.5L246 399.5V401.5V404H247H250.5L253.5 405L255 407V411L256 413L257.5 415.5V418.5V421.5L255 423.5L250.5 425L247 426.5C245.833 426.167 243.4 425.4 243 425C242.5 424.5 240 425.5 239 425.5C238.2 425.5 237.333 426.167 237 426.5C235.833 426.333 233.3 425.9 232.5 425.5C231.7 425.1 230.5 424 230 423.5L228 420.5L227 421.5H220.5H215L209 425.5L202.5 431V437.5H195L191 440.5V445.5H202.5Z" stroke="black"/>
<path d="M150.5 452.5L156.5 455L154 457H150.5L149.5 458.5H144.5H140L135 457L131 456V452.5H135H144.5H146.5H150.5Z" stroke="black"/>
<path d="M118.5 478L112.5 467H117L120.5 471.5L123.5 478L125.5 484.5L129.5 488.5L132 492.5L129.5 494.5L125.5 488.5L118.5 478Z" stroke="black"/>
<path d="M117 506.5V498.5V496L120.5 494.5L121.5 492.5H123.5L125.5 496L126.5 498.5L125.5 501.5V506.5L123.5 512L121.5 514.5H117L112.5 512L114.5 509.5L117 506.5Z" stroke="black"/>
<path d="M154 552H149.5H147H144L141.5 553V556V563L140 567.5L137 571.5L136.5 574.5L138 575.5L140 581C141.333 582.667 144.2 586.2 145 587C145.8 587.8 148.333 591.333 149.5 593L151.5 599L155.5 603.5L157.5 609.5L161.5 614.5L168 617.5L173 622L177 623.5L177.5 625.5H181L183.5 626V623.5H184.5H187L191 623L192.5 624.5V623V621.5C192.333 620.333 191.9 617.9 191.5 617.5C191.1 617.1 190.667 616 190.5 615.5L190 614.5C189.5 614 188.5 612.9 188.5 612.5C188.5 612.1 188.833 611.667 189 611.5L188.5 609L188 607V604.5C188 604.1 187.333 603 187 602.5L186 600.5L184.5 599L182 597L180.5 594.5V593.5H182L184.5 594.5V592.5L183 590.5L180.5 589.5L179.5 587.5L178.5 586.5V585L178 582.5H175.5L174.5 581C174.5 579.833 174.4 577.4 174 577C173.6 576.6 173.167 574.167 173 573L171.5 569.5L168.5 565C167.5 564 165.5 561.9 165.5 561.5C165.5 561.1 164.167 559.667 163.5 559L163 557L161.5 555L163 554L164.5 552.5L163.5 551L161.5 550L160 549.5L158.5 550L156 551L154 552Z" stroke="black"/>
<path d="M192.5 611L191.5 609.5L191 609C190.6 608.6 191.833 608.5 192.5 608.5L193 609.5L194 611.5L195.5 615.5V617.5L194 615.5L193 612.5L192.5 611Z" stroke="black"/>
<path d="M222 654C221.6 653.6 221.833 652.167 222 651.5V649.5C222.5 649.333 223.6 648.9 224 648.5C224.5 648 225 648.5 225.5 648C225.9 647.6 227 647.833 227.5 648L228.5 648.5L230.5 649.5L232 651.5L233 653V654.5L233.5 658L233 659C233.5 659.833 234.6 661.6 235 662C235.4 662.4 236.167 663.833 236.5 664.5C236.833 664.833 237.6 665.5 238 665.5C238.4 665.5 238.833 666.5 239 667C239 667.5 239.1 668.6 239.5 669C240 669.5 240 670.5 241 670.5C242 670.5 241.5 671 242.5 671.5C243.5 672 244 672.5 244.5 673C244.9 673.4 245 674.167 245 674.5C244.667 674.833 243.9 675.4 243.5 675L242.5 674C242 673.5 242 673 241.5 673C241 673 240.5 673.5 239 674C237.5 674.5 237 673.5 236.5 673C236 672.5 236 671.5 235 670.5C234.2 669.7 232.333 668.833 231.5 668.5C230.667 668.167 228.8 667.3 228 666.5C227.2 665.7 226 664.833 225.5 664.5L223 662C222.167 661.333 220.5 659.9 220.5 659.5C220.5 659 220 658.5 220.5 658C220.9 657.6 222 657.833 222.5 658L223.5 656.5C223.167 655.833 222.4 654.4 222 654Z" stroke="black"/>
</g>
<g id="aceh">
<path d="M1 161.5V5V3.5H3.5L5 6.5L6.5 9.5H9.5H11.5H13L18 8.5L22 6.5L29 3.5L35.5 1H40L41.5 3.5L45.5 9.5L49 12L52 17L66.5 29.5L74 35.5L77.5 44L79 51.5L81 55V58.5L79 61.5L81 65H85H88.5L91.5 66H94.5L99 69.5L104 72.5L106 76V83.5H102H96L93 86.5H87.5V90.5L85 102.5L82.5 113L76 117.5L72.5 119.5L74 124.5L70.5 128L65 134.5V139L68.5 144L70.5 150L74 153.5L76 161.5L77.5 166L81 167L83.5 171L81 174.5C79.3333 174.5 75.6 174.7 74 175.5C72.4 176.3 71 176.833 70.5 177L72.5 179.5L76 181.5L77.5 187L79 190.5L77.5 192.5L76 195V197.5V206L79 210L82.5 212L85 215L89 218V220V226L91 229.5L89 230.5V237.5V243.5L91 247.5L92.5 251.5L94.5 254.5L96 257.5L98 261.5L97 265.5L96 272H94.5L91 270L87.5 268L83.5 266.5L79 265L76 262.5H72.5L68.5 265C66.8333 265.167 63.3 265.4 62.5 265C61.7 264.6 60.5 263.167 60 262.5V260L57.5 257.5L55 254.5L53.5 252.5V223.5H51.5V220L50.5 215L48.5 211L46 208H41.5L39.5 206H34.5L30.5 203.5L25.5 197.5L22 192.5L20 187L19 181.5L16 177H12L9 174.5L7 171L5.5 167L1 161.5Z" fill="#FF0000"/>
<path d="M17 277L14 272.5L15 269.5H17L18.5 271L20.5 274L22.5 276L23 277.5L22.5 281L20.5 280.5L17 277Z" fill="#FF0000"/>
<path d="M5.5 282L4 280.5L3.5 281L1 283.5L2.5 284H5L5.5 282Z" fill="#FF0000"/>
<path d="M1 161.5V5V3.5H3.5L5 6.5L6.5 9.5H9.5H11.5H13L18 8.5L22 6.5L29 3.5L35.5 1H40L41.5 3.5L45.5 9.5L49 12L52 17L66.5 29.5L74 35.5L77.5 44L79 51.5L81 55V58.5L79 61.5L81 65H85H88.5L91.5 66H94.5L99 69.5L104 72.5L106 76V83.5H102H96L93 86.5H87.5V90.5L85 102.5L82.5 113L76 117.5L72.5 119.5L74 124.5L70.5 128L65 134.5V139L68.5 144L70.5 150L74 153.5L76 161.5L77.5 166L81 167L83.5 171L81 174.5C79.3333 174.5 75.6 174.7 74 175.5C72.4 176.3 71 176.833 70.5 177L72.5 179.5L76 181.5L77.5 187L79 190.5L77.5 192.5L76 195V197.5V206L79 210L82.5 212L85 215L89 218V220V226L91 229.5L89 230.5V237.5V243.5L91 247.5L92.5 251.5L94.5 254.5L96 257.5L98 261.5L97 265.5L96 272H94.5L91 270L87.5 268L83.5 266.5L79 265L76 262.5H72.5L68.5 265C66.8333 265.167 63.3 265.4 62.5 265C61.7 264.6 60.5 263.167 60 262.5V260L57.5 257.5L55 254.5L53.5 252.5V223.5H51.5V220L50.5 215L48.5 211L46 208H41.5L39.5 206H34.5L30.5 203.5L25.5 197.5L22 192.5L20 187L19 181.5L16 177H12L9 174.5L7 171L5.5 167L1 161.5Z" stroke="black"/>
<path d="M17 277L14 272.5L15 269.5H17L18.5 271L20.5 274L22.5 276L23 277.5L22.5 281L20.5 280.5L17 277Z" stroke="black"/>
<path d="M5.5 282L4 280.5L3.5 281L1 283.5L2.5 284H5L5.5 282Z" stroke="black"/>
</g>
<g id="u-sumatra">
<path d="M102.5 85.5C102.1 84.7 98.6667 85.8333 97 86.5L93.5 89.5L91.5 93L89.5 96.5L88 104.5L86.5 112.5L85 114.5L81 118.5L79.5 119.5L77.5 121L76 127H74.5L68.5 133.5L66.5 134.5V136.5L68.5 139.5L71 143L72.5 147L74.5 150L77.5 154.5L81 156L79.5 158.5V161.5L81 164L86.5 170L85 173.5L82 176L77.5 177.5V181L79.5 185.5L82 188.5V193L79.5 195V200.5L81 207.5L85 208.5L86.5 213.5H89.5L94 217V221H92V225L95 227V231L92 232V234.5L91 238L92 243.5L94 248L97.5 250L99 253.5L101 258V263.5L99 270.5L97.5 276L101 277.5L104 281L107.5 283H113L116.5 285.5L122 287L127.5 292.5L138 302.5L140.5 306.5H143.5L147 305L152 311L158 316.5L158.5 319.5L157 324L152 329.5V332L154 339L158.5 345V350L161 358L165.5 369L168 378.5L171 385V391.5L173 393L175.5 396.5L177.5 400.5L178 409L181 412.5L182 417.5L183.5 424V431.5L184.5 436L186 440.5L190 438.5L193.5 434.5H197.5H200V433L202.5 428.5L205 422.5L208 420.5L211.5 419L214.5 417.5H216.5L219.5 419H223.5L226.5 415.5L228.5 417.5L231 419.5L232 422.5L233.5 424H236L238.5 422.5H241.5L244 424H245.5L250.5 422.5L253.5 420.5L254.5 419V415.5L253.5 413.5L252 411.5L250.5 408H247.5L245.5 406L244 401.5V399V396.5L245.5 393L244 390V387L245.5 385H247.5H250.5L269.5 394.5L270.5 393C270.5 392.167 270.3 389.8 269.5 387C269.5 385.8 267.833 386.5 267 387V383V381.5L268 380.5H271.5V376.5L269.5 372.5L268 369L270.5 368C271.667 367.167 273.8 365.2 273 364C272 362.5 271.5 362.5 270.5 362C269.7 361.6 269.5 358.5 269.5 357L268 351L266 347.5L264 345L266 343L270.5 341.5H277.5L282 340.5L284 339L285.5 335.5L287 333.5L290.5 335.5L291.5 336.5L296 335.5L297 333.5V329.5V326.5H299V322.5V319.5L297 317.5L296 315L297 312.5L296 309.5H292.5L285.5 308V305L284 301.5L287 298.5L288.5 295V289V283L289 278.5L290.5 276V270V266L288.5 262L287 259L286.5 256V251.5L287 249V247L287.5 244.5L288.5 243C288.667 242.667 289 241.9 289 241.5C289 241 287.5 240 287 239.5C286.5 239 284.5 236 284 235.5C283.6 235.1 281.167 233 280 232V227.5L275.5 227L274 228.5L272.5 229.5H269.5L268.5 228L267 225.5C266.167 225 264.4 224 264 224C263.6 224 262.5 224.667 262 225L261 226L259.5 227L257.5 223L258.5 221V208.5L258 206C257 205.167 254.9 203.5 254.5 203.5C254 203.5 252.5 202.5 252 202.5C251.6 202.5 251.5 201.5 251.5 201V200H249.5V201H247V197.5C244.5 194.333 239.4 187.9 239 187.5C238.5 187 234 183.5 233.5 183C233.1 182.6 230 181.5 228.5 181L220 179L213.5 170L210 167.5L203 164L199 161.5L193.5 156L184.5 151L179.5 148L174 144.5L168 141.5L166 140.5L164 140H161L158.5 139.5L155.5 138L153.5 137L151.5 136.5L150.5 134.5L149.5 133.5V132L144 131.5V127L143 122V121L140.5 119.5H136.5L133.5 118.5L131.5 117L130.5 114.5V112.5L129.5 111.5V110.5H128.5H124.5V108.5H120.5L120 107L117.5 105L109 104.5L107.5 102L106 100.5H102.5L101.5 102.5H98.5H96.5V96.5L97.5 95.5L100 93.5L104 93V89.5C103.667 88.5 102.9 86.3 102.5 85.5Z" fill="#00FF8C"/>
<path d="M144.5 311L143.5 310H146V311H144.5Z" fill="#00FF8C"/>
<path d="M122 319L124 316.5L127 317.5L125 319.5L122 319Z" fill="#00FF8C"/>
<path d="M11 350L4.5 342.5H8.5H16L20.5 339L25.5 334.5L29 333.5L32 336.5H35L38.5 341L44 350L49.5 356L53 363L61 365L65.5 367L68.5 372.5L72 374.5L74 376.5L75.5 382L71.5 385V391.5V400.5V409L68.5 415.5H61C59 415.5 56 412.5 55 412.5C54.2 412.5 53.3333 407.167 53 404.5C51.6667 401.833 48.7 395.8 47.5 393C46.3 390.2 41.6667 386.5 39.5 385L29.5 382V376C28.1667 373.667 25.2 368.6 24 367C22.8 365.4 14.8333 355 11 350Z" fill="#00FF8C"/>
<path d="M102.5 85.5C102.1 84.7 98.6667 85.8333 97 86.5L93.5 89.5L91.5 93L89.5 96.5L88 104.5L86.5 112.5L85 114.5L81 118.5L79.5 119.5L77.5 121L76 127H74.5L68.5 133.5L66.5 134.5V136.5L68.5 139.5L71 143L72.5 147L74.5 150L77.5 154.5L81 156L79.5 158.5V161.5L81 164L86.5 170L85 173.5L82 176L77.5 177.5V181L79.5 185.5L82 188.5V193L79.5 195V200.5L81 207.5L85 208.5L86.5 213.5H89.5L94 217V221H92V225L95 227V231L92 232V234.5L91 238L92 243.5L94 248L97.5 250L99 253.5L101 258V263.5L99 270.5L97.5 276L101 277.5L104 281L107.5 283H113L116.5 285.5L122 287L127.5 292.5L138 302.5L140.5 306.5H143.5L147 305L152 311L158 316.5L158.5 319.5L157 324L152 329.5V332L154 339L158.5 345V350L161 358L165.5 369L168 378.5L171 385V391.5L173 393L175.5 396.5L177.5 400.5L178 409L181 412.5L182 417.5L183.5 424V431.5L184.5 436L186 440.5L190 438.5L193.5 434.5H197.5H200V433L202.5 428.5L205 422.5L208 420.5L211.5 419L214.5 417.5H216.5L219.5 419H223.5L226.5 415.5L228.5 417.5L231 419.5L232 422.5L233.5 424H236L238.5 422.5H241.5L244 424H245.5L250.5 422.5L253.5 420.5L254.5 419V415.5L253.5 413.5L252 411.5L250.5 408H247.5L245.5 406L244 401.5V399V396.5L245.5 393L244 390V387L245.5 385H247.5H250.5L269.5 394.5L270.5 393C270.5 392.167 270.3 389.8 269.5 387C269.5 385.8 267.833 386.5 267 387V383V381.5L268 380.5H271.5V376.5L269.5 372.5L268 369L270.5 368C271.667 367.167 273.8 365.2 273 364C272 362.5 271.5 362.5 270.5 362C269.7 361.6 269.5 358.5 269.5 357L268 351L266 347.5L264 345L266 343L270.5 341.5H277.5L282 340.5L284 339L285.5 335.5L287 333.5L290.5 335.5L291.5 336.5L296 335.5L297 333.5V329.5V326.5H299V322.5V319.5L297 317.5L296 315L297 312.5L296 309.5H292.5L285.5 308V305L284 301.5L287 298.5L288.5 295V289V283L289 278.5L290.5 276V270V266L288.5 262L287 259L286.5 256V251.5L287 249V247L287.5 244.5L288.5 243C288.667 242.667 289 241.9 289 241.5C289 241 287.5 240 287 239.5C286.5 239 284.5 236 284 235.5C283.6 235.1 281.167 233 280 232V227.5L275.5 227L274 228.5L272.5 229.5H269.5L268.5 228L267 225.5C266.167 225 264.4 224 264 224C263.6 224 262.5 224.667 262 225L261 226L259.5 227L257.5 223L258.5 221V208.5L258 206C257 205.167 254.9 203.5 254.5 203.5C254 203.5 252.5 202.5 252 202.5C251.6 202.5 251.5 201.5 251.5 201V200H249.5V201H247V197.5C244.5 194.333 239.4 187.9 239 187.5C238.5 187 234 183.5 233.5 183C233.1 182.6 230 181.5 228.5 181L220 179L213.5 170L210 167.5L203 164L199 161.5L193.5 156L184.5 151L179.5 148L174 144.5L168 141.5L166 140.5L164 140H161L158.5 139.5L155.5 138L153.5 137L151.5 136.5L150.5 134.5L149.5 133.5V132L144 131.5V127L143 122V121L140.5 119.5H136.5L133.5 118.5L131.5 117L130.5 114.5V112.5L129.5 111.5V110.5H128.5H124.5V108.5H120.5L120 107L117.5 105L109 104.5L107.5 102L106 100.5H102.5L101.5 102.5H98.5H96.5V96.5L97.5 95.5L100 93.5L104 93V89.5C103.667 88.5 102.9 86.3 102.5 85.5Z" stroke="black"/>
<path d="M144.5 311L143.5 310H146V311H144.5Z" stroke="black"/>
<path d="M122 319L124 316.5L127 317.5L125 319.5L122 319Z" stroke="black"/>
<path d="M11 350L4.5 342.5H8.5H16L20.5 339L25.5 334.5L29 333.5L32 336.5H35L38.5 341L44 350L49.5 356L53 363L61 365L65.5 367L68.5 372.5L72 374.5L74 376.5L75.5 382L71.5 385V391.5V400.5V409L68.5 415.5H61C59 415.5 56 412.5 55 412.5C54.2 412.5 53.3333 407.167 53 404.5C51.6667 401.833 48.7 395.8 47.5 393C46.3 390.2 41.6667 386.5 39.5 385L29.5 382V376C28.1667 373.667 25.2 368.6 24 367C22.8 365.4 14.8333 355 11 350Z" stroke="black"/>
</g>
<g id="s-sumatra">
<path d="M447 715V713L450.5 710L453.5 708.5H457L459 705.5L460 703.5L461 702.5L462 700L464 702H465.5L470.5 704L475 706.5C476.667 707.167 480.2 708.5 481 708.5C481.8 708.5 483.667 707.167 484.5 706.5L491.5 705.5L493 703.5L497.5 699.5L501 696.5C502.667 695.833 506.2 694.5 507 694.5C507.8 694.5 509.667 692.167 510.5 691V689L512 686.5L514 684.5V683L516.5 682V680V677.5L515 676.5V674H518H521H524.5C524.9 674 527.667 675.333 529 676L536.5 676.5L538.5 677L540.5 676L542.5 675L545 674C545.333 673.333 546 671.8 546 671C546 670 545.5 670 546 669C546.5 668 545 666.5 544.5 666C544 665.5 543.5 664 544 664C544.5 664 544 661.5 545 661.5C545.8 661.5 547 660.167 547.5 659.5H550.5V664C550.5 665.2 552.167 665.167 553 665L555.5 668L558 669.5L561 673L565 676L567.5 676.5C567.667 676.167 568 675.4 568 675V672C568 671.5 569 670.5 569.5 670C569.9 669.6 569.667 668.5 569.5 668L569 666L568.5 665C568.5 664.333 568.4 662.9 568 662.5C567.6 662.1 569.167 661.667 570 661.5H572L575.5 659L576.5 657.5L578 656.5L576.5 654.5H574V652L575.5 649.5L577 647.5L578 644.5L576.5 642.5L571 638L568.5 637V635L569 633.5H571H572.5L574 634.5L576.5 635L578 633.5L579 631L581 629C582.667 628.833 586.3 628.4 587.5 628C588.7 627.6 596 627.833 599.5 628H603L604 627C604.5 626.5 605.6 625.5 606 625.5C606.4 625.5 607.833 624.5 608.5 624L610 625L612 626.5L614 628H617H620.5L624 627L628 625.5L631 625C632.833 624.5 636.7 623.4 637.5 623C638.3 622.6 639.833 623.5 640.5 624L642.5 625H645L647 624L647.5 622V620L648.5 616.5L649 613.5L650.5 612.5L654.5 613.5L658 615L661 617.5L663.5 620.5L662 624L659 627L656.5 630.5L655.5 635L656.5 638L659 639H661L662 638L663 635L663.5 633H665.5L668.5 634L671.5 635V637L670 639L668.5 642L670.5 643.5H674C675.167 643.833 677.7 644.5 678.5 644.5C679.3 644.5 681.833 644.833 683 645L687.5 644.5L690.5 646.5L694 649L695.5 655.5L694 659L692.5 661L689.5 664V667.5L690.5 670L693 671H695.5L697 673L695.5 675.5L695 678L696.5 680L698.5 681L699.5 680L699 678L700 675.5H701H705.5L707.5 678H710L713.5 678.5L715.5 678L719 677L721.5 675.5H724.5L728 677L730.5 678H736L740 679.5L742.5 680H750.5L753 682L757.5 681L758.5 683V685.5L757.5 689L756.5 693.5L757.5 699.5L761 702.5L764 704.5L767.5 706C768.333 706.167 770.2 706.4 771 706C771.8 705.6 772.333 706.5 772.5 707L773.5 709.5V713V716L772.5 720L773.5 722L775.5 725.5L778.5 727.5L780.5 730L782.5 730.5H785H788.5L791.5 731H793.5H795L796.5 735L797.5 739C797.5 740.167 797.3 742.6 796.5 743C795.7 743.4 796.167 744.833 796.5 745.5L797.5 748.5L799 750L799.5 751.5V754.5L797.5 755L795 756.5L792 758.5L788.5 762L786 765.5L783.5 769.5L781.5 772L780.5 775L779.5 779L777 781.5V784L776.5 789L775.5 793L777 796L778 799L779.5 800.5L782.5 801L785 802.5L787 804.5L788 806.5L788.5 808.5L787 810.5L785.5 813L784 816L782.5 819L780.5 821V823L779.5 825V829V832L778 832.5L777 832L775.5 831H774H772.5V832.5C771.833 832.5 770.3 832.4 769.5 832C768.7 831.6 767.833 830.5 767.5 830L766.5 827.5L763.5 825L761 824L760.5 821.5V820L759 816.5V815L757 813L753.5 809.5C752.667 808.833 750.8 807.3 750 806.5C749 805.5 748 806 747 805.5L745 804.5L743.5 802.5L742 801L739 800.5C738.5 800.667 737.4 800.9 737 800.5C736.6 800.1 736.833 799.333 737 799L735 797L733.5 796L731.5 797L730.5 799L729.5 802.5L728 804L727.5 809.5L726 810.5C724.667 811 721.9 812 721.5 812C721.1 812 719.667 812.333 719 812.5L716.5 814.5L714.5 819.5L712 824L710 827.5L708 831L705.5 836L701 836.5L697.5 837.5L694.5 839.5C693.833 840.167 692.4 841.5 692 841.5H688.5C688.167 842 687.4 843 687 843H679.5H675C674.5 842.667 673.3 842 672.5 842C671.7 842 671.167 841 671 840.5L670 839.5V841.5L667.5 842L662.5 844.5L657.5 846.5L653 848.5L651 851.5L646.5 855L644 858.5L643 862L642 866V869L643 870.5L644 872.5V875.5L642 877L640.5 878.5V880.5V885C640.5 885.4 640.833 886.833 641 887.5L642 892L644 894.5L645 896V898L643 897.5L640.5 898L637.5 898.5L635 897.5H632V898.5L631 899.5L630 901.5C629.667 901.833 628.9 902.5 628.5 902.5H624.5L623 900.5L620.5 899.5L619.5 901L617 902.5L613.5 901L610.5 899.5L608 900.5V901H605.5V899.5L604 896L601.5 893L599.5 892L597.5 891C597 889.5 595.9 886.5 595.5 886.5H593L591 885C590.667 883.667 590 880.9 590 880.5C590 880.1 589 879 588.5 878.5C587.833 877.5 586.4 875.5 586 875.5C585.6 875.5 584.833 874.833 584.5 874.5L584 873.5L584.5 871L582.5 869L580 867.5L578 868L575 869.5L573.5 871H569.5L567 869L565 867.5V865L565.5 862.5C565.833 861.667 566.5 859.9 566.5 859.5C566.5 859.1 566.833 858 567 857.5L567.5 856L569 855L569.5 853.5L569 851L567 850L565 849.5L561 848L557.5 847L555 844C553.833 843.833 551.4 843.4 551 843C550.6 842.6 548.5 842.167 547.5 842L545.5 841.5L544.5 837.5L543.5 834.5L542 832L541 829.5C541.167 828.5 541.4 826.4 541 826L539 824L537 822.5C536.333 822.333 534.9 821.9 534.5 821.5C534.1 821.1 532.667 821.667 532 822H528L524 821.5C523.5 821.167 522.3 820.4 521.5 820C520.7 819.6 520.833 819.5 521 819.5L517.5 818L517 819H513.5L511 818L509 815.5L499 806L498 805L497 803.5L498 802.5L500 801.5L502.5 801L504.5 799.5V796L505.5 793.5L507 791.5L509 789.5L510 788V786V784L511 783.5L512 782.5L513.5 783.5L515 785L517 788.5H518.5L520 788L521.5 786L522.5 785V782.5L527 779L527.5 777V773V769.5L527 766L525 764.5H522.5H520C519.6 764.5 518.833 764.167 518.5 764L517 761.5H515.5H511V760.5L509 758.5C508.6 758.1 507.5 757.333 507 757L504.5 757.5L502.5 759L498.5 760.5C497.333 760.833 494.9 761.5 494.5 761.5H491C491 760.833 490.8 759.4 490 759L484 756L483 753.5V750V744.5L481 740L479 737.5L475.5 736.5L472 736L470 736.5L467 737.5L464.5 736L461.5 734.5L460 730.5L459 726L456 724L453 722L451.5 719.5L449.5 716L447 715Z" fill="#05B8FF"/>
<path d="M715.5 643.5L717 648V649H719H722.5L725 648.5L728 650.5V653.5L730 654.5L731.5 655.5L733.5 654.5L736 654H739H741.5H744L744.5 652.5L748 651.5L749 650.5L752 650L751.5 647.5V644L753 643.5L754.5 642.5H757.5H759.5L758 644L756 645.5L754 646L754.5 648L756 648.5V650L756.5 652.5L758.5 653.5H763H766L770 654.5L772 656.5L774.5 657.5L776 660.179L775.5 663L778 664.5L775.5 665L776 668L778 670L778.5 672L777 674.5L776.5 677L780 680H782.5L785.5 681L787.5 685.5L788.5 691L787 692.5L786 694.5L784.5 696.5L784 699.5L785 702L786 706.5L789.5 712.5L792 715L797 716L801 716.5L803 717.5L806 719.5L809.5 720L812 721.5L815.5 722.5L817.5 723.5L821 725.5L822 727.5L824 729.5L826.5 729L831 729.5L832 731.5L834.5 733.5L837 735V738L837.5 741.5H839.5L840.5 740H843L844.5 739L845.5 738L847 739.5L848 739H849.5L851.5 740H853H855L857 739.5L857.5 739V737L857 735L856.5 734H854.5L853.5 733.5L853 732L850 731.5L848 731L846 730.5L845.5 730L844.5 729L845 727.5L844.5 724.5V722L846 720L846.5 718L848 714L850 710L850.5 707L853 703L856.5 699.5L858.5 698L859.5 696H861H862V694.5H861H858.5H856.5C856 694.167 854.9 693.5 854.5 693.5H850.5L846 691.5L843 691H840.5L837 690C836.833 689.667 836.4 689 836 689C835.6 689 833.833 688 833 687.5L831 687H826L824.5 686L821.5 684.5L820 683L818.5 682L816.5 678.5L815 676L813.5 674.5L813 672L811.5 670V667V666L810.5 664.5V662L809 660.179L808.5 659L807.5 658V653.5H806H804.5L803.5 652.5L803.188 650L802 648.5L800 646.696L799 645.5L800 644L803 645H804.5L805 649L806 649.259C806.167 645.839 806.5 638.9 806.5 638.5V637.5L807.5 637L808 636.5C808.333 636 809 634.9 809 634.5C809 634 808 634 807.5 633.5C807.1 633.1 806.333 632.667 806 632.5C805.5 632.333 804.4 632 804 632C803.6 632 803.833 631 804 630.5C803.833 629.667 803.438 627.8 803.188 627C802.876 626 801.5 625 801 624.5C800.5 624 799 622 798.5 621.5C798.1 621.1 797.667 619.333 797.5 618.5L796 616.778C795.667 616.352 794.9 615.4 794.5 615C794 614.5 794.5 613 794.5 612.5C794.5 612.1 794.167 610.333 794 609.5L795 607.5L794.5 606H788L786.5 604.5C786.167 604 785.4 603 785 603C784.6 603 783.833 602.333 783.5 602H781L779 602.5L778.5 603.5L775 602.5L769.5 603L770 604.5V607.5L771.5 610L772.825 611L773.5 613V615L772 616.5V618L773 619.5L774.5 621L776.5 624L778.5 625L781.5 625.5C782.167 625.833 783.6 626.6 784 627C784.5 627.5 784.5 628.5 784 628.5C783.5 628.5 782.5 628 782 627.5C781.5 627 780 628 779.5 627.5C779 627 778.5 627.5 778 627.5C777.6 627.5 775.833 627.833 775 628L773.5 627L772 625.5H770H767.253C767.056 625.5 766.336 624.833 766 624.5L763.5 622.5C762.833 622 761.5 620.9 761.5 620.5C761.5 620.1 760.5 619.667 760 619.5L759 618.5L757.5 618L758 616.778L759 616L760 616.778L761.5 617H763L764.5 616L765 615L764.5 614C764 613.833 762.9 613.5 762.5 613.5H761.5C761.333 613 760.8 612 760 612C759.2 612 759.333 610.333 759.5 609.5L758.5 607.5C758.167 606.5 757.4 604.5 757 604.5C756.5 604.5 755.5 603.5 755 603.5C754.6 603.5 754.167 604.5 754 605C753.667 605.5 752.9 606.4 752.5 606C752.1 605.6 750.333 605.5 749.5 605.5H747C746.6 605.5 745.5 606.167 745 606.5L744 608L742.5 609.5L740 610.5L739 611L737.5 613V614L738 615.5L736 616L735.5 616.5L736.5 617.5L737.5 618.5L739.5 619H741L743 619.5L742.5 620.5L741.5 621L743 622.5L745 623L745.5 624.5L744 625H741.5L740 625.5L738.5 628L736 630L733.5 631.5L731.5 633L729.5 635L727 636L724 637L719 638L717 640.5L715.5 643.5Z" fill="#05B8FF"/>
<path d="M861 731L858.5 729.5L859.5 727.5L862 727L863.5 724.5L865 723.5L865.5 725L867.5 725.5L868.5 727L871.5 728L873.5 729H872V730.5L870 732V734H869L865 733.5L863.5 732L861 731Z" fill="#05B8FF"/>
<path d="M885.5 723V720.5L886.5 720L887.5 719.5V720.5L889 721V722.5L888.5 723L887.5 724L887 723H885.5Z" fill="#05B8FF"/>
<path d="M916.5 721L918.5 719.5L919.5 719L922 718.5L924 720.5L924.5 722.5L923 724L921.5 725H919.5H916.5L915.5 723L916.5 721Z" fill="#05B8FF"/>
<path d="M935.5 718V715.5L936 714H937.5L938 714.5L939.5 715L940 713.5V711V710C939.833 709.5 939.4 708.4 939 708C938.6 707.6 938.833 706.5 939 706V703.5L940 702.5L939.5 700L940 697L941 696L942 694.5L944.5 693.5L947 694L952.5 693.5L954.5 693L956.5 694L959 694.5H960L961.5 696.5L962.5 697L963 696L964.5 695.5L967 696.5L968.5 695.5L970 697L970.5 698.5L971.5 699.5L972 701L971 703.5L969.5 704L970 706H971C971.333 705.667 972 704.9 972 704.5C972 704.1 973 703.667 973.5 703.5L974.5 703L975 702L974.5 699.5C974.667 699.167 975.1 698.5 975.5 698.5C976 698.5 977 699 977.5 699C977.9 699 978.333 699.333 978.5 699.5L979.5 700.5H980L982 701V703.5H981L980 704L980.5 704.5L982.5 705H985L986.5 706L988 707.5L990 709.5L991 710.5L992.5 711.5L993.5 713L994 714.5L994.5 717L995.5 718.5L994.5 721L993.5 722.5L992.5 724L991 725.5L990.5 727.5V728L990 729.5L988.5 731H987.5C987 731 987 730 986.5 729.5C986 729 986.5 729 986.5 728.5C986.5 728 986.5 727 987 726.5C987.4 726.1 986.5 725.667 986 725.5L984.5 725L983.5 725.5V727C983.5 727.4 982.833 727.5 982.5 727.5C982.333 727.667 981.8 728.1 981 728.5C980.2 728.9 980.333 729.667 980.5 730C981 730.167 982.1 730.5 982.5 730.5C982.9 730.5 983.333 730.833 983.5 731L984.5 732L985.5 733.5L987 735.5L988.5 737L987 738V740L986 742L985.5 742.5L985 745L984 746.5H982H981L980 745.5L979.5 746.5H978H977L976 747.5L975.5 748L975 749.5L976 751V752.5L975 753L973.5 753.5L973 752.5H971.5V754L970.5 754.5L969.5 754V752.5V750L969 747.5L967 745C966.5 744.333 965.3 742.9 964.5 742.5C963.7 742.1 962.5 740.333 962 739.5C961.667 739 961 737.9 961 737.5C961 737 959.5 737 959 737C958.5 737 957.5 736.5 957 736.5C956.6 736.5 956.833 737.5 957 738C956.5 738.167 955.3 738.5 954.5 738.5C953.7 738.5 953.167 738.761 953 738.892V740.5L955 742.5L955.5 744.5C954.833 745.167 953.5 746.6 953.5 747C953.5 747.4 951.167 748.167 950 748.5H948C947.333 748.5 945.6 748.6 944 749C942.4 749.4 941.667 750.167 941.5 750.5L940 752C939.333 752.167 937.9 752.5 937.5 752.5C937.1 752.5 936 752.167 935.5 752V750.5L937 748L938 746L939 744L937.5 743L935 738.5C934.667 738 933.9 736.9 933.5 736.5C933 736 933.5 734.5 933.5 734V732L934.5 731C935 730.833 936 730.4 936 730C936 729.6 937 729.833 937.5 730V728C937.333 727.333 937 725.9 937 725.5C937 725.1 937.333 725 937.5 725L940.5 726.5V723.5L938.5 723L936.5 724C935.833 723.833 934.6 723.5 935 723.5C935.5 723.5 937 722 937 721.5C937 721.1 936.333 720.333 936 720L935.5 718Z" fill="#05B8FF"/>
<path d="M447 715V713L450.5 710L453.5 708.5H457L459 705.5L460 703.5L461 702.5L462 700L464 702H465.5L470.5 704L475 706.5C476.667 707.167 480.2 708.5 481 708.5C481.8 708.5 483.667 707.167 484.5 706.5L491.5 705.5L493 703.5L497.5 699.5L501 696.5C502.667 695.833 506.2 694.5 507 694.5C507.8 694.5 509.667 692.167 510.5 691V689L512 686.5L514 684.5V683L516.5 682V680V677.5L515 676.5V674H518H521H524.5C524.9 674 527.667 675.333 529 676L536.5 676.5L538.5 677L540.5 676L542.5 675L545 674C545.333 673.333 546 671.8 546 671C546 670 545.5 670 546 669C546.5 668 545 666.5 544.5 666C544 665.5 543.5 664 544 664C544.5 664 544 661.5 545 661.5C545.8 661.5 547 660.167 547.5 659.5H550.5V664C550.5 665.2 552.167 665.167 553 665L555.5 668L558 669.5L561 673L565 676L567.5 676.5C567.667 676.167 568 675.4 568 675V672C568 671.5 569 670.5 569.5 670C569.9 669.6 569.667 668.5 569.5 668L569 666L568.5 665C568.5 664.333 568.4 662.9 568 662.5C567.6 662.1 569.167 661.667 570 661.5H572L575.5 659L576.5 657.5L578 656.5L576.5 654.5H574V652L575.5 649.5L577 647.5L578 644.5L576.5 642.5L571 638L568.5 637V635L569 633.5H571H572.5L574 634.5L576.5 635L578 633.5L579 631L581 629C582.667 628.833 586.3 628.4 587.5 628C588.7 627.6 596 627.833 599.5 628H603L604 627C604.5 626.5 605.6 625.5 606 625.5C606.4 625.5 607.833 624.5 608.5 624L610 625L612 626.5L614 628H617H620.5L624 627L628 625.5L631 625C632.833 624.5 636.7 623.4 637.5 623C638.3 622.6 639.833 623.5 640.5 624L642.5 625H645L647 624L647.5 622V620L648.5 616.5L649 613.5L650.5 612.5L654.5 613.5L658 615L661 617.5L663.5 620.5L662 624L659 627L656.5 630.5L655.5 635L656.5 638L659 639H661L662 638L663 635L663.5 633H665.5L668.5 634L671.5 635V637L670 639L668.5 642L670.5 643.5H674C675.167 643.833 677.7 644.5 678.5 644.5C679.3 644.5 681.833 644.833 683 645L687.5 644.5L690.5 646.5L694 649L695.5 655.5L694 659L692.5 661L689.5 664V667.5L690.5 670L693 671H695.5L697 673L695.5 675.5L695 678L696.5 680L698.5 681L699.5 680L699 678L700 675.5H701H705.5L707.5 678H710L713.5 678.5L715.5 678L719 677L721.5 675.5H724.5L728 677L730.5 678H736L740 679.5L742.5 680H750.5L753 682L757.5 681L758.5 683V685.5L757.5 689L756.5 693.5L757.5 699.5L761 702.5L764 704.5L767.5 706C768.333 706.167 770.2 706.4 771 706C771.8 705.6 772.333 706.5 772.5 707L773.5 709.5V713V716L772.5 720L773.5 722L775.5 725.5L778.5 727.5L780.5 730L782.5 730.5H785H788.5L791.5 731H793.5H795L796.5 735L797.5 739C797.5 740.167 797.3 742.6 796.5 743C795.7 743.4 796.167 744.833 796.5 745.5L797.5 748.5L799 750L799.5 751.5V754.5L797.5 755L795 756.5L792 758.5L788.5 762L786 765.5L783.5 769.5L781.5 772L780.5 775L779.5 779L777 781.5V784L776.5 789L775.5 793L777 796L778 799L779.5 800.5L782.5 801L785 802.5L787 804.5L788 806.5L788.5 808.5L787 810.5L785.5 813L784 816L782.5 819L780.5 821V823L779.5 825V829V832L778 832.5L777 832L775.5 831H774H772.5V832.5C771.833 832.5 770.3 832.4 769.5 832C768.7 831.6 767.833 830.5 767.5 830L766.5 827.5L763.5 825L761 824L760.5 821.5V820L759 816.5V815L757 813L753.5 809.5C752.667 808.833 750.8 807.3 750 806.5C749 805.5 748 806 747 805.5L745 804.5L743.5 802.5L742 801L739 800.5C738.5 800.667 737.4 800.9 737 800.5C736.6 800.1 736.833 799.333 737 799L735 797L733.5 796L731.5 797L730.5 799L729.5 802.5L728 804L727.5 809.5L726 810.5C724.667 811 721.9 812 721.5 812C721.1 812 719.667 812.333 719 812.5L716.5 814.5L714.5 819.5L712 824L710 827.5L708 831L705.5 836L701 836.5L697.5 837.5L694.5 839.5C693.833 840.167 692.4 841.5 692 841.5H688.5C688.167 842 687.4 843 687 843H679.5H675C674.5 842.667 673.3 842 672.5 842C671.7 842 671.167 841 671 840.5L670 839.5V841.5L667.5 842L662.5 844.5L657.5 846.5L653 848.5L651 851.5L646.5 855L644 858.5L643 862L642 866V869L643 870.5L644 872.5V875.5L642 877L640.5 878.5V880.5V885C640.5 885.4 640.833 886.833 641 887.5L642 892L644 894.5L645 896V898L643 897.5L640.5 898L637.5 898.5L635 897.5H632V898.5L631 899.5L630 901.5C629.667 901.833 628.9 902.5 628.5 902.5H624.5L623 900.5L620.5 899.5L619.5 901L617 902.5L613.5 901L610.5 899.5L608 900.5V901H605.5V899.5L604 896L601.5 893L599.5 892L597.5 891C597 889.5 595.9 886.5 595.5 886.5H593L591 885C590.667 883.667 590 880.9 590 880.5C590 880.1 589 879 588.5 878.5C587.833 877.5 586.4 875.5 586 875.5C585.6 875.5 584.833 874.833 584.5 874.5L584 873.5L584.5 871L582.5 869L580 867.5L578 868L575 869.5L573.5 871H569.5L567 869L565 867.5V865L565.5 862.5C565.833 861.667 566.5 859.9 566.5 859.5C566.5 859.1 566.833 858 567 857.5L567.5 856L569 855L569.5 853.5L569 851L567 850L565 849.5L561 848L557.5 847L555 844C553.833 843.833 551.4 843.4 551 843C550.6 842.6 548.5 842.167 547.5 842L545.5 841.5L544.5 837.5L543.5 834.5L542 832L541 829.5C541.167 828.5 541.4 826.4 541 826L539 824L537 822.5C536.333 822.333 534.9 821.9 534.5 821.5C534.1 821.1 532.667 821.667 532 822H528L524 821.5C523.5 821.167 522.3 820.4 521.5 820C520.7 819.6 520.833 819.5 521 819.5L517.5 818L517 819H513.5L511 818L509 815.5L499 806L498 805L497 803.5L498 802.5L500 801.5L502.5 801L504.5 799.5V796L505.5 793.5L507 791.5L509 789.5L510 788V786V784L511 783.5L512 782.5L513.5 783.5L515 785L517 788.5H518.5L520 788L521.5 786L522.5 785V782.5L527 779L527.5 777V773V769.5L527 766L525 764.5H522.5H520C519.6 764.5 518.833 764.167 518.5 764L517 761.5H515.5H511V760.5L509 758.5C508.6 758.1 507.5 757.333 507 757L504.5 757.5L502.5 759L498.5 760.5C497.333 760.833 494.9 761.5 494.5 761.5H491C491 760.833 490.8 759.4 490 759L484 756L483 753.5V750V744.5L481 740L479 737.5L475.5 736.5L472 736L470 736.5L467 737.5L464.5 736L461.5 734.5L460 730.5L459 726L456 724L453 722L451.5 719.5L449.5 716L447 715Z" stroke="black"/>
<path d="M715.5 643.5L717 648V649H719H722.5L725 648.5L728 650.5V653.5L730 654.5L731.5 655.5L733.5 654.5L736 654H739H741.5H744L744.5 652.5L748 651.5L749 650.5L752 650L751.5 647.5V644L753 643.5L754.5 642.5H757.5H759.5L758 644L756 645.5L754 646L754.5 648L756 648.5V650L756.5 652.5L758.5 653.5H763H766L770 654.5L772 656.5L774.5 657.5L776 660.179L775.5 663L778 664.5L775.5 665L776 668L778 670L778.5 672L777 674.5L776.5 677L780 680H782.5L785.5 681L787.5 685.5L788.5 691L787 692.5L786 694.5L784.5 696.5L784 699.5L785 702L786 706.5L789.5 712.5L792 715L797 716L801 716.5L803 717.5L806 719.5L809.5 720L812 721.5L815.5 722.5L817.5 723.5L821 725.5L822 727.5L824 729.5L826.5 729L831 729.5L832 731.5L834.5 733.5L837 735V738L837.5 741.5H839.5L840.5 740H843L844.5 739L845.5 738L847 739.5L848 739H849.5L851.5 740H853H855L857 739.5L857.5 739V737L857 735L856.5 734H854.5L853.5 733.5L853 732L850 731.5L848 731L846 730.5L845.5 730L844.5 729L845 727.5L844.5 724.5V722L846 720L846.5 718L848 714L850 710L850.5 707L853 703L856.5 699.5L858.5 698L859.5 696H861H862V694.5H861H858.5H856.5C856 694.167 854.9 693.5 854.5 693.5H850.5L846 691.5L843 691H840.5L837 690C836.833 689.667 836.4 689 836 689C835.6 689 833.833 688 833 687.5L831 687H826L824.5 686L821.5 684.5L820 683L818.5 682L816.5 678.5L815 676L813.5 674.5L813 672L811.5 670V667V666L810.5 664.5V662L809 660.179L808.5 659L807.5 658V653.5H806H804.5L803.5 652.5L803.188 650L802 648.5L800 646.696L799 645.5L800 644L803 645H804.5L805 649L806 649.259C806.167 645.839 806.5 638.9 806.5 638.5V637.5L807.5 637L808 636.5C808.333 636 809 634.9 809 634.5C809 634 808 634 807.5 633.5C807.1 633.1 806.333 632.667 806 632.5C805.5 632.333 804.4 632 804 632C803.6 632 803.833 631 804 630.5C803.833 629.667 803.438 627.8 803.188 627C802.876 626 801.5 625 801 624.5C800.5 624 799 622 798.5 621.5C798.1 621.1 797.667 619.333 797.5 618.5L796 616.778C795.667 616.352 794.9 615.4 794.5 615C794 614.5 794.5 613 794.5 612.5C794.5 612.1 794.167 610.333 794 609.5L795 607.5L794.5 606H788L786.5 604.5C786.167 604 785.4 603 785 603C784.6 603 783.833 602.333 783.5 602H781L779 602.5L778.5 603.5L775 602.5L769.5 603L770 604.5V607.5L771.5 610L772.825 611L773.5 613V615L772 616.5V618L773 619.5L774.5 621L776.5 624L778.5 625L781.5 625.5C782.167 625.833 783.6 626.6 784 627C784.5 627.5 784.5 628.5 784 628.5C783.5 628.5 782.5 628 782 627.5C781.5 627 780 628 779.5 627.5C779 627 778.5 627.5 778 627.5C777.6 627.5 775.833 627.833 775 628L773.5 627L772 625.5H770H767.253C767.056 625.5 766.336 624.833 766 624.5L763.5 622.5C762.833 622 761.5 620.9 761.5 620.5C761.5 620.1 760.5 619.667 760 619.5L759 618.5L757.5 618L758 616.778L759 616L760 616.778L761.5 617H763L764.5 616L765 615L764.5 614C764 613.833 762.9 613.5 762.5 613.5H761.5C761.333 613 760.8 612 760 612C759.2 612 759.333 610.333 759.5 609.5L758.5 607.5C758.167 606.5 757.4 604.5 757 604.5C756.5 604.5 755.5 603.5 755 603.5C754.6 603.5 754.167 604.5 754 605C753.667 605.5 752.9 606.4 752.5 606C752.1 605.6 750.333 605.5 749.5 605.5H747C746.6 605.5 745.5 606.167 745 606.5L744 608L742.5 609.5L740 610.5L739 611L737.5 613V614L738 615.5L736 616L735.5 616.5L736.5 617.5L737.5 618.5L739.5 619H741L743 619.5L742.5 620.5L741.5 621L743 622.5L745 623L745.5 624.5L744 625H741.5L740 625.5L738.5 628L736 630L733.5 631.5L731.5 633L729.5 635L727 636L724 637L719 638L717 640.5L715.5 643.5Z" stroke="black"/>
<path d="M861 731L858.5 729.5L859.5 727.5L862 727L863.5 724.5L865 723.5L865.5 725L867.5 725.5L868.5 727L871.5 728L873.5 729H872V730.5L870 732V734H869L865 733.5L863.5 732L861 731Z" stroke="black"/>
<path d="M885.5 723V720.5L886.5 720L887.5 719.5V720.5L889 721V722.5L888.5 723L887.5 724L887 723H885.5Z" stroke="black"/>
<path d="M916.5 721L918.5 719.5L919.5 719L922 718.5L924 720.5L924.5 722.5L923 724L921.5 725H919.5H916.5L915.5 723L916.5 721Z" stroke="black"/>
<path d="M935.5 718V715.5L936 714H937.5L938 714.5L939.5 715L940 713.5V711V710C939.833 709.5 939.4 708.4 939 708C938.6 707.6 938.833 706.5 939 706V703.5L940 702.5L939.5 700L940 697L941 696L942 694.5L944.5 693.5L947 694L952.5 693.5L954.5 693L956.5 694L959 694.5H960L961.5 696.5L962.5 697L963 696L964.5 695.5L967 696.5L968.5 695.5L970 697L970.5 698.5L971.5 699.5L972 701L971 703.5L969.5 704L970 706H971C971.333 705.667 972 704.9 972 704.5C972 704.1 973 703.667 973.5 703.5L974.5 703L975 702L974.5 699.5C974.667 699.167 975.1 698.5 975.5 698.5C976 698.5 977 699 977.5 699C977.9 699 978.333 699.333 978.5 699.5L979.5 700.5H980L982 701V703.5H981L980 704L980.5 704.5L982.5 705H985L986.5 706L988 707.5L990 709.5L991 710.5L992.5 711.5L993.5 713L994 714.5L994.5 717L995.5 718.5L994.5 721L993.5 722.5L992.5 724L991 725.5L990.5 727.5V728L990 729.5L988.5 731H987.5C987 731 987 730 986.5 729.5C986 729 986.5 729 986.5 728.5C986.5 728 986.5 727 987 726.5C987.4 726.1 986.5 725.667 986 725.5L984.5 725L983.5 725.5V727C983.5 727.4 982.833 727.5 982.5 727.5C982.333 727.667 981.8 728.1 981 728.5C980.2 728.9 980.333 729.667 980.5 730C981 730.167 982.1 730.5 982.5 730.5C982.9 730.5 983.333 730.833 983.5 731L984.5 732L985.5 733.5L987 735.5L988.5 737L987 738V740L986 742L985.5 742.5L985 745L984 746.5H982H981L980 745.5L979.5 746.5H978H977L976 747.5L975.5 748L975 749.5L976 751V752.5L975 753L973.5 753.5L973 752.5H971.5V754L970.5 754.5L969.5 754V752.5V750L969 747.5L967 745C966.5 744.333 965.3 742.9 964.5 742.5C963.7 742.1 962.5 740.333 962 739.5C961.667 739 961 737.9 961 737.5C961 737 959.5 737 959 737C958.5 737 957.5 736.5 957 736.5C956.6 736.5 956.833 737.5 957 738C956.5 738.167 955.3 738.5 954.5 738.5C953.7 738.5 953.167 738.761 953 738.892V740.5L955 742.5L955.5 744.5C954.833 745.167 953.5 746.6 953.5 747C953.5 747.4 951.167 748.167 950 748.5H948C947.333 748.5 945.6 748.6 944 749C942.4 749.4 941.667 750.167 941.5 750.5L940 752C939.333 752.167 937.9 752.5 937.5 752.5C937.1 752.5 936 752.167 935.5 752V750.5L937 748L938 746L939 744L937.5 743L935 738.5C934.667 738 933.9 736.9 933.5 736.5C933 736 933.5 734.5 933.5 734V732L934.5 731C935 730.833 936 730.4 936 730C936 729.6 937 729.833 937.5 730V728C937.333 727.333 937 725.9 937 725.5C937 725.1 937.333 725 937.5 725L940.5 726.5V723.5L938.5 723L936.5 724C935.833 723.833 934.6 723.5 935 723.5C935.5 723.5 937 722 937 721.5C937 721.1 936.333 720.333 936 720L935.5 718Z" stroke="black"/>
</g>
<path id="lampung" d="M589 907L583 904L582 903L583 902L585.5 899.5L588 898.5L590 897.5L592 894.5L594 895L596.5 893.5L600 895.5L602.5 898.5L601.5 900.5L600 902L601.5 904L603.5 904.5L606.5 903H609L616 904H621L623.5 904.5H627.5C628.333 904.667 630.1 904.9 630.5 904.5C630.9 904.1 632 902.333 632.5 901.5L634 900.5L635 901H639H641.5H644L645.5 900.5L647.5 898.5C647.9 898.1 648.667 897 649 896.5L650 893L649 893.5H647L645 892L644 889.5L645 887.5V886C644.667 885.667 643.8 884.9 643 884.5C642.2 884.1 642.667 883.667 643 883.5L642.5 880.5C643 880.167 644.2 879.4 645 879C645.8 878.6 646 877.833 646 877.5L647 875L645.5 872.5L645 870L645.5 864.5L646 860.5L648.5 858L650 854.5L652 853.5L655 850L658.5 849.5L663.5 846L665.5 845L670 843.5L671.5 845L680 846L685 845H688.5L693 843L696.5 841.5L701.5 839H704L708 836L710.5 831.5L713 829L715 826L716 823L717.5 819.5L719.5 816.5L722 814L723.5 814.5L726.5 815L728.5 813L730 810.5L731 809.5L731.5 807.5L730 807V805C730 804.5 731 804.5 731.5 804C731.9 803.6 732 802.5 732 802L732.5 799H734.5V803L736.5 804L739 803L741 804V807L743.5 808H746.5L749 809.5V812L751 813H752H754L753.5 815L755 816.5L758 820V822V824.5V828L759 827L760.5 828L763 830L765.5 832L766.5 834.5L770.5 836H771.5L772.5 833.5H775V835L776.5 837V852.5L779 855H779.5L780 856.5L779 857V858H779.5L780 860L782.5 862L783 871L782.5 872V877L783.5 878.5L784.5 880L783.5 881H781.5V883V886L780 888V896.5V899L781.5 901L782.5 903L783.5 905L782.5 906.5L780 909L779 935L776 938.5V961V964L775.5 966L776 969.5L775 973L773 974L774 976L773 981.5V983.5L771.5 985.5V987L770 988H768.5L768 985.5H765L762.5 984.5L760 983.5L758 983L756.5 981.5V979.5L758 978V976V974.5H755.5V973L756 970.5L753.5 969.5H750.5H748L742.5 966L740.5 964L736.5 957.5L734.5 954L732.5 951L731.5 950H728L726 952L725.5 955.5V959.5L724.5 962H722L718.5 963L718 966L720 969L719.5 971L720 974.5C719.667 975 718.9 976 718.5 976C718 976 718 977 717.5 977.5C717.1 977.9 717.667 979 718 979.5L719.5 981.5L718 982.5L716.5 979.5L713 978L709.5 976L705.5 974L702 972L697 970.5L691.5 966.5L683.5 962L680.5 958.5L679 956.5L677 957L673.5 955.5L669.5 954.5L665.5 955.5L662.5 957.5L661.5 959L663.5 963L667 966.5L670 971L672 973.5V975.5L671.5 978L673.5 979.5L674 981.5C674.833 982.167 676.6 983.7 677 984.5C677.4 985.3 677.167 985.5 677 985.5V988.5L678 990.5L679 992.5L678.5 993.5H667V990C667 989.5 666 987.5 665.5 987C665.1 986.6 663.333 985.167 662.5 984.5C660.333 982 655.9 977 655.5 977C655.1 977 652.667 973 651.5 971L648.5 970.5L644.5 968.5L645.5 966L644.5 962.5C643.833 962.5 642.3 962.3 641.5 961.5L637.5 957.5C637 957 634.5 955 633.5 954C632.5 953 628.5 951.5 628 950.5C627.5 949.5 624.5 947.5 623.5 947.5C622.5 947.5 621 944.5 619.5 943C618 941.5 617.5 939.5 617.5 938.5C617.5 937.5 616 935 615.5 934.5C615 934 614 932.5 613.5 932C613.1 931.6 611.667 931.5 611 931.5C610 931.667 607.8 931.9 607 931.5C606.2 931.1 608 930.333 609 930L611 926L607 920.5L602.5 918L596.5 912.5L592 909L589 907Z" fill="#FF00C8" stroke="black"/>
</g>
</svg>
