<svg width="400" height="128" viewBox="0 0 400 128" fill="none" xmlns="http://www.w3.org/2000/svg">
<path d="M211.398 82.6721V81.5318L212.269 81.1042L213.867 80.8191L215.174 81.1042L215.609 82.6721L216.335 83.2422L216.916 82.6721L217.352 81.5318L218.368 80.8191L219.384 79.8214L220.836 78.9662L222.434 77.6834L223.305 76.9707H223.886V77.6834L224.902 83.2422L225.338 85.8078L227.371 86.8055L228.532 87.2331H230.275H231.291L233.179 86.8055H234.921L235.792 87.2331L236.809 88.0884L237.68 88.9436L236.809 90.5114V92.5069V94.6449L236.083 95.3576L236.809 96.7829L237.68 98.3508V100.346V101.772L238.551 102.484H236.083L233.179 101.772L230.275 100.346L228.097 99.9187L225.338 98.9209L222.434 97.4956L220.836 96.7829L219.82 95.3576H218.368C217.981 95.1675 217.032 94.7589 216.335 94.6449C215.638 94.5309 214.786 94.0273 214.448 93.7897L212.269 92.5069L209.22 90.939L208.059 89.9413V88.516L209.22 87.2331L210.237 85.8078L211.108 84.9526L211.398 83.6698V82.6721Z" fill="#BDB2BB" stroke="black"/>
<path d="M65.4697 17.534V15.681H66.7765L67.6478 16.2512H68.6642L69.3902 16.5362L69.8258 16.9638H70.5518H71.7134L72.4394 16.6788L73.1655 16.2512H73.8915L74.9079 15.681H76.2147V19.3869L75.7791 20.0996L75.3435 21.0973L74.6175 21.5249L73.8915 22.0951H73.4559V22.9503L73.8915 23.5204L74.1819 24.0905V24.6607L73.8915 24.9457V25.9435H73.4559L72.8751 25.6584L72.4394 25.2308H71.8586H71.1326L70.8422 25.6584H70.2614L70.5518 25.2308V24.6607L70.8422 24.0905H70.1162L69.0998 23.5204L68.2286 22.5227V21.2399L67.3574 20.0996L66.3409 18.5317L65.4697 17.534Z" fill="#BDB2BB" stroke="black"/>
<path d="M156.657 45.1855C156.889 45.2995 158.399 45.8982 159.125 46.1833L159.997 47.0385H161.739L162.755 45.7556L164.498 44.7579L165.514 45.7556L166.531 47.0385L169.144 47.8937L172.048 48.3213L174.952 48.7489L178.728 47.8937C179.502 47.6086 181.138 47.0385 181.487 47.0385C181.922 47.0385 183.084 46.3258 183.665 45.7556C184.129 45.2995 184.729 44.9004 184.971 44.7579L186.133 46.1833C186.423 46.4683 187.091 47.0385 187.44 47.0385C187.875 47.0385 189.327 46.7534 189.618 47.0385C189.85 47.2665 191.264 47.7036 191.941 47.8937L193.829 48.7489C194.361 48.9864 195.658 49.4615 196.588 49.4615C197.517 49.4615 197.749 49.9366 197.749 50.1742C198.088 50.3642 198.969 50.6873 199.782 50.4593C200.595 50.2312 202.638 50.3642 203.557 50.4593H205.155H206.752L207.623 49.4615H209.801C210.285 49.3665 211.282 49.0909 211.398 48.7489C211.514 48.4068 211.834 48.0362 211.979 47.8937L212.85 48.1787L213.431 47.8937L213.867 48.7489L214.302 49.4615H216.48L218.078 50.8869L219.82 51.8846H221.417H223.16L224.176 51.3145L225.192 50.8869L228.097 47.4661L228.387 46.4683L229.549 45.7556L230.129 45.1855V43.9027L230.42 43.0475L231.581 41.3371L232.888 38.7715L233.614 36.6335L234.195 34.4955L235.211 32.3575L235.792 31.2172L236.809 30.5045L238.842 29.9344L240.294 29.3642L241.891 28.9366L243.778 29.3642L245.376 28.9366L246.828 29.3642H248.28L248.715 29.9344V31.7873L249.006 33.0701L250.022 35.2081L250.458 36.2059L251.765 38.3439L253.217 39.6267L255.54 40.4819H259.751L261.203 41.052H262.945H264.542L264.978 40.4819L265.994 39.9118L266.43 41.052L266.866 39.9118V39.6267L267.737 38.7715V37.9163H269.334C269.566 37.9163 270.496 38.2014 270.931 38.3439L275.142 42.1923L274.997 42.7624V43.4751L274.416 44.1878L274.997 44.7579L274.416 45.7556L273.835 45.1855L272.964 45.7556V46.4683L272.383 47.4661L271.802 48.7489L270.931 49.8891L270.496 51.3145L271.367 51.8846L272.383 52.1697V55.1629L272.964 56.0181L272.383 57.0158L271.802 58.5837L271.367 60.5792L270.06 61.0068L269.334 62.0045L268.318 62.8597L266.866 63.5724H265.414L264.978 66.138H264.542C264.397 66.233 264.194 66.4801 264.542 66.7081C264.891 66.9362 264.688 67.2783 264.542 67.4208L263.381 66.9932L259.751 66.138L257.863 65.7104V64.1425L258.299 63.5724L257.573 62.8597L256.701 62.4321L256.266 62.8597H255.104L254.669 63.5724H253.943L253.507 63.2873L252.926 63.7149L252.636 64.4276V65.1403L251.765 65.7104L252.636 66.138V66.9932L252.345 68.7036L251.765 69.7013V70.6991V72.552L252.345 74.2624L253.217 76.828L253.943 77.8258L254.233 78.8235H254.669V79.8213L254.233 80.6765L254.669 81.8167L254.233 83.2421L255.104 83.9547C255.346 84.0023 255.917 84.1543 256.266 84.3823C256.614 84.6104 257.476 85.0475 257.863 85.2375L258.879 86.0928L259.315 87.6606C259.17 88.2783 258.879 89.5706 258.879 89.7986C258.879 90.0267 258.492 91.1289 258.299 91.6516L257.573 92.2217L256.701 91.6516L255.685 91.224L254.523 90.9389L253.217 91.6516L252.345 92.9344L251.765 94.9299V95.6425L252.345 96.7828H251.765H250.748L250.064 96.4472C250.085 96.512 250.045 96.6174 249.877 96.7828C249.528 97.1249 248.957 97.4004 248.715 97.4955H247.554H246.392C246.392 97.1629 246.276 96.5547 245.811 96.7828C245.347 97.0108 244.746 97.638 244.504 97.9231L243.343 99.0633L242.472 101.486L242.181 102.769C241.891 102.627 241.252 102.427 241.02 102.769C240.787 103.111 240.729 101.391 240.729 100.489L239.858 99.9185H239.277L238.551 97.0679L237.39 95.6425L237.825 94.9299L238.261 93.5045V91.6516L238.551 89.7986L238.987 87.8032V86.948L237.39 86.5204L236.083 86.0928L234.195 85.2375H232.162H230.129H227.806L226.645 84.3823L225.483 78.8235L224.757 76.828V75.1176L223.74 74.69L222.869 75.1176L221.708 76.4004L218.949 78.8235L217.206 80.2489L216.045 79.8213L215.464 78.8235L214.302 79.2511L211.979 79.8213L210.963 79.2511H210.382L209.946 80.2489L209.511 81.1041V81.8167L209.946 82.3869V83.2421C209.753 83.5746 209.336 84.2968 209.22 84.5249C209.104 84.7529 208.301 85.6651 207.913 86.0928L207.187 86.948V87.8032L206.607 88.5158L206.171 89.7986L202.686 88.5158C202.057 88.2783 200.682 87.8032 200.218 87.8032C199.753 87.8032 198.282 87.233 197.604 86.948L194.264 86.5204L191.941 85.6651L189.618 85.2375L185.697 84.8099L183.519 84.3823L180.47 84.5249L179.744 83.8122L178.728 82.3869L176.114 81.8167H172.194L169.144 81.1041L168.128 79.8213H167.257L166.821 80.2489V81.1041L166.385 81.8167H164.498C164.353 82.0068 163.975 82.4724 163.627 82.8145C163.278 83.1566 162.32 83.2421 161.884 83.2421L160.723 82.3869H159.271L158.545 81.8167L157.673 79.2511V77.9683L156.512 77.5407L155.06 76.9706V77.5407C154.963 77.8258 154.711 78.4814 154.479 78.8235C154.247 79.1656 153.801 79.6312 153.608 79.8213L152.736 78.8235V77.5407V76.9706C152.736 76.5145 153.027 75.8303 153.172 75.5452L152.736 74.9751L152.01 73.4072V71.9819V70.129C151.768 70.0814 151.255 69.9579 151.139 69.8439C151.023 69.7299 150.607 69.1312 150.413 68.8461L150.123 67.7059L149.397 67.1357L148.816 66.7081L147.8 66.4231L147.219 66.7081L145.912 66.8507L145.186 66.4231L144.896 65.4253V64.8552L145.186 64.1425L145.912 63.7149L145.622 62.4321V61.5769L145.331 61.0068H144.896V60.2941H145.331L145.622 60.009L146.057 59.8665C146.202 59.724 146.551 59.4674 146.783 59.5814C147.015 59.6955 147.461 59.819 147.654 59.8665L148.235 60.2941L148.816 60.009L150.123 59.8665L150.704 59.5814L151.139 58.8688L151.575 58.5837L153.608 58.2986V57.871L154.188 57.4434V56.1606L154.624 55.8756V54.5928C154.914 54.5452 155.466 54.3932 155.35 54.1652C155.234 53.9371 154.914 53.405 154.769 53.1674L154.188 52.3122L153.608 51.8846L153.317 50.3167V49.0339L155.35 47.3235L155.786 46.1833V45.1855H156.657Z" fill="#BDB2BB"/>
<path d="M155.06 83.2421L154.769 82.3869L154.479 81.8167L155.931 82.3869L156.512 82.8145L156.947 83.5271H155.931L155.06 83.2421Z" fill="#BDB2BB"/>
<path d="M158.545 84.2398L157.673 83.8122V83.2421L158.69 83.3846L158.835 83.6697L159.851 83.8122L160.723 83.9547L161.449 84.2398L161.303 84.8099H160.432C160.2 84.8099 160.335 84.4299 160.432 84.2398H159.416H158.545Z" fill="#BDB2BB"/>
<path d="M156.657 45.1855C156.889 45.2995 158.399 45.8982 159.125 46.1833L159.997 47.0385H161.739L162.755 45.7556L164.498 44.7579L165.514 45.7556L166.531 47.0385L169.144 47.8937L172.048 48.3213L174.952 48.7489L178.728 47.8937C179.502 47.6086 181.138 47.0385 181.487 47.0385C181.922 47.0385 183.084 46.3258 183.665 45.7556C184.129 45.2995 184.729 44.9004 184.971 44.7579L186.133 46.1833C186.423 46.4683 187.091 47.0385 187.44 47.0385C187.875 47.0385 189.327 46.7534 189.618 47.0385C189.85 47.2665 191.264 47.7036 191.941 47.8937L193.829 48.7489C194.361 48.9864 195.658 49.4615 196.588 49.4615C197.517 49.4615 197.749 49.9366 197.749 50.1742C198.088 50.3642 198.969 50.6873 199.782 50.4593C200.595 50.2312 202.638 50.3642 203.557 50.4593H205.155H206.752L207.623 49.4615H209.801C210.285 49.3665 211.282 49.0909 211.398 48.7489C211.514 48.4068 211.834 48.0362 211.979 47.8937L212.85 48.1787L213.431 47.8937L213.867 48.7489L214.302 49.4615H216.48L218.078 50.8869L219.82 51.8846H221.417H223.16L224.176 51.3145L225.192 50.8869L228.097 47.4661L228.387 46.4683L229.549 45.7556L230.129 45.1855V43.9027L230.42 43.0475L231.581 41.3371L232.888 38.7715L233.614 36.6335L234.195 34.4955L235.211 32.3575L235.792 31.2172L236.809 30.5045L238.842 29.9344L240.294 29.3642L241.891 28.9366L243.778 29.3642L245.376 28.9366L246.828 29.3642H248.28L248.715 29.9344V31.7873L249.006 33.0701L250.022 35.2081L250.458 36.2059L251.765 38.3439L253.217 39.6267L255.54 40.4819H259.751L261.203 41.052H262.945H264.542L264.978 40.4819L265.994 39.9118L266.43 41.052L266.866 39.9118V39.6267L267.737 38.7715V37.9163H269.334C269.566 37.9163 270.496 38.2014 270.931 38.3439L275.142 42.1923L274.997 42.7624V43.4751L274.416 44.1878L274.997 44.7579L274.416 45.7556L273.835 45.1855L272.964 45.7556V46.4683L272.383 47.4661L271.802 48.7489L270.931 49.8891L270.496 51.3145L271.367 51.8846L272.383 52.1697V55.1629L272.964 56.0181L272.383 57.0158L271.802 58.5837L271.367 60.5792L270.06 61.0068L269.334 62.0045L268.318 62.8597L266.866 63.5724H265.414L264.978 66.138H264.542C264.397 66.233 264.194 66.4801 264.542 66.7081C264.891 66.9362 264.688 67.2783 264.542 67.4208L263.381 66.9932L259.751 66.138L257.863 65.7104V64.1425L258.299 63.5724L257.573 62.8597L256.701 62.4321L256.266 62.8597H255.104L254.669 63.5724H253.943L253.507 63.2873L252.926 63.7149L252.636 64.4276V65.1403L251.765 65.7104L252.636 66.138V66.9932L252.345 68.7036L251.765 69.7013V70.6991V72.552L252.345 74.2624L253.217 76.828L253.943 77.8258L254.233 78.8235H254.669V79.8213L254.233 80.6765L254.669 81.8167L254.233 83.2421L255.104 83.9547C255.346 84.0023 255.917 84.1543 256.266 84.3823C256.614 84.6104 257.476 85.0475 257.863 85.2375L258.879 86.0928L259.315 87.6606C259.17 88.2783 258.879 89.5706 258.879 89.7986C258.879 90.0267 258.492 91.1289 258.299 91.6516L257.573 92.2217L256.701 91.6516L255.685 91.224L254.523 90.9389L253.217 91.6516L252.345 92.9344L251.765 94.9299V95.6425L252.345 96.7828H251.765H250.748L250.064 96.4472C250.085 96.512 250.045 96.6174 249.877 96.7828C249.528 97.1249 248.957 97.4004 248.715 97.4955H247.554H246.392C246.392 97.1629 246.276 96.5547 245.811 96.7828C245.347 97.0108 244.746 97.638 244.504 97.9231L243.343 99.0633L242.472 101.486L242.181 102.769C241.891 102.627 241.252 102.427 241.02 102.769C240.787 103.111 240.729 101.391 240.729 100.489L239.858 99.9185H239.277L238.551 97.0679L237.39 95.6425L237.825 94.9299L238.261 93.5045V91.6516L238.551 89.7986L238.987 87.8032V86.948L237.39 86.5204L236.083 86.0928L234.195 85.2375H232.162H230.129H227.806L226.645 84.3823L225.483 78.8235L224.757 76.828V75.1176L223.74 74.69L222.869 75.1176L221.708 76.4004L218.949 78.8235L217.206 80.2489L216.045 79.8213L215.464 78.8235L214.302 79.2511L211.979 79.8213L210.963 79.2511H210.382L209.946 80.2489L209.511 81.1041V81.8167L209.946 82.3869V83.2421C209.753 83.5746 209.336 84.2968 209.22 84.5249C209.104 84.7529 208.301 85.6651 207.913 86.0928L207.187 86.948V87.8032L206.607 88.5158L206.171 89.7986L202.686 88.5158C202.057 88.2783 200.682 87.8032 200.218 87.8032C199.753 87.8032 198.282 87.233 197.604 86.948L194.264 86.5204L191.941 85.6651L189.618 85.2375L185.697 84.8099L183.519 84.3823L180.47 84.5249L179.744 83.8122L178.728 82.3869L176.114 81.8167H172.194L169.144 81.1041L168.128 79.8213H167.257L166.821 80.2489V81.1041L166.385 81.8167H164.498C164.353 82.0068 163.975 82.4724 163.627 82.8145C163.278 83.1566 162.32 83.2421 161.884 83.2421L160.723 82.3869H159.271L158.545 81.8167L157.673 79.2511V77.9683L156.512 77.5407L155.06 76.9706V77.5407C154.963 77.8258 154.711 78.4814 154.479 78.8235C154.247 79.1656 153.801 79.6312 153.608 79.8213L152.736 78.8235V77.5407V76.9706C152.736 76.5145 153.027 75.8303 153.172 75.5452L152.736 74.9751L152.01 73.4072V71.9819V70.129C151.768 70.0814 151.255 69.9579 151.139 69.8439C151.023 69.7299 150.607 69.1312 150.413 68.8461L150.123 67.7059L149.397 67.1357L148.816 66.7081L147.8 66.4231L147.219 66.7081L145.912 66.8507L145.186 66.4231L144.896 65.4253V64.8552L145.186 64.1425L145.912 63.7149L145.622 62.4321V61.5769L145.331 61.0068H144.896V60.2941H145.331L145.622 60.009L146.057 59.8665C146.202 59.724 146.551 59.4674 146.783 59.5814C147.015 59.6955 147.461 59.819 147.654 59.8665L148.235 60.2941L148.816 60.009L150.123 59.8665L150.704 59.5814L151.139 58.8688L151.575 58.5837L153.608 58.2986V57.871L154.188 57.4434V56.1606L154.624 55.8756V54.5928C154.914 54.5452 155.466 54.3932 155.35 54.1652C155.234 53.9371 154.914 53.405 154.769 53.1674L154.188 52.3122L153.608 51.8846L153.317 50.3167V49.0339L155.35 47.3235L155.786 46.1833V45.1855H156.657Z" stroke="black"/>
<path d="M155.06 83.2421L154.769 82.3869L154.479 81.8167L155.931 82.3869L156.512 82.8145L156.947 83.5271H155.931L155.06 83.2421Z" stroke="black"/>
<path d="M158.545 84.2398L157.673 83.8122V83.2421L158.69 83.3846L158.835 83.6697L159.851 83.8122L160.723 83.9547L161.449 84.2398L161.303 84.8099H160.432C160.2 84.8099 160.335 84.4299 160.432 84.2398H159.416H158.545Z" stroke="black"/>
<path d="M80.7165 8.6968L79.2645 7.98413V9.1244L79.4097 10.4072L79.1193 10.5497L78.9741 11.1199H78.3933V11.8325C78.3933 11.9466 78.5869 12.1651 78.6837 12.2601L79.5549 12.4027L79.8453 13.1154L80.2809 14.1131H79.5549L79.2645 15.1108H77.9577L77.5221 15.681V19.957L76.3605 21.2398L76.07 21.3823L76.5057 22.2375C76.3605 22.285 76.041 22.3801 75.9248 22.3801H75.1988V22.6651L74.9084 22.9502L75.0536 23.5203L75.344 24.0905L75.0536 24.9457L75.1988 25.5158L75.344 26.2285L74.9084 26.7986L74.618 27.2262H73.7468H73.166L72.2948 26.6561C72.0528 26.6561 71.4816 26.6276 71.1332 26.5135C70.7847 26.3995 70.6008 26.6561 70.5524 26.7986H69.3907H67.9387C67.8225 26.7986 67.3095 26.8936 67.0675 26.9411C66.0511 26.9411 63.9602 26.9126 63.7278 26.7986C63.4955 26.6846 62.7598 26.7511 62.421 26.7986H61.4046C61.211 26.8461 60.7947 26.9126 60.6786 26.7986L60.243 26.371L59.8074 25.9434L58.7909 26.2285L58.2101 26.6561C57.7261 26.6086 56.7291 26.5135 56.6129 26.5135C56.4967 26.5135 56.5645 26.0384 56.6129 25.8009L56.4677 25.2307L55.8869 24.6606L55.3061 25.2307L54.8705 25.8009L54.5801 26.6561L54.8705 27.3687L55.4513 28.0814L55.8869 28.9366L55.4513 29.7918L54.8705 30.362L53.9993 30.5045L53.5637 31.5022L53.2733 32.3574L53.5637 33.3552L54.1445 34.3529L54.5801 35.2081V39.9117L55.8869 40.9095L56.7581 41.9072L57.3389 42.6199L58.0649 43.3326L57.3389 44.0452L56.7581 44.7579L55.8869 45.043L55.3061 45.8982L54.8705 46.4683L53.9993 48.3212L53.2733 48.7488L52.9828 49.1764L53.1281 49.8891L53.2733 50.1742L52.9828 50.6018L52.8376 50.8868L53.2733 51.0294H53.8541L54.4349 50.6018L54.8705 51.0294H55.8869H57.0485L57.7745 51.1719L58.3553 51.5995L59.3718 52.0271L59.2266 54.4502L59.3718 55.733L57.0485 57.4434L56.0321 58.4411L55.7417 58.8687V59.4389V60.5792L55.5965 61.4344H54.7253H53.7089L53.2733 61.7194L52.6924 62.7172V63.4298L52.402 64.4276L52.2568 65.1402V65.7104C52.402 65.9954 52.7215 66.5656 52.8376 66.5656C52.9538 66.5656 53.5637 67.1357 53.8541 67.4208C54.2897 67.5158 55.219 67.7059 55.4513 67.7059C55.6836 67.7059 56.5161 68.276 56.9033 68.5611L59.3718 69.7013L61.8402 69.8439L63.147 70.1289L64.3086 70.414H68.8099L73.892 70.5565L74.9084 70.8416C75.6344 70.8891 77.1155 70.9841 77.2317 70.9841C77.3478 70.9841 78.3449 71.0792 78.8289 71.1267L80.4261 71.2692L84.0562 71.8393L87.9767 72.6945L89.8643 72.9796L91.6067 73.2647L93.2039 73.4072L95.382 73.2647L97.1244 73.8348L98.4312 74.2624L99.7381 74.9751L101.335 75.5452C101.674 75.6878 102.381 75.9728 102.497 75.9728C102.613 75.9728 103.32 76.2579 103.659 76.4004L105.111 77.3982L106.998 79.1086L107.434 79.9638C107.869 80.1538 108.77 80.5339 108.886 80.5339C109.002 80.5339 110.58 80.724 111.354 80.819L112.225 81.104C112.564 81.2941 113.271 81.7027 113.387 81.8167C113.503 81.9307 113.629 82.4344 113.678 82.6719L114.258 83.2421C114.597 83.2896 115.304 83.3846 115.42 83.3846C115.536 83.3846 115.662 83.0995 115.71 82.957L116.582 82.5294C116.814 82.4154 116.969 82.957 117.017 83.2421H118.905C119.195 83.2421 120.647 84.0973 121.083 84.0973C121.431 84.0973 123.164 84.4773 123.987 84.6674L125.294 85.095C125.729 85.2375 126.659 85.4941 126.891 85.3801C127.123 85.266 127.472 85.3326 127.617 85.3801L129.069 85.8077C129.359 85.9027 130.027 86.0927 130.376 86.0927H131.247L132.409 86.6629C132.989 86.6629 134.209 86.6914 134.441 86.8054C134.674 86.9194 135.603 86.7579 136.039 86.6629L137.781 86.9479C138.12 86.9004 138.827 86.7769 138.943 86.6629C139.059 86.5488 139.669 86.3303 139.959 86.2353L140.976 86.0927C141.072 85.9027 141.295 85.4941 141.411 85.3801C141.527 85.266 141.169 84.9525 140.976 84.8099V84.0973V82.8145L141.266 82.1018C141.556 82.0543 142.166 81.9307 142.282 81.8167C142.399 81.7027 142.815 81.5792 143.008 81.5316C143.347 81.5316 144.112 81.5031 144.46 81.3891C144.809 81.2751 144.896 81.3416 144.896 81.3891C144.993 81.3891 145.274 81.3606 145.622 81.2466C145.971 81.1326 146.058 81.3891 146.058 81.5316H147.655H148.671L149.252 81.104H150.123L151.14 81.3891L151.721 81.6742H152.592C152.737 81.6267 153.027 81.5031 153.027 81.3891C153.027 81.2466 152.592 80.5339 152.447 80.3914C152.301 80.2488 151.14 79.6787 151.14 79.3936V78.681C151.188 78.4909 151.314 78.0823 151.43 77.9683C151.575 77.8258 151.721 76.828 151.721 76.543V75.6878L151.14 74.5475L150.559 73.5497L150.269 72.9796V72.4095V71.6968L149.543 70.5565L148.817 68.7036L148.09 68.276H147.219L144.46 67.9909L143.88 67.5633L143.734 66.8507L143.589 65.8529L143.444 64.9977L143.734 64.285L144.315 63.7149L144.17 62.2896L143.734 61.2918L143.444 60.5792V59.8665L144.315 59.4389L144.896 59.0113L145.767 58.7262L146.493 58.4411H147.51L148.09 59.0113H148.817C148.933 59.0113 149.543 58.9163 149.833 58.8687L150.269 58.0135C150.511 57.871 151.024 57.5859 151.14 57.5859C151.256 57.5859 151.672 57.3959 151.866 57.3009L152.592 57.4434L152.882 56.7307V55.4479C152.882 55.3054 153.027 54.8778 153.173 54.5927C153.289 54.3647 153.318 53.9276 153.318 53.7375L153.173 53.3099L152.301 52.8823V51.8846L152.011 50.7443L151.721 49.8891V49.319L152.447 48.8914V48.3212L152.592 47.7511L153.318 47.6086L154.044 46.8959C154.189 46.7534 154.479 46.4398 154.479 46.3258C154.479 46.2117 154.77 45.8982 154.915 45.7556C154.963 45.6131 155.06 45.271 155.06 45.043C155.06 44.8149 154.867 44.6629 154.77 44.6154L154.334 44.7579L153.753 45.328L152.882 45.6131L151.721 45.8982L150.559 45.7556L149.543 45.6131C149.301 45.4706 148.758 45.157 148.526 45.043C148.294 44.9289 148.623 44.8054 148.817 44.7579L148.381 44.0452L148.09 43.7602L147.655 44.0452L146.784 43.9027H145.767L145.041 43.0475C144.799 42.8574 144.286 42.4488 144.17 42.3348C144.054 42.2208 143.928 41.5271 143.88 41.1945L143.589 40.4819V39.6267L143.154 38.2013V37.6312L142.863 36.6335V35.6357L143.008 35.0656L142.718 34.0678H141.992V33.6402L142.718 33.3552V32.2149L142.428 31.5022H141.266L140.685 30.7896L139.814 30.362L138.362 29.5068L135.893 26.6561L135.458 25.0882L135.893 24.5181L135.458 23.2353H134.441L133.57 22.5226L132.699 21.9525L132.263 22.5226H129.795L129.069 23.2353L129.795 23.9479L129.069 25.0882L128.198 25.5158H126.891V26.0859H126.165H124.568L118.614 22.5226H118.034L117.743 21.9525H116.436H115.565V21.3823L114.694 21.0973L113.823 20.2421L113.532 19.6719H112.806L112.225 20.2421L110.773 20.6697L110.047 21.3823H108.741H107.579V21.9525H106.127H105.256V21.3823L104.965 20.6697L103.223 19.6719L101.045 19.2443L99.3025 18.5316L96.9792 17.2488L96.3984 15.8235L95.382 14.2556L93.93 11.9751L92.7683 11.1199L92.3327 10.4072L90.2999 10.1221L88.5575 10.4072L87.2506 11.1199H85.5082H83.7658L83.0398 10.1221L82.0234 9.1244H81.1521L80.7165 8.6968Z" fill="#BDB2BB" stroke="black"/>
<path d="M20.7475 36.2058V33.2126L21.0379 32.3574H21.764V32.785L22.0544 33.3551L23.5064 33.9252L24.668 33.6402L26.2652 33.3551L27.7173 32.0723L28.2981 31.3596L28.5885 29.9343L28.8789 29.5067L29.0241 28.0814L28.8789 27.5112L29.0241 26.656L29.1693 24.9456L29.4597 24.0904L29.7501 23.8053L29.4597 23.0927L29.0241 22.8076V22.0949V21.2397L29.3145 20.3845L29.4597 19.6718H29.8953V18.8166L30.1857 17.9614L30.4761 17.5338L30.7665 16.9637V16.3936L31.2021 16.1085L31.4925 15.966V15.5384V14.8257L31.7829 14.3981L32.0733 14.113H32.5089L32.9446 13.828L33.961 12.8302L34.5418 12.5452L35.1226 11.975L35.413 11.4049L35.5582 10.8347L35.8486 10.1221L36.2842 9.83701V8.41167L36.4294 7.84153L37.1554 6.98633H38.8979L39.4787 7.699V8.41167L39.7691 9.26687L39.4787 9.97954V10.4071L39.7691 10.8347L41.0759 12.2601L41.6567 12.5452L42.3827 12.8302H43.9799L44.5607 12.5452L45.432 12.4026L46.0128 11.975L46.3032 11.1198L46.7388 10.8347V10.5497V9.97954L47.0292 9.55194L47.4648 9.40941L48.0456 9.55194L48.6264 9.97954L49.3524 10.1221L49.788 10.4071L50.3689 10.8347H51.0949L51.9661 11.1198V11.975L52.4017 12.5452L53.1277 12.8302L53.5633 13.2578H54.4345L55.1605 13.5429L55.7413 13.6854V14.113H56.3222H57.1934L57.3386 13.828L57.629 13.6854V13.4004V12.9728L58.0646 12.8302L58.2098 12.5452H58.9358L59.2262 12.9728H59.807V13.1153V13.4004H60.533L60.9686 13.2578V12.9728H61.6946L62.1303 12.8302L62.2755 12.5452H62.7111L63.0015 12.8302H63.5823L64.0179 12.9728L64.3083 12.5452H64.8891L65.1795 12.6877L65.3247 14.6832L64.3083 15.1108V18.389L64.5987 19.2442L65.7603 19.3868V20.242L65.9055 21.2397L66.7767 21.3823L66.9219 21.9524L67.3575 23.2352L67.6479 23.9479L68.2288 24.8031L67.6479 25.6583L61.6946 25.8008L60.9686 25.3732L60.533 25.0881L59.2262 24.8031L58.355 24.3755L57.3386 24.2329L56.6126 23.9479H55.4509L55.0153 24.2329L54.4345 24.6605L54.1441 25.2307L53.7085 25.5157L53.5633 26.656L53.9989 27.6537V28.3664L54.4345 28.794V29.5067H53.9989L52.6921 29.7918L52.4017 30.5044L52.1113 31.9298L52.4017 32.785L52.5469 34.0678L52.8373 34.2103V34.923L53.2729 35.0655V35.6357V40.3393L53.9989 41.1945L54.8701 42.4773L56.4674 43.1899L55.5961 44.0452L53.9989 45.328L53.2729 46.8958L52.1113 48.0361V49.3189L51.5305 51.8845C51.1917 51.9795 50.3979 52.1126 49.9332 51.8845C49.4686 51.6565 48.2876 51.2194 47.7552 51.0293L45.5772 49.3189H44.2703L42.2375 48.7488L40.3499 47.466L38.8979 45.8981L36.865 45.328L35.5582 44.6153H31.9281V45.328H30.0405L27.1364 45.8981L25.394 45.328L22.49 45.8981H20.7475L18.2791 46.4682H17.1175L15.375 46.8958L13.6326 46.4682L14.7942 45.328L15.6655 44.0452V42.4773L17.1175 41.1945L18.2791 39.7691L20.0215 38.0587L20.7475 36.2058Z" fill="#BDB2BB"/>
<path d="M11.4546 45.8981L10.4382 45.328H9.85735L9.42175 44.7578L8.55053 44.6153H7.96972L7.38891 44.3302H6.51769L5.79168 44.6153L5.35608 45.0429L5.06567 45.7556H4.48486H4.19446V45.1854V44.3302L3.61365 44.0452V43.475L3.90405 43.3325L4.48486 43.7601L5.06567 43.475L5.21087 42.7623L6.08209 42.0497L7.09851 41.4795L7.82452 41.0519L7.96972 40.0542V39.3415L8.98614 38.9139L9.27654 39.3415L9.56695 40.0542V40.9094V41.7646V42.4773L10.4382 43.3325L11.4546 44.0452L11.745 45.1854L11.4546 45.8981Z" fill="#BDB2BB"/>
<path d="M1.29041 35.4931L1 34.923L1.58081 34.4954L2.74243 34.923L2.88763 34.3528L3.61365 34.4954V35.4931H4.19446V36.7759H3.61365V37.4886H2.74243V37.061H1.87121V36.2058L1.29041 35.4931Z" fill="#BDB2BB"/>
<path d="M20.7475 36.2058V33.2126L21.0379 32.3574H21.764V32.785L22.0544 33.3551L23.5064 33.9252L24.668 33.6402L26.2652 33.3551L27.7173 32.0723L28.2981 31.3596L28.5885 29.9343L28.8789 29.5067L29.0241 28.0814L28.8789 27.5112L29.0241 26.656L29.1693 24.9456L29.4597 24.0904L29.7501 23.8053L29.4597 23.0927L29.0241 22.8076V22.0949V21.2397L29.3145 20.3845L29.4597 19.6718H29.8953V18.8166L30.1857 17.9614L30.4761 17.5338L30.7665 16.9637V16.3936L31.2021 16.1085L31.4925 15.966V15.5384V14.8257L31.7829 14.3981L32.0733 14.113H32.5089L32.9446 13.828L33.961 12.8302L34.5418 12.5452L35.1226 11.975L35.413 11.4049L35.5582 10.8347L35.8486 10.1221L36.2842 9.83701V8.41167L36.4294 7.84153L37.1554 6.98633H38.8979L39.4787 7.699V8.41167L39.7691 9.26687L39.4787 9.97954V10.4071L39.7691 10.8347L41.0759 12.2601L41.6567 12.5452L42.3827 12.8302H43.9799L44.5607 12.5452L45.432 12.4026L46.0128 11.975L46.3032 11.1198L46.7388 10.8347V10.5497V9.97954L47.0292 9.55194L47.4648 9.40941L48.0456 9.55194L48.6264 9.97954L49.3524 10.1221L49.788 10.4071L50.3689 10.8347H51.0949L51.9661 11.1198V11.975L52.4017 12.5452L53.1277 12.8302L53.5633 13.2578H54.4345L55.1605 13.5429L55.7413 13.6854V14.113H56.3222H57.1934L57.3386 13.828L57.629 13.6854V13.4004V12.9728L58.0646 12.8302L58.2098 12.5452H58.9358L59.2262 12.9728H59.807V13.1153V13.4004H60.533L60.9686 13.2578V12.9728H61.6946L62.1303 12.8302L62.2755 12.5452H62.7111L63.0015 12.8302H63.5823L64.0179 12.9728L64.3083 12.5452H64.8891L65.1795 12.6877L65.3247 14.6832L64.3083 15.1108V18.389L64.5987 19.2442L65.7603 19.3868V20.242L65.9055 21.2397L66.7767 21.3823L66.9219 21.9524L67.3575 23.2352L67.6479 23.9479L68.2288 24.8031L67.6479 25.6583L61.6946 25.8008L60.9686 25.3732L60.533 25.0881L59.2262 24.8031L58.355 24.3755L57.3386 24.2329L56.6126 23.9479H55.4509L55.0153 24.2329L54.4345 24.6605L54.1441 25.2307L53.7085 25.5157L53.5633 26.656L53.9989 27.6537V28.3664L54.4345 28.794V29.5067H53.9989L52.6921 29.7918L52.4017 30.5044L52.1113 31.9298L52.4017 32.785L52.5469 34.0678L52.8373 34.2103V34.923L53.2729 35.0655V35.6357V40.3393L53.9989 41.1945L54.8701 42.4773L56.4674 43.1899L55.5961 44.0452L53.9989 45.328L53.2729 46.8958L52.1113 48.0361V49.3189L51.5305 51.8845C51.1917 51.9795 50.3979 52.1126 49.9332 51.8845C49.4686 51.6565 48.2876 51.2194 47.7552 51.0293L45.5772 49.3189H44.2703L42.2375 48.7488L40.3499 47.466L38.8979 45.8981L36.865 45.328L35.5582 44.6153H31.9281V45.328H30.0405L27.1364 45.8981L25.394 45.328L22.49 45.8981H20.7475L18.2791 46.4682H17.1175L15.375 46.8958L13.6326 46.4682L14.7942 45.328L15.6655 44.0452V42.4773L17.1175 41.1945L18.2791 39.7691L20.0215 38.0587L20.7475 36.2058Z" stroke="black"/>
<path d="M11.4546 45.8981L10.4382 45.328H9.85735L9.42175 44.7578L8.55053 44.6153H7.96972L7.38891 44.3302H6.51769L5.79168 44.6153L5.35608 45.0429L5.06567 45.7556H4.48486H4.19446V45.1854V44.3302L3.61365 44.0452V43.475L3.90405 43.3325L4.48486 43.7601L5.06567 43.475L5.21087 42.7623L6.08209 42.0497L7.09851 41.4795L7.82452 41.0519L7.96972 40.0542V39.3415L8.98614 38.9139L9.27654 39.3415L9.56695 40.0542V40.9094V41.7646V42.4773L10.4382 43.3325L11.4546 44.0452L11.745 45.1854L11.4546 45.8981Z" stroke="black"/>
<path d="M1.29041 35.4931L1 34.923L1.58081 34.4954L2.74243 34.923L2.88763 34.3528L3.61365 34.4954V35.4931H4.19446V36.7759H3.61365V37.4886H2.74243V37.061H1.87121V36.2058L1.29041 35.4931Z" stroke="black"/>
<path d="M80.7165 8.6968L79.2645 7.98413V9.1244L79.4097 10.4072L79.1193 10.5497L78.9741 11.1199H78.3933V11.8325C78.3933 11.9466 78.5869 12.1651 78.6837 12.2601L79.5549 12.4027L79.8453 13.1154L80.2809 14.1131H79.5549L79.2645 15.1108H77.9577L77.5221 15.681V19.957L76.3605 21.2398L76.07 21.3823L76.5057 22.2375C76.3605 22.285 76.041 22.3801 75.9248 22.3801H75.1988V22.6651L74.9084 22.9502L75.0536 23.5203L75.344 24.0905L75.0536 24.9457L75.1988 25.5158L75.344 26.2285L74.9084 26.7986L74.618 27.2262H73.7468H73.166L72.2948 26.6561C72.0528 26.6561 71.4816 26.6276 71.1332 26.5135C70.7847 26.3995 70.6008 26.6561 70.5524 26.7986H69.3907H67.9387C67.8225 26.7986 67.3095 26.8936 67.0675 26.9411C66.0511 26.9411 63.9602 26.9126 63.7278 26.7986C63.4955 26.6846 62.7598 26.7511 62.421 26.7986H61.4046C61.211 26.8461 60.7947 26.9126 60.6786 26.7986L60.243 26.371L59.8074 25.9434L58.7909 26.2285L58.2101 26.6561C57.7261 26.6086 56.7291 26.5135 56.6129 26.5135C56.4967 26.5135 56.5645 26.0384 56.6129 25.8009L56.4677 25.2307L55.8869 24.6606L55.3061 25.2307L54.8705 25.8009L54.5801 26.6561L54.8705 27.3687L55.4513 28.0814L55.8869 28.9366L55.4513 29.7918L54.8705 30.362L53.9993 30.5045L53.5637 31.5022L53.2733 32.3574L53.5637 33.3552L54.1445 34.3529L54.5801 35.2081V39.9117L55.8869 40.9095L56.7581 41.9072L57.3389 42.6199L58.0649 43.3326L57.3389 44.0452L56.7581 44.7579L55.8869 45.043L55.3061 45.8982L54.8705 46.4683L53.9993 48.3212L53.2733 48.7488L52.9828 49.1764L53.1281 49.8891L53.2733 50.1742L52.9828 50.6018L52.8376 50.8868L53.2733 51.0294H53.8541L54.4349 50.6018L54.8705 51.0294H55.8869H57.0485L57.7745 51.1719L58.3553 51.5995L59.3718 52.0271L59.2266 54.4502L59.3718 55.733L57.0485 57.4434L56.0321 58.4411L55.7417 58.8687V59.4389V60.5792L55.5965 61.4344H54.7253H53.7089L53.2733 61.7194L52.6924 62.7172V63.4298L52.402 64.4276L52.2568 65.1402V65.7104C52.402 65.9954 52.7215 66.5656 52.8376 66.5656C52.9538 66.5656 53.5637 67.1357 53.8541 67.4208C54.2897 67.5158 55.219 67.7059 55.4513 67.7059C55.6836 67.7059 56.5161 68.276 56.9033 68.5611L59.3718 69.7013L61.8402 69.8439L63.147 70.1289L64.3086 70.414H68.8099L73.892 70.5565L74.9084 70.8416C75.6344 70.8891 77.1155 70.9841 77.2317 70.9841C77.3478 70.9841 78.3449 71.0792 78.8289 71.1267L80.4261 71.2692L84.0562 71.8393L87.9767 72.6945L89.8643 72.9796L91.6067 73.2647L93.2039 73.4072L95.382 73.2647L97.1244 73.8348L98.4312 74.2624L99.7381 74.9751L101.335 75.5452C101.674 75.6878 102.381 75.9728 102.497 75.9728C102.613 75.9728 103.32 76.2579 103.659 76.4004L105.111 77.3982L106.998 79.1086L107.434 79.9638C107.869 80.1538 108.77 80.5339 108.886 80.5339C109.002 80.5339 110.58 80.724 111.354 80.819L112.225 81.104C112.564 81.2941 113.271 81.7027 113.387 81.8167C113.503 81.9307 113.629 82.4344 113.678 82.6719L114.258 83.2421C114.597 83.2896 115.304 83.3846 115.42 83.3846C115.536 83.3846 115.662 83.0995 115.71 82.957L116.582 82.5294C116.814 82.4154 116.969 82.957 117.017 83.2421H118.905C119.195 83.2421 120.647 84.0973 121.083 84.0973C121.431 84.0973 123.164 84.4773 123.987 84.6674L125.294 85.095C125.729 85.2375 126.659 85.4941 126.891 85.3801C127.123 85.266 127.472 85.3326 127.617 85.3801L129.069 85.8077C129.359 85.9027 130.027 86.0927 130.376 86.0927H131.247L132.409 86.6629C132.989 86.6629 134.209 86.6914 134.441 86.8054C134.674 86.9194 135.603 86.7579 136.039 86.6629L137.781 86.9479C138.12 86.9004 138.827 86.7769 138.943 86.6629C139.059 86.5488 139.669 86.3303 139.959 86.2353L140.976 86.0927C141.072 85.9027 141.295 85.4941 141.411 85.3801C141.527 85.266 141.169 84.9525 140.976 84.8099V84.0973V82.8145L141.266 82.1018C141.556 82.0543 142.166 81.9307 142.282 81.8167C142.399 81.7027 142.815 81.5792 143.008 81.5316C143.347 81.5316 144.112 81.5031 144.46 81.3891C144.809 81.2751 144.896 81.3416 144.896 81.3891C144.993 81.3891 145.274 81.3606 145.622 81.2466C145.971 81.1326 146.058 81.3891 146.058 81.5316H147.655H148.671L149.252 81.104H150.123L151.14 81.3891L151.721 81.6742H152.592C152.737 81.6267 153.027 81.5031 153.027 81.3891C153.027 81.2466 152.592 80.5339 152.447 80.3914C152.301 80.2488 151.14 79.6787 151.14 79.3936V78.681C151.188 78.4909 151.314 78.0823 151.43 77.9683C151.575 77.8258 151.721 76.828 151.721 76.543V75.6878L151.14 74.5475L150.559 73.5497L150.269 72.9796V72.4095V71.6968L149.543 70.5565L148.817 68.7036L148.09 68.276H147.219L144.46 67.9909L143.88 67.5633L143.734 66.8507L143.589 65.8529L143.444 64.9977L143.734 64.285L144.315 63.7149L144.17 62.2896L143.734 61.2918L143.444 60.5792V59.8665L144.315 59.4389L144.896 59.0113L145.767 58.7262L146.493 58.4411H147.51L148.09 59.0113H148.817C148.933 59.0113 149.543 58.9163 149.833 58.8687L150.269 58.0135C150.511 57.871 151.024 57.5859 151.14 57.5859C151.256 57.5859 151.672 57.3959 151.866 57.3009L152.592 57.4434L152.882 56.7307V55.4479C152.882 55.3054 153.027 54.8778 153.173 54.5927C153.289 54.3647 153.318 53.9276 153.318 53.7375L153.173 53.3099L152.301 52.8823V51.8846L152.011 50.7443L151.721 49.8891V49.319L152.447 48.8914V48.3212L152.592 47.7511L153.318 47.6086L154.044 46.8959C154.189 46.7534 154.479 46.4398 154.479 46.3258C154.479 46.2117 154.77 45.8982 154.915 45.7556C154.963 45.6131 155.06 45.271 155.06 45.043C155.06 44.8149 154.867 44.6629 154.77 44.6154L154.334 44.7579L153.753 45.328L152.882 45.6131L151.721 45.8982L150.559 45.7556L149.543 45.6131C149.301 45.4706 148.758 45.157 148.526 45.043C148.294 44.9289 148.623 44.8054 148.817 44.7579L148.381 44.0452L148.09 43.7602L147.655 44.0452L146.784 43.9027H145.767L145.041 43.0475C144.799 42.8574 144.286 42.4488 144.17 42.3348C144.054 42.2208 143.928 41.5271 143.88 41.1945L143.589 40.4819V39.6267L143.154 38.2013V37.6312L142.863 36.6335V35.6357L143.008 35.0656L142.718 34.0678H141.992V33.6402L142.718 33.3552V32.2149L142.428 31.5022H141.266L140.685 30.7896L139.814 30.362L138.362 29.5068L135.893 26.6561L135.458 25.0882L135.893 24.5181L135.458 23.2353H134.441L133.57 22.5226L132.699 21.9525L132.263 22.5226H129.795L129.069 23.2353L129.795 23.9479L129.069 25.0882L128.198 25.5158H126.891V26.0859H126.165H124.568L118.614 22.5226H118.034L117.743 21.9525H116.436H115.565V21.3823L114.694 21.0973L113.823 20.2421L113.532 19.6719H112.806L112.225 20.2421L110.773 20.6697L110.047 21.3823H108.741H107.579V21.9525H106.127H105.256V21.3823L104.965 20.6697L103.223 19.6719L101.045 19.2443L99.3025 18.5316L96.9792 17.2488L96.3984 15.8235L95.382 14.2556L93.93 11.9751L92.7683 11.1199L92.3327 10.4072L90.2999 10.1221L88.5575 10.4072L87.2506 11.1199H85.5082H83.7658L83.0398 10.1221L82.0234 9.1244H81.1521L80.7165 8.6968Z" fill="#BDB2BB" stroke="black"/>
<path d="M20.7475 36.2058V33.2126L21.0379 32.3574H21.764V32.785L22.0544 33.3551L23.5064 33.9252L24.668 33.6402L26.2652 33.3551L27.7173 32.0723L28.2981 31.3596L28.5885 29.9343L28.8789 29.5067L29.0241 28.0814L28.8789 27.5112L29.0241 26.656L29.1693 24.9456L29.4597 24.0904L29.7501 23.8053L29.4597 23.0927L29.0241 22.8076V22.0949V21.2397L29.3145 20.3845L29.4597 19.6718H29.8953V18.8166L30.1857 17.9614L30.4761 17.5338L30.7665 16.9637V16.3936L31.2021 16.1085L31.4925 15.966V15.5384V14.8257L31.7829 14.3981L32.0733 14.113H32.5089L32.9446 13.828L33.961 12.8302L34.5418 12.5452L35.1226 11.975L35.413 11.4049L35.5582 10.8347L35.8486 10.1221L36.2842 9.83701V8.41167L36.4294 7.84153L37.1554 6.98633H38.8979L39.4787 7.699V8.41167L39.7691 9.26687L39.4787 9.97954V10.4071L39.7691 10.8347L41.0759 12.2601L41.6567 12.5452L42.3827 12.8302H43.9799L44.5607 12.5452L45.432 12.4026L46.0128 11.975L46.3032 11.1198L46.7388 10.8347V10.5497V9.97954L47.0292 9.55194L47.4648 9.40941L48.0456 9.55194L48.6264 9.97954L49.3524 10.1221L49.788 10.4071L50.3689 10.8347H51.0949L51.9661 11.1198V11.975L52.4017 12.5452L53.1277 12.8302L53.5633 13.2578H54.4345L55.1605 13.5429L55.7413 13.6854V14.113H56.3222H57.1934L57.3386 13.828L57.629 13.6854V13.4004V12.9728L58.0646 12.8302L58.2098 12.5452H58.9358L59.2262 12.9728H59.807V13.1153V13.4004H60.533L60.9686 13.2578V12.9728H61.6946L62.1303 12.8302L62.2755 12.5452H62.7111L63.0015 12.8302H63.5823L64.0179 12.9728L64.3083 12.5452H64.8891L65.1795 12.6877L65.3247 14.6832L64.3083 15.1108V18.389L64.5987 19.2442L65.7603 19.3868V20.242L65.9055 21.2397L66.7767 21.3823L66.9219 21.9524L67.3575 23.2352L67.6479 23.9479L68.2288 24.8031L67.6479 25.6583L61.6946 25.8008L60.9686 25.3732L60.533 25.0881L59.2262 24.8031L58.355 24.3755L57.3386 24.2329L56.6126 23.9479H55.4509L55.0153 24.2329L54.4345 24.6605L54.1441 25.2307L53.7085 25.5157L53.5633 26.656L53.9989 27.6537V28.3664L54.4345 28.794V29.5067H53.9989L52.6921 29.7918L52.4017 30.5044L52.1113 31.9298L52.4017 32.785L52.5469 34.0678L52.8373 34.2103V34.923L53.2729 35.0655V35.6357V40.3393L53.9989 41.1945L54.8701 42.4773L56.4674 43.1899L55.5961 44.0452L53.9989 45.328L53.2729 46.8958L52.1113 48.0361V49.3189L51.5305 51.8845C51.1917 51.9795 50.3979 52.1126 49.9332 51.8845C49.4686 51.6565 48.2876 51.2194 47.7552 51.0293L45.5772 49.3189H44.2703L42.2375 48.7488L40.3499 47.466L38.8979 45.8981L36.865 45.328L35.5582 44.6153H31.9281V45.328H30.0405L27.1364 45.8981L25.394 45.328L22.49 45.8981H20.7475L18.2791 46.4682H17.1175L15.375 46.8958L13.6326 46.4682L14.7942 45.328L15.6655 44.0452V42.4773L17.1175 41.1945L18.2791 39.7691L20.0215 38.0587L20.7475 36.2058Z" fill="#BDB2BB"/>
<path d="M11.4546 45.8981L10.4382 45.328H9.85735L9.42175 44.7578L8.55053 44.6153H7.96972L7.38891 44.3302H6.51769L5.79168 44.6153L5.35608 45.0429L5.06567 45.7556H4.48486H4.19446V45.1854V44.3302L3.61365 44.0452V43.475L3.90405 43.3325L4.48486 43.7601L5.06567 43.475L5.21087 42.7623L6.08209 42.0497L7.09851 41.4795L7.82452 41.0519L7.96972 40.0542V39.3415L8.98614 38.9139L9.27654 39.3415L9.56695 40.0542V40.9094V41.7646V42.4773L10.4382 43.3325L11.4546 44.0452L11.745 45.1854L11.4546 45.8981Z" fill="#BDB2BB"/>
<path d="M1.29041 35.4931L1 34.923L1.58081 34.4954L2.74243 34.923L2.88763 34.3528L3.61365 34.4954V35.4931H4.19446V36.7759H3.61365V37.4886H2.74243V37.061H1.87121V36.2058L1.29041 35.4931Z" fill="#BDB2BB"/>
<path d="M20.7475 36.2058V33.2126L21.0379 32.3574H21.764V32.785L22.0544 33.3551L23.5064 33.9252L24.668 33.6402L26.2652 33.3551L27.7173 32.0723L28.2981 31.3596L28.5885 29.9343L28.8789 29.5067L29.0241 28.0814L28.8789 27.5112L29.0241 26.656L29.1693 24.9456L29.4597 24.0904L29.7501 23.8053L29.4597 23.0927L29.0241 22.8076V22.0949V21.2397L29.3145 20.3845L29.4597 19.6718H29.8953V18.8166L30.1857 17.9614L30.4761 17.5338L30.7665 16.9637V16.3936L31.2021 16.1085L31.4925 15.966V15.5384V14.8257L31.7829 14.3981L32.0733 14.113H32.5089L32.9446 13.828L33.961 12.8302L34.5418 12.5452L35.1226 11.975L35.413 11.4049L35.5582 10.8347L35.8486 10.1221L36.2842 9.83701V8.41167L36.4294 7.84153L37.1554 6.98633H38.8979L39.4787 7.699V8.41167L39.7691 9.26687L39.4787 9.97954V10.4071L39.7691 10.8347L41.0759 12.2601L41.6567 12.5452L42.3827 12.8302H43.9799L44.5607 12.5452L45.432 12.4026L46.0128 11.975L46.3032 11.1198L46.7388 10.8347V10.5497V9.97954L47.0292 9.55194L47.4648 9.40941L48.0456 9.55194L48.6264 9.97954L49.3524 10.1221L49.788 10.4071L50.3689 10.8347H51.0949L51.9661 11.1198V11.975L52.4017 12.5452L53.1277 12.8302L53.5633 13.2578H54.4345L55.1605 13.5429L55.7413 13.6854V14.113H56.3222H57.1934L57.3386 13.828L57.629 13.6854V13.4004V12.9728L58.0646 12.8302L58.2098 12.5452H58.9358L59.2262 12.9728H59.807V13.1153V13.4004H60.533L60.9686 13.2578V12.9728H61.6946L62.1303 12.8302L62.2755 12.5452H62.7111L63.0015 12.8302H63.5823L64.0179 12.9728L64.3083 12.5452H64.8891L65.1795 12.6877L65.3247 14.6832L64.3083 15.1108V18.389L64.5987 19.2442L65.7603 19.3868V20.242L65.9055 21.2397L66.7767 21.3823L66.9219 21.9524L67.3575 23.2352L67.6479 23.9479L68.2288 24.8031L67.6479 25.6583L61.6946 25.8008L60.9686 25.3732L60.533 25.0881L59.2262 24.8031L58.355 24.3755L57.3386 24.2329L56.6126 23.9479H55.4509L55.0153 24.2329L54.4345 24.6605L54.1441 25.2307L53.7085 25.5157L53.5633 26.656L53.9989 27.6537V28.3664L54.4345 28.794V29.5067H53.9989L52.6921 29.7918L52.4017 30.5044L52.1113 31.9298L52.4017 32.785L52.5469 34.0678L52.8373 34.2103V34.923L53.2729 35.0655V35.6357V40.3393L53.9989 41.1945L54.8701 42.4773L56.4674 43.1899L55.5961 44.0452L53.9989 45.328L53.2729 46.8958L52.1113 48.0361V49.3189L51.5305 51.8845C51.1917 51.9795 50.3979 52.1126 49.9332 51.8845C49.4686 51.6565 48.2876 51.2194 47.7552 51.0293L45.5772 49.3189H44.2703L42.2375 48.7488L40.3499 47.466L38.8979 45.8981L36.865 45.328L35.5582 44.6153H31.9281V45.328H30.0405L27.1364 45.8981L25.394 45.328L22.49 45.8981H20.7475L18.2791 46.4682H17.1175L15.375 46.8958L13.6326 46.4682L14.7942 45.328L15.6655 44.0452V42.4773L17.1175 41.1945L18.2791 39.7691L20.0215 38.0587L20.7475 36.2058Z" stroke="black"/>
<path d="M11.4546 45.8981L10.4382 45.328H9.85735L9.42175 44.7578L8.55053 44.6153H7.96972L7.38891 44.3302H6.51769L5.79168 44.6153L5.35608 45.0429L5.06567 45.7556H4.48486H4.19446V45.1854V44.3302L3.61365 44.0452V43.475L3.90405 43.3325L4.48486 43.7601L5.06567 43.475L5.21087 42.7623L6.08209 42.0497L7.09851 41.4795L7.82452 41.0519L7.96972 40.0542V39.3415L8.98614 38.9139L9.27654 39.3415L9.56695 40.0542V40.9094V41.7646V42.4773L10.4382 43.3325L11.4546 44.0452L11.745 45.1854L11.4546 45.8981Z" stroke="black"/>
<path d="M1.29041 35.4931L1 34.923L1.58081 34.4954L2.74243 34.923L2.88763 34.3528L3.61365 34.4954V35.4931H4.19446V36.7759H3.61365V37.4886H2.74243V37.061H1.87121V36.2058L1.29041 35.4931Z" stroke="black"/>
<path d="M254.088 66.7081L253.508 65.5679L254.088 64.8552L254.524 64.4276H255.25H255.831H256.412V64.8552L256.121 65.2828V66.4231L257.428 67.1357H258.444L258.88 66.8507L260.042 67.7059L261.203 68.4186H262.51L264.107 68.8462H265.269L266.721 69.2738L267.302 68.8462V67.7059V66.8507L266.721 66.138V65.2828L267.302 64.8552H267.883H268.754C268.657 64.5701 268.521 63.9715 268.754 63.8575C268.986 63.7434 269.722 63.3348 270.061 63.1448L271.367 62.2896H272.384L272.093 61.2919L273.11 59.8665C273.207 59.724 273.429 59.3534 273.546 59.0113L273.836 58.1561V57.1584L274.417 55.8756V55.3054C274.32 55.1154 274.068 54.6498 273.836 54.3077C273.604 53.9656 273.739 53.5 273.836 53.31V52.4548V51.8846L273.11 51.0294H272.384L272.093 50.1742L273.11 49.6041L273.836 48.6063V47.6086V46.3258H274.417H275.288L275.724 45.6131V45.1855L276.014 44.4729L276.595 44.0452L278.337 43.6176L279.499 44.0452L281.386 44.9005H282.984H284.29L285.597 44.4729L286.469 44.0452L287.34 43.3326L288.356 44.0452L290.97 48.0362L291.986 49.1765H294.019H297.068L298.085 48.6063H299.682L302.15 48.0362H304.038H306.942L308.539 48.6063L309.265 49.6041L311.153 49.8891L312.024 49.1765L312.895 48.6063V47.6086L313.621 48.0362L314.347 49.8891V51.8846H314.783L315.073 53.31L316.235 53.7376L316.961 54.3077L316.235 55.0204L315.654 55.8756V57.586V59.0113L316.961 59.8665V60.5792V62.0045L317.687 63.1448H318.994H320.446L320.882 62.4321V62.0045L322.188 62.4321L323.495 64L323.786 65.1403H322.624L323.495 65.8529L324.221 66.5656L324.512 67.5634L323.495 67.991V69.7014H324.221V70.5566V72.552H323.06V73.1222L323.495 73.9774L324.512 74.8326L325.238 75.6878L324.512 76.2579V77.1131L325.238 78.3959L325.818 78.8235L327.125 79.5362L328.432 79.9638L329.884 80.2489C330.223 80.4389 331.017 80.819 331.481 80.819H331.917H333.514C333.863 80.819 334.047 81.4842 334.095 81.8167C334.627 82.3394 335.692 83.4416 335.692 83.6697C335.692 83.8977 336.563 83.7647 336.999 83.6697L339.032 85.095H340.048L340.484 84.6674H341.5L342.517 85.3801L343.388 86.5204H343.969V86.0928H345.856L348.034 85.095L350.212 84.2398L351.81 83.3846L353.552 83.0995L356.166 83.6697H357.473L359.651 84.2398H360.522L361.393 83.6697H362.264L363.716 84.2398H365.168L365.894 83.6697L366.911 82.8145L367.492 82.2443H368.944L370.105 83.0995H371.267L372.283 82.2443L374.752 79.9638L375.187 79.2511H376.058L376.349 79.9638L377.22 81.8167L379.108 83.6697H382.447H384.48L387.094 85.095H388.546L389.853 85.6652L392.321 86.5204L393.192 87.6606L392.321 90.5113L391.595 91.5091V92.5068V97.0679L391.16 98.9208L390.434 100.346V101.771L389.853 103.339V105.477L388.836 108.043L387.675 111.749L388.11 114.029L388.836 115.312L388.11 116.452V117.165L389.272 117.735H390.434L390.724 119.018L391.595 120.871L393.047 122.154H394.064L394.354 121.726H394.644L395.08 122.154L395.806 122.581L397.113 122.867L398.274 123.579L399 124.719V125.86L398.274 126.572L397.113 127H395.806L395.08 126.572L394.064 126.145L392.466 125.86H391.16L390.434 125.432L390.724 124.149L390.434 122.867L389.272 121.441L387.675 120.443L386.077 120.016H385.497L383.365 119.588L383.173 121.441L381.721 120.871H379.979C379.64 120.729 378.904 120.358 378.672 120.016C378.44 119.674 378.091 119.588 377.946 119.588V120.443L376.784 120.871H375.768V120.016L375.478 119.588L374.316 119.018L373.3 119.588V119.018V118.305H372.428L371.702 118.02L370.541 118.305C370.299 118.21 369.757 118.02 369.524 118.02H368.944C368.508 117.783 367.579 117.279 367.346 117.165C367.114 117.051 366.959 116.452 366.911 116.167L366.185 115.312L365.894 114.742L365.023 115.027L364.297 115.312L363.716 116.167C363.523 116.262 363.048 116.452 362.7 116.452C362.351 116.452 362.555 115.692 362.7 115.312L362.119 114.742H361.248L360.957 115.312C360.715 115.36 360.173 115.426 359.941 115.312C359.709 115.198 359.844 114.885 359.941 114.742L359.505 114.029L358.053 113.032L357.037 112.462H356.021H354.714H353.988L352.971 111.749L352.39 111.321V110.466L350.648 110.181H349.632L349.196 110.894H348.615L348.034 110.181L347.744 109.753C347.454 109.373 346.815 108.499 346.582 108.043C346.35 107.587 343.775 106.713 342.517 106.333H338.596L337.725 106.618C337.435 106.713 336.796 106.903 336.563 106.903C336.273 106.903 335.983 106.618 335.692 106.333C335.46 106.105 335.208 106.238 335.111 106.333L333.659 106.903L332.207 107.615L330.465 108.043L329.303 108.898V110.181L328.868 110.894L328.432 110.181L327.416 110.466V110.894L325.964 111.321V110.466L325.238 110.181L324.657 109.753C324.512 109.896 324.134 110.181 323.786 110.181C323.437 110.181 323.64 110.656 323.786 110.894H323.06H322.624H321.753L321.462 111.749H320.446L319.284 112.462H318.558L318.123 113.032H317.251L316.235 112.462C315.799 112.271 314.841 111.863 314.493 111.749C314.144 111.635 313.379 111.416 313.041 111.321H311.589L308.83 110.894H307.813L306.652 110.181C306.071 109.753 304.851 108.898 304.619 108.898C304.387 108.898 303.36 108.708 302.876 108.613H301.86L301.134 108.898H299.972L298.811 108.043H297.649L296.052 107.615H293.583H291.551L289.953 107.188L288.937 106.618L287.775 106.333H287.049L286.323 107.188L284.871 106.903L284.145 106.048C283.855 105.81 283.216 105.335 282.984 105.335H282.403H281.677H280.806H280.08H279.789L279.354 106.333V107.188H278.773L278.337 106.618L277.611 106.903L276.885 107.188V108.043L276.014 108.613V109.468C275.772 109.516 275.201 109.582 274.852 109.468C274.417 109.326 274.417 108.898 274.272 108.613C274.155 108.385 273.739 108.138 273.546 108.043L271.948 107.615L270.641 106.903L270.061 107.615L268.463 108.043L267.737 107.615L267.447 106.903L266.576 106.048L265.414 105.335H263.962H263.236H262.655H261.203H259.606L259.17 104.765H258.154L257.283 105.05L254.96 106.048H253.798L252.782 105.05C252.636 104.955 252.288 104.708 252.056 104.48C251.823 104.252 251.668 103.814 251.62 103.624L250.749 103.339L250.313 103.624L250.023 104.195L249.297 104.765H247.99H247.119L246.393 104.195H245.376L244.65 103.624L243.924 103.339L243.634 102.627L243.924 101.486V100.489L244.65 99.6335L245.376 98.6357H245.812H246.393L247.119 99.0634H247.99L250.023 98.6357L250.313 97.9231H250.749L251.62 98.6357C251.91 98.4932 252.549 98.1511 252.782 97.9231C253.014 97.695 252.878 97.3529 252.782 97.2104L253.508 96.6403V94.9299V93.5045L253.798 93.0769V92.5068L254.524 92.0792L254.96 92.5068L255.976 93.0769L256.847 93.5045H258.154L258.735 92.5068L259.606 91.5091L260.187 90.5113L260.768 89.7986L261.203 88.9434V88.0882L260.768 87.233L260.187 86.3778V85.3801V84.81V83.6697H258.444L256.847 83.2421L255.976 82.3869L255.54 80.6765L255.976 79.8213L256.412 78.9661L255.54 77.8258L254.524 77.2557L254.088 75.4027V73.5498L253.072 72.8371V71.2692V69.9864L253.508 69.7014V68.5611V67.2783L254.088 66.7081Z" fill="#BDB2BB"/>
<path d="M314.783 4.42081L315.073 2.71041L316.235 1H317.687H319.575V2.85294L318.994 4.42081H316.961L315.654 4.99095L314.783 4.42081Z" fill="#BDB2BB"/>
<path d="M344.55 115.74L343.678 115.312L344.259 114.457H345.13H346.002L347.163 114.742H348.325V115.312L347.163 115.74H344.55Z" fill="#BDB2BB"/>
<path d="M320.446 55.448L318.994 55.8756V56.3032L319.72 56.8733L320.156 57.586L319.575 58.1561V59.0113L320.156 59.5815H321.462L323.205 59.4389H324.802H327.125L328.577 60.4367L330.32 60.8643H331.481L332.933 61.4344H334.385L335.547 62.1471L337.58 61.862L338.596 61.7195L340.048 61.862H341.645H342.517L346.002 61.7195L347.454 61.862H349.196H352.1L353.116 62.1471L354.278 62.5747L354.859 62.1471L355.004 61.4344L355.44 60.7217V59.724L356.166 59.0113L357.182 58.0136C357.424 57.9661 357.937 57.8425 358.053 57.7285C358.17 57.6145 358.973 57.586 359.36 57.586L360.231 57.1584H361.538C361.974 57.2534 362.874 57.4719 362.99 57.586C363.106 57.7 363.619 57.7285 363.861 57.7285H365.168L366.039 58.1561L367.346 58.2986H368.508L369.089 58.1561L368.798 57.7285L368.072 57.586L368.363 56.8733L368.653 55.733L369.815 54.4502L370.396 53.8801L370.541 53.1674H371.412V53.7376L372.428 53.595H373.154L373.445 52.8824H374.461L375.623 52.5973H377.22L378.382 51.457L377.22 50.8869L374.752 49.1765C373.929 48.9864 372.196 48.4923 371.848 48.0362C371.499 47.5801 370.541 47.8462 370.105 48.0362H368.363L366.911 49.1765H364.587H357.473H346.437H334.821H325.818L325.238 50.4593L323.786 52.5973L322.188 53.7376L320.446 55.448Z" fill="#BDB2BB"/>
<path d="M373.445 56.8733V56.5882H376.058V57.3009H375.332V56.8733H373.445Z" fill="#BDB2BB"/>
<path d="M386.223 57.7285L386.513 56.5882L387.384 56.0181L388.401 56.5882L389.417 57.3009L389.707 58.5837L390.143 59.4389L390.434 60.2941H389.127C388.449 59.9615 387.065 59.2394 386.949 59.0113C386.832 58.7833 386.416 58.0611 386.223 57.7285Z" fill="#BDB2BB"/>
<path d="M254.088 66.7081L253.508 65.5679L254.088 64.8552L254.524 64.4276H255.25H255.831H256.412V64.8552L256.121 65.2828V66.4231L257.428 67.1357H258.444L258.88 66.8507L260.042 67.7059L261.203 68.4186H262.51L264.107 68.8462H265.269L266.721 69.2738L267.302 68.8462V67.7059V66.8507L266.721 66.138V65.2828L267.302 64.8552H267.883H268.754C268.657 64.5701 268.521 63.9715 268.754 63.8575C268.986 63.7434 269.722 63.3348 270.061 63.1448L271.367 62.2896H272.384L272.093 61.2919L273.11 59.8665C273.207 59.724 273.429 59.3534 273.546 59.0113L273.836 58.1561V57.1584L274.417 55.8756V55.3054C274.32 55.1154 274.068 54.6498 273.836 54.3077C273.604 53.9656 273.739 53.5 273.836 53.31V52.4548V51.8846L273.11 51.0294H272.384L272.093 50.1742L273.11 49.6041L273.836 48.6063V47.6086V46.3258H274.417H275.288L275.724 45.6131V45.1855L276.014 44.4729L276.595 44.0452L278.337 43.6176L279.499 44.0452L281.386 44.9005H282.984H284.29L285.597 44.4729L286.469 44.0452L287.34 43.3326L288.356 44.0452L290.97 48.0362L291.986 49.1765H294.019H297.068L298.085 48.6063H299.682L302.15 48.0362H304.038H306.942L308.539 48.6063L309.265 49.6041L311.153 49.8891L312.024 49.1765L312.895 48.6063V47.6086L313.621 48.0362L314.347 49.8891V51.8846H314.783L315.073 53.31L316.235 53.7376L316.961 54.3077L316.235 55.0204L315.654 55.8756V57.586V59.0113L316.961 59.8665V60.5792V62.0045L317.687 63.1448H318.994H320.446L320.882 62.4321V62.0045L322.188 62.4321L323.495 64L323.786 65.1403H322.624L323.495 65.8529L324.221 66.5656L324.512 67.5634L323.495 67.991V69.7014H324.221V70.5566V72.552H323.06V73.1222L323.495 73.9774L324.512 74.8326L325.238 75.6878L324.512 76.2579V77.1131L325.238 78.3959L325.818 78.8235L327.125 79.5362L328.432 79.9638L329.884 80.2489C330.223 80.4389 331.017 80.819 331.481 80.819H331.917H333.514C333.863 80.819 334.047 81.4842 334.095 81.8167C334.627 82.3394 335.692 83.4416 335.692 83.6697C335.692 83.8977 336.563 83.7647 336.999 83.6697L339.032 85.095H340.048L340.484 84.6674H341.5L342.517 85.3801L343.388 86.5204H343.969V86.0928H345.856L348.034 85.095L350.212 84.2398L351.81 83.3846L353.552 83.0995L356.166 83.6697H357.473L359.651 84.2398H360.522L361.393 83.6697H362.264L363.716 84.2398H365.168L365.894 83.6697L366.911 82.8145L367.492 82.2443H368.944L370.105 83.0995H371.267L372.283 82.2443L374.752 79.9638L375.187 79.2511H376.058L376.349 79.9638L377.22 81.8167L379.108 83.6697H382.447H384.48L387.094 85.095H388.546L389.853 85.6652L392.321 86.5204L393.192 87.6606L392.321 90.5113L391.595 91.5091V92.5068V97.0679L391.16 98.9208L390.434 100.346V101.771L389.853 103.339V105.477L388.836 108.043L387.675 111.749L388.11 114.029L388.836 115.312L388.11 116.452V117.165L389.272 117.735H390.434L390.724 119.018L391.595 120.871L393.047 122.154H394.064L394.354 121.726H394.644L395.08 122.154L395.806 122.581L397.113 122.867L398.274 123.579L399 124.719V125.86L398.274 126.572L397.113 127H395.806L395.08 126.572L394.064 126.145L392.466 125.86H391.16L390.434 125.432L390.724 124.149L390.434 122.867L389.272 121.441L387.675 120.443L386.077 120.016H385.497L383.365 119.588L383.173 121.441L381.721 120.871H379.979C379.64 120.729 378.904 120.358 378.672 120.016C378.44 119.674 378.091 119.588 377.946 119.588V120.443L376.784 120.871H375.768V120.016L375.478 119.588L374.316 119.018L373.3 119.588V119.018V118.305H372.428L371.702 118.02L370.541 118.305C370.299 118.21 369.757 118.02 369.524 118.02H368.944C368.508 117.783 367.579 117.279 367.346 117.165C367.114 117.051 366.959 116.452 366.911 116.167L366.185 115.312L365.894 114.742L365.023 115.027L364.297 115.312L363.716 116.167C363.523 116.262 363.048 116.452 362.7 116.452C362.351 116.452 362.555 115.692 362.7 115.312L362.119 114.742H361.248L360.957 115.312C360.715 115.36 360.173 115.426 359.941 115.312C359.709 115.198 359.844 114.885 359.941 114.742L359.505 114.029L358.053 113.032L357.037 112.462H356.021H354.714H353.988L352.971 111.749L352.39 111.321V110.466L350.648 110.181H349.632L349.196 110.894H348.615L348.034 110.181L347.744 109.753C347.454 109.373 346.815 108.499 346.582 108.043C346.35 107.587 343.775 106.713 342.517 106.333H338.596L337.725 106.618C337.435 106.713 336.796 106.903 336.563 106.903C336.273 106.903 335.983 106.618 335.692 106.333C335.46 106.105 335.208 106.238 335.111 106.333L333.659 106.903L332.207 107.615L330.465 108.043L329.303 108.898V110.181L328.868 110.894L328.432 110.181L327.416 110.466V110.894L325.964 111.321V110.466L325.238 110.181L324.657 109.753C324.512 109.896 324.134 110.181 323.786 110.181C323.437 110.181 323.64 110.656 323.786 110.894H323.06H322.624H321.753L321.462 111.749H320.446L319.284 112.462H318.558L318.123 113.032H317.251L316.235 112.462C315.799 112.271 314.841 111.863 314.493 111.749C314.144 111.635 313.379 111.416 313.041 111.321H311.589L308.83 110.894H307.813L306.652 110.181C306.071 109.753 304.851 108.898 304.619 108.898C304.387 108.898 303.36 108.708 302.876 108.613H301.86L301.134 108.898H299.972L298.811 108.043H297.649L296.052 107.615H293.583H291.551L289.953 107.188L288.937 106.618L287.775 106.333H287.049L286.323 107.188L284.871 106.903L284.145 106.048C283.855 105.81 283.216 105.335 282.984 105.335H282.403H281.677H280.806H280.08H279.789L279.354 106.333V107.188H278.773L278.337 106.618L277.611 106.903L276.885 107.188V108.043L276.014 108.613V109.468C275.772 109.516 275.201 109.582 274.852 109.468C274.417 109.326 274.417 108.898 274.272 108.613C274.155 108.385 273.739 108.138 273.546 108.043L271.948 107.615L270.641 106.903L270.061 107.615L268.463 108.043L267.737 107.615L267.447 106.903L266.576 106.048L265.414 105.335H263.962H263.236H262.655H261.203H259.606L259.17 104.765H258.154L257.283 105.05L254.96 106.048H253.798L252.782 105.05C252.636 104.955 252.288 104.708 252.056 104.48C251.823 104.252 251.668 103.814 251.62 103.624L250.749 103.339L250.313 103.624L250.023 104.195L249.297 104.765H247.99H247.119L246.393 104.195H245.376L244.65 103.624L243.924 103.339L243.634 102.627L243.924 101.486V100.489L244.65 99.6335L245.376 98.6357H245.812H246.393L247.119 99.0634H247.99L250.023 98.6357L250.313 97.9231H250.749L251.62 98.6357C251.91 98.4932 252.549 98.1511 252.782 97.9231C253.014 97.695 252.878 97.3529 252.782 97.2104L253.508 96.6403V94.9299V93.5045L253.798 93.0769V92.5068L254.524 92.0792L254.96 92.5068L255.976 93.0769L256.847 93.5045H258.154L258.735 92.5068L259.606 91.5091L260.187 90.5113L260.768 89.7986L261.203 88.9434V88.0882L260.768 87.233L260.187 86.3778V85.3801V84.81V83.6697H258.444L256.847 83.2421L255.976 82.3869L255.54 80.6765L255.976 79.8213L256.412 78.9661L255.54 77.8258L254.524 77.2557L254.088 75.4027V73.5498L253.072 72.8371V71.2692V69.9864L253.508 69.7014V68.5611V67.2783L254.088 66.7081Z" stroke="black"/>
<path d="M314.783 4.42081L315.073 2.71041L316.235 1H317.687H319.575V2.85294L318.994 4.42081H316.961L315.654 4.99095L314.783 4.42081Z" stroke="black"/>
<path d="M344.55 115.74L343.678 115.312L344.259 114.457H345.13H346.002L347.163 114.742H348.325V115.312L347.163 115.74H344.55Z" stroke="black"/>
<path d="M320.446 55.448L318.994 55.8756V56.3032L319.72 56.8733L320.156 57.586L319.575 58.1561V59.0113L320.156 59.5815H321.462L323.205 59.4389H324.802H327.125L328.577 60.4367L330.32 60.8643H331.481L332.933 61.4344H334.385L335.547 62.1471L337.58 61.862L338.596 61.7195L340.048 61.862H341.645H342.517L346.002 61.7195L347.454 61.862H349.196H352.1L353.116 62.1471L354.278 62.5747L354.859 62.1471L355.004 61.4344L355.44 60.7217V59.724L356.166 59.0113L357.182 58.0136C357.424 57.9661 357.937 57.8425 358.053 57.7285C358.17 57.6145 358.973 57.586 359.36 57.586L360.231 57.1584H361.538C361.974 57.2534 362.874 57.4719 362.99 57.586C363.106 57.7 363.619 57.7285 363.861 57.7285H365.168L366.039 58.1561L367.346 58.2986H368.508L369.089 58.1561L368.798 57.7285L368.072 57.586L368.363 56.8733L368.653 55.733L369.815 54.4502L370.396 53.8801L370.541 53.1674H371.412V53.7376L372.428 53.595H373.154L373.445 52.8824H374.461L375.623 52.5973H377.22L378.382 51.457L377.22 50.8869L374.752 49.1765C373.929 48.9864 372.196 48.4923 371.848 48.0362C371.499 47.5801 370.541 47.8462 370.105 48.0362H368.363L366.911 49.1765H364.587H357.473H346.437H334.821H325.818L325.238 50.4593L323.786 52.5973L322.188 53.7376L320.446 55.448Z" stroke="black"/>
<path d="M373.445 56.8733V56.5882H376.058V57.3009H375.332V56.8733H373.445Z" stroke="black"/>
<path d="M386.223 57.7285L386.513 56.5882L387.384 56.0181L388.401 56.5882L389.417 57.3009L389.707 58.5837L390.143 59.4389L390.434 60.2941H389.127C388.449 59.9615 387.065 59.2394 386.949 59.0113C386.832 58.7833 386.416 58.0611 386.223 57.7285Z" stroke="black"/>
</svg>
