<svg width="483" height="370" viewBox="0 0 483 370" fill="none" xmlns="http://www.w3.org/2000/svg">
<path d="M24.5398 27.2936L23.0837 29.7733L23.8117 30.7652L26.7239 32.501L31.0923 31.5091L29.8788 29.0294L26.7239 27.2936H24.5398Z" fill="#BDB2BB"/>
<path d="M22.3556 24.8139L33.0337 27.2936L35.2179 24.8139L33.0337 21.0943L35.2179 18.1186L28.4227 9.68754L26.7239 8.19971L19.2007 15.8869L17.9873 19.1105L21.3849 21.8382L22.3556 24.8139Z" fill="#BDB2BB"/>
<path d="M24.5398 27.2936L23.0837 29.7733L23.8117 30.7652L26.7239 32.501L31.0923 31.5091L29.8788 29.0294L26.7239 27.2936H24.5398Z" stroke="black"/>
<path d="M22.3556 24.8139L33.0337 27.2936L35.2179 24.8139L33.0337 21.0943L35.2179 18.1186L28.4227 9.68754L26.7239 8.19971L19.2007 15.8869L17.9873 19.1105L21.3849 21.8382L22.3556 24.8139Z" stroke="black"/>
<path d="M55.1186 255.925L53.1771 259.148L55.1186 261.132L59.0016 259.148V255.925H55.1186Z" fill="#BDB2BB"/>
<path d="M12.8915 320.149L17.7452 325.109V329.077H21.8709V325.109H25.2684L27.6953 320.149L23.8123 317.422L25.2684 314.446L27.6953 317.422L30.3648 311.47L25.2684 305.271L23.0843 304.279L21.8709 302.295H20.1721L17.7452 305.271V302.295L14.5903 300.808L10.7074 299.32L5.12563 300.808L2.94147 305.271V309.735V314.446H5.12563L2.94147 317.422L1 318.662V322.629H2.94147V327.589L7.55248 325.109H10.7074V322.629L12.8915 320.149Z" fill="#BDB2BB"/>
<path d="M55.1186 255.925L53.1771 259.148L55.1186 261.132L59.0016 259.148V255.925H55.1186Z" stroke="black"/>
<path d="M12.8915 320.149L17.7452 325.109V329.077H21.8709V325.109H25.2684L27.6953 320.149L23.8123 317.422L25.2684 314.446L27.6953 317.422L30.3648 311.47L25.2684 305.271L23.0843 304.279L21.8709 302.295H20.1721L17.7452 305.271V302.295L14.5903 300.808L10.7074 299.32L5.12563 300.808L2.94147 305.271V309.735V314.446H5.12563L2.94147 317.422L1 318.662V322.629H2.94147V327.589L7.55248 325.109H10.7074V322.629L12.8915 320.149Z" stroke="black"/>
<path d="M370.365 343.211L372.307 345.691H372.792V341.971L374.005 340.979V337.259H372.307L371.093 338.995V341.475L370.365 343.211Z" fill="#BDB2BB"/>
<path d="M357.503 349.658L360.172 353.626V357.097L358.716 362.305L360.172 363.297H362.842L368.909 357.097L367.696 355.609V352.386H368.909V349.658V347.426L367.696 343.211L365.754 340.979H368.909V338.003L367.696 336.763L366.968 336.02V332.796L367.696 330.316V328.828L363.57 331.804L360.415 335.772L358.716 338.995V343.707L357.503 344.699V349.658Z" fill="#BDB2BB"/>
<path d="M370.365 343.211L372.307 345.691H372.792V341.971L374.005 340.979V337.259H372.307L371.093 338.995V341.475L370.365 343.211Z" stroke="black"/>
<path d="M357.503 349.658L360.172 353.626V357.097L358.716 362.305L360.172 363.297H362.842L368.909 357.097L367.696 355.609V352.386H368.909V349.658V347.426L367.696 343.211L365.754 340.979H368.909V338.003L367.696 336.763L366.968 336.02V332.796L367.696 330.316V328.828L363.57 331.804L360.415 335.772L358.716 338.995V343.707L357.503 344.699V349.658Z" stroke="black"/>
<path d="M381.044 290.641V285.185L378.617 281.962H371.579V279.73L374.249 277.994L375.705 274.77V271.051L374.249 270.059L375.705 267.579L374.249 265.099L368.667 267.579H365.998L366.483 265.595L370.609 261.38H374.249L376.676 259.396H378.617L379.588 257.412L378.617 255.924V252.701L381.044 250.965L384.927 248.981L388.082 247.989V246.997V243.278V240.054L384.927 237.822V236.831L385.898 235.343V234.351H384.927V233.359L387.111 232.119L389.295 230.135L390.994 228.647L391.965 229.143L390.994 231.623L389.295 233.607L388.082 235.343V236.831L391.237 241.046L391.965 244.022H393.178H394.149C394.537 244.022 395.443 243.03 395.848 242.534L398.517 241.046L400.459 237.822L402.643 234.351C403.695 233.111 405.846 230.582 406.041 230.383C406.235 230.185 407.578 228.647 408.225 227.903H408.953V224.184L409.924 223.44L410.166 219.968L411.137 219.224V216.249L408.953 214.761L408.225 214.017V213.025L409.924 214.017H413.564H414.535L416.476 212.529L416.719 210.049L416.476 207.57L416.719 205.09L417.204 202.362L416.476 201.37L415.991 198.395L417.689 197.651V195.419L418.175 195.171L418.417 192.691L419.631 191.947L420.844 190.708L419.388 188.972L418.175 187.484L417.689 186.492V185.252L418.175 184.508L418.417 182.029V180.541L419.631 180.045V177.069V175.829L421.815 174.837V172.854L421.572 171.614L422.786 170.87L423.757 170.374V168.142L425.455 166.902L426.426 164.918L426.911 163.679L428.125 161.943L429.338 158.719L432.008 155.743L434.92 154.256L436.619 153.264H437.59L439.531 155.743H440.987L441.715 154.504V152.024L440.502 151.28C440.178 150.949 439.531 150.189 439.531 149.792C439.531 149.395 438.722 147.643 438.318 146.816L436.619 145.577L435.648 143.593L434.192 142.601V141.857L435.648 141.361V139.129L434.192 138.137L433.221 136.154L432.25 135.906V134.914L434.435 135.162L435.648 137.145L436.619 138.137L437.59 140.121L439.531 141.361L440.502 142.601L441.715 144.585V147.808L443.171 148.304L443.899 149.792L446.083 151.28H448.753L451.908 152.024H453.849L455.548 152.52L456.034 154.256H457.732L458.46 153.264H460.402H462.829V154.256H465.741L466.226 153.264H466.954L468.168 152.024H470.352L471.323 153.264L472.536 154.256H475.448L476.419 152.024L478.846 151.28L480.787 149.048L482.001 147.56V144.833L481.03 144.585L479.817 143.593H477.632L475.448 144.585V142.353L474.478 141.361L473.264 140.369H471.323V138.633L472.536 138.137V136.65L471.323 135.906L469.139 134.666L466.226 131.442L459.674 130.45L457.732 129.21L456.519 128.466V125.987L455.063 124.003L452.151 122.763L448.996 120.531L445.355 118.3L443.899 115.324L441.715 113.34L438.075 112.1L436.619 111.108L435.163 108.877L434.92 108.133L435.163 104.413L432.979 103.173H431.28V101.437H432.493V100.198H430.066L428.61 101.437H427.639L428.125 97.2219L427.639 95.4861L429.096 94.9901L429.581 93.7503H437.104L437.59 94.9901H440.502L441.715 93.7503H442.686L443.414 91.7665L443.899 91.2705V90.5266L442.686 90.0307V88.5428L440.502 88.0469V85.0712L436.619 80.6077L432.493 76.1442L431.28 70.9368L428.61 69.9449L425.213 69.201L423.999 68.705V67.2172L426.669 66.7212V65.2334L423.271 64.4895L421.815 63.4976H418.66V61.7618L422.543 61.0179L423.999 60.5219V58.2902L419.631 57.7942H417.204V55.5625L417.689 53.8267L414.292 52.8348H412.35V50.851L413.078 48.1233V46.3875H414.292L414.777 44.4037L415.748 43.9077L415.263 42.1719L413.806 41.428L412.35 40.9321V41.428L413.078 42.1719V43.9077L412.35 45.3956L411.622 46.3875H410.894L410.166 44.4037V42.1719V40.4361L407.982 38.4523L406.769 36.4686V34.4848L402.158 33.9888H399.488V33.2449H400.216L401.187 32.501H407.497L409.195 33.2449H411.622L414.292 32.501H416.233V30.5172L417.689 29.2774L419.631 27.2936V25.8057H426.669L427.397 26.3017H430.552L430.066 25.0618L428.368 24.0699L426.669 21.3422L423.271 20.1024L421.33 16.1348L418.66 13.6551L416.233 11.4233L415.748 9.93549H417.689L419.146 11.4233H421.33L420.844 9.19157H418.66L416.233 8.19968L415.748 5.96792L412.35 2.99225L410.166 1.75239L407.982 2.24833L400.216 2.99225H398.517H397.547L396.333 1.75239H393.906L391.965 2.24833L389.538 2.99225L389.053 1.75239H387.839V2.99225H381.529V0.760498H380.073V2.99225H378.86L377.161 4.23212H374.977L373.278 2.24833L372.065 0.760498H370.609V1.75239H363.328L361.629 2.99225L360.173 5.22401H358.717L357.989 4.23212L357.018 2.99225L355.562 1.75239L353.135 0.760498H351.679L350.951 5.22401L349.495 6.2159L346.826 7.20779L345.369 8.19968L344.156 9.68752L342.457 16.8787L340.758 19.3584H339.302V20.3503H340.03L340.758 21.8382V25.0618L340.03 24.5659V29.2774L339.302 30.5172V32.0051L340.03 33.7409L340.758 34.9807L341.487 38.9483L342.943 40.1882V40.9321L340.758 41.676H339.302L337.846 43.4118V46.3875V50.603L338.817 52.0908V53.5787H337.361L336.876 58.2902H335.419L331.779 60.026H328.139L327.411 59.2821H325.469L322.072 62.5057L320.373 63.9935L319.645 66.2253V67.7131H321.101V68.953V71.9287H319.645V76.1442L321.101 76.8881L324.256 79.3678L325.469 80.3597V82.0955H323.528L319.645 83.8314L316.005 87.055L313.092 88.0469L311.394 92.5104H306.54L305.084 96.23L306.54 99.4536L309.695 101.189V102.925L307.753 105.157L309.695 106.397V108.381L302.172 110.612V117.804L298.289 121.771V125.987L295.376 127.475L290.523 124.747H288.339L282.514 127.475L279.845 129.458V135.162L277.661 139.873L271.351 140.865L269.409 143.593V145.577V148.056L268.439 149.296V151.032L269.409 152.024V154.256L268.439 155.495V157.479L266.982 159.711H269.409H274.02L275.719 158.719H277.661L281.058 164.422L287.125 165.166L288.339 166.158L290.037 165.662L293.678 163.431C295.215 162.687 298.289 161.05 298.289 160.455C298.289 159.86 299.583 158.223 300.23 157.479H306.54L309.695 155.495H311.879L315.034 159.711L317.218 166.158L320.616 171.118V173.597L317.218 176.077H310.908L307.753 180.293L306.54 184.012V185.5L310.908 187.236V190.956L311.879 193.683V196.411C313.659 196.659 317.218 197.006 317.218 196.411C317.218 195.816 322.395 192.526 324.984 190.956H327.654L328.624 192.443V194.427L326.197 196.411L324.984 199.635V204.594L326.197 209.306L328.624 212.777L329.838 215.009L330.808 223.44L334.449 225.176L337.118 227.16L341.972 231.375L345.369 235.343L349.252 237.822L350.223 239.31V241.046L347.311 243.526L346.34 247.493L341.972 254.437V258.156L343.428 263.86L345.369 267.579V273.778V277.25H349.252L348.524 284.193L349.252 286.921L350.223 291.632C350.709 291.632 351.679 291.533 351.679 291.137C351.679 290.74 352.003 289.979 352.165 289.649H354.349L354.834 288.657H367.696L372.307 290.145L376.676 291.137L378.617 291.632L381.044 290.641Z" fill="#BDB2BB"/>
<path d="M388.082 246.997V247.989L384.927 248.981L381.044 250.965L378.617 252.701V255.924L379.588 257.412L378.617 259.396H376.676L374.249 261.38H370.609L366.483 265.595L365.998 267.579H368.667L374.249 265.099L375.705 267.579L374.249 270.059L375.705 271.051V274.77L374.249 277.994L371.579 279.73V281.962H378.617L381.044 285.185V290.641L378.617 291.632L376.676 291.137L372.307 290.145L367.696 288.657H354.834L354.349 289.649H352.165C352.003 289.979 351.679 290.74 351.679 291.137C351.679 291.533 350.709 291.632 350.223 291.632L349.252 286.921L348.524 284.193L349.252 277.25H345.369V273.778V267.579L343.428 263.86L341.972 258.156V254.437L346.34 247.493L347.311 243.526L350.223 241.046V239.31L349.252 237.822L345.369 235.343L341.972 231.375L337.118 227.16L334.449 225.176L330.808 223.44L329.838 215.009L328.624 212.777L326.197 209.306L324.984 204.594V199.635L326.197 196.411L328.624 194.427V192.443L327.654 190.956H324.984C322.395 192.526 317.218 195.816 317.218 196.411C317.218 197.006 313.659 196.659 311.879 196.411V193.683L310.908 190.956V187.236L306.54 185.5V184.012L307.753 180.293L310.908 176.077H317.218L320.616 173.597V171.118L317.218 166.158L315.034 159.711L311.879 155.495H309.695L306.54 157.479H300.23C299.583 158.223 298.289 159.86 298.289 160.455C298.289 161.05 295.215 162.687 293.678 163.431L290.037 165.662L288.339 166.158L287.125 165.166L281.058 164.422L277.661 158.719H275.719L274.02 159.711H269.409H266.982L268.439 157.479V155.495L269.409 154.256V152.024L268.439 151.032V149.296L269.409 148.056V145.577V143.593L271.351 140.865L277.661 139.873L279.845 135.162V129.458L282.514 127.475L288.339 124.747H290.523L295.376 127.475L298.289 125.987V121.771L302.172 117.804V110.612L309.695 108.381V106.397L307.753 105.157L309.695 102.925V101.189L306.54 99.4536L305.084 96.23L306.54 92.5104H311.394L313.092 88.0469L316.005 87.055L319.645 83.8314L323.528 82.0955H325.469V80.3597L324.256 79.3678L321.101 76.8881L319.645 76.1442V71.9287H321.101V68.953V67.7131H319.645V66.2253L320.373 63.9935L322.072 62.5057L325.469 59.2821H327.411L328.139 60.026H331.779L335.419 58.2902H336.876L337.361 53.5787H338.817V52.0908L337.846 50.603V46.3875V43.4118L339.302 41.676H340.758L342.943 40.9321V40.1882L341.487 38.9483L340.758 34.9807L340.03 33.7409L339.302 32.0051V30.5172L340.03 29.2774V24.5659L340.758 25.0618V21.8382L340.03 20.3503H339.302V19.3585H340.758L342.457 16.8787L344.156 9.68752L345.369 8.19968L346.826 7.20779L349.495 6.2159L350.951 5.22401L351.679 0.760498H353.135L355.562 1.75239L357.018 2.99225L357.989 4.23212L358.717 5.22401H360.173L361.629 2.99225L363.328 1.75239H370.609V0.760498H372.065L373.278 2.24833L374.977 4.23212H377.161L378.86 2.99225H380.073V0.760498H381.529V2.99225H387.839V1.75239H389.053L389.538 2.99225L391.965 2.24833L393.906 1.75239H396.333L397.547 2.99225H398.517H400.216L407.982 2.24833L410.166 1.75239L412.35 2.99225L415.748 5.96792L416.233 8.19968L418.66 9.19157H420.844L421.33 11.4233H419.146L417.689 9.93549H415.748L416.233 11.4233L418.66 13.6551L421.33 16.1348L423.271 20.1024L426.669 21.3422L428.368 24.0699L430.066 25.0618L430.552 26.3017H427.397L426.669 25.8057H419.631V27.2936L417.689 29.2774L416.233 30.5172V32.501H414.292L411.622 33.2449H409.195L407.497 32.501H401.187L400.216 33.2449H399.488V33.9888H402.158L406.769 34.4848V36.4686L407.982 38.4523L410.166 40.4361V42.1719V44.4037L410.894 46.3875H411.622L412.35 45.3956L413.078 43.9077V42.1719L412.35 41.428V40.9321L413.806 41.428L415.263 42.1719L415.748 43.9077L414.777 44.4037L414.292 46.3875H413.078V48.1233L412.35 50.851V52.8348H414.292L417.689 53.8267L417.204 55.5625V57.7942H419.631L423.999 58.2902V60.5219L422.543 61.0179L418.66 61.7618V63.4976H421.815L423.271 64.4895L426.669 65.2334V66.7212L423.999 67.2172V68.705L425.213 69.201L428.61 69.9449L431.28 70.9368L432.493 76.1442L436.619 80.6077L440.502 85.0712V88.0469L442.686 88.5428V90.0307L443.899 90.5266V91.2705L443.414 91.7665L442.686 93.7503H441.715L440.502 94.9901H437.59L437.104 93.7503H429.581L429.096 94.9901L427.639 95.4861L428.125 97.2219L427.639 101.437H428.61L430.066 100.198H432.493V101.437H431.28V103.173H432.979L435.163 104.413L434.92 108.133L435.163 108.877L436.619 111.108L438.075 112.1L441.715 113.34L443.899 115.324L445.355 118.3L448.996 120.531L452.151 122.763L455.063 124.003L456.519 125.987V128.466L457.732 129.21L459.674 130.45L466.226 131.442L469.138 134.666L471.323 135.906L472.536 136.65V138.137L471.323 138.633V140.369H473.264L474.478 141.361L475.448 142.353V144.585L477.632 143.593H479.817L481.03 144.585L482.001 144.833V147.56L480.787 149.048L478.846 151.28L476.419 152.024L475.448 154.256H472.536L471.323 153.264L470.352 152.024H468.168L466.954 153.264H466.226L465.741 154.256H462.829V153.264H460.402H458.46L457.732 154.256H456.034L455.548 152.52L453.849 152.024H451.908L448.753 151.28H446.083L443.899 149.792L443.171 148.304L441.715 147.808V144.585L440.502 142.601L439.531 141.361L437.59 140.121L436.619 138.137L435.648 137.145L434.435 135.162L432.25 134.914V135.906L433.221 136.154L434.192 138.137L435.648 139.129V141.361L434.192 141.857V142.601L435.648 143.593L436.619 145.577L438.318 146.816C438.722 147.643 439.531 149.395 439.531 149.792C439.531 150.189 440.178 150.949 440.502 151.28L441.715 152.024V154.504L440.987 155.743H439.531L437.59 153.264H436.619L434.92 154.256L432.008 155.743L429.338 158.719L428.125 161.943L426.911 163.679L426.426 164.918L425.455 166.902L423.757 168.142V170.374L422.786 170.87L421.572 171.614L421.815 172.854V174.837L419.631 175.829V177.069V180.045L418.417 180.541V182.029L418.175 184.508L417.689 185.252V186.492L418.175 187.484L419.388 188.972L420.844 190.708L419.631 191.947L418.417 192.691L418.175 195.171L417.689 195.419V197.651L415.991 198.395L416.476 201.37L417.204 202.362L416.719 205.09L416.476 207.57L416.719 210.049L416.476 212.529L414.535 214.017H413.564H409.924L408.225 213.025V214.017L408.953 214.761L411.137 216.249V219.224L410.166 219.968L409.924 223.44L408.953 224.184V227.903H408.225C407.578 228.647 406.235 230.185 406.041 230.383C405.846 230.582 403.695 233.111 402.643 234.351L400.459 237.822L398.517 241.046L395.848 242.534C395.443 243.03 394.537 244.022 394.149 244.022M388.082 246.997C388.082 245.923 388.082 243.675 388.082 243.278M388.082 246.997V243.278M388.082 243.278C388.082 242.881 388.082 240.963 388.082 240.054M388.082 243.278V240.054M388.082 240.054L384.927 237.822V236.831L385.898 235.343V234.351H384.927V233.359L387.111 232.119L389.295 230.135L390.994 228.647L391.965 229.143L390.994 231.623L389.295 233.607L388.082 235.343V236.831L391.237 241.046L391.965 244.022H393.178M393.178 244.022C393.34 244.022 393.761 244.022 394.149 244.022M393.178 244.022H394.149" stroke="black"/>
<path d="M114.818 317.67L112.148 313.702L114.333 311.718V308.247L112.634 306.263L112.148 303.783L110.692 302.543V301.551L111.42 300.807V295.104L109.722 293.12L108.994 288.905L107.537 286.425V283.945L108.266 281.714V277.002L107.052 274.026L101.956 270.803L100.014 268.323V266.587L103.897 262.62L104.14 261.38L105.353 258.404V253.941L106.081 251.957V248.237L105.353 246.501L101.956 244.022L100.014 242.038V240.054L100.985 238.566V237.574H99.0435L95.646 236.583L93.7045 233.111L91.763 231.623H90.5496H88.3654L86.6666 230.135L84.2398 227.408L82.0556 226.912H79.6288L77.202 226.168V226.912L78.6581 228.151V229.143H76.2312L73.319 228.151L71.6202 226.168L71.1348 225.176V218.976H73.319L75.7459 220.216H78.6581L80.3569 221.456H83.5117L87.152 223.44L88.3654 222.448L88.8508 217.985L86.424 218.233L82.0556 216.001H78.6581L77.202 214.513H71.6202L69.6787 213.273H66.7665L65.7958 212.281V206.33V203.106L64.5824 200.874L65.3104 198.891L66.7665 199.635H70.4068L69.6787 197.651L69.1934 192.195L67.98 190.956V188.476L71.6202 188.972V187.732L67.98 185.5L66.7665 183.516V181.285L63.8543 177.813L60.9421 176.325L59.0006 175.829L58.2726 174.341V169.878L57.3018 168.638V166.406V159.711L56.3311 158.471V156.239L54.875 154.256V153.264L59.0006 149.792L60.2141 148.304V143.593L58.2726 142.105V140.369V139.377L60.2141 138.881L60.9421 135.162L63.369 130.698V124.499L64.8251 121.771L70.1641 119.043L72.3483 116.564L73.319 113.34L75.2605 109.373V105.901L79.1434 105.405L81.813 103.917H84.9679V106.397H83.7544V109.373L86.424 111.356L89.3362 112.596V113.34L88.6081 114.084V118.548L89.8215 120.531L96.1313 126.483L97.3448 128.218H101.228V130.698L102.441 132.93L105.596 135.162L107.78 137.889H110.45L111.663 139.377L115.061 144.585V146.072H119.914L123.312 151.528H129.622L133.505 150.288L148.794 145.081H161.656H168.451L172.092 145.577H175.246H177.916L178.887 146.32H181.799L182.527 144.337L185.682 140.369H193.205L195.147 133.178L197.573 129.458L195.875 128.218V126.731H198.059L201.214 124.747L204.611 123.755L208.009 121.523H215.289L217.231 122.267H219.415L220.628 122.763L222.57 123.755L223.783 122.763L224.997 121.523H231.549L232.277 122.763V124.747L229.122 126.731V128.218H232.277L233.491 127.227L234.219 126.731L234.947 128.218L236.16 129.954H238.102L239.315 129.458H242.227L246.838 133.178L247.809 133.922H248.78L250.479 132.682H253.876L256.06 136.65H257.759L259.701 134.914L263.826 133.178L265.04 129.954L270.136 126.731L274.262 125.987H278.63L279.358 128.218L278.145 129.458L277.659 136.154L276.446 139.377H270.864L268.923 142.601L267.224 144.089V145.329L267.709 146.816L267.224 147.808L266.496 149.296V151.528L267.709 153.264V154.504L266.496 155.247L267.224 156.239V157.727L264.312 160.455L261.642 165.166L257.516 168.39L256.788 170.374L254.362 171.118L249.993 176.325L248.294 177.069H245.14L243.926 176.325L241.499 178.309L241.014 179.053V180.045L246.353 183.764L247.081 187.98V189.22L246.353 191.947L244.411 195.171L241.985 199.387L239.072 202.61V205.338L239.558 207.322V209.306H238.587L236.646 208.562H235.432L234.219 209.306L229.122 210.049L223.541 213.025H220.143L218.444 213.769L216.26 217.241H212.62L212.134 218.233H207.523H204.854L203.64 218.976H200.486L198.787 217.241L197.573 215.505L196.36 215.009H195.147L194.176 217.241L192.234 218.233H189.322L188.594 219.472H187.138L186.653 223.936H185.682L183.983 221.952L183.255 222.944H182.284V226.168L181.314 227.656L176.703 228.399L175.004 229.887L172.82 231.127H171.121L170.635 234.599H169.179L168.209 236.335V241.046L166.024 241.542L164.568 242.534H162.384L159.229 244.27L155.589 248.733L152.919 250.965L150.25 252.949L149.522 255.676H147.095H143.697L141.513 257.164L138.358 259.396V261.38L140.543 263.364L142.484 264.355L143.697 263.364L144.911 264.355L145.396 265.347L144.426 266.835L143.697 268.323V274.522L145.396 275.266H148.066V277.25L147.095 278.242V279.73L147.823 279.978V284.441L146.367 285.929V286.921L147.338 288.657L148.794 291.88L149.522 297.584L150.007 300.559V305.271L151.221 306.015V307.999L148.066 309.487H144.911L143.94 311.966L142.727 312.462H140.785L140.057 313.454L137.145 314.694H135.204L133.747 317.174L132.777 319.405L131.321 319.901H130.593V314.694L129.622 314.198L127.195 311.966H125.011L120.885 314.198L117.73 316.678L116.76 317.422L114.818 317.67Z" fill="#BDB2BB" stroke="black"/>
<path d="M81.0865 232.615L80.1158 233.855V237.079L79.3877 240.054V241.79L78.417 243.03V244.518L79.8731 245.014H83.2707L86.4256 243.03L89.3378 241.79L92.7354 238.814L92.4927 233.359H90.0658H89.0951H88.1244L87.1536 232.367H85.2122L84.2414 232.863H83.2707L82.5426 232.367H81.3292L81.0865 232.615Z" fill="#BDB2BB" stroke="black"/>
<path d="M135.932 317.67H139.087L140.786 319.653L142.242 320.645L143.213 321.637H145.882L148.552 320.645L154.376 317.918L159.473 315.19L162.142 314.694L162.627 313.702H164.326V315.19L167.481 318.166L169.18 319.158H170.151L171.849 317.174L173.548 316.678V315.19V313.702L174.519 312.462H175.975L177.431 314.694L178.645 317.174L180.101 319.158V323.869L179.615 326.349V328.333V330.068L180.586 331.06V334.78V337.012L179.615 339.243L178.645 340.731V342.219L179.615 342.715H183.984L188.837 337.756L192.72 335.276L196.118 333.044L197.817 332.3H201.942L204.612 334.284L207.039 335.276L208.495 337.508L210.436 338.251H211.407L213.348 337.012L216.989 334.284L221.6 332.3L224.755 330.564L228.152 328.333L229.123 326.349V325.357L227.424 323.869L228.152 322.629L231.307 318.414H232.521L235.433 321.885H236.646L238.83 324.365L241.743 327.589L243.199 329.82L243.927 330.564H245.868L247.567 328.828L250.479 326.101L252.178 325.357H254.362L256.061 327.837V333.54V335.276L254.848 336.516V338.251L256.061 338.995H259.944L260.187 338.747H264.555L266.739 336.516L269.651 334.78L271.35 334.036H275.233L276.932 335.028L278.631 336.02H281.057L281.543 335.276H282.271L284.212 337.508L286.154 338.747V337.26L286.882 335.276L286.396 333.54L287.367 332.548L288.338 329.82L290.279 328.333V326.101L292.464 323.621L293.92 321.637V320.893L292.949 319.653V318.414L293.92 317.67V315.686L294.89 314.446L296.104 313.206L297.075 311.966V310.726L299.259 309.735L300.229 308.991V307.255L303.142 306.759L304.355 305.271L304.84 304.775L305.326 301.551L306.297 299.816L309.209 297.088L311.393 294.856L313.82 292.624L316.732 289.401L319.159 288.409L322.314 286.177L324.013 284.441V283.449H326.439L326.925 281.218L327.41 278.986L329.594 278.49V277.002V275.018L330.808 274.274V273.035L329.594 271.299L328.138 269.811L327.41 269.067V262.868L328.138 262.372L328.624 259.644V257.66L329.594 256.916V254.437L330.808 253.941V251.709L332.264 250.469L335.176 249.477L338.816 248.237L341 247.245L344.398 246.254L345.611 244.766L346.582 242.286L347.796 240.55L349.009 239.558V238.566H345.854L344.883 236.583L342.214 235.095L341.243 232.367L338.331 229.887L336.389 227.656L333.963 226.168L330.565 224.928L329.837 222.696L328.866 219.473L328.381 215.009L326.925 211.785L324.983 209.554L324.498 206.578L323.527 202.362L323.77 201.123L324.498 198.643L324.983 195.667L326.439 194.427L326.925 192.196H325.226L322.556 193.435L320.615 194.427L318.188 196.659L316.489 197.651H311.393L310.422 195.667V193.435L309.451 189.964L308.481 187.98L305.326 185.996V183.516L306.054 179.797L308.238 178.309L309.937 175.581L311.878 174.837H317.703L318.431 173.598L319.644 172.358V171.366L317.217 168.638L314.548 164.175L313.577 159.711V158.471L311.393 156.487H310.422L309.209 157.479V158.471V158.967H307.753L303.87 158.471L299.987 159.711L297.56 161.943L295.618 163.183L294.162 164.671L291.493 165.414L290.279 167.646L287.853 167.894L287.125 167.15H280.087L279.601 166.158L278.388 164.671V161.943L277.174 159.959H275.476L273.534 161.199L268.195 161.943H265.768L264.07 162.935L262.371 165.414L259.944 167.15L258.73 168.886L257.76 170.87L255.576 171.862L252.906 174.093L250.236 177.317L248.052 178.557H247.082L245.868 178.061H243.684L242.956 178.557V180.045L243.684 181.037L245.868 182.525L247.082 183.268L248.052 184.012V187.98V190.212L247.082 192.196L245.383 195.419L243.684 198.395L240.529 202.114L240.044 203.354V204.346L241.014 205.834L241.743 206.578V208.066L240.044 210.05L238.588 211.289L237.374 210.793H235.433L232.035 211.289H229.366L225.725 212.777L224.027 214.017L221.842 215.009H219.416L217.474 216.993L216.989 218.233H214.077L212.863 219.72L209.223 220.216L207.767 221.456H206.796L205.825 220.216H204.126L200.972 220.96H200.244L198.302 218.977V218.233L197.089 216.993H196.118L195.147 217.241V218.729L194.662 220.96H192.235V220.216H188.595L187.867 222.2L187.381 223.936L186.411 225.672H184.712L184.226 227.656L182.528 227.904L180.586 229.639L176.46 229.887L174.762 231.375L171.849 232.367V234.847L169.665 236.087V239.806L170.151 240.054V241.294L168.452 241.79L166.753 243.03L166.51 245.014H164.812L163.355 244.022H161.899L159.958 245.51L158.016 247.989L157.774 251.213L154.133 251.709L153.891 251.957V253.941L151.707 254.933L150.251 256.916H147.338L144.426 257.164L141.999 258.404L140.058 259.396L140.3 261.38L141.271 262.372H142.242L143.455 261.38L146.125 261.628L146.61 263.612L146.368 266.835L145.154 268.075V270.059H146.125V271.299L145.397 272.291V273.283L148.552 274.274L149.522 274.77V277.994L148.552 278.738V280.722L149.28 281.218V282.706L148.552 284.441L147.581 285.929V287.417L148.552 288.161L149.765 290.889L150.251 291.633L150.736 296.592V299.072L151.464 301.056L151.949 303.535L153.163 305.271L152.677 307.007L151.707 307.999L150.736 309.239L147.581 310.231L143.698 313.206L140.543 314.446L136.903 315.438L135.204 316.678V317.422L135.932 317.67Z" fill="#BDB2BB" stroke="black"/>
<path d="M299.501 369H302.17L311.392 364.537L321.1 360.321L333.477 354.37L344.64 350.154L350.707 346.435L356.289 344.451V339.491L357.502 335.524L360.172 331.06L362.113 330.068L364.055 327.589V325.109L365.268 323.869L364.055 322.133L362.113 319.653H360.172V320.893H357.502L360.172 317.174V313.454L358.473 312.462L362.113 309.239L364.055 315.19L366.724 318.414H368.181L371.093 313.454L372.306 310.726V304.279L373.762 301.551L372.306 300.064L367.695 305.271L366.724 298.576L369.151 297.584H375.704L378.131 300.064V296.096L380.072 294.608L375.704 291.881L369.151 290.393H354.105L350.707 293.368H349.009L347.31 284.937V279.234L343.669 277.002V272.291L344.64 269.811L343.669 267.331L342.213 263.86L340.757 259.148V255.181L343.669 249.229L344.64 248.237H341.243L334.933 250.717L331.778 253.197L330.565 256.42L329.594 261.38L329.108 264.851L329.594 269.315L331.778 272.787V274.77V277.002L332.263 277.498L331.778 278.738L328.623 279.978L327.652 283.201L326.682 286.177H323.527L318.188 289.897L315.761 291.633L311.635 296.096L308.723 298.824L306.539 301.551L305.083 306.263L301.2 309.735L299.016 311.222L298.53 314.942H295.861L295.133 317.918L294.647 318.91V320.149L295.861 321.141V322.133L293.191 324.613L291.735 326.349V327.341L292.22 328.58L289.794 330.068L288.337 333.292L287.609 334.532V337.012L288.337 338.747L290.522 340.235L293.191 341.227L295.861 343.211L297.317 345.195L298.53 347.674V350.154V351.394V358.585L299.501 360.321V364.537V366.52V369Z" fill="#BDB2BB" stroke="black"/>
<path d="M426.426 33.4929L430.795 31.5091L432.494 30.0213V28.7814L428.853 28.0375L420.602 27.2936L419.631 28.7814L421.087 30.0213L423.029 32.749L424.242 33.4929H426.426Z" fill="#BDB2BB"/>
<path d="M428.853 16.8787C429.436 16.0852 430.067 14.7296 430.309 14.151L429.581 12.9111L426.912 10.4314H425.698L424.242 12.9111V15.1429L425.213 16.8787L426.912 17.8706H428.125L428.853 16.8787Z" fill="#BDB2BB"/>
<path d="M429.581 10.4314L433.222 13.6551L434.678 15.1429H437.347L437.833 14.151L437.347 10.4314L436.134 9.19155L434.678 8.44763H433.95L432.494 9.19155H430.309H428.853L429.581 10.4314Z" fill="#BDB2BB"/>
<path d="M409.924 38.9483H414.535V36.7165L409.924 35.4767H408.468V37.7084L409.924 38.9483Z" fill="#BDB2BB"/>
<path d="M421.087 44.1557L423.029 47.3794L425.213 48.1233H426.426V44.1557L425.213 41.428L421.573 41.924L421.087 44.1557Z" fill="#BDB2BB"/>
<path d="M430.795 37.7084L433.95 40.1881H435.163L434.678 37.2125L433.222 35.4767H431.523L430.795 37.7084Z" fill="#BDB2BB"/>
<path d="M426.426 33.4929L430.795 31.5091L432.494 30.0213V28.7814L428.853 28.0375L420.602 27.2936L419.631 28.7814L421.087 30.0213L423.029 32.749L424.242 33.4929H426.426Z" stroke="black"/>
<path d="M428.853 16.8787C429.436 16.0852 430.067 14.7296 430.309 14.151L429.581 12.9111L426.912 10.4314H425.698L424.242 12.9111V15.1429L425.213 16.8787L426.912 17.8706H428.125L428.853 16.8787Z" stroke="black"/>
<path d="M429.581 10.4314L433.222 13.6551L434.678 15.1429H437.347L437.833 14.151L437.347 10.4314L436.134 9.19155L434.678 8.44763H433.95L432.494 9.19155H430.309H428.853L429.581 10.4314Z" stroke="black"/>
<path d="M409.924 38.9483H414.535V36.7165L409.924 35.4767H408.468V37.7084L409.924 38.9483Z" stroke="black"/>
<path d="M421.087 44.1557L423.029 47.3794L425.213 48.1233H426.426V44.1557L425.213 41.428L421.573 41.924L421.087 44.1557Z" stroke="black"/>
<path d="M430.795 37.7084L433.95 40.1881H435.163L434.678 37.2125L433.222 35.4767H431.523L430.795 37.7084Z" stroke="black"/>
</svg>
